%TF.GenerationSoftware,KiCad,Pcbnew,(6.0.9)*%
%TF.CreationDate,2023-01-28T03:07:56-08:00*%
%TF.ProjectId,GrowLight,47726f77-4c69-4676-9874-2e6b69636164,rev?*%
%TF.SameCoordinates,Original*%
%TF.FileFunction,Legend,Top*%
%TF.FilePolarity,Positive*%
%FSLAX46Y46*%
G04 Gerber Fmt 4.6, Leading zero omitted, Abs format (unit mm)*
G04 Created by KiCad (PCBNEW (6.0.9)) date 2023-01-28 03:07:56*
%MOMM*%
%LPD*%
G01*
G04 APERTURE LIST*
%ADD10C,0.150000*%
%ADD11C,0.254000*%
%ADD12C,0.120000*%
%ADD13C,0.200000*%
G04 APERTURE END LIST*
D10*
X53776571Y-108164142D02*
X53824190Y-108021285D01*
X53871809Y-107973666D01*
X53967047Y-107926047D01*
X54109904Y-107926047D01*
X54205142Y-107973666D01*
X54252761Y-108021285D01*
X54300380Y-108116523D01*
X54300380Y-108497476D01*
X53300380Y-108497476D01*
X53300380Y-108164142D01*
X53348000Y-108068904D01*
X53395619Y-108021285D01*
X53490857Y-107973666D01*
X53586095Y-107973666D01*
X53681333Y-108021285D01*
X53728952Y-108068904D01*
X53776571Y-108164142D01*
X53776571Y-108497476D01*
X53300380Y-107307000D02*
X53300380Y-107116523D01*
X53348000Y-107021285D01*
X53443238Y-106926047D01*
X53633714Y-106878428D01*
X53967047Y-106878428D01*
X54157523Y-106926047D01*
X54252761Y-107021285D01*
X54300380Y-107116523D01*
X54300380Y-107307000D01*
X54252761Y-107402238D01*
X54157523Y-107497476D01*
X53967047Y-107545095D01*
X53633714Y-107545095D01*
X53443238Y-107497476D01*
X53348000Y-107402238D01*
X53300380Y-107307000D01*
X53300380Y-106259380D02*
X53300380Y-106068904D01*
X53348000Y-105973666D01*
X53443238Y-105878428D01*
X53633714Y-105830809D01*
X53967047Y-105830809D01*
X54157523Y-105878428D01*
X54252761Y-105973666D01*
X54300380Y-106068904D01*
X54300380Y-106259380D01*
X54252761Y-106354619D01*
X54157523Y-106449857D01*
X53967047Y-106497476D01*
X53633714Y-106497476D01*
X53443238Y-106449857D01*
X53348000Y-106354619D01*
X53300380Y-106259380D01*
X53300380Y-105545095D02*
X53300380Y-104973666D01*
X54300380Y-105259380D02*
X53300380Y-105259380D01*
X57094380Y-129087380D02*
X56618190Y-129420714D01*
X57094380Y-129658809D02*
X56094380Y-129658809D01*
X56094380Y-129277857D01*
X56142000Y-129182619D01*
X56189619Y-129135000D01*
X56284857Y-129087380D01*
X56427714Y-129087380D01*
X56522952Y-129135000D01*
X56570571Y-129182619D01*
X56618190Y-129277857D01*
X56618190Y-129658809D01*
X56570571Y-128658809D02*
X56570571Y-128325476D01*
X57094380Y-128182619D02*
X57094380Y-128658809D01*
X56094380Y-128658809D01*
X56094380Y-128182619D01*
X57046761Y-127801666D02*
X57094380Y-127658809D01*
X57094380Y-127420714D01*
X57046761Y-127325476D01*
X56999142Y-127277857D01*
X56903904Y-127230238D01*
X56808666Y-127230238D01*
X56713428Y-127277857D01*
X56665809Y-127325476D01*
X56618190Y-127420714D01*
X56570571Y-127611190D01*
X56522952Y-127706428D01*
X56475333Y-127754047D01*
X56380095Y-127801666D01*
X56284857Y-127801666D01*
X56189619Y-127754047D01*
X56142000Y-127706428D01*
X56094380Y-127611190D01*
X56094380Y-127373095D01*
X56142000Y-127230238D01*
X56570571Y-126801666D02*
X56570571Y-126468333D01*
X57094380Y-126325476D02*
X57094380Y-126801666D01*
X56094380Y-126801666D01*
X56094380Y-126325476D01*
X56094380Y-126039761D02*
X56094380Y-125468333D01*
X57094380Y-125754047D02*
X56094380Y-125754047D01*
%TO.C,FID3*%
X58618571Y-63079571D02*
X58285238Y-63079571D01*
X58285238Y-63603380D02*
X58285238Y-62603380D01*
X58761428Y-62603380D01*
X59142380Y-63603380D02*
X59142380Y-62603380D01*
X59618571Y-63603380D02*
X59618571Y-62603380D01*
X59856666Y-62603380D01*
X59999523Y-62651000D01*
X60094761Y-62746238D01*
X60142380Y-62841476D01*
X60190000Y-63031952D01*
X60190000Y-63174809D01*
X60142380Y-63365285D01*
X60094761Y-63460523D01*
X59999523Y-63555761D01*
X59856666Y-63603380D01*
X59618571Y-63603380D01*
X60523333Y-62603380D02*
X61142380Y-62603380D01*
X60809047Y-62984333D01*
X60951904Y-62984333D01*
X61047142Y-63031952D01*
X61094761Y-63079571D01*
X61142380Y-63174809D01*
X61142380Y-63412904D01*
X61094761Y-63508142D01*
X61047142Y-63555761D01*
X60951904Y-63603380D01*
X60666190Y-63603380D01*
X60570952Y-63555761D01*
X60523333Y-63508142D01*
%TO.C,FID2*%
X58618571Y-136739571D02*
X58285238Y-136739571D01*
X58285238Y-137263380D02*
X58285238Y-136263380D01*
X58761428Y-136263380D01*
X59142380Y-137263380D02*
X59142380Y-136263380D01*
X59618571Y-137263380D02*
X59618571Y-136263380D01*
X59856666Y-136263380D01*
X59999523Y-136311000D01*
X60094761Y-136406238D01*
X60142380Y-136501476D01*
X60190000Y-136691952D01*
X60190000Y-136834809D01*
X60142380Y-137025285D01*
X60094761Y-137120523D01*
X59999523Y-137215761D01*
X59856666Y-137263380D01*
X59618571Y-137263380D01*
X60570952Y-136358619D02*
X60618571Y-136311000D01*
X60713809Y-136263380D01*
X60951904Y-136263380D01*
X61047142Y-136311000D01*
X61094761Y-136358619D01*
X61142380Y-136453857D01*
X61142380Y-136549095D01*
X61094761Y-136691952D01*
X60523333Y-137263380D01*
X61142380Y-137263380D01*
%TO.C,FID1*%
X227528571Y-136739571D02*
X227195238Y-136739571D01*
X227195238Y-137263380D02*
X227195238Y-136263380D01*
X227671428Y-136263380D01*
X228052380Y-137263380D02*
X228052380Y-136263380D01*
X228528571Y-137263380D02*
X228528571Y-136263380D01*
X228766666Y-136263380D01*
X228909523Y-136311000D01*
X229004761Y-136406238D01*
X229052380Y-136501476D01*
X229100000Y-136691952D01*
X229100000Y-136834809D01*
X229052380Y-137025285D01*
X229004761Y-137120523D01*
X228909523Y-137215761D01*
X228766666Y-137263380D01*
X228528571Y-137263380D01*
X230052380Y-137263380D02*
X229480952Y-137263380D01*
X229766666Y-137263380D02*
X229766666Y-136263380D01*
X229671428Y-136406238D01*
X229576190Y-136501476D01*
X229480952Y-136549095D01*
%TO.C,H3*%
X224028095Y-62202380D02*
X224028095Y-61202380D01*
X224028095Y-61678571D02*
X224599523Y-61678571D01*
X224599523Y-62202380D02*
X224599523Y-61202380D01*
X224980476Y-61202380D02*
X225599523Y-61202380D01*
X225266190Y-61583333D01*
X225409047Y-61583333D01*
X225504285Y-61630952D01*
X225551904Y-61678571D01*
X225599523Y-61773809D01*
X225599523Y-62011904D01*
X225551904Y-62107142D01*
X225504285Y-62154761D01*
X225409047Y-62202380D01*
X225123333Y-62202380D01*
X225028095Y-62154761D01*
X224980476Y-62107142D01*
%TO.C,H2*%
X53238095Y-62202380D02*
X53238095Y-61202380D01*
X53238095Y-61678571D02*
X53809523Y-61678571D01*
X53809523Y-62202380D02*
X53809523Y-61202380D01*
X54238095Y-61297619D02*
X54285714Y-61250000D01*
X54380952Y-61202380D01*
X54619047Y-61202380D01*
X54714285Y-61250000D01*
X54761904Y-61297619D01*
X54809523Y-61392857D01*
X54809523Y-61488095D01*
X54761904Y-61630952D01*
X54190476Y-62202380D01*
X54809523Y-62202380D01*
%TO.C,H1*%
X50038095Y-141803380D02*
X50038095Y-140803380D01*
X50038095Y-141279571D02*
X50609523Y-141279571D01*
X50609523Y-141803380D02*
X50609523Y-140803380D01*
X51609523Y-141803380D02*
X51038095Y-141803380D01*
X51323809Y-141803380D02*
X51323809Y-140803380D01*
X51228571Y-140946238D01*
X51133333Y-141041476D01*
X51038095Y-141089095D01*
%TO.C,R48*%
X185309142Y-68482380D02*
X184975809Y-68006190D01*
X184737714Y-68482380D02*
X184737714Y-67482380D01*
X185118666Y-67482380D01*
X185213904Y-67530000D01*
X185261523Y-67577619D01*
X185309142Y-67672857D01*
X185309142Y-67815714D01*
X185261523Y-67910952D01*
X185213904Y-67958571D01*
X185118666Y-68006190D01*
X184737714Y-68006190D01*
X186166285Y-67815714D02*
X186166285Y-68482380D01*
X185928190Y-67434761D02*
X185690095Y-68149047D01*
X186309142Y-68149047D01*
X186832952Y-67910952D02*
X186737714Y-67863333D01*
X186690095Y-67815714D01*
X186642476Y-67720476D01*
X186642476Y-67672857D01*
X186690095Y-67577619D01*
X186737714Y-67530000D01*
X186832952Y-67482380D01*
X187023428Y-67482380D01*
X187118666Y-67530000D01*
X187166285Y-67577619D01*
X187213904Y-67672857D01*
X187213904Y-67720476D01*
X187166285Y-67815714D01*
X187118666Y-67863333D01*
X187023428Y-67910952D01*
X186832952Y-67910952D01*
X186737714Y-67958571D01*
X186690095Y-68006190D01*
X186642476Y-68101428D01*
X186642476Y-68291904D01*
X186690095Y-68387142D01*
X186737714Y-68434761D01*
X186832952Y-68482380D01*
X187023428Y-68482380D01*
X187118666Y-68434761D01*
X187166285Y-68387142D01*
X187213904Y-68291904D01*
X187213904Y-68101428D01*
X187166285Y-68006190D01*
X187118666Y-67958571D01*
X187023428Y-67910952D01*
%TO.C,R33*%
X185309142Y-79912380D02*
X184975809Y-79436190D01*
X184737714Y-79912380D02*
X184737714Y-78912380D01*
X185118666Y-78912380D01*
X185213904Y-78960000D01*
X185261523Y-79007619D01*
X185309142Y-79102857D01*
X185309142Y-79245714D01*
X185261523Y-79340952D01*
X185213904Y-79388571D01*
X185118666Y-79436190D01*
X184737714Y-79436190D01*
X185642476Y-78912380D02*
X186261523Y-78912380D01*
X185928190Y-79293333D01*
X186071047Y-79293333D01*
X186166285Y-79340952D01*
X186213904Y-79388571D01*
X186261523Y-79483809D01*
X186261523Y-79721904D01*
X186213904Y-79817142D01*
X186166285Y-79864761D01*
X186071047Y-79912380D01*
X185785333Y-79912380D01*
X185690095Y-79864761D01*
X185642476Y-79817142D01*
X186594857Y-78912380D02*
X187213904Y-78912380D01*
X186880571Y-79293333D01*
X187023428Y-79293333D01*
X187118666Y-79340952D01*
X187166285Y-79388571D01*
X187213904Y-79483809D01*
X187213904Y-79721904D01*
X187166285Y-79817142D01*
X187118666Y-79864761D01*
X187023428Y-79912380D01*
X186737714Y-79912380D01*
X186642476Y-79864761D01*
X186594857Y-79817142D01*
%TO.C,R28*%
X96639142Y-121822380D02*
X96305809Y-121346190D01*
X96067714Y-121822380D02*
X96067714Y-120822380D01*
X96448666Y-120822380D01*
X96543904Y-120870000D01*
X96591523Y-120917619D01*
X96639142Y-121012857D01*
X96639142Y-121155714D01*
X96591523Y-121250952D01*
X96543904Y-121298571D01*
X96448666Y-121346190D01*
X96067714Y-121346190D01*
X97020095Y-120917619D02*
X97067714Y-120870000D01*
X97162952Y-120822380D01*
X97401047Y-120822380D01*
X97496285Y-120870000D01*
X97543904Y-120917619D01*
X97591523Y-121012857D01*
X97591523Y-121108095D01*
X97543904Y-121250952D01*
X96972476Y-121822380D01*
X97591523Y-121822380D01*
X98162952Y-121250952D02*
X98067714Y-121203333D01*
X98020095Y-121155714D01*
X97972476Y-121060476D01*
X97972476Y-121012857D01*
X98020095Y-120917619D01*
X98067714Y-120870000D01*
X98162952Y-120822380D01*
X98353428Y-120822380D01*
X98448666Y-120870000D01*
X98496285Y-120917619D01*
X98543904Y-121012857D01*
X98543904Y-121060476D01*
X98496285Y-121155714D01*
X98448666Y-121203333D01*
X98353428Y-121250952D01*
X98162952Y-121250952D01*
X98067714Y-121298571D01*
X98020095Y-121346190D01*
X97972476Y-121441428D01*
X97972476Y-121631904D01*
X98020095Y-121727142D01*
X98067714Y-121774761D01*
X98162952Y-121822380D01*
X98353428Y-121822380D01*
X98448666Y-121774761D01*
X98496285Y-121727142D01*
X98543904Y-121631904D01*
X98543904Y-121441428D01*
X98496285Y-121346190D01*
X98448666Y-121298571D01*
X98353428Y-121250952D01*
%TO.C,R2*%
X56602333Y-108529380D02*
X56269000Y-108053190D01*
X56030904Y-108529380D02*
X56030904Y-107529380D01*
X56411857Y-107529380D01*
X56507095Y-107577000D01*
X56554714Y-107624619D01*
X56602333Y-107719857D01*
X56602333Y-107862714D01*
X56554714Y-107957952D01*
X56507095Y-108005571D01*
X56411857Y-108053190D01*
X56030904Y-108053190D01*
X56983285Y-107624619D02*
X57030904Y-107577000D01*
X57126142Y-107529380D01*
X57364238Y-107529380D01*
X57459476Y-107577000D01*
X57507095Y-107624619D01*
X57554714Y-107719857D01*
X57554714Y-107815095D01*
X57507095Y-107957952D01*
X56935666Y-108529380D01*
X57554714Y-108529380D01*
%TO.C,R6*%
X185815333Y-83722380D02*
X185482000Y-83246190D01*
X185243904Y-83722380D02*
X185243904Y-82722380D01*
X185624857Y-82722380D01*
X185720095Y-82770000D01*
X185767714Y-82817619D01*
X185815333Y-82912857D01*
X185815333Y-83055714D01*
X185767714Y-83150952D01*
X185720095Y-83198571D01*
X185624857Y-83246190D01*
X185243904Y-83246190D01*
X186672476Y-82722380D02*
X186482000Y-82722380D01*
X186386761Y-82770000D01*
X186339142Y-82817619D01*
X186243904Y-82960476D01*
X186196285Y-83150952D01*
X186196285Y-83531904D01*
X186243904Y-83627142D01*
X186291523Y-83674761D01*
X186386761Y-83722380D01*
X186577238Y-83722380D01*
X186672476Y-83674761D01*
X186720095Y-83627142D01*
X186767714Y-83531904D01*
X186767714Y-83293809D01*
X186720095Y-83198571D01*
X186672476Y-83150952D01*
X186577238Y-83103333D01*
X186386761Y-83103333D01*
X186291523Y-83150952D01*
X186243904Y-83198571D01*
X186196285Y-83293809D01*
%TO.C,R44*%
X96639142Y-72292380D02*
X96305809Y-71816190D01*
X96067714Y-72292380D02*
X96067714Y-71292380D01*
X96448666Y-71292380D01*
X96543904Y-71340000D01*
X96591523Y-71387619D01*
X96639142Y-71482857D01*
X96639142Y-71625714D01*
X96591523Y-71720952D01*
X96543904Y-71768571D01*
X96448666Y-71816190D01*
X96067714Y-71816190D01*
X97496285Y-71625714D02*
X97496285Y-72292380D01*
X97258190Y-71244761D02*
X97020095Y-71959047D01*
X97639142Y-71959047D01*
X98448666Y-71625714D02*
X98448666Y-72292380D01*
X98210571Y-71244761D02*
X97972476Y-71959047D01*
X98591523Y-71959047D01*
%TO.C,C1*%
X56602333Y-124762142D02*
X56554714Y-124809761D01*
X56411857Y-124857380D01*
X56316619Y-124857380D01*
X56173761Y-124809761D01*
X56078523Y-124714523D01*
X56030904Y-124619285D01*
X55983285Y-124428809D01*
X55983285Y-124285952D01*
X56030904Y-124095476D01*
X56078523Y-124000238D01*
X56173761Y-123905000D01*
X56316619Y-123857380D01*
X56411857Y-123857380D01*
X56554714Y-123905000D01*
X56602333Y-123952619D01*
X57554714Y-124857380D02*
X56983285Y-124857380D01*
X57269000Y-124857380D02*
X57269000Y-123857380D01*
X57173761Y-124000238D01*
X57078523Y-124095476D01*
X56983285Y-124143095D01*
%TO.C,J1*%
X47204380Y-89614333D02*
X47918666Y-89614333D01*
X48061523Y-89661952D01*
X48156761Y-89757190D01*
X48204380Y-89900047D01*
X48204380Y-89995285D01*
X48204380Y-88614333D02*
X48204380Y-89185761D01*
X48204380Y-88900047D02*
X47204380Y-88900047D01*
X47347238Y-88995285D01*
X47442476Y-89090523D01*
X47490095Y-89185761D01*
%TO.C,R8*%
X105775333Y-75932380D02*
X105442000Y-75456190D01*
X105203904Y-75932380D02*
X105203904Y-74932380D01*
X105584857Y-74932380D01*
X105680095Y-74980000D01*
X105727714Y-75027619D01*
X105775333Y-75122857D01*
X105775333Y-75265714D01*
X105727714Y-75360952D01*
X105680095Y-75408571D01*
X105584857Y-75456190D01*
X105203904Y-75456190D01*
X106346761Y-75360952D02*
X106251523Y-75313333D01*
X106203904Y-75265714D01*
X106156285Y-75170476D01*
X106156285Y-75122857D01*
X106203904Y-75027619D01*
X106251523Y-74980000D01*
X106346761Y-74932380D01*
X106537238Y-74932380D01*
X106632476Y-74980000D01*
X106680095Y-75027619D01*
X106727714Y-75122857D01*
X106727714Y-75170476D01*
X106680095Y-75265714D01*
X106632476Y-75313333D01*
X106537238Y-75360952D01*
X106346761Y-75360952D01*
X106251523Y-75408571D01*
X106203904Y-75456190D01*
X106156285Y-75551428D01*
X106156285Y-75741904D01*
X106203904Y-75837142D01*
X106251523Y-75884761D01*
X106346761Y-75932380D01*
X106537238Y-75932380D01*
X106632476Y-75884761D01*
X106680095Y-75837142D01*
X106727714Y-75741904D01*
X106727714Y-75551428D01*
X106680095Y-75456190D01*
X106632476Y-75408571D01*
X106537238Y-75360952D01*
%TO.C,R47*%
X105299142Y-91172380D02*
X104965809Y-90696190D01*
X104727714Y-91172380D02*
X104727714Y-90172380D01*
X105108666Y-90172380D01*
X105203904Y-90220000D01*
X105251523Y-90267619D01*
X105299142Y-90362857D01*
X105299142Y-90505714D01*
X105251523Y-90600952D01*
X105203904Y-90648571D01*
X105108666Y-90696190D01*
X104727714Y-90696190D01*
X106156285Y-90505714D02*
X106156285Y-91172380D01*
X105918190Y-90124761D02*
X105680095Y-90839047D01*
X106299142Y-90839047D01*
X106584857Y-90172380D02*
X107251523Y-90172380D01*
X106822952Y-91172380D01*
%TO.C,R11*%
X105299142Y-133082380D02*
X104965809Y-132606190D01*
X104727714Y-133082380D02*
X104727714Y-132082380D01*
X105108666Y-132082380D01*
X105203904Y-132130000D01*
X105251523Y-132177619D01*
X105299142Y-132272857D01*
X105299142Y-132415714D01*
X105251523Y-132510952D01*
X105203904Y-132558571D01*
X105108666Y-132606190D01*
X104727714Y-132606190D01*
X106251523Y-133082380D02*
X105680095Y-133082380D01*
X105965809Y-133082380D02*
X105965809Y-132082380D01*
X105870571Y-132225238D01*
X105775333Y-132320476D01*
X105680095Y-132368095D01*
X107203904Y-133082380D02*
X106632476Y-133082380D01*
X106918190Y-133082380D02*
X106918190Y-132082380D01*
X106822952Y-132225238D01*
X106727714Y-132320476D01*
X106632476Y-132368095D01*
%TO.C,C4*%
X43338142Y-126277666D02*
X43385761Y-126325285D01*
X43433380Y-126468142D01*
X43433380Y-126563380D01*
X43385761Y-126706238D01*
X43290523Y-126801476D01*
X43195285Y-126849095D01*
X43004809Y-126896714D01*
X42861952Y-126896714D01*
X42671476Y-126849095D01*
X42576238Y-126801476D01*
X42481000Y-126706238D01*
X42433380Y-126563380D01*
X42433380Y-126468142D01*
X42481000Y-126325285D01*
X42528619Y-126277666D01*
X42766714Y-125420523D02*
X43433380Y-125420523D01*
X42385761Y-125658619D02*
X43100047Y-125896714D01*
X43100047Y-125277666D01*
%TO.C,R18*%
X194199142Y-106412380D02*
X193865809Y-105936190D01*
X193627714Y-106412380D02*
X193627714Y-105412380D01*
X194008666Y-105412380D01*
X194103904Y-105460000D01*
X194151523Y-105507619D01*
X194199142Y-105602857D01*
X194199142Y-105745714D01*
X194151523Y-105840952D01*
X194103904Y-105888571D01*
X194008666Y-105936190D01*
X193627714Y-105936190D01*
X195151523Y-106412380D02*
X194580095Y-106412380D01*
X194865809Y-106412380D02*
X194865809Y-105412380D01*
X194770571Y-105555238D01*
X194675333Y-105650476D01*
X194580095Y-105698095D01*
X195722952Y-105840952D02*
X195627714Y-105793333D01*
X195580095Y-105745714D01*
X195532476Y-105650476D01*
X195532476Y-105602857D01*
X195580095Y-105507619D01*
X195627714Y-105460000D01*
X195722952Y-105412380D01*
X195913428Y-105412380D01*
X196008666Y-105460000D01*
X196056285Y-105507619D01*
X196103904Y-105602857D01*
X196103904Y-105650476D01*
X196056285Y-105745714D01*
X196008666Y-105793333D01*
X195913428Y-105840952D01*
X195722952Y-105840952D01*
X195627714Y-105888571D01*
X195580095Y-105936190D01*
X195532476Y-106031428D01*
X195532476Y-106221904D01*
X195580095Y-106317142D01*
X195627714Y-106364761D01*
X195722952Y-106412380D01*
X195913428Y-106412380D01*
X196008666Y-106364761D01*
X196056285Y-106317142D01*
X196103904Y-106221904D01*
X196103904Y-106031428D01*
X196056285Y-105936190D01*
X196008666Y-105888571D01*
X195913428Y-105840952D01*
%TO.C,R23*%
X105299142Y-102602380D02*
X104965809Y-102126190D01*
X104727714Y-102602380D02*
X104727714Y-101602380D01*
X105108666Y-101602380D01*
X105203904Y-101650000D01*
X105251523Y-101697619D01*
X105299142Y-101792857D01*
X105299142Y-101935714D01*
X105251523Y-102030952D01*
X105203904Y-102078571D01*
X105108666Y-102126190D01*
X104727714Y-102126190D01*
X105680095Y-101697619D02*
X105727714Y-101650000D01*
X105822952Y-101602380D01*
X106061047Y-101602380D01*
X106156285Y-101650000D01*
X106203904Y-101697619D01*
X106251523Y-101792857D01*
X106251523Y-101888095D01*
X106203904Y-102030952D01*
X105632476Y-102602380D01*
X106251523Y-102602380D01*
X106584857Y-101602380D02*
X107203904Y-101602380D01*
X106870571Y-101983333D01*
X107013428Y-101983333D01*
X107108666Y-102030952D01*
X107156285Y-102078571D01*
X107203904Y-102173809D01*
X107203904Y-102411904D01*
X107156285Y-102507142D01*
X107108666Y-102554761D01*
X107013428Y-102602380D01*
X106727714Y-102602380D01*
X106632476Y-102554761D01*
X106584857Y-102507142D01*
%TO.C,R27*%
X96625392Y-98962380D02*
X96292059Y-98486190D01*
X96053964Y-98962380D02*
X96053964Y-97962380D01*
X96434916Y-97962380D01*
X96530154Y-98010000D01*
X96577773Y-98057619D01*
X96625392Y-98152857D01*
X96625392Y-98295714D01*
X96577773Y-98390952D01*
X96530154Y-98438571D01*
X96434916Y-98486190D01*
X96053964Y-98486190D01*
X97006345Y-98057619D02*
X97053964Y-98010000D01*
X97149202Y-97962380D01*
X97387297Y-97962380D01*
X97482535Y-98010000D01*
X97530154Y-98057619D01*
X97577773Y-98152857D01*
X97577773Y-98248095D01*
X97530154Y-98390952D01*
X96958726Y-98962380D01*
X97577773Y-98962380D01*
X97911107Y-97962380D02*
X98577773Y-97962380D01*
X98149202Y-98962380D01*
%TO.C,R76*%
X105299142Y-114032380D02*
X104965809Y-113556190D01*
X104727714Y-114032380D02*
X104727714Y-113032380D01*
X105108666Y-113032380D01*
X105203904Y-113080000D01*
X105251523Y-113127619D01*
X105299142Y-113222857D01*
X105299142Y-113365714D01*
X105251523Y-113460952D01*
X105203904Y-113508571D01*
X105108666Y-113556190D01*
X104727714Y-113556190D01*
X105632476Y-113032380D02*
X106299142Y-113032380D01*
X105870571Y-114032380D01*
X107108666Y-113032380D02*
X106918190Y-113032380D01*
X106822952Y-113080000D01*
X106775333Y-113127619D01*
X106680095Y-113270476D01*
X106632476Y-113460952D01*
X106632476Y-113841904D01*
X106680095Y-113937142D01*
X106727714Y-113984761D01*
X106822952Y-114032380D01*
X107013428Y-114032380D01*
X107108666Y-113984761D01*
X107156285Y-113937142D01*
X107203904Y-113841904D01*
X107203904Y-113603809D01*
X107156285Y-113508571D01*
X107108666Y-113460952D01*
X107013428Y-113413333D01*
X106822952Y-113413333D01*
X106727714Y-113460952D01*
X106680095Y-113508571D01*
X106632476Y-113603809D01*
%TO.C,R55*%
X185309142Y-125632380D02*
X184975809Y-125156190D01*
X184737714Y-125632380D02*
X184737714Y-124632380D01*
X185118666Y-124632380D01*
X185213904Y-124680000D01*
X185261523Y-124727619D01*
X185309142Y-124822857D01*
X185309142Y-124965714D01*
X185261523Y-125060952D01*
X185213904Y-125108571D01*
X185118666Y-125156190D01*
X184737714Y-125156190D01*
X186213904Y-124632380D02*
X185737714Y-124632380D01*
X185690095Y-125108571D01*
X185737714Y-125060952D01*
X185832952Y-125013333D01*
X186071047Y-125013333D01*
X186166285Y-125060952D01*
X186213904Y-125108571D01*
X186261523Y-125203809D01*
X186261523Y-125441904D01*
X186213904Y-125537142D01*
X186166285Y-125584761D01*
X186071047Y-125632380D01*
X185832952Y-125632380D01*
X185737714Y-125584761D01*
X185690095Y-125537142D01*
X187166285Y-124632380D02*
X186690095Y-124632380D01*
X186642476Y-125108571D01*
X186690095Y-125060952D01*
X186785333Y-125013333D01*
X187023428Y-125013333D01*
X187118666Y-125060952D01*
X187166285Y-125108571D01*
X187213904Y-125203809D01*
X187213904Y-125441904D01*
X187166285Y-125537142D01*
X187118666Y-125584761D01*
X187023428Y-125632380D01*
X186785333Y-125632380D01*
X186690095Y-125584761D01*
X186642476Y-125537142D01*
%TO.C,U1*%
X35672380Y-117347904D02*
X36481904Y-117347904D01*
X36577142Y-117300285D01*
X36624761Y-117252666D01*
X36672380Y-117157428D01*
X36672380Y-116966952D01*
X36624761Y-116871714D01*
X36577142Y-116824095D01*
X36481904Y-116776476D01*
X35672380Y-116776476D01*
X36672380Y-115776476D02*
X36672380Y-116347904D01*
X36672380Y-116062190D02*
X35672380Y-116062190D01*
X35815238Y-116157428D01*
X35910476Y-116252666D01*
X35958095Y-116347904D01*
X40036666Y-121347904D02*
X40036666Y-120871714D01*
X40322380Y-121443142D02*
X39322380Y-121109809D01*
X40322380Y-120776476D01*
X39655714Y-120443142D02*
X40322380Y-120443142D01*
X39750952Y-120443142D02*
X39703333Y-120395523D01*
X39655714Y-120300285D01*
X39655714Y-120157428D01*
X39703333Y-120062190D01*
X39798571Y-120014571D01*
X40322380Y-120014571D01*
X39655714Y-119681238D02*
X39655714Y-119300285D01*
X39322380Y-119538380D02*
X40179523Y-119538380D01*
X40274761Y-119490761D01*
X40322380Y-119395523D01*
X40322380Y-119300285D01*
X40274761Y-118586000D02*
X40322380Y-118681238D01*
X40322380Y-118871714D01*
X40274761Y-118966952D01*
X40179523Y-119014571D01*
X39798571Y-119014571D01*
X39703333Y-118966952D01*
X39655714Y-118871714D01*
X39655714Y-118681238D01*
X39703333Y-118586000D01*
X39798571Y-118538380D01*
X39893809Y-118538380D01*
X39989047Y-119014571D01*
X39655714Y-118109809D02*
X40322380Y-118109809D01*
X39750952Y-118109809D02*
X39703333Y-118062190D01*
X39655714Y-117966952D01*
X39655714Y-117824095D01*
X39703333Y-117728857D01*
X39798571Y-117681238D01*
X40322380Y-117681238D01*
X39655714Y-117205047D02*
X40322380Y-117205047D01*
X39750952Y-117205047D02*
X39703333Y-117157428D01*
X39655714Y-117062190D01*
X39655714Y-116919333D01*
X39703333Y-116824095D01*
X39798571Y-116776476D01*
X40322380Y-116776476D01*
X40322380Y-115871714D02*
X39798571Y-115871714D01*
X39703333Y-115919333D01*
X39655714Y-116014571D01*
X39655714Y-116205047D01*
X39703333Y-116300285D01*
X40274761Y-115871714D02*
X40322380Y-115966952D01*
X40322380Y-116205047D01*
X40274761Y-116300285D01*
X40179523Y-116347904D01*
X40084285Y-116347904D01*
X39989047Y-116300285D01*
X39941428Y-116205047D01*
X39941428Y-115966952D01*
X39893809Y-115871714D01*
X40036666Y-114681238D02*
X40036666Y-114205047D01*
X40322380Y-114776476D02*
X39322380Y-114443142D01*
X40322380Y-114109809D01*
X40322380Y-113776476D02*
X39655714Y-113776476D01*
X39846190Y-113776476D02*
X39750952Y-113728857D01*
X39703333Y-113681238D01*
X39655714Y-113586000D01*
X39655714Y-113490761D01*
X40274761Y-112776476D02*
X40322380Y-112871714D01*
X40322380Y-113062190D01*
X40274761Y-113157428D01*
X40179523Y-113205047D01*
X39798571Y-113205047D01*
X39703333Y-113157428D01*
X39655714Y-113062190D01*
X39655714Y-112871714D01*
X39703333Y-112776476D01*
X39798571Y-112728857D01*
X39893809Y-112728857D01*
X39989047Y-113205047D01*
X40322380Y-111871714D02*
X39798571Y-111871714D01*
X39703333Y-111919333D01*
X39655714Y-112014571D01*
X39655714Y-112205047D01*
X39703333Y-112300285D01*
X40274761Y-111871714D02*
X40322380Y-111966952D01*
X40322380Y-112205047D01*
X40274761Y-112300285D01*
X40179523Y-112347904D01*
X40084285Y-112347904D01*
X39989047Y-112300285D01*
X39941428Y-112205047D01*
X39941428Y-111966952D01*
X39893809Y-111871714D01*
%TO.C,R38*%
X96639142Y-68482380D02*
X96305809Y-68006190D01*
X96067714Y-68482380D02*
X96067714Y-67482380D01*
X96448666Y-67482380D01*
X96543904Y-67530000D01*
X96591523Y-67577619D01*
X96639142Y-67672857D01*
X96639142Y-67815714D01*
X96591523Y-67910952D01*
X96543904Y-67958571D01*
X96448666Y-68006190D01*
X96067714Y-68006190D01*
X96972476Y-67482380D02*
X97591523Y-67482380D01*
X97258190Y-67863333D01*
X97401047Y-67863333D01*
X97496285Y-67910952D01*
X97543904Y-67958571D01*
X97591523Y-68053809D01*
X97591523Y-68291904D01*
X97543904Y-68387142D01*
X97496285Y-68434761D01*
X97401047Y-68482380D01*
X97115333Y-68482380D01*
X97020095Y-68434761D01*
X96972476Y-68387142D01*
X98162952Y-67910952D02*
X98067714Y-67863333D01*
X98020095Y-67815714D01*
X97972476Y-67720476D01*
X97972476Y-67672857D01*
X98020095Y-67577619D01*
X98067714Y-67530000D01*
X98162952Y-67482380D01*
X98353428Y-67482380D01*
X98448666Y-67530000D01*
X98496285Y-67577619D01*
X98543904Y-67672857D01*
X98543904Y-67720476D01*
X98496285Y-67815714D01*
X98448666Y-67863333D01*
X98353428Y-67910952D01*
X98162952Y-67910952D01*
X98067714Y-67958571D01*
X98020095Y-68006190D01*
X97972476Y-68101428D01*
X97972476Y-68291904D01*
X98020095Y-68387142D01*
X98067714Y-68434761D01*
X98162952Y-68482380D01*
X98353428Y-68482380D01*
X98448666Y-68434761D01*
X98496285Y-68387142D01*
X98543904Y-68291904D01*
X98543904Y-68101428D01*
X98496285Y-68006190D01*
X98448666Y-67958571D01*
X98353428Y-67910952D01*
%TO.C,R36*%
X185309142Y-72292380D02*
X184975809Y-71816190D01*
X184737714Y-72292380D02*
X184737714Y-71292380D01*
X185118666Y-71292380D01*
X185213904Y-71340000D01*
X185261523Y-71387619D01*
X185309142Y-71482857D01*
X185309142Y-71625714D01*
X185261523Y-71720952D01*
X185213904Y-71768571D01*
X185118666Y-71816190D01*
X184737714Y-71816190D01*
X185642476Y-71292380D02*
X186261523Y-71292380D01*
X185928190Y-71673333D01*
X186071047Y-71673333D01*
X186166285Y-71720952D01*
X186213904Y-71768571D01*
X186261523Y-71863809D01*
X186261523Y-72101904D01*
X186213904Y-72197142D01*
X186166285Y-72244761D01*
X186071047Y-72292380D01*
X185785333Y-72292380D01*
X185690095Y-72244761D01*
X185642476Y-72197142D01*
X187118666Y-71292380D02*
X186928190Y-71292380D01*
X186832952Y-71340000D01*
X186785333Y-71387619D01*
X186690095Y-71530476D01*
X186642476Y-71720952D01*
X186642476Y-72101904D01*
X186690095Y-72197142D01*
X186737714Y-72244761D01*
X186832952Y-72292380D01*
X187023428Y-72292380D01*
X187118666Y-72244761D01*
X187166285Y-72197142D01*
X187213904Y-72101904D01*
X187213904Y-71863809D01*
X187166285Y-71768571D01*
X187118666Y-71720952D01*
X187023428Y-71673333D01*
X186832952Y-71673333D01*
X186737714Y-71720952D01*
X186690095Y-71768571D01*
X186642476Y-71863809D01*
%TO.C,R19*%
X105299142Y-94982380D02*
X104965809Y-94506190D01*
X104727714Y-94982380D02*
X104727714Y-93982380D01*
X105108666Y-93982380D01*
X105203904Y-94030000D01*
X105251523Y-94077619D01*
X105299142Y-94172857D01*
X105299142Y-94315714D01*
X105251523Y-94410952D01*
X105203904Y-94458571D01*
X105108666Y-94506190D01*
X104727714Y-94506190D01*
X106251523Y-94982380D02*
X105680095Y-94982380D01*
X105965809Y-94982380D02*
X105965809Y-93982380D01*
X105870571Y-94125238D01*
X105775333Y-94220476D01*
X105680095Y-94268095D01*
X106727714Y-94982380D02*
X106918190Y-94982380D01*
X107013428Y-94934761D01*
X107061047Y-94887142D01*
X107156285Y-94744285D01*
X107203904Y-94553809D01*
X107203904Y-94172857D01*
X107156285Y-94077619D01*
X107108666Y-94030000D01*
X107013428Y-93982380D01*
X106822952Y-93982380D01*
X106727714Y-94030000D01*
X106680095Y-94077619D01*
X106632476Y-94172857D01*
X106632476Y-94410952D01*
X106680095Y-94506190D01*
X106727714Y-94553809D01*
X106822952Y-94601428D01*
X107013428Y-94601428D01*
X107108666Y-94553809D01*
X107156285Y-94506190D01*
X107203904Y-94410952D01*
%TO.C,R66*%
X185339142Y-98962380D02*
X185005809Y-98486190D01*
X184767714Y-98962380D02*
X184767714Y-97962380D01*
X185148666Y-97962380D01*
X185243904Y-98010000D01*
X185291523Y-98057619D01*
X185339142Y-98152857D01*
X185339142Y-98295714D01*
X185291523Y-98390952D01*
X185243904Y-98438571D01*
X185148666Y-98486190D01*
X184767714Y-98486190D01*
X186196285Y-97962380D02*
X186005809Y-97962380D01*
X185910571Y-98010000D01*
X185862952Y-98057619D01*
X185767714Y-98200476D01*
X185720095Y-98390952D01*
X185720095Y-98771904D01*
X185767714Y-98867142D01*
X185815333Y-98914761D01*
X185910571Y-98962380D01*
X186101047Y-98962380D01*
X186196285Y-98914761D01*
X186243904Y-98867142D01*
X186291523Y-98771904D01*
X186291523Y-98533809D01*
X186243904Y-98438571D01*
X186196285Y-98390952D01*
X186101047Y-98343333D01*
X185910571Y-98343333D01*
X185815333Y-98390952D01*
X185767714Y-98438571D01*
X185720095Y-98533809D01*
X187148666Y-97962380D02*
X186958190Y-97962380D01*
X186862952Y-98010000D01*
X186815333Y-98057619D01*
X186720095Y-98200476D01*
X186672476Y-98390952D01*
X186672476Y-98771904D01*
X186720095Y-98867142D01*
X186767714Y-98914761D01*
X186862952Y-98962380D01*
X187053428Y-98962380D01*
X187148666Y-98914761D01*
X187196285Y-98867142D01*
X187243904Y-98771904D01*
X187243904Y-98533809D01*
X187196285Y-98438571D01*
X187148666Y-98390952D01*
X187053428Y-98343333D01*
X186862952Y-98343333D01*
X186767714Y-98390952D01*
X186720095Y-98438571D01*
X186672476Y-98533809D01*
%TO.C,SW1*%
X48858761Y-107863333D02*
X48906380Y-107720476D01*
X48906380Y-107482380D01*
X48858761Y-107387142D01*
X48811142Y-107339523D01*
X48715904Y-107291904D01*
X48620666Y-107291904D01*
X48525428Y-107339523D01*
X48477809Y-107387142D01*
X48430190Y-107482380D01*
X48382571Y-107672857D01*
X48334952Y-107768095D01*
X48287333Y-107815714D01*
X48192095Y-107863333D01*
X48096857Y-107863333D01*
X48001619Y-107815714D01*
X47954000Y-107768095D01*
X47906380Y-107672857D01*
X47906380Y-107434761D01*
X47954000Y-107291904D01*
X47906380Y-106958571D02*
X48906380Y-106720476D01*
X48192095Y-106530000D01*
X48906380Y-106339523D01*
X47906380Y-106101428D01*
X48906380Y-105196666D02*
X48906380Y-105768095D01*
X48906380Y-105482380D02*
X47906380Y-105482380D01*
X48049238Y-105577619D01*
X48144476Y-105672857D01*
X48192095Y-105768095D01*
%TO.C,R73*%
X96639142Y-76102380D02*
X96305809Y-75626190D01*
X96067714Y-76102380D02*
X96067714Y-75102380D01*
X96448666Y-75102380D01*
X96543904Y-75150000D01*
X96591523Y-75197619D01*
X96639142Y-75292857D01*
X96639142Y-75435714D01*
X96591523Y-75530952D01*
X96543904Y-75578571D01*
X96448666Y-75626190D01*
X96067714Y-75626190D01*
X96972476Y-75102380D02*
X97639142Y-75102380D01*
X97210571Y-76102380D01*
X97924857Y-75102380D02*
X98543904Y-75102380D01*
X98210571Y-75483333D01*
X98353428Y-75483333D01*
X98448666Y-75530952D01*
X98496285Y-75578571D01*
X98543904Y-75673809D01*
X98543904Y-75911904D01*
X98496285Y-76007142D01*
X98448666Y-76054761D01*
X98353428Y-76102380D01*
X98067714Y-76102380D01*
X97972476Y-76054761D01*
X97924857Y-76007142D01*
D11*
%TO.C,IC1*%
X55946523Y-89250761D02*
X54676523Y-89250761D01*
X55825571Y-87920285D02*
X55886047Y-87980761D01*
X55946523Y-88162190D01*
X55946523Y-88283142D01*
X55886047Y-88464571D01*
X55765095Y-88585523D01*
X55644142Y-88646000D01*
X55402238Y-88706476D01*
X55220809Y-88706476D01*
X54978904Y-88646000D01*
X54857952Y-88585523D01*
X54737000Y-88464571D01*
X54676523Y-88283142D01*
X54676523Y-88162190D01*
X54737000Y-87980761D01*
X54797476Y-87920285D01*
X55946523Y-86710761D02*
X55946523Y-87436476D01*
X55946523Y-87073619D02*
X54676523Y-87073619D01*
X54857952Y-87194571D01*
X54978904Y-87315523D01*
X55039380Y-87436476D01*
D10*
%TO.C,R17*%
X194199142Y-72122380D02*
X193865809Y-71646190D01*
X193627714Y-72122380D02*
X193627714Y-71122380D01*
X194008666Y-71122380D01*
X194103904Y-71170000D01*
X194151523Y-71217619D01*
X194199142Y-71312857D01*
X194199142Y-71455714D01*
X194151523Y-71550952D01*
X194103904Y-71598571D01*
X194008666Y-71646190D01*
X193627714Y-71646190D01*
X195151523Y-72122380D02*
X194580095Y-72122380D01*
X194865809Y-72122380D02*
X194865809Y-71122380D01*
X194770571Y-71265238D01*
X194675333Y-71360476D01*
X194580095Y-71408095D01*
X195484857Y-71122380D02*
X196151523Y-71122380D01*
X195722952Y-72122380D01*
%TO.C,R12*%
X105299142Y-136892380D02*
X104965809Y-136416190D01*
X104727714Y-136892380D02*
X104727714Y-135892380D01*
X105108666Y-135892380D01*
X105203904Y-135940000D01*
X105251523Y-135987619D01*
X105299142Y-136082857D01*
X105299142Y-136225714D01*
X105251523Y-136320952D01*
X105203904Y-136368571D01*
X105108666Y-136416190D01*
X104727714Y-136416190D01*
X106251523Y-136892380D02*
X105680095Y-136892380D01*
X105965809Y-136892380D02*
X105965809Y-135892380D01*
X105870571Y-136035238D01*
X105775333Y-136130476D01*
X105680095Y-136178095D01*
X106632476Y-135987619D02*
X106680095Y-135940000D01*
X106775333Y-135892380D01*
X107013428Y-135892380D01*
X107108666Y-135940000D01*
X107156285Y-135987619D01*
X107203904Y-136082857D01*
X107203904Y-136178095D01*
X107156285Y-136320952D01*
X106584857Y-136892380D01*
X107203904Y-136892380D01*
%TO.C,R29*%
X194199142Y-117842380D02*
X193865809Y-117366190D01*
X193627714Y-117842380D02*
X193627714Y-116842380D01*
X194008666Y-116842380D01*
X194103904Y-116890000D01*
X194151523Y-116937619D01*
X194199142Y-117032857D01*
X194199142Y-117175714D01*
X194151523Y-117270952D01*
X194103904Y-117318571D01*
X194008666Y-117366190D01*
X193627714Y-117366190D01*
X194580095Y-116937619D02*
X194627714Y-116890000D01*
X194722952Y-116842380D01*
X194961047Y-116842380D01*
X195056285Y-116890000D01*
X195103904Y-116937619D01*
X195151523Y-117032857D01*
X195151523Y-117128095D01*
X195103904Y-117270952D01*
X194532476Y-117842380D01*
X195151523Y-117842380D01*
X195627714Y-117842380D02*
X195818190Y-117842380D01*
X195913428Y-117794761D01*
X195961047Y-117747142D01*
X196056285Y-117604285D01*
X196103904Y-117413809D01*
X196103904Y-117032857D01*
X196056285Y-116937619D01*
X196008666Y-116890000D01*
X195913428Y-116842380D01*
X195722952Y-116842380D01*
X195627714Y-116890000D01*
X195580095Y-116937619D01*
X195532476Y-117032857D01*
X195532476Y-117270952D01*
X195580095Y-117366190D01*
X195627714Y-117413809D01*
X195722952Y-117461428D01*
X195913428Y-117461428D01*
X196008666Y-117413809D01*
X196056285Y-117366190D01*
X196103904Y-117270952D01*
%TO.C,R40*%
X185309142Y-76102380D02*
X184975809Y-75626190D01*
X184737714Y-76102380D02*
X184737714Y-75102380D01*
X185118666Y-75102380D01*
X185213904Y-75150000D01*
X185261523Y-75197619D01*
X185309142Y-75292857D01*
X185309142Y-75435714D01*
X185261523Y-75530952D01*
X185213904Y-75578571D01*
X185118666Y-75626190D01*
X184737714Y-75626190D01*
X186166285Y-75435714D02*
X186166285Y-76102380D01*
X185928190Y-75054761D02*
X185690095Y-75769047D01*
X186309142Y-75769047D01*
X186880571Y-75102380D02*
X186975809Y-75102380D01*
X187071047Y-75150000D01*
X187118666Y-75197619D01*
X187166285Y-75292857D01*
X187213904Y-75483333D01*
X187213904Y-75721428D01*
X187166285Y-75911904D01*
X187118666Y-76007142D01*
X187071047Y-76054761D01*
X186975809Y-76102380D01*
X186880571Y-76102380D01*
X186785333Y-76054761D01*
X186737714Y-76007142D01*
X186690095Y-75911904D01*
X186642476Y-75721428D01*
X186642476Y-75483333D01*
X186690095Y-75292857D01*
X186737714Y-75197619D01*
X186785333Y-75150000D01*
X186880571Y-75102380D01*
%TO.C,R53*%
X185309142Y-91342380D02*
X184975809Y-90866190D01*
X184737714Y-91342380D02*
X184737714Y-90342380D01*
X185118666Y-90342380D01*
X185213904Y-90390000D01*
X185261523Y-90437619D01*
X185309142Y-90532857D01*
X185309142Y-90675714D01*
X185261523Y-90770952D01*
X185213904Y-90818571D01*
X185118666Y-90866190D01*
X184737714Y-90866190D01*
X186213904Y-90342380D02*
X185737714Y-90342380D01*
X185690095Y-90818571D01*
X185737714Y-90770952D01*
X185832952Y-90723333D01*
X186071047Y-90723333D01*
X186166285Y-90770952D01*
X186213904Y-90818571D01*
X186261523Y-90913809D01*
X186261523Y-91151904D01*
X186213904Y-91247142D01*
X186166285Y-91294761D01*
X186071047Y-91342380D01*
X185832952Y-91342380D01*
X185737714Y-91294761D01*
X185690095Y-91247142D01*
X186594857Y-90342380D02*
X187213904Y-90342380D01*
X186880571Y-90723333D01*
X187023428Y-90723333D01*
X187118666Y-90770952D01*
X187166285Y-90818571D01*
X187213904Y-90913809D01*
X187213904Y-91151904D01*
X187166285Y-91247142D01*
X187118666Y-91294761D01*
X187023428Y-91342380D01*
X186737714Y-91342380D01*
X186642476Y-91294761D01*
X186594857Y-91247142D01*
%TO.C,R65*%
X96639142Y-79912380D02*
X96305809Y-79436190D01*
X96067714Y-79912380D02*
X96067714Y-78912380D01*
X96448666Y-78912380D01*
X96543904Y-78960000D01*
X96591523Y-79007619D01*
X96639142Y-79102857D01*
X96639142Y-79245714D01*
X96591523Y-79340952D01*
X96543904Y-79388571D01*
X96448666Y-79436190D01*
X96067714Y-79436190D01*
X97496285Y-78912380D02*
X97305809Y-78912380D01*
X97210571Y-78960000D01*
X97162952Y-79007619D01*
X97067714Y-79150476D01*
X97020095Y-79340952D01*
X97020095Y-79721904D01*
X97067714Y-79817142D01*
X97115333Y-79864761D01*
X97210571Y-79912380D01*
X97401047Y-79912380D01*
X97496285Y-79864761D01*
X97543904Y-79817142D01*
X97591523Y-79721904D01*
X97591523Y-79483809D01*
X97543904Y-79388571D01*
X97496285Y-79340952D01*
X97401047Y-79293333D01*
X97210571Y-79293333D01*
X97115333Y-79340952D01*
X97067714Y-79388571D01*
X97020095Y-79483809D01*
X98496285Y-78912380D02*
X98020095Y-78912380D01*
X97972476Y-79388571D01*
X98020095Y-79340952D01*
X98115333Y-79293333D01*
X98353428Y-79293333D01*
X98448666Y-79340952D01*
X98496285Y-79388571D01*
X98543904Y-79483809D01*
X98543904Y-79721904D01*
X98496285Y-79817142D01*
X98448666Y-79864761D01*
X98353428Y-79912380D01*
X98115333Y-79912380D01*
X98020095Y-79864761D01*
X97972476Y-79817142D01*
%TO.C,R63*%
X185309142Y-106582380D02*
X184975809Y-106106190D01*
X184737714Y-106582380D02*
X184737714Y-105582380D01*
X185118666Y-105582380D01*
X185213904Y-105630000D01*
X185261523Y-105677619D01*
X185309142Y-105772857D01*
X185309142Y-105915714D01*
X185261523Y-106010952D01*
X185213904Y-106058571D01*
X185118666Y-106106190D01*
X184737714Y-106106190D01*
X186166285Y-105582380D02*
X185975809Y-105582380D01*
X185880571Y-105630000D01*
X185832952Y-105677619D01*
X185737714Y-105820476D01*
X185690095Y-106010952D01*
X185690095Y-106391904D01*
X185737714Y-106487142D01*
X185785333Y-106534761D01*
X185880571Y-106582380D01*
X186071047Y-106582380D01*
X186166285Y-106534761D01*
X186213904Y-106487142D01*
X186261523Y-106391904D01*
X186261523Y-106153809D01*
X186213904Y-106058571D01*
X186166285Y-106010952D01*
X186071047Y-105963333D01*
X185880571Y-105963333D01*
X185785333Y-106010952D01*
X185737714Y-106058571D01*
X185690095Y-106153809D01*
X186594857Y-105582380D02*
X187213904Y-105582380D01*
X186880571Y-105963333D01*
X187023428Y-105963333D01*
X187118666Y-106010952D01*
X187166285Y-106058571D01*
X187213904Y-106153809D01*
X187213904Y-106391904D01*
X187166285Y-106487142D01*
X187118666Y-106534761D01*
X187023428Y-106582380D01*
X186737714Y-106582380D01*
X186642476Y-106534761D01*
X186594857Y-106487142D01*
%TO.C,R71*%
X105299142Y-129272380D02*
X104965809Y-128796190D01*
X104727714Y-129272380D02*
X104727714Y-128272380D01*
X105108666Y-128272380D01*
X105203904Y-128320000D01*
X105251523Y-128367619D01*
X105299142Y-128462857D01*
X105299142Y-128605714D01*
X105251523Y-128700952D01*
X105203904Y-128748571D01*
X105108666Y-128796190D01*
X104727714Y-128796190D01*
X105632476Y-128272380D02*
X106299142Y-128272380D01*
X105870571Y-129272380D01*
X107203904Y-129272380D02*
X106632476Y-129272380D01*
X106918190Y-129272380D02*
X106918190Y-128272380D01*
X106822952Y-128415238D01*
X106727714Y-128510476D01*
X106632476Y-128558095D01*
%TO.C,R26*%
X193969142Y-83552380D02*
X193635809Y-83076190D01*
X193397714Y-83552380D02*
X193397714Y-82552380D01*
X193778666Y-82552380D01*
X193873904Y-82600000D01*
X193921523Y-82647619D01*
X193969142Y-82742857D01*
X193969142Y-82885714D01*
X193921523Y-82980952D01*
X193873904Y-83028571D01*
X193778666Y-83076190D01*
X193397714Y-83076190D01*
X194350095Y-82647619D02*
X194397714Y-82600000D01*
X194492952Y-82552380D01*
X194731047Y-82552380D01*
X194826285Y-82600000D01*
X194873904Y-82647619D01*
X194921523Y-82742857D01*
X194921523Y-82838095D01*
X194873904Y-82980952D01*
X194302476Y-83552380D01*
X194921523Y-83552380D01*
X195778666Y-82552380D02*
X195588190Y-82552380D01*
X195492952Y-82600000D01*
X195445333Y-82647619D01*
X195350095Y-82790476D01*
X195302476Y-82980952D01*
X195302476Y-83361904D01*
X195350095Y-83457142D01*
X195397714Y-83504761D01*
X195492952Y-83552380D01*
X195683428Y-83552380D01*
X195778666Y-83504761D01*
X195826285Y-83457142D01*
X195873904Y-83361904D01*
X195873904Y-83123809D01*
X195826285Y-83028571D01*
X195778666Y-82980952D01*
X195683428Y-82933333D01*
X195492952Y-82933333D01*
X195397714Y-82980952D01*
X195350095Y-83028571D01*
X195302476Y-83123809D01*
%TO.C,R67*%
X185309142Y-118012380D02*
X184975809Y-117536190D01*
X184737714Y-118012380D02*
X184737714Y-117012380D01*
X185118666Y-117012380D01*
X185213904Y-117060000D01*
X185261523Y-117107619D01*
X185309142Y-117202857D01*
X185309142Y-117345714D01*
X185261523Y-117440952D01*
X185213904Y-117488571D01*
X185118666Y-117536190D01*
X184737714Y-117536190D01*
X186166285Y-117012380D02*
X185975809Y-117012380D01*
X185880571Y-117060000D01*
X185832952Y-117107619D01*
X185737714Y-117250476D01*
X185690095Y-117440952D01*
X185690095Y-117821904D01*
X185737714Y-117917142D01*
X185785333Y-117964761D01*
X185880571Y-118012380D01*
X186071047Y-118012380D01*
X186166285Y-117964761D01*
X186213904Y-117917142D01*
X186261523Y-117821904D01*
X186261523Y-117583809D01*
X186213904Y-117488571D01*
X186166285Y-117440952D01*
X186071047Y-117393333D01*
X185880571Y-117393333D01*
X185785333Y-117440952D01*
X185737714Y-117488571D01*
X185690095Y-117583809D01*
X186594857Y-117012380D02*
X187261523Y-117012380D01*
X186832952Y-118012380D01*
%TO.C,R34*%
X195191142Y-87447380D02*
X194857809Y-86971190D01*
X194619714Y-87447380D02*
X194619714Y-86447380D01*
X195000666Y-86447380D01*
X195095904Y-86495000D01*
X195143523Y-86542619D01*
X195191142Y-86637857D01*
X195191142Y-86780714D01*
X195143523Y-86875952D01*
X195095904Y-86923571D01*
X195000666Y-86971190D01*
X194619714Y-86971190D01*
X195524476Y-86447380D02*
X196143523Y-86447380D01*
X195810190Y-86828333D01*
X195953047Y-86828333D01*
X196048285Y-86875952D01*
X196095904Y-86923571D01*
X196143523Y-87018809D01*
X196143523Y-87256904D01*
X196095904Y-87352142D01*
X196048285Y-87399761D01*
X195953047Y-87447380D01*
X195667333Y-87447380D01*
X195572095Y-87399761D01*
X195524476Y-87352142D01*
X197000666Y-86780714D02*
X197000666Y-87447380D01*
X196762571Y-86399761D02*
X196524476Y-87114047D01*
X197143523Y-87114047D01*
%TO.C,R45*%
X96639142Y-118012380D02*
X96305809Y-117536190D01*
X96067714Y-118012380D02*
X96067714Y-117012380D01*
X96448666Y-117012380D01*
X96543904Y-117060000D01*
X96591523Y-117107619D01*
X96639142Y-117202857D01*
X96639142Y-117345714D01*
X96591523Y-117440952D01*
X96543904Y-117488571D01*
X96448666Y-117536190D01*
X96067714Y-117536190D01*
X97496285Y-117345714D02*
X97496285Y-118012380D01*
X97258190Y-116964761D02*
X97020095Y-117679047D01*
X97639142Y-117679047D01*
X98496285Y-117012380D02*
X98020095Y-117012380D01*
X97972476Y-117488571D01*
X98020095Y-117440952D01*
X98115333Y-117393333D01*
X98353428Y-117393333D01*
X98448666Y-117440952D01*
X98496285Y-117488571D01*
X98543904Y-117583809D01*
X98543904Y-117821904D01*
X98496285Y-117917142D01*
X98448666Y-117964761D01*
X98353428Y-118012380D01*
X98115333Y-118012380D01*
X98020095Y-117964761D01*
X97972476Y-117917142D01*
%TO.C,R50*%
X194064142Y-129272380D02*
X193730809Y-128796190D01*
X193492714Y-129272380D02*
X193492714Y-128272380D01*
X193873666Y-128272380D01*
X193968904Y-128320000D01*
X194016523Y-128367619D01*
X194064142Y-128462857D01*
X194064142Y-128605714D01*
X194016523Y-128700952D01*
X193968904Y-128748571D01*
X193873666Y-128796190D01*
X193492714Y-128796190D01*
X194968904Y-128272380D02*
X194492714Y-128272380D01*
X194445095Y-128748571D01*
X194492714Y-128700952D01*
X194587952Y-128653333D01*
X194826047Y-128653333D01*
X194921285Y-128700952D01*
X194968904Y-128748571D01*
X195016523Y-128843809D01*
X195016523Y-129081904D01*
X194968904Y-129177142D01*
X194921285Y-129224761D01*
X194826047Y-129272380D01*
X194587952Y-129272380D01*
X194492714Y-129224761D01*
X194445095Y-129177142D01*
X195635571Y-128272380D02*
X195730809Y-128272380D01*
X195826047Y-128320000D01*
X195873666Y-128367619D01*
X195921285Y-128462857D01*
X195968904Y-128653333D01*
X195968904Y-128891428D01*
X195921285Y-129081904D01*
X195873666Y-129177142D01*
X195826047Y-129224761D01*
X195730809Y-129272380D01*
X195635571Y-129272380D01*
X195540333Y-129224761D01*
X195492714Y-129177142D01*
X195445095Y-129081904D01*
X195397476Y-128891428D01*
X195397476Y-128653333D01*
X195445095Y-128462857D01*
X195492714Y-128367619D01*
X195540333Y-128320000D01*
X195635571Y-128272380D01*
%TO.C,SW2*%
X55455761Y-128229333D02*
X55503380Y-128086476D01*
X55503380Y-127848380D01*
X55455761Y-127753142D01*
X55408142Y-127705523D01*
X55312904Y-127657904D01*
X55217666Y-127657904D01*
X55122428Y-127705523D01*
X55074809Y-127753142D01*
X55027190Y-127848380D01*
X54979571Y-128038857D01*
X54931952Y-128134095D01*
X54884333Y-128181714D01*
X54789095Y-128229333D01*
X54693857Y-128229333D01*
X54598619Y-128181714D01*
X54551000Y-128134095D01*
X54503380Y-128038857D01*
X54503380Y-127800761D01*
X54551000Y-127657904D01*
X54503380Y-127324571D02*
X55503380Y-127086476D01*
X54789095Y-126896000D01*
X55503380Y-126705523D01*
X54503380Y-126467428D01*
X54598619Y-126134095D02*
X54551000Y-126086476D01*
X54503380Y-125991238D01*
X54503380Y-125753142D01*
X54551000Y-125657904D01*
X54598619Y-125610285D01*
X54693857Y-125562666D01*
X54789095Y-125562666D01*
X54931952Y-125610285D01*
X55503380Y-126181714D01*
X55503380Y-125562666D01*
%TO.C,R49*%
X194937142Y-91257380D02*
X194603809Y-90781190D01*
X194365714Y-91257380D02*
X194365714Y-90257380D01*
X194746666Y-90257380D01*
X194841904Y-90305000D01*
X194889523Y-90352619D01*
X194937142Y-90447857D01*
X194937142Y-90590714D01*
X194889523Y-90685952D01*
X194841904Y-90733571D01*
X194746666Y-90781190D01*
X194365714Y-90781190D01*
X195794285Y-90590714D02*
X195794285Y-91257380D01*
X195556190Y-90209761D02*
X195318095Y-90924047D01*
X195937142Y-90924047D01*
X196365714Y-91257380D02*
X196556190Y-91257380D01*
X196651428Y-91209761D01*
X196699047Y-91162142D01*
X196794285Y-91019285D01*
X196841904Y-90828809D01*
X196841904Y-90447857D01*
X196794285Y-90352619D01*
X196746666Y-90305000D01*
X196651428Y-90257380D01*
X196460952Y-90257380D01*
X196365714Y-90305000D01*
X196318095Y-90352619D01*
X196270476Y-90447857D01*
X196270476Y-90685952D01*
X196318095Y-90781190D01*
X196365714Y-90828809D01*
X196460952Y-90876428D01*
X196651428Y-90876428D01*
X196746666Y-90828809D01*
X196794285Y-90781190D01*
X196841904Y-90685952D01*
%TO.C,R64*%
X185109142Y-102772380D02*
X184775809Y-102296190D01*
X184537714Y-102772380D02*
X184537714Y-101772380D01*
X184918666Y-101772380D01*
X185013904Y-101820000D01*
X185061523Y-101867619D01*
X185109142Y-101962857D01*
X185109142Y-102105714D01*
X185061523Y-102200952D01*
X185013904Y-102248571D01*
X184918666Y-102296190D01*
X184537714Y-102296190D01*
X185966285Y-101772380D02*
X185775809Y-101772380D01*
X185680571Y-101820000D01*
X185632952Y-101867619D01*
X185537714Y-102010476D01*
X185490095Y-102200952D01*
X185490095Y-102581904D01*
X185537714Y-102677142D01*
X185585333Y-102724761D01*
X185680571Y-102772380D01*
X185871047Y-102772380D01*
X185966285Y-102724761D01*
X186013904Y-102677142D01*
X186061523Y-102581904D01*
X186061523Y-102343809D01*
X186013904Y-102248571D01*
X185966285Y-102200952D01*
X185871047Y-102153333D01*
X185680571Y-102153333D01*
X185585333Y-102200952D01*
X185537714Y-102248571D01*
X185490095Y-102343809D01*
X186918666Y-102105714D02*
X186918666Y-102772380D01*
X186680571Y-101724761D02*
X186442476Y-102439047D01*
X187061523Y-102439047D01*
%TO.C,R52*%
X194199142Y-98792380D02*
X193865809Y-98316190D01*
X193627714Y-98792380D02*
X193627714Y-97792380D01*
X194008666Y-97792380D01*
X194103904Y-97840000D01*
X194151523Y-97887619D01*
X194199142Y-97982857D01*
X194199142Y-98125714D01*
X194151523Y-98220952D01*
X194103904Y-98268571D01*
X194008666Y-98316190D01*
X193627714Y-98316190D01*
X195103904Y-97792380D02*
X194627714Y-97792380D01*
X194580095Y-98268571D01*
X194627714Y-98220952D01*
X194722952Y-98173333D01*
X194961047Y-98173333D01*
X195056285Y-98220952D01*
X195103904Y-98268571D01*
X195151523Y-98363809D01*
X195151523Y-98601904D01*
X195103904Y-98697142D01*
X195056285Y-98744761D01*
X194961047Y-98792380D01*
X194722952Y-98792380D01*
X194627714Y-98744761D01*
X194580095Y-98697142D01*
X195532476Y-97887619D02*
X195580095Y-97840000D01*
X195675333Y-97792380D01*
X195913428Y-97792380D01*
X196008666Y-97840000D01*
X196056285Y-97887619D01*
X196103904Y-97982857D01*
X196103904Y-98078095D01*
X196056285Y-98220952D01*
X195484857Y-98792380D01*
X196103904Y-98792380D01*
%TO.C,U2*%
X59396380Y-121538904D02*
X60205904Y-121538904D01*
X60301142Y-121491285D01*
X60348761Y-121443666D01*
X60396380Y-121348428D01*
X60396380Y-121157952D01*
X60348761Y-121062714D01*
X60301142Y-121015095D01*
X60205904Y-120967476D01*
X59396380Y-120967476D01*
X59491619Y-120538904D02*
X59444000Y-120491285D01*
X59396380Y-120396047D01*
X59396380Y-120157952D01*
X59444000Y-120062714D01*
X59491619Y-120015095D01*
X59586857Y-119967476D01*
X59682095Y-119967476D01*
X59824952Y-120015095D01*
X60396380Y-120586523D01*
X60396380Y-119967476D01*
%TO.C,C2*%
X54697333Y-95171142D02*
X54649714Y-95218761D01*
X54506857Y-95266380D01*
X54411619Y-95266380D01*
X54268761Y-95218761D01*
X54173523Y-95123523D01*
X54125904Y-95028285D01*
X54078285Y-94837809D01*
X54078285Y-94694952D01*
X54125904Y-94504476D01*
X54173523Y-94409238D01*
X54268761Y-94314000D01*
X54411619Y-94266380D01*
X54506857Y-94266380D01*
X54649714Y-94314000D01*
X54697333Y-94361619D01*
X55078285Y-94361619D02*
X55125904Y-94314000D01*
X55221142Y-94266380D01*
X55459238Y-94266380D01*
X55554476Y-94314000D01*
X55602095Y-94361619D01*
X55649714Y-94456857D01*
X55649714Y-94552095D01*
X55602095Y-94694952D01*
X55030666Y-95266380D01*
X55649714Y-95266380D01*
%TO.C,R60*%
X185309142Y-87532380D02*
X184975809Y-87056190D01*
X184737714Y-87532380D02*
X184737714Y-86532380D01*
X185118666Y-86532380D01*
X185213904Y-86580000D01*
X185261523Y-86627619D01*
X185309142Y-86722857D01*
X185309142Y-86865714D01*
X185261523Y-86960952D01*
X185213904Y-87008571D01*
X185118666Y-87056190D01*
X184737714Y-87056190D01*
X186166285Y-86532380D02*
X185975809Y-86532380D01*
X185880571Y-86580000D01*
X185832952Y-86627619D01*
X185737714Y-86770476D01*
X185690095Y-86960952D01*
X185690095Y-87341904D01*
X185737714Y-87437142D01*
X185785333Y-87484761D01*
X185880571Y-87532380D01*
X186071047Y-87532380D01*
X186166285Y-87484761D01*
X186213904Y-87437142D01*
X186261523Y-87341904D01*
X186261523Y-87103809D01*
X186213904Y-87008571D01*
X186166285Y-86960952D01*
X186071047Y-86913333D01*
X185880571Y-86913333D01*
X185785333Y-86960952D01*
X185737714Y-87008571D01*
X185690095Y-87103809D01*
X186880571Y-86532380D02*
X186975809Y-86532380D01*
X187071047Y-86580000D01*
X187118666Y-86627619D01*
X187166285Y-86722857D01*
X187213904Y-86913333D01*
X187213904Y-87151428D01*
X187166285Y-87341904D01*
X187118666Y-87437142D01*
X187071047Y-87484761D01*
X186975809Y-87532380D01*
X186880571Y-87532380D01*
X186785333Y-87484761D01*
X186737714Y-87437142D01*
X186690095Y-87341904D01*
X186642476Y-87151428D01*
X186642476Y-86913333D01*
X186690095Y-86722857D01*
X186737714Y-86627619D01*
X186785333Y-86580000D01*
X186880571Y-86532380D01*
%TO.C,R22*%
X194166642Y-133137380D02*
X193833309Y-132661190D01*
X193595214Y-133137380D02*
X193595214Y-132137380D01*
X193976166Y-132137380D01*
X194071404Y-132185000D01*
X194119023Y-132232619D01*
X194166642Y-132327857D01*
X194166642Y-132470714D01*
X194119023Y-132565952D01*
X194071404Y-132613571D01*
X193976166Y-132661190D01*
X193595214Y-132661190D01*
X194547595Y-132232619D02*
X194595214Y-132185000D01*
X194690452Y-132137380D01*
X194928547Y-132137380D01*
X195023785Y-132185000D01*
X195071404Y-132232619D01*
X195119023Y-132327857D01*
X195119023Y-132423095D01*
X195071404Y-132565952D01*
X194499976Y-133137380D01*
X195119023Y-133137380D01*
X195499976Y-132232619D02*
X195547595Y-132185000D01*
X195642833Y-132137380D01*
X195880928Y-132137380D01*
X195976166Y-132185000D01*
X196023785Y-132232619D01*
X196071404Y-132327857D01*
X196071404Y-132423095D01*
X196023785Y-132565952D01*
X195452357Y-133137380D01*
X196071404Y-133137380D01*
%TO.C,R61*%
X185309142Y-129442380D02*
X184975809Y-128966190D01*
X184737714Y-129442380D02*
X184737714Y-128442380D01*
X185118666Y-128442380D01*
X185213904Y-128490000D01*
X185261523Y-128537619D01*
X185309142Y-128632857D01*
X185309142Y-128775714D01*
X185261523Y-128870952D01*
X185213904Y-128918571D01*
X185118666Y-128966190D01*
X184737714Y-128966190D01*
X186166285Y-128442380D02*
X185975809Y-128442380D01*
X185880571Y-128490000D01*
X185832952Y-128537619D01*
X185737714Y-128680476D01*
X185690095Y-128870952D01*
X185690095Y-129251904D01*
X185737714Y-129347142D01*
X185785333Y-129394761D01*
X185880571Y-129442380D01*
X186071047Y-129442380D01*
X186166285Y-129394761D01*
X186213904Y-129347142D01*
X186261523Y-129251904D01*
X186261523Y-129013809D01*
X186213904Y-128918571D01*
X186166285Y-128870952D01*
X186071047Y-128823333D01*
X185880571Y-128823333D01*
X185785333Y-128870952D01*
X185737714Y-128918571D01*
X185690095Y-129013809D01*
X187213904Y-129442380D02*
X186642476Y-129442380D01*
X186928190Y-129442380D02*
X186928190Y-128442380D01*
X186832952Y-128585238D01*
X186737714Y-128680476D01*
X186642476Y-128728095D01*
%TO.C,R72*%
X185309142Y-95152380D02*
X184975809Y-94676190D01*
X184737714Y-95152380D02*
X184737714Y-94152380D01*
X185118666Y-94152380D01*
X185213904Y-94200000D01*
X185261523Y-94247619D01*
X185309142Y-94342857D01*
X185309142Y-94485714D01*
X185261523Y-94580952D01*
X185213904Y-94628571D01*
X185118666Y-94676190D01*
X184737714Y-94676190D01*
X185642476Y-94152380D02*
X186309142Y-94152380D01*
X185880571Y-95152380D01*
X186642476Y-94247619D02*
X186690095Y-94200000D01*
X186785333Y-94152380D01*
X187023428Y-94152380D01*
X187118666Y-94200000D01*
X187166285Y-94247619D01*
X187213904Y-94342857D01*
X187213904Y-94438095D01*
X187166285Y-94580952D01*
X186594857Y-95152380D01*
X187213904Y-95152380D01*
%TO.C,R30*%
X194199142Y-75932380D02*
X193865809Y-75456190D01*
X193627714Y-75932380D02*
X193627714Y-74932380D01*
X194008666Y-74932380D01*
X194103904Y-74980000D01*
X194151523Y-75027619D01*
X194199142Y-75122857D01*
X194199142Y-75265714D01*
X194151523Y-75360952D01*
X194103904Y-75408571D01*
X194008666Y-75456190D01*
X193627714Y-75456190D01*
X194532476Y-74932380D02*
X195151523Y-74932380D01*
X194818190Y-75313333D01*
X194961047Y-75313333D01*
X195056285Y-75360952D01*
X195103904Y-75408571D01*
X195151523Y-75503809D01*
X195151523Y-75741904D01*
X195103904Y-75837142D01*
X195056285Y-75884761D01*
X194961047Y-75932380D01*
X194675333Y-75932380D01*
X194580095Y-75884761D01*
X194532476Y-75837142D01*
X195770571Y-74932380D02*
X195865809Y-74932380D01*
X195961047Y-74980000D01*
X196008666Y-75027619D01*
X196056285Y-75122857D01*
X196103904Y-75313333D01*
X196103904Y-75551428D01*
X196056285Y-75741904D01*
X196008666Y-75837142D01*
X195961047Y-75884761D01*
X195865809Y-75932380D01*
X195770571Y-75932380D01*
X195675333Y-75884761D01*
X195627714Y-75837142D01*
X195580095Y-75741904D01*
X195532476Y-75551428D01*
X195532476Y-75313333D01*
X195580095Y-75122857D01*
X195627714Y-75027619D01*
X195675333Y-74980000D01*
X195770571Y-74932380D01*
%TO.C,R59*%
X185309142Y-121822380D02*
X184975809Y-121346190D01*
X184737714Y-121822380D02*
X184737714Y-120822380D01*
X185118666Y-120822380D01*
X185213904Y-120870000D01*
X185261523Y-120917619D01*
X185309142Y-121012857D01*
X185309142Y-121155714D01*
X185261523Y-121250952D01*
X185213904Y-121298571D01*
X185118666Y-121346190D01*
X184737714Y-121346190D01*
X186213904Y-120822380D02*
X185737714Y-120822380D01*
X185690095Y-121298571D01*
X185737714Y-121250952D01*
X185832952Y-121203333D01*
X186071047Y-121203333D01*
X186166285Y-121250952D01*
X186213904Y-121298571D01*
X186261523Y-121393809D01*
X186261523Y-121631904D01*
X186213904Y-121727142D01*
X186166285Y-121774761D01*
X186071047Y-121822380D01*
X185832952Y-121822380D01*
X185737714Y-121774761D01*
X185690095Y-121727142D01*
X186737714Y-121822380D02*
X186928190Y-121822380D01*
X187023428Y-121774761D01*
X187071047Y-121727142D01*
X187166285Y-121584285D01*
X187213904Y-121393809D01*
X187213904Y-121012857D01*
X187166285Y-120917619D01*
X187118666Y-120870000D01*
X187023428Y-120822380D01*
X186832952Y-120822380D01*
X186737714Y-120870000D01*
X186690095Y-120917619D01*
X186642476Y-121012857D01*
X186642476Y-121250952D01*
X186690095Y-121346190D01*
X186737714Y-121393809D01*
X186832952Y-121441428D01*
X187023428Y-121441428D01*
X187118666Y-121393809D01*
X187166285Y-121346190D01*
X187213904Y-121250952D01*
%TO.C,C3*%
X60301142Y-112815666D02*
X60348761Y-112863285D01*
X60396380Y-113006142D01*
X60396380Y-113101380D01*
X60348761Y-113244238D01*
X60253523Y-113339476D01*
X60158285Y-113387095D01*
X59967809Y-113434714D01*
X59824952Y-113434714D01*
X59634476Y-113387095D01*
X59539238Y-113339476D01*
X59444000Y-113244238D01*
X59396380Y-113101380D01*
X59396380Y-113006142D01*
X59444000Y-112863285D01*
X59491619Y-112815666D01*
X59396380Y-112482333D02*
X59396380Y-111863285D01*
X59777333Y-112196619D01*
X59777333Y-112053761D01*
X59824952Y-111958523D01*
X59872571Y-111910904D01*
X59967809Y-111863285D01*
X60205904Y-111863285D01*
X60301142Y-111910904D01*
X60348761Y-111958523D01*
X60396380Y-112053761D01*
X60396380Y-112339476D01*
X60348761Y-112434714D01*
X60301142Y-112482333D01*
%TO.C,R46*%
X105299142Y-72122380D02*
X104965809Y-71646190D01*
X104727714Y-72122380D02*
X104727714Y-71122380D01*
X105108666Y-71122380D01*
X105203904Y-71170000D01*
X105251523Y-71217619D01*
X105299142Y-71312857D01*
X105299142Y-71455714D01*
X105251523Y-71550952D01*
X105203904Y-71598571D01*
X105108666Y-71646190D01*
X104727714Y-71646190D01*
X106156285Y-71455714D02*
X106156285Y-72122380D01*
X105918190Y-71074761D02*
X105680095Y-71789047D01*
X106299142Y-71789047D01*
X107108666Y-71122380D02*
X106918190Y-71122380D01*
X106822952Y-71170000D01*
X106775333Y-71217619D01*
X106680095Y-71360476D01*
X106632476Y-71550952D01*
X106632476Y-71931904D01*
X106680095Y-72027142D01*
X106727714Y-72074761D01*
X106822952Y-72122380D01*
X107013428Y-72122380D01*
X107108666Y-72074761D01*
X107156285Y-72027142D01*
X107203904Y-71931904D01*
X107203904Y-71693809D01*
X107156285Y-71598571D01*
X107108666Y-71550952D01*
X107013428Y-71503333D01*
X106822952Y-71503333D01*
X106727714Y-71550952D01*
X106680095Y-71598571D01*
X106632476Y-71693809D01*
%TO.C,R41*%
X105299142Y-83552380D02*
X104965809Y-83076190D01*
X104727714Y-83552380D02*
X104727714Y-82552380D01*
X105108666Y-82552380D01*
X105203904Y-82600000D01*
X105251523Y-82647619D01*
X105299142Y-82742857D01*
X105299142Y-82885714D01*
X105251523Y-82980952D01*
X105203904Y-83028571D01*
X105108666Y-83076190D01*
X104727714Y-83076190D01*
X106156285Y-82885714D02*
X106156285Y-83552380D01*
X105918190Y-82504761D02*
X105680095Y-83219047D01*
X106299142Y-83219047D01*
X107203904Y-83552380D02*
X106632476Y-83552380D01*
X106918190Y-83552380D02*
X106918190Y-82552380D01*
X106822952Y-82695238D01*
X106727714Y-82790476D01*
X106632476Y-82838095D01*
%TO.C,R57*%
X96639142Y-87532380D02*
X96305809Y-87056190D01*
X96067714Y-87532380D02*
X96067714Y-86532380D01*
X96448666Y-86532380D01*
X96543904Y-86580000D01*
X96591523Y-86627619D01*
X96639142Y-86722857D01*
X96639142Y-86865714D01*
X96591523Y-86960952D01*
X96543904Y-87008571D01*
X96448666Y-87056190D01*
X96067714Y-87056190D01*
X97543904Y-86532380D02*
X97067714Y-86532380D01*
X97020095Y-87008571D01*
X97067714Y-86960952D01*
X97162952Y-86913333D01*
X97401047Y-86913333D01*
X97496285Y-86960952D01*
X97543904Y-87008571D01*
X97591523Y-87103809D01*
X97591523Y-87341904D01*
X97543904Y-87437142D01*
X97496285Y-87484761D01*
X97401047Y-87532380D01*
X97162952Y-87532380D01*
X97067714Y-87484761D01*
X97020095Y-87437142D01*
X97924857Y-86532380D02*
X98591523Y-86532380D01*
X98162952Y-87532380D01*
%TO.C,R1*%
X97115333Y-102772380D02*
X96782000Y-102296190D01*
X96543904Y-102772380D02*
X96543904Y-101772380D01*
X96924857Y-101772380D01*
X97020095Y-101820000D01*
X97067714Y-101867619D01*
X97115333Y-101962857D01*
X97115333Y-102105714D01*
X97067714Y-102200952D01*
X97020095Y-102248571D01*
X96924857Y-102296190D01*
X96543904Y-102296190D01*
X98067714Y-102772380D02*
X97496285Y-102772380D01*
X97782000Y-102772380D02*
X97782000Y-101772380D01*
X97686761Y-101915238D01*
X97591523Y-102010476D01*
X97496285Y-102058095D01*
%TO.C,R39*%
X194199142Y-121652380D02*
X193865809Y-121176190D01*
X193627714Y-121652380D02*
X193627714Y-120652380D01*
X194008666Y-120652380D01*
X194103904Y-120700000D01*
X194151523Y-120747619D01*
X194199142Y-120842857D01*
X194199142Y-120985714D01*
X194151523Y-121080952D01*
X194103904Y-121128571D01*
X194008666Y-121176190D01*
X193627714Y-121176190D01*
X194532476Y-120652380D02*
X195151523Y-120652380D01*
X194818190Y-121033333D01*
X194961047Y-121033333D01*
X195056285Y-121080952D01*
X195103904Y-121128571D01*
X195151523Y-121223809D01*
X195151523Y-121461904D01*
X195103904Y-121557142D01*
X195056285Y-121604761D01*
X194961047Y-121652380D01*
X194675333Y-121652380D01*
X194580095Y-121604761D01*
X194532476Y-121557142D01*
X195627714Y-121652380D02*
X195818190Y-121652380D01*
X195913428Y-121604761D01*
X195961047Y-121557142D01*
X196056285Y-121414285D01*
X196103904Y-121223809D01*
X196103904Y-120842857D01*
X196056285Y-120747619D01*
X196008666Y-120700000D01*
X195913428Y-120652380D01*
X195722952Y-120652380D01*
X195627714Y-120700000D01*
X195580095Y-120747619D01*
X195532476Y-120842857D01*
X195532476Y-121080952D01*
X195580095Y-121176190D01*
X195627714Y-121223809D01*
X195722952Y-121271428D01*
X195913428Y-121271428D01*
X196008666Y-121223809D01*
X196056285Y-121176190D01*
X196103904Y-121080952D01*
%TO.C,R42*%
X96639142Y-133252380D02*
X96305809Y-132776190D01*
X96067714Y-133252380D02*
X96067714Y-132252380D01*
X96448666Y-132252380D01*
X96543904Y-132300000D01*
X96591523Y-132347619D01*
X96639142Y-132442857D01*
X96639142Y-132585714D01*
X96591523Y-132680952D01*
X96543904Y-132728571D01*
X96448666Y-132776190D01*
X96067714Y-132776190D01*
X97496285Y-132585714D02*
X97496285Y-133252380D01*
X97258190Y-132204761D02*
X97020095Y-132919047D01*
X97639142Y-132919047D01*
X97972476Y-132347619D02*
X98020095Y-132300000D01*
X98115333Y-132252380D01*
X98353428Y-132252380D01*
X98448666Y-132300000D01*
X98496285Y-132347619D01*
X98543904Y-132442857D01*
X98543904Y-132538095D01*
X98496285Y-132680952D01*
X97924857Y-133252380D01*
X98543904Y-133252380D01*
%TO.C,R68*%
X105299142Y-117842380D02*
X104965809Y-117366190D01*
X104727714Y-117842380D02*
X104727714Y-116842380D01*
X105108666Y-116842380D01*
X105203904Y-116890000D01*
X105251523Y-116937619D01*
X105299142Y-117032857D01*
X105299142Y-117175714D01*
X105251523Y-117270952D01*
X105203904Y-117318571D01*
X105108666Y-117366190D01*
X104727714Y-117366190D01*
X106156285Y-116842380D02*
X105965809Y-116842380D01*
X105870571Y-116890000D01*
X105822952Y-116937619D01*
X105727714Y-117080476D01*
X105680095Y-117270952D01*
X105680095Y-117651904D01*
X105727714Y-117747142D01*
X105775333Y-117794761D01*
X105870571Y-117842380D01*
X106061047Y-117842380D01*
X106156285Y-117794761D01*
X106203904Y-117747142D01*
X106251523Y-117651904D01*
X106251523Y-117413809D01*
X106203904Y-117318571D01*
X106156285Y-117270952D01*
X106061047Y-117223333D01*
X105870571Y-117223333D01*
X105775333Y-117270952D01*
X105727714Y-117318571D01*
X105680095Y-117413809D01*
X106822952Y-117270952D02*
X106727714Y-117223333D01*
X106680095Y-117175714D01*
X106632476Y-117080476D01*
X106632476Y-117032857D01*
X106680095Y-116937619D01*
X106727714Y-116890000D01*
X106822952Y-116842380D01*
X107013428Y-116842380D01*
X107108666Y-116890000D01*
X107156285Y-116937619D01*
X107203904Y-117032857D01*
X107203904Y-117080476D01*
X107156285Y-117175714D01*
X107108666Y-117223333D01*
X107013428Y-117270952D01*
X106822952Y-117270952D01*
X106727714Y-117318571D01*
X106680095Y-117366190D01*
X106632476Y-117461428D01*
X106632476Y-117651904D01*
X106680095Y-117747142D01*
X106727714Y-117794761D01*
X106822952Y-117842380D01*
X107013428Y-117842380D01*
X107108666Y-117794761D01*
X107156285Y-117747142D01*
X107203904Y-117651904D01*
X107203904Y-117461428D01*
X107156285Y-117366190D01*
X107108666Y-117318571D01*
X107013428Y-117270952D01*
%TO.C,R70*%
X185309142Y-133252380D02*
X184975809Y-132776190D01*
X184737714Y-133252380D02*
X184737714Y-132252380D01*
X185118666Y-132252380D01*
X185213904Y-132300000D01*
X185261523Y-132347619D01*
X185309142Y-132442857D01*
X185309142Y-132585714D01*
X185261523Y-132680952D01*
X185213904Y-132728571D01*
X185118666Y-132776190D01*
X184737714Y-132776190D01*
X185642476Y-132252380D02*
X186309142Y-132252380D01*
X185880571Y-133252380D01*
X186880571Y-132252380D02*
X186975809Y-132252380D01*
X187071047Y-132300000D01*
X187118666Y-132347619D01*
X187166285Y-132442857D01*
X187213904Y-132633333D01*
X187213904Y-132871428D01*
X187166285Y-133061904D01*
X187118666Y-133157142D01*
X187071047Y-133204761D01*
X186975809Y-133252380D01*
X186880571Y-133252380D01*
X186785333Y-133204761D01*
X186737714Y-133157142D01*
X186690095Y-133061904D01*
X186642476Y-132871428D01*
X186642476Y-132633333D01*
X186690095Y-132442857D01*
X186737714Y-132347619D01*
X186785333Y-132300000D01*
X186880571Y-132252380D01*
%TO.C,R43*%
X96639142Y-95152380D02*
X96305809Y-94676190D01*
X96067714Y-95152380D02*
X96067714Y-94152380D01*
X96448666Y-94152380D01*
X96543904Y-94200000D01*
X96591523Y-94247619D01*
X96639142Y-94342857D01*
X96639142Y-94485714D01*
X96591523Y-94580952D01*
X96543904Y-94628571D01*
X96448666Y-94676190D01*
X96067714Y-94676190D01*
X97496285Y-94485714D02*
X97496285Y-95152380D01*
X97258190Y-94104761D02*
X97020095Y-94819047D01*
X97639142Y-94819047D01*
X97924857Y-94152380D02*
X98543904Y-94152380D01*
X98210571Y-94533333D01*
X98353428Y-94533333D01*
X98448666Y-94580952D01*
X98496285Y-94628571D01*
X98543904Y-94723809D01*
X98543904Y-94961904D01*
X98496285Y-95057142D01*
X98448666Y-95104761D01*
X98353428Y-95152380D01*
X98067714Y-95152380D01*
X97972476Y-95104761D01*
X97924857Y-95057142D01*
%TO.C,Q1*%
X49827619Y-75855238D02*
X49780000Y-75950476D01*
X49684761Y-76045714D01*
X49541904Y-76188571D01*
X49494285Y-76283809D01*
X49494285Y-76379047D01*
X49732380Y-76331428D02*
X49684761Y-76426666D01*
X49589523Y-76521904D01*
X49399047Y-76569523D01*
X49065714Y-76569523D01*
X48875238Y-76521904D01*
X48780000Y-76426666D01*
X48732380Y-76331428D01*
X48732380Y-76140952D01*
X48780000Y-76045714D01*
X48875238Y-75950476D01*
X49065714Y-75902857D01*
X49399047Y-75902857D01*
X49589523Y-75950476D01*
X49684761Y-76045714D01*
X49732380Y-76140952D01*
X49732380Y-76331428D01*
X49732380Y-74950476D02*
X49732380Y-75521904D01*
X49732380Y-75236190D02*
X48732380Y-75236190D01*
X48875238Y-75331428D01*
X48970476Y-75426666D01*
X49018095Y-75521904D01*
%TO.C,R24*%
X96639142Y-129442380D02*
X96305809Y-128966190D01*
X96067714Y-129442380D02*
X96067714Y-128442380D01*
X96448666Y-128442380D01*
X96543904Y-128490000D01*
X96591523Y-128537619D01*
X96639142Y-128632857D01*
X96639142Y-128775714D01*
X96591523Y-128870952D01*
X96543904Y-128918571D01*
X96448666Y-128966190D01*
X96067714Y-128966190D01*
X97020095Y-128537619D02*
X97067714Y-128490000D01*
X97162952Y-128442380D01*
X97401047Y-128442380D01*
X97496285Y-128490000D01*
X97543904Y-128537619D01*
X97591523Y-128632857D01*
X97591523Y-128728095D01*
X97543904Y-128870952D01*
X96972476Y-129442380D01*
X97591523Y-129442380D01*
X98448666Y-128775714D02*
X98448666Y-129442380D01*
X98210571Y-128394761D02*
X97972476Y-129109047D01*
X98591523Y-129109047D01*
%TO.C,R35*%
X194199142Y-94982380D02*
X193865809Y-94506190D01*
X193627714Y-94982380D02*
X193627714Y-93982380D01*
X194008666Y-93982380D01*
X194103904Y-94030000D01*
X194151523Y-94077619D01*
X194199142Y-94172857D01*
X194199142Y-94315714D01*
X194151523Y-94410952D01*
X194103904Y-94458571D01*
X194008666Y-94506190D01*
X193627714Y-94506190D01*
X194532476Y-93982380D02*
X195151523Y-93982380D01*
X194818190Y-94363333D01*
X194961047Y-94363333D01*
X195056285Y-94410952D01*
X195103904Y-94458571D01*
X195151523Y-94553809D01*
X195151523Y-94791904D01*
X195103904Y-94887142D01*
X195056285Y-94934761D01*
X194961047Y-94982380D01*
X194675333Y-94982380D01*
X194580095Y-94934761D01*
X194532476Y-94887142D01*
X196056285Y-93982380D02*
X195580095Y-93982380D01*
X195532476Y-94458571D01*
X195580095Y-94410952D01*
X195675333Y-94363333D01*
X195913428Y-94363333D01*
X196008666Y-94410952D01*
X196056285Y-94458571D01*
X196103904Y-94553809D01*
X196103904Y-94791904D01*
X196056285Y-94887142D01*
X196008666Y-94934761D01*
X195913428Y-94982380D01*
X195675333Y-94982380D01*
X195580095Y-94934761D01*
X195532476Y-94887142D01*
%TO.C,R5*%
X46569333Y-129865380D02*
X46236000Y-129389190D01*
X45997904Y-129865380D02*
X45997904Y-128865380D01*
X46378857Y-128865380D01*
X46474095Y-128913000D01*
X46521714Y-128960619D01*
X46569333Y-129055857D01*
X46569333Y-129198714D01*
X46521714Y-129293952D01*
X46474095Y-129341571D01*
X46378857Y-129389190D01*
X45997904Y-129389190D01*
X47474095Y-128865380D02*
X46997904Y-128865380D01*
X46950285Y-129341571D01*
X46997904Y-129293952D01*
X47093142Y-129246333D01*
X47331238Y-129246333D01*
X47426476Y-129293952D01*
X47474095Y-129341571D01*
X47521714Y-129436809D01*
X47521714Y-129674904D01*
X47474095Y-129770142D01*
X47426476Y-129817761D01*
X47331238Y-129865380D01*
X47093142Y-129865380D01*
X46997904Y-129817761D01*
X46950285Y-129770142D01*
%TO.C,R13*%
X105299142Y-87362380D02*
X104965809Y-86886190D01*
X104727714Y-87362380D02*
X104727714Y-86362380D01*
X105108666Y-86362380D01*
X105203904Y-86410000D01*
X105251523Y-86457619D01*
X105299142Y-86552857D01*
X105299142Y-86695714D01*
X105251523Y-86790952D01*
X105203904Y-86838571D01*
X105108666Y-86886190D01*
X104727714Y-86886190D01*
X106251523Y-87362380D02*
X105680095Y-87362380D01*
X105965809Y-87362380D02*
X105965809Y-86362380D01*
X105870571Y-86505238D01*
X105775333Y-86600476D01*
X105680095Y-86648095D01*
X106584857Y-86362380D02*
X107203904Y-86362380D01*
X106870571Y-86743333D01*
X107013428Y-86743333D01*
X107108666Y-86790952D01*
X107156285Y-86838571D01*
X107203904Y-86933809D01*
X107203904Y-87171904D01*
X107156285Y-87267142D01*
X107108666Y-87314761D01*
X107013428Y-87362380D01*
X106727714Y-87362380D01*
X106632476Y-87314761D01*
X106584857Y-87267142D01*
%TO.C,R21*%
X105299142Y-98792380D02*
X104965809Y-98316190D01*
X104727714Y-98792380D02*
X104727714Y-97792380D01*
X105108666Y-97792380D01*
X105203904Y-97840000D01*
X105251523Y-97887619D01*
X105299142Y-97982857D01*
X105299142Y-98125714D01*
X105251523Y-98220952D01*
X105203904Y-98268571D01*
X105108666Y-98316190D01*
X104727714Y-98316190D01*
X105680095Y-97887619D02*
X105727714Y-97840000D01*
X105822952Y-97792380D01*
X106061047Y-97792380D01*
X106156285Y-97840000D01*
X106203904Y-97887619D01*
X106251523Y-97982857D01*
X106251523Y-98078095D01*
X106203904Y-98220952D01*
X105632476Y-98792380D01*
X106251523Y-98792380D01*
X107203904Y-98792380D02*
X106632476Y-98792380D01*
X106918190Y-98792380D02*
X106918190Y-97792380D01*
X106822952Y-97935238D01*
X106727714Y-98030476D01*
X106632476Y-98078095D01*
%TO.C,R75*%
X105299142Y-110222380D02*
X104965809Y-109746190D01*
X104727714Y-110222380D02*
X104727714Y-109222380D01*
X105108666Y-109222380D01*
X105203904Y-109270000D01*
X105251523Y-109317619D01*
X105299142Y-109412857D01*
X105299142Y-109555714D01*
X105251523Y-109650952D01*
X105203904Y-109698571D01*
X105108666Y-109746190D01*
X104727714Y-109746190D01*
X105632476Y-109222380D02*
X106299142Y-109222380D01*
X105870571Y-110222380D01*
X107156285Y-109222380D02*
X106680095Y-109222380D01*
X106632476Y-109698571D01*
X106680095Y-109650952D01*
X106775333Y-109603333D01*
X107013428Y-109603333D01*
X107108666Y-109650952D01*
X107156285Y-109698571D01*
X107203904Y-109793809D01*
X107203904Y-110031904D01*
X107156285Y-110127142D01*
X107108666Y-110174761D01*
X107013428Y-110222380D01*
X106775333Y-110222380D01*
X106680095Y-110174761D01*
X106632476Y-110127142D01*
%TO.C,R15*%
X194199142Y-110222380D02*
X193865809Y-109746190D01*
X193627714Y-110222380D02*
X193627714Y-109222380D01*
X194008666Y-109222380D01*
X194103904Y-109270000D01*
X194151523Y-109317619D01*
X194199142Y-109412857D01*
X194199142Y-109555714D01*
X194151523Y-109650952D01*
X194103904Y-109698571D01*
X194008666Y-109746190D01*
X193627714Y-109746190D01*
X195151523Y-110222380D02*
X194580095Y-110222380D01*
X194865809Y-110222380D02*
X194865809Y-109222380D01*
X194770571Y-109365238D01*
X194675333Y-109460476D01*
X194580095Y-109508095D01*
X196056285Y-109222380D02*
X195580095Y-109222380D01*
X195532476Y-109698571D01*
X195580095Y-109650952D01*
X195675333Y-109603333D01*
X195913428Y-109603333D01*
X196008666Y-109650952D01*
X196056285Y-109698571D01*
X196103904Y-109793809D01*
X196103904Y-110031904D01*
X196056285Y-110127142D01*
X196008666Y-110174761D01*
X195913428Y-110222380D01*
X195675333Y-110222380D01*
X195580095Y-110174761D01*
X195532476Y-110127142D01*
%TO.C,R31*%
X96639142Y-110392380D02*
X96305809Y-109916190D01*
X96067714Y-110392380D02*
X96067714Y-109392380D01*
X96448666Y-109392380D01*
X96543904Y-109440000D01*
X96591523Y-109487619D01*
X96639142Y-109582857D01*
X96639142Y-109725714D01*
X96591523Y-109820952D01*
X96543904Y-109868571D01*
X96448666Y-109916190D01*
X96067714Y-109916190D01*
X96972476Y-109392380D02*
X97591523Y-109392380D01*
X97258190Y-109773333D01*
X97401047Y-109773333D01*
X97496285Y-109820952D01*
X97543904Y-109868571D01*
X97591523Y-109963809D01*
X97591523Y-110201904D01*
X97543904Y-110297142D01*
X97496285Y-110344761D01*
X97401047Y-110392380D01*
X97115333Y-110392380D01*
X97020095Y-110344761D01*
X96972476Y-110297142D01*
X98543904Y-110392380D02*
X97972476Y-110392380D01*
X98258190Y-110392380D02*
X98258190Y-109392380D01*
X98162952Y-109535238D01*
X98067714Y-109630476D01*
X97972476Y-109678095D01*
%TO.C,R32*%
X96639142Y-125632380D02*
X96305809Y-125156190D01*
X96067714Y-125632380D02*
X96067714Y-124632380D01*
X96448666Y-124632380D01*
X96543904Y-124680000D01*
X96591523Y-124727619D01*
X96639142Y-124822857D01*
X96639142Y-124965714D01*
X96591523Y-125060952D01*
X96543904Y-125108571D01*
X96448666Y-125156190D01*
X96067714Y-125156190D01*
X96972476Y-124632380D02*
X97591523Y-124632380D01*
X97258190Y-125013333D01*
X97401047Y-125013333D01*
X97496285Y-125060952D01*
X97543904Y-125108571D01*
X97591523Y-125203809D01*
X97591523Y-125441904D01*
X97543904Y-125537142D01*
X97496285Y-125584761D01*
X97401047Y-125632380D01*
X97115333Y-125632380D01*
X97020095Y-125584761D01*
X96972476Y-125537142D01*
X97972476Y-124727619D02*
X98020095Y-124680000D01*
X98115333Y-124632380D01*
X98353428Y-124632380D01*
X98448666Y-124680000D01*
X98496285Y-124727619D01*
X98543904Y-124822857D01*
X98543904Y-124918095D01*
X98496285Y-125060952D01*
X97924857Y-125632380D01*
X98543904Y-125632380D01*
%TO.C,R10*%
X194199142Y-136892380D02*
X193865809Y-136416190D01*
X193627714Y-136892380D02*
X193627714Y-135892380D01*
X194008666Y-135892380D01*
X194103904Y-135940000D01*
X194151523Y-135987619D01*
X194199142Y-136082857D01*
X194199142Y-136225714D01*
X194151523Y-136320952D01*
X194103904Y-136368571D01*
X194008666Y-136416190D01*
X193627714Y-136416190D01*
X195151523Y-136892380D02*
X194580095Y-136892380D01*
X194865809Y-136892380D02*
X194865809Y-135892380D01*
X194770571Y-136035238D01*
X194675333Y-136130476D01*
X194580095Y-136178095D01*
X195770571Y-135892380D02*
X195865809Y-135892380D01*
X195961047Y-135940000D01*
X196008666Y-135987619D01*
X196056285Y-136082857D01*
X196103904Y-136273333D01*
X196103904Y-136511428D01*
X196056285Y-136701904D01*
X196008666Y-136797142D01*
X195961047Y-136844761D01*
X195865809Y-136892380D01*
X195770571Y-136892380D01*
X195675333Y-136844761D01*
X195627714Y-136797142D01*
X195580095Y-136701904D01*
X195532476Y-136511428D01*
X195532476Y-136273333D01*
X195580095Y-136082857D01*
X195627714Y-135987619D01*
X195675333Y-135940000D01*
X195770571Y-135892380D01*
%TO.C,R51*%
X96644142Y-106582380D02*
X96310809Y-106106190D01*
X96072714Y-106582380D02*
X96072714Y-105582380D01*
X96453666Y-105582380D01*
X96548904Y-105630000D01*
X96596523Y-105677619D01*
X96644142Y-105772857D01*
X96644142Y-105915714D01*
X96596523Y-106010952D01*
X96548904Y-106058571D01*
X96453666Y-106106190D01*
X96072714Y-106106190D01*
X97548904Y-105582380D02*
X97072714Y-105582380D01*
X97025095Y-106058571D01*
X97072714Y-106010952D01*
X97167952Y-105963333D01*
X97406047Y-105963333D01*
X97501285Y-106010952D01*
X97548904Y-106058571D01*
X97596523Y-106153809D01*
X97596523Y-106391904D01*
X97548904Y-106487142D01*
X97501285Y-106534761D01*
X97406047Y-106582380D01*
X97167952Y-106582380D01*
X97072714Y-106534761D01*
X97025095Y-106487142D01*
X98548904Y-106582380D02*
X97977476Y-106582380D01*
X98263190Y-106582380D02*
X98263190Y-105582380D01*
X98167952Y-105725238D01*
X98072714Y-105820476D01*
X97977476Y-105868095D01*
%TO.C,R25*%
X194199142Y-79742380D02*
X193865809Y-79266190D01*
X193627714Y-79742380D02*
X193627714Y-78742380D01*
X194008666Y-78742380D01*
X194103904Y-78790000D01*
X194151523Y-78837619D01*
X194199142Y-78932857D01*
X194199142Y-79075714D01*
X194151523Y-79170952D01*
X194103904Y-79218571D01*
X194008666Y-79266190D01*
X193627714Y-79266190D01*
X194580095Y-78837619D02*
X194627714Y-78790000D01*
X194722952Y-78742380D01*
X194961047Y-78742380D01*
X195056285Y-78790000D01*
X195103904Y-78837619D01*
X195151523Y-78932857D01*
X195151523Y-79028095D01*
X195103904Y-79170952D01*
X194532476Y-79742380D01*
X195151523Y-79742380D01*
X196056285Y-78742380D02*
X195580095Y-78742380D01*
X195532476Y-79218571D01*
X195580095Y-79170952D01*
X195675333Y-79123333D01*
X195913428Y-79123333D01*
X196008666Y-79170952D01*
X196056285Y-79218571D01*
X196103904Y-79313809D01*
X196103904Y-79551904D01*
X196056285Y-79647142D01*
X196008666Y-79694761D01*
X195913428Y-79742380D01*
X195675333Y-79742380D01*
X195580095Y-79694761D01*
X195532476Y-79647142D01*
%TO.C,R9*%
X97115333Y-91342380D02*
X96782000Y-90866190D01*
X96543904Y-91342380D02*
X96543904Y-90342380D01*
X96924857Y-90342380D01*
X97020095Y-90390000D01*
X97067714Y-90437619D01*
X97115333Y-90532857D01*
X97115333Y-90675714D01*
X97067714Y-90770952D01*
X97020095Y-90818571D01*
X96924857Y-90866190D01*
X96543904Y-90866190D01*
X97591523Y-91342380D02*
X97782000Y-91342380D01*
X97877238Y-91294761D01*
X97924857Y-91247142D01*
X98020095Y-91104285D01*
X98067714Y-90913809D01*
X98067714Y-90532857D01*
X98020095Y-90437619D01*
X97972476Y-90390000D01*
X97877238Y-90342380D01*
X97686761Y-90342380D01*
X97591523Y-90390000D01*
X97543904Y-90437619D01*
X97496285Y-90532857D01*
X97496285Y-90770952D01*
X97543904Y-90866190D01*
X97591523Y-90913809D01*
X97686761Y-90961428D01*
X97877238Y-90961428D01*
X97972476Y-90913809D01*
X98020095Y-90866190D01*
X98067714Y-90770952D01*
%TO.C,RV1*%
X47810761Y-144247380D02*
X47477428Y-143771190D01*
X47239333Y-144247380D02*
X47239333Y-143247380D01*
X47620285Y-143247380D01*
X47715523Y-143295000D01*
X47763142Y-143342619D01*
X47810761Y-143437857D01*
X47810761Y-143580714D01*
X47763142Y-143675952D01*
X47715523Y-143723571D01*
X47620285Y-143771190D01*
X47239333Y-143771190D01*
X48096476Y-143247380D02*
X48429809Y-144247380D01*
X48763142Y-143247380D01*
X49620285Y-144247380D02*
X49048857Y-144247380D01*
X49334571Y-144247380D02*
X49334571Y-143247380D01*
X49239333Y-143390238D01*
X49144095Y-143485476D01*
X49048857Y-143533095D01*
%TO.C,R37*%
X194199142Y-114032380D02*
X193865809Y-113556190D01*
X193627714Y-114032380D02*
X193627714Y-113032380D01*
X194008666Y-113032380D01*
X194103904Y-113080000D01*
X194151523Y-113127619D01*
X194199142Y-113222857D01*
X194199142Y-113365714D01*
X194151523Y-113460952D01*
X194103904Y-113508571D01*
X194008666Y-113556190D01*
X193627714Y-113556190D01*
X194532476Y-113032380D02*
X195151523Y-113032380D01*
X194818190Y-113413333D01*
X194961047Y-113413333D01*
X195056285Y-113460952D01*
X195103904Y-113508571D01*
X195151523Y-113603809D01*
X195151523Y-113841904D01*
X195103904Y-113937142D01*
X195056285Y-113984761D01*
X194961047Y-114032380D01*
X194675333Y-114032380D01*
X194580095Y-113984761D01*
X194532476Y-113937142D01*
X195484857Y-113032380D02*
X196151523Y-113032380D01*
X195722952Y-114032380D01*
%TO.C,R14*%
X194199142Y-125462380D02*
X193865809Y-124986190D01*
X193627714Y-125462380D02*
X193627714Y-124462380D01*
X194008666Y-124462380D01*
X194103904Y-124510000D01*
X194151523Y-124557619D01*
X194199142Y-124652857D01*
X194199142Y-124795714D01*
X194151523Y-124890952D01*
X194103904Y-124938571D01*
X194008666Y-124986190D01*
X193627714Y-124986190D01*
X195151523Y-125462380D02*
X194580095Y-125462380D01*
X194865809Y-125462380D02*
X194865809Y-124462380D01*
X194770571Y-124605238D01*
X194675333Y-124700476D01*
X194580095Y-124748095D01*
X196008666Y-124795714D02*
X196008666Y-125462380D01*
X195770571Y-124414761D02*
X195532476Y-125129047D01*
X196151523Y-125129047D01*
%TO.C,R54*%
X105299142Y-125462380D02*
X104965809Y-124986190D01*
X104727714Y-125462380D02*
X104727714Y-124462380D01*
X105108666Y-124462380D01*
X105203904Y-124510000D01*
X105251523Y-124557619D01*
X105299142Y-124652857D01*
X105299142Y-124795714D01*
X105251523Y-124890952D01*
X105203904Y-124938571D01*
X105108666Y-124986190D01*
X104727714Y-124986190D01*
X106203904Y-124462380D02*
X105727714Y-124462380D01*
X105680095Y-124938571D01*
X105727714Y-124890952D01*
X105822952Y-124843333D01*
X106061047Y-124843333D01*
X106156285Y-124890952D01*
X106203904Y-124938571D01*
X106251523Y-125033809D01*
X106251523Y-125271904D01*
X106203904Y-125367142D01*
X106156285Y-125414761D01*
X106061047Y-125462380D01*
X105822952Y-125462380D01*
X105727714Y-125414761D01*
X105680095Y-125367142D01*
X107108666Y-124795714D02*
X107108666Y-125462380D01*
X106870571Y-124414761D02*
X106632476Y-125129047D01*
X107251523Y-125129047D01*
%TO.C,R62*%
X105299142Y-121652380D02*
X104965809Y-121176190D01*
X104727714Y-121652380D02*
X104727714Y-120652380D01*
X105108666Y-120652380D01*
X105203904Y-120700000D01*
X105251523Y-120747619D01*
X105299142Y-120842857D01*
X105299142Y-120985714D01*
X105251523Y-121080952D01*
X105203904Y-121128571D01*
X105108666Y-121176190D01*
X104727714Y-121176190D01*
X106156285Y-120652380D02*
X105965809Y-120652380D01*
X105870571Y-120700000D01*
X105822952Y-120747619D01*
X105727714Y-120890476D01*
X105680095Y-121080952D01*
X105680095Y-121461904D01*
X105727714Y-121557142D01*
X105775333Y-121604761D01*
X105870571Y-121652380D01*
X106061047Y-121652380D01*
X106156285Y-121604761D01*
X106203904Y-121557142D01*
X106251523Y-121461904D01*
X106251523Y-121223809D01*
X106203904Y-121128571D01*
X106156285Y-121080952D01*
X106061047Y-121033333D01*
X105870571Y-121033333D01*
X105775333Y-121080952D01*
X105727714Y-121128571D01*
X105680095Y-121223809D01*
X106632476Y-120747619D02*
X106680095Y-120700000D01*
X106775333Y-120652380D01*
X107013428Y-120652380D01*
X107108666Y-120700000D01*
X107156285Y-120747619D01*
X107203904Y-120842857D01*
X107203904Y-120938095D01*
X107156285Y-121080952D01*
X106584857Y-121652380D01*
X107203904Y-121652380D01*
%TO.C,R7*%
X97115333Y-114202380D02*
X96782000Y-113726190D01*
X96543904Y-114202380D02*
X96543904Y-113202380D01*
X96924857Y-113202380D01*
X97020095Y-113250000D01*
X97067714Y-113297619D01*
X97115333Y-113392857D01*
X97115333Y-113535714D01*
X97067714Y-113630952D01*
X97020095Y-113678571D01*
X96924857Y-113726190D01*
X96543904Y-113726190D01*
X97448666Y-113202380D02*
X98115333Y-113202380D01*
X97686761Y-114202380D01*
%TO.C,R74*%
X185309142Y-110392380D02*
X184975809Y-109916190D01*
X184737714Y-110392380D02*
X184737714Y-109392380D01*
X185118666Y-109392380D01*
X185213904Y-109440000D01*
X185261523Y-109487619D01*
X185309142Y-109582857D01*
X185309142Y-109725714D01*
X185261523Y-109820952D01*
X185213904Y-109868571D01*
X185118666Y-109916190D01*
X184737714Y-109916190D01*
X185642476Y-109392380D02*
X186309142Y-109392380D01*
X185880571Y-110392380D01*
X187118666Y-109725714D02*
X187118666Y-110392380D01*
X186880571Y-109344761D02*
X186642476Y-110059047D01*
X187261523Y-110059047D01*
%TO.C,R4*%
X60396380Y-115355666D02*
X59920190Y-115689000D01*
X60396380Y-115927095D02*
X59396380Y-115927095D01*
X59396380Y-115546142D01*
X59444000Y-115450904D01*
X59491619Y-115403285D01*
X59586857Y-115355666D01*
X59729714Y-115355666D01*
X59824952Y-115403285D01*
X59872571Y-115450904D01*
X59920190Y-115546142D01*
X59920190Y-115927095D01*
X59729714Y-114498523D02*
X60396380Y-114498523D01*
X59348761Y-114736619D02*
X60063047Y-114974714D01*
X60063047Y-114355666D01*
%TO.C,R69*%
X185279142Y-114202380D02*
X184945809Y-113726190D01*
X184707714Y-114202380D02*
X184707714Y-113202380D01*
X185088666Y-113202380D01*
X185183904Y-113250000D01*
X185231523Y-113297619D01*
X185279142Y-113392857D01*
X185279142Y-113535714D01*
X185231523Y-113630952D01*
X185183904Y-113678571D01*
X185088666Y-113726190D01*
X184707714Y-113726190D01*
X186136285Y-113202380D02*
X185945809Y-113202380D01*
X185850571Y-113250000D01*
X185802952Y-113297619D01*
X185707714Y-113440476D01*
X185660095Y-113630952D01*
X185660095Y-114011904D01*
X185707714Y-114107142D01*
X185755333Y-114154761D01*
X185850571Y-114202380D01*
X186041047Y-114202380D01*
X186136285Y-114154761D01*
X186183904Y-114107142D01*
X186231523Y-114011904D01*
X186231523Y-113773809D01*
X186183904Y-113678571D01*
X186136285Y-113630952D01*
X186041047Y-113583333D01*
X185850571Y-113583333D01*
X185755333Y-113630952D01*
X185707714Y-113678571D01*
X185660095Y-113773809D01*
X186707714Y-114202380D02*
X186898190Y-114202380D01*
X186993428Y-114154761D01*
X187041047Y-114107142D01*
X187136285Y-113964285D01*
X187183904Y-113773809D01*
X187183904Y-113392857D01*
X187136285Y-113297619D01*
X187088666Y-113250000D01*
X186993428Y-113202380D01*
X186802952Y-113202380D01*
X186707714Y-113250000D01*
X186660095Y-113297619D01*
X186612476Y-113392857D01*
X186612476Y-113630952D01*
X186660095Y-113726190D01*
X186707714Y-113773809D01*
X186802952Y-113821428D01*
X186993428Y-113821428D01*
X187088666Y-113773809D01*
X187136285Y-113726190D01*
X187183904Y-113630952D01*
%TO.C,R56*%
X96639142Y-83722380D02*
X96305809Y-83246190D01*
X96067714Y-83722380D02*
X96067714Y-82722380D01*
X96448666Y-82722380D01*
X96543904Y-82770000D01*
X96591523Y-82817619D01*
X96639142Y-82912857D01*
X96639142Y-83055714D01*
X96591523Y-83150952D01*
X96543904Y-83198571D01*
X96448666Y-83246190D01*
X96067714Y-83246190D01*
X97543904Y-82722380D02*
X97067714Y-82722380D01*
X97020095Y-83198571D01*
X97067714Y-83150952D01*
X97162952Y-83103333D01*
X97401047Y-83103333D01*
X97496285Y-83150952D01*
X97543904Y-83198571D01*
X97591523Y-83293809D01*
X97591523Y-83531904D01*
X97543904Y-83627142D01*
X97496285Y-83674761D01*
X97401047Y-83722380D01*
X97162952Y-83722380D01*
X97067714Y-83674761D01*
X97020095Y-83627142D01*
X98448666Y-82722380D02*
X98258190Y-82722380D01*
X98162952Y-82770000D01*
X98115333Y-82817619D01*
X98020095Y-82960476D01*
X97972476Y-83150952D01*
X97972476Y-83531904D01*
X98020095Y-83627142D01*
X98067714Y-83674761D01*
X98162952Y-83722380D01*
X98353428Y-83722380D01*
X98448666Y-83674761D01*
X98496285Y-83627142D01*
X98543904Y-83531904D01*
X98543904Y-83293809D01*
X98496285Y-83198571D01*
X98448666Y-83150952D01*
X98353428Y-83103333D01*
X98162952Y-83103333D01*
X98067714Y-83150952D01*
X98020095Y-83198571D01*
X97972476Y-83293809D01*
%TO.C,R3*%
X49109333Y-129865380D02*
X48776000Y-129389190D01*
X48537904Y-129865380D02*
X48537904Y-128865380D01*
X48918857Y-128865380D01*
X49014095Y-128913000D01*
X49061714Y-128960619D01*
X49109333Y-129055857D01*
X49109333Y-129198714D01*
X49061714Y-129293952D01*
X49014095Y-129341571D01*
X48918857Y-129389190D01*
X48537904Y-129389190D01*
X49442666Y-128865380D02*
X50061714Y-128865380D01*
X49728380Y-129246333D01*
X49871238Y-129246333D01*
X49966476Y-129293952D01*
X50014095Y-129341571D01*
X50061714Y-129436809D01*
X50061714Y-129674904D01*
X50014095Y-129770142D01*
X49966476Y-129817761D01*
X49871238Y-129865380D01*
X49585523Y-129865380D01*
X49490285Y-129817761D01*
X49442666Y-129770142D01*
%TO.C,R16*%
X105299142Y-79742380D02*
X104965809Y-79266190D01*
X104727714Y-79742380D02*
X104727714Y-78742380D01*
X105108666Y-78742380D01*
X105203904Y-78790000D01*
X105251523Y-78837619D01*
X105299142Y-78932857D01*
X105299142Y-79075714D01*
X105251523Y-79170952D01*
X105203904Y-79218571D01*
X105108666Y-79266190D01*
X104727714Y-79266190D01*
X106251523Y-79742380D02*
X105680095Y-79742380D01*
X105965809Y-79742380D02*
X105965809Y-78742380D01*
X105870571Y-78885238D01*
X105775333Y-78980476D01*
X105680095Y-79028095D01*
X107108666Y-78742380D02*
X106918190Y-78742380D01*
X106822952Y-78790000D01*
X106775333Y-78837619D01*
X106680095Y-78980476D01*
X106632476Y-79170952D01*
X106632476Y-79551904D01*
X106680095Y-79647142D01*
X106727714Y-79694761D01*
X106822952Y-79742380D01*
X107013428Y-79742380D01*
X107108666Y-79694761D01*
X107156285Y-79647142D01*
X107203904Y-79551904D01*
X107203904Y-79313809D01*
X107156285Y-79218571D01*
X107108666Y-79170952D01*
X107013428Y-79123333D01*
X106822952Y-79123333D01*
X106727714Y-79170952D01*
X106680095Y-79218571D01*
X106632476Y-79313809D01*
%TO.C,R20*%
X194199142Y-102602380D02*
X193865809Y-102126190D01*
X193627714Y-102602380D02*
X193627714Y-101602380D01*
X194008666Y-101602380D01*
X194103904Y-101650000D01*
X194151523Y-101697619D01*
X194199142Y-101792857D01*
X194199142Y-101935714D01*
X194151523Y-102030952D01*
X194103904Y-102078571D01*
X194008666Y-102126190D01*
X193627714Y-102126190D01*
X194580095Y-101697619D02*
X194627714Y-101650000D01*
X194722952Y-101602380D01*
X194961047Y-101602380D01*
X195056285Y-101650000D01*
X195103904Y-101697619D01*
X195151523Y-101792857D01*
X195151523Y-101888095D01*
X195103904Y-102030952D01*
X194532476Y-102602380D01*
X195151523Y-102602380D01*
X195770571Y-101602380D02*
X195865809Y-101602380D01*
X195961047Y-101650000D01*
X196008666Y-101697619D01*
X196056285Y-101792857D01*
X196103904Y-101983333D01*
X196103904Y-102221428D01*
X196056285Y-102411904D01*
X196008666Y-102507142D01*
X195961047Y-102554761D01*
X195865809Y-102602380D01*
X195770571Y-102602380D01*
X195675333Y-102554761D01*
X195627714Y-102507142D01*
X195580095Y-102411904D01*
X195532476Y-102221428D01*
X195532476Y-101983333D01*
X195580095Y-101792857D01*
X195627714Y-101697619D01*
X195675333Y-101650000D01*
X195770571Y-101602380D01*
%TO.C,R58*%
X105299142Y-106412380D02*
X104965809Y-105936190D01*
X104727714Y-106412380D02*
X104727714Y-105412380D01*
X105108666Y-105412380D01*
X105203904Y-105460000D01*
X105251523Y-105507619D01*
X105299142Y-105602857D01*
X105299142Y-105745714D01*
X105251523Y-105840952D01*
X105203904Y-105888571D01*
X105108666Y-105936190D01*
X104727714Y-105936190D01*
X106203904Y-105412380D02*
X105727714Y-105412380D01*
X105680095Y-105888571D01*
X105727714Y-105840952D01*
X105822952Y-105793333D01*
X106061047Y-105793333D01*
X106156285Y-105840952D01*
X106203904Y-105888571D01*
X106251523Y-105983809D01*
X106251523Y-106221904D01*
X106203904Y-106317142D01*
X106156285Y-106364761D01*
X106061047Y-106412380D01*
X105822952Y-106412380D01*
X105727714Y-106364761D01*
X105680095Y-106317142D01*
X106822952Y-105840952D02*
X106727714Y-105793333D01*
X106680095Y-105745714D01*
X106632476Y-105650476D01*
X106632476Y-105602857D01*
X106680095Y-105507619D01*
X106727714Y-105460000D01*
X106822952Y-105412380D01*
X107013428Y-105412380D01*
X107108666Y-105460000D01*
X107156285Y-105507619D01*
X107203904Y-105602857D01*
X107203904Y-105650476D01*
X107156285Y-105745714D01*
X107108666Y-105793333D01*
X107013428Y-105840952D01*
X106822952Y-105840952D01*
X106727714Y-105888571D01*
X106680095Y-105936190D01*
X106632476Y-106031428D01*
X106632476Y-106221904D01*
X106680095Y-106317142D01*
X106727714Y-106364761D01*
X106822952Y-106412380D01*
X107013428Y-106412380D01*
X107108666Y-106364761D01*
X107156285Y-106317142D01*
X107203904Y-106221904D01*
X107203904Y-106031428D01*
X107156285Y-105936190D01*
X107108666Y-105888571D01*
X107013428Y-105840952D01*
%TO.C,J2*%
X48102380Y-102314333D02*
X48816666Y-102314333D01*
X48959523Y-102361952D01*
X49054761Y-102457190D01*
X49102380Y-102600047D01*
X49102380Y-102695285D01*
X48197619Y-101885761D02*
X48150000Y-101838142D01*
X48102380Y-101742904D01*
X48102380Y-101504809D01*
X48150000Y-101409571D01*
X48197619Y-101361952D01*
X48292857Y-101314333D01*
X48388095Y-101314333D01*
X48530952Y-101361952D01*
X49102380Y-101933380D01*
X49102380Y-101314333D01*
D12*
%TO.C,D419*%
X173542000Y-113360000D02*
X178192000Y-113360000D01*
X178192000Y-113360000D02*
X178192000Y-112560000D01*
X173542000Y-110160000D02*
X178192000Y-110160000D01*
%TO.C,D10*%
X168492000Y-83490000D02*
X173142000Y-83490000D01*
X173142000Y-86690000D02*
X173142000Y-85890000D01*
X168492000Y-86690000D02*
X173142000Y-86690000D01*
%TO.C,D343*%
X134022000Y-117780000D02*
X134022000Y-118580000D01*
X138672000Y-120980000D02*
X134022000Y-120980000D01*
X138672000Y-117780000D02*
X134022000Y-117780000D01*
%TO.C,D314*%
X69632000Y-90500000D02*
X74282000Y-90500000D01*
X74282000Y-90500000D02*
X74282000Y-89700000D01*
X69632000Y-87300000D02*
X74282000Y-87300000D01*
%TO.C,R48*%
X185224936Y-68940000D02*
X186679064Y-68940000D01*
X185224936Y-70760000D02*
X186679064Y-70760000D01*
%TO.C,D159*%
X79362000Y-113360000D02*
X79362000Y-112560000D01*
X74712000Y-110160000D02*
X79362000Y-110160000D01*
X74712000Y-113360000D02*
X79362000Y-113360000D01*
%TO.C,D368*%
X158332000Y-98730000D02*
X162982000Y-98730000D01*
X162982000Y-101930000D02*
X162982000Y-101130000D01*
X158332000Y-101930000D02*
X162982000Y-101930000D01*
%TO.C,D30*%
X94602000Y-94310000D02*
X94602000Y-93510000D01*
X89952000Y-91110000D02*
X94602000Y-91110000D01*
X89952000Y-94310000D02*
X94602000Y-94310000D01*
%TO.C,D57*%
X217412000Y-124790000D02*
X212762000Y-124790000D01*
X217412000Y-121590000D02*
X212762000Y-121590000D01*
X212762000Y-121590000D02*
X212762000Y-122390000D01*
%TO.C,D335*%
X173542000Y-87300000D02*
X178192000Y-87300000D01*
X173542000Y-90500000D02*
X178192000Y-90500000D01*
X178192000Y-90500000D02*
X178192000Y-89700000D01*
%TO.C,D280*%
X79797000Y-109550000D02*
X84447000Y-109550000D01*
X79797000Y-106350000D02*
X84447000Y-106350000D01*
X84447000Y-109550000D02*
X84447000Y-108750000D01*
%TO.C,D137*%
X89508250Y-101930000D02*
X89508250Y-101130000D01*
X84858250Y-98730000D02*
X89508250Y-98730000D01*
X84858250Y-101930000D02*
X89508250Y-101930000D01*
%TO.C,R33*%
X185224936Y-82190000D02*
X186679064Y-82190000D01*
X185224936Y-80370000D02*
X186679064Y-80370000D01*
%TO.C,D184*%
X212332000Y-91110000D02*
X207682000Y-91110000D01*
X207682000Y-91110000D02*
X207682000Y-91910000D01*
X212332000Y-94310000D02*
X207682000Y-94310000D01*
%TO.C,D254*%
X133592000Y-87300000D02*
X128942000Y-87300000D01*
X133592000Y-90500000D02*
X128942000Y-90500000D01*
X128942000Y-87300000D02*
X128942000Y-88100000D01*
%TO.C,R28*%
X96554936Y-124100000D02*
X98009064Y-124100000D01*
X96554936Y-122280000D02*
X98009064Y-122280000D01*
%TO.C,D347*%
X118352000Y-120980000D02*
X113702000Y-120980000D01*
X118352000Y-117780000D02*
X113702000Y-117780000D01*
X113702000Y-117780000D02*
X113702000Y-118580000D01*
%TO.C,D138*%
X89938250Y-98730000D02*
X94588250Y-98730000D01*
X89938250Y-101930000D02*
X94588250Y-101930000D01*
X94588250Y-101930000D02*
X94588250Y-101130000D01*
%TO.C,D67*%
X138672000Y-79070000D02*
X134022000Y-79070000D01*
X134022000Y-75870000D02*
X134022000Y-76670000D01*
X138672000Y-75870000D02*
X134022000Y-75870000D01*
%TO.C,D120*%
X94602000Y-132410000D02*
X94602000Y-131610000D01*
X89952000Y-129210000D02*
X94602000Y-129210000D01*
X89952000Y-132410000D02*
X94602000Y-132410000D01*
%TO.C,R2*%
X57496064Y-109199000D02*
X56041936Y-109199000D01*
X57496064Y-111019000D02*
X56041936Y-111019000D01*
%TO.C,D260*%
X162952000Y-71450000D02*
X162952000Y-70650000D01*
X158302000Y-68250000D02*
X162952000Y-68250000D01*
X158302000Y-71450000D02*
X162952000Y-71450000D01*
%TO.C,D388*%
X168432000Y-117170000D02*
X173082000Y-117170000D01*
X173082000Y-117170000D02*
X173082000Y-116370000D01*
X168432000Y-113970000D02*
X173082000Y-113970000D01*
%TO.C,D240*%
X89952000Y-75260000D02*
X94602000Y-75260000D01*
X89952000Y-72060000D02*
X94602000Y-72060000D01*
X94602000Y-75260000D02*
X94602000Y-74460000D01*
%TO.C,R6*%
X185254936Y-84180000D02*
X186709064Y-84180000D01*
X185254936Y-86000000D02*
X186709064Y-86000000D01*
%TO.C,R44*%
X96554936Y-74570000D02*
X98009064Y-74570000D01*
X96554936Y-72750000D02*
X98009064Y-72750000D01*
%TO.C,D298*%
X118782000Y-121590000D02*
X118782000Y-122390000D01*
X123432000Y-124790000D02*
X118782000Y-124790000D01*
X123432000Y-121590000D02*
X118782000Y-121590000D01*
%TO.C,C1*%
X57480252Y-123465000D02*
X56057748Y-123465000D01*
X57480252Y-121645000D02*
X56057748Y-121645000D01*
%TO.C,D366*%
X89952000Y-79680000D02*
X94602000Y-79680000D01*
X89952000Y-82880000D02*
X94602000Y-82880000D01*
X94602000Y-82880000D02*
X94602000Y-82080000D01*
%TO.C,D274*%
X212197000Y-125400000D02*
X207547000Y-125400000D01*
X212197000Y-128600000D02*
X207547000Y-128600000D01*
X207547000Y-125400000D02*
X207547000Y-126200000D01*
%TO.C,J1*%
X51800000Y-84381000D02*
X50500000Y-84381000D01*
X37000000Y-93881000D02*
X37000000Y-84681000D01*
X51800000Y-86081000D02*
X51800000Y-84381000D01*
X51500000Y-91881000D02*
X51500000Y-93881000D01*
X51500000Y-84681000D02*
X51500000Y-86681000D01*
X37000000Y-84681000D02*
X51500000Y-84681000D01*
X45600000Y-93881000D02*
X37000000Y-93881000D01*
X51500000Y-93881000D02*
X50200000Y-93881000D01*
%TO.C,D33*%
X217412000Y-133020000D02*
X212762000Y-133020000D01*
X212762000Y-133020000D02*
X212762000Y-133820000D01*
X217412000Y-136220000D02*
X212762000Y-136220000D01*
%TO.C,D252*%
X113272000Y-68250000D02*
X108622000Y-68250000D01*
X108622000Y-68250000D02*
X108622000Y-69050000D01*
X113272000Y-71450000D02*
X108622000Y-71450000D01*
%TO.C,D172*%
X168462000Y-79680000D02*
X173112000Y-79680000D01*
X168462000Y-82880000D02*
X173112000Y-82880000D01*
X173112000Y-82880000D02*
X173112000Y-82080000D01*
%TO.C,D328*%
X173112000Y-124790000D02*
X173112000Y-123990000D01*
X168462000Y-121590000D02*
X173112000Y-121590000D01*
X168462000Y-124790000D02*
X173112000Y-124790000D01*
%TO.C,D272*%
X222357000Y-128600000D02*
X217707000Y-128600000D01*
X222357000Y-125400000D02*
X217707000Y-125400000D01*
X217707000Y-125400000D02*
X217707000Y-126200000D01*
%TO.C,D36*%
X202172000Y-136220000D02*
X197522000Y-136220000D01*
X202172000Y-133020000D02*
X197522000Y-133020000D01*
X197522000Y-133020000D02*
X197522000Y-133820000D01*
%TO.C,D149*%
X202602000Y-113970000D02*
X202602000Y-114770000D01*
X207252000Y-113970000D02*
X202602000Y-113970000D01*
X207252000Y-117170000D02*
X202602000Y-117170000D01*
%TO.C,D342*%
X178622000Y-129210000D02*
X183272000Y-129210000D01*
X178622000Y-132410000D02*
X183272000Y-132410000D01*
X183272000Y-132410000D02*
X183272000Y-131610000D01*
%TO.C,D417*%
X168032000Y-113360000D02*
X168032000Y-112560000D01*
X163382000Y-113360000D02*
X168032000Y-113360000D01*
X163382000Y-110160000D02*
X168032000Y-110160000D01*
%TO.C,R8*%
X106669064Y-72750000D02*
X105214936Y-72750000D01*
X106669064Y-74570000D02*
X105214936Y-74570000D01*
%TO.C,D331*%
X153222000Y-90500000D02*
X157872000Y-90500000D01*
X153222000Y-87300000D02*
X157872000Y-87300000D01*
X157872000Y-90500000D02*
X157872000Y-89700000D01*
%TO.C,R47*%
X106669064Y-87990000D02*
X105214936Y-87990000D01*
X106669064Y-89810000D02*
X105214936Y-89810000D01*
%TO.C,D44*%
X133592000Y-133020000D02*
X128942000Y-133020000D01*
X128942000Y-133020000D02*
X128942000Y-133820000D01*
X133592000Y-136220000D02*
X128942000Y-136220000D01*
%TO.C,D406*%
X168462000Y-98120000D02*
X173112000Y-98120000D01*
X168462000Y-94920000D02*
X173112000Y-94920000D01*
X173112000Y-98120000D02*
X173112000Y-97320000D01*
%TO.C,R11*%
X106669064Y-129900000D02*
X105214936Y-129900000D01*
X106669064Y-131720000D02*
X105214936Y-131720000D01*
%TO.C,D422*%
X128942000Y-106350000D02*
X128942000Y-107150000D01*
X133592000Y-106350000D02*
X128942000Y-106350000D01*
X133592000Y-109550000D02*
X128942000Y-109550000D01*
%TO.C,D429*%
X128512000Y-113360000D02*
X123862000Y-113360000D01*
X128512000Y-110160000D02*
X123862000Y-110160000D01*
X123862000Y-110160000D02*
X123862000Y-110960000D01*
%TO.C,D241*%
X64552000Y-120980000D02*
X69202000Y-120980000D01*
X69202000Y-120980000D02*
X69202000Y-120180000D01*
X64552000Y-117780000D02*
X69202000Y-117780000D01*
%TO.C,D300*%
X108622000Y-121590000D02*
X108622000Y-122390000D01*
X113272000Y-124790000D02*
X108622000Y-124790000D01*
X113272000Y-121590000D02*
X108622000Y-121590000D01*
%TO.C,C4*%
X43921000Y-126822252D02*
X43921000Y-125399748D01*
X45741000Y-126822252D02*
X45741000Y-125399748D01*
%TO.C,D376*%
X168462000Y-120980000D02*
X173112000Y-120980000D01*
X173112000Y-120980000D02*
X173112000Y-120180000D01*
X168462000Y-117780000D02*
X173112000Y-117780000D01*
%TO.C,D28*%
X79792000Y-91110000D02*
X84442000Y-91110000D01*
X79792000Y-94310000D02*
X84442000Y-94310000D01*
X84442000Y-94310000D02*
X84442000Y-93510000D01*
%TO.C,R18*%
X195569064Y-103230000D02*
X194114936Y-103230000D01*
X195569064Y-105050000D02*
X194114936Y-105050000D01*
%TO.C,D377*%
X178192000Y-120980000D02*
X178192000Y-120180000D01*
X173542000Y-117780000D02*
X178192000Y-117780000D01*
X173542000Y-120980000D02*
X178192000Y-120980000D01*
%TO.C,D90*%
X113272000Y-91110000D02*
X108622000Y-91110000D01*
X108622000Y-91110000D02*
X108622000Y-91910000D01*
X113272000Y-94310000D02*
X108622000Y-94310000D01*
%TO.C,D407*%
X173542000Y-98120000D02*
X178192000Y-98120000D01*
X173542000Y-94920000D02*
X178192000Y-94920000D01*
X178192000Y-98120000D02*
X178192000Y-97320000D01*
%TO.C,D324*%
X108622000Y-102540000D02*
X108622000Y-103340000D01*
X113272000Y-102540000D02*
X108622000Y-102540000D01*
X113272000Y-105740000D02*
X108622000Y-105740000D01*
%TO.C,D173*%
X173542000Y-79680000D02*
X178192000Y-79680000D01*
X178192000Y-82880000D02*
X178192000Y-82080000D01*
X173542000Y-82880000D02*
X178192000Y-82880000D01*
%TO.C,D248*%
X133592000Y-68250000D02*
X128942000Y-68250000D01*
X133592000Y-71450000D02*
X128942000Y-71450000D01*
X128942000Y-68250000D02*
X128942000Y-69050000D01*
%TO.C,D237*%
X74712000Y-72060000D02*
X79362000Y-72060000D01*
X79362000Y-75260000D02*
X79362000Y-74460000D01*
X74712000Y-75260000D02*
X79362000Y-75260000D01*
%TO.C,D325*%
X153222000Y-121590000D02*
X157872000Y-121590000D01*
X157872000Y-124790000D02*
X157872000Y-123990000D01*
X153222000Y-124790000D02*
X157872000Y-124790000D01*
%TO.C,D316*%
X84442000Y-90500000D02*
X84442000Y-89700000D01*
X79792000Y-90500000D02*
X84442000Y-90500000D01*
X79792000Y-87300000D02*
X84442000Y-87300000D01*
%TO.C,R23*%
X106669064Y-101240000D02*
X105214936Y-101240000D01*
X106669064Y-99420000D02*
X105214936Y-99420000D01*
%TO.C,D51*%
X123862000Y-83490000D02*
X123862000Y-84290000D01*
X128512000Y-83490000D02*
X123862000Y-83490000D01*
X128512000Y-86690000D02*
X123862000Y-86690000D01*
%TO.C,D178*%
X212332000Y-86690000D02*
X207682000Y-86690000D01*
X212332000Y-83490000D02*
X207682000Y-83490000D01*
X207682000Y-83490000D02*
X207682000Y-84290000D01*
%TO.C,D193*%
X227572000Y-113360000D02*
X222922000Y-113360000D01*
X227572000Y-110160000D02*
X222922000Y-110160000D01*
X222922000Y-110160000D02*
X222922000Y-110960000D01*
%TO.C,D414*%
X89952000Y-75870000D02*
X94602000Y-75870000D01*
X89952000Y-79070000D02*
X94602000Y-79070000D01*
X94602000Y-79070000D02*
X94602000Y-78270000D01*
%TO.C,D212*%
X158302000Y-79070000D02*
X162952000Y-79070000D01*
X162952000Y-79070000D02*
X162952000Y-78270000D01*
X158302000Y-75870000D02*
X162952000Y-75870000D01*
%TO.C,R27*%
X96541186Y-99420000D02*
X97995314Y-99420000D01*
X96541186Y-101240000D02*
X97995314Y-101240000D01*
%TO.C,D162*%
X89952000Y-110160000D02*
X94602000Y-110160000D01*
X89952000Y-113360000D02*
X94602000Y-113360000D01*
X94602000Y-113360000D02*
X94602000Y-112560000D01*
%TO.C,D353*%
X173542000Y-106350000D02*
X178192000Y-106350000D01*
X178192000Y-109550000D02*
X178192000Y-108750000D01*
X173542000Y-109550000D02*
X178192000Y-109550000D01*
%TO.C,D83*%
X207252000Y-105740000D02*
X202602000Y-105740000D01*
X202602000Y-102540000D02*
X202602000Y-103340000D01*
X207252000Y-102540000D02*
X202602000Y-102540000D01*
%TO.C,D12*%
X178652000Y-86690000D02*
X183302000Y-86690000D01*
X178652000Y-83490000D02*
X183302000Y-83490000D01*
X183302000Y-86690000D02*
X183302000Y-85890000D01*
%TO.C,D266*%
X222474500Y-87300000D02*
X217824500Y-87300000D01*
X217824500Y-87300000D02*
X217824500Y-88100000D01*
X222474500Y-90500000D02*
X217824500Y-90500000D01*
%TO.C,D294*%
X178622000Y-94310000D02*
X183272000Y-94310000D01*
X178622000Y-91110000D02*
X183272000Y-91110000D01*
X183272000Y-94310000D02*
X183272000Y-93510000D01*
%TO.C,D104*%
X222517000Y-132410000D02*
X217867000Y-132410000D01*
X217867000Y-129210000D02*
X217867000Y-130010000D01*
X222517000Y-129210000D02*
X217867000Y-129210000D01*
%TO.C,D309*%
X74712000Y-83490000D02*
X79362000Y-83490000D01*
X74712000Y-86690000D02*
X79362000Y-86690000D01*
X79362000Y-86690000D02*
X79362000Y-85890000D01*
%TO.C,D48*%
X108622000Y-133020000D02*
X108622000Y-133820000D01*
X113272000Y-136220000D02*
X108622000Y-136220000D01*
X113272000Y-133020000D02*
X108622000Y-133020000D01*
%TO.C,D348*%
X113272000Y-117780000D02*
X108622000Y-117780000D01*
X113272000Y-120980000D02*
X108622000Y-120980000D01*
X108622000Y-117780000D02*
X108622000Y-118580000D01*
%TO.C,D72*%
X113272000Y-79070000D02*
X108622000Y-79070000D01*
X113272000Y-75870000D02*
X108622000Y-75870000D01*
X108622000Y-75870000D02*
X108622000Y-76670000D01*
%TO.C,D139*%
X64552000Y-121590000D02*
X69202000Y-121590000D01*
X69202000Y-124790000D02*
X69202000Y-123990000D01*
X64552000Y-124790000D02*
X69202000Y-124790000D01*
%TO.C,D329*%
X178192000Y-124790000D02*
X178192000Y-123990000D01*
X173542000Y-121590000D02*
X178192000Y-121590000D01*
X173542000Y-124790000D02*
X178192000Y-124790000D01*
%TO.C,D225*%
X79362000Y-136220000D02*
X79362000Y-135420000D01*
X74712000Y-133020000D02*
X79362000Y-133020000D01*
X74712000Y-136220000D02*
X79362000Y-136220000D01*
%TO.C,D35*%
X207252000Y-136220000D02*
X202602000Y-136220000D01*
X202602000Y-133020000D02*
X202602000Y-133820000D01*
X207252000Y-133020000D02*
X202602000Y-133020000D01*
%TO.C,D176*%
X222492000Y-83490000D02*
X217842000Y-83490000D01*
X217842000Y-83490000D02*
X217842000Y-84290000D01*
X222492000Y-86690000D02*
X217842000Y-86690000D01*
%TO.C,D111*%
X128512000Y-101930000D02*
X123862000Y-101930000D01*
X123862000Y-98730000D02*
X123862000Y-99530000D01*
X128512000Y-98730000D02*
X123862000Y-98730000D01*
%TO.C,D385*%
X153192000Y-117170000D02*
X157842000Y-117170000D01*
X157842000Y-117170000D02*
X157842000Y-116370000D01*
X153192000Y-113970000D02*
X157842000Y-113970000D01*
%TO.C,D232*%
X79792000Y-94920000D02*
X84442000Y-94920000D01*
X84442000Y-98120000D02*
X84442000Y-97320000D01*
X79792000Y-98120000D02*
X84442000Y-98120000D01*
%TO.C,D394*%
X168462000Y-133020000D02*
X173112000Y-133020000D01*
X173112000Y-136220000D02*
X173112000Y-135420000D01*
X168462000Y-136220000D02*
X173112000Y-136220000D01*
%TO.C,D302*%
X158302000Y-125400000D02*
X162952000Y-125400000D01*
X162952000Y-128600000D02*
X162952000Y-127800000D01*
X158302000Y-128600000D02*
X162952000Y-128600000D01*
%TO.C,D147*%
X217412000Y-113970000D02*
X212762000Y-113970000D01*
X212762000Y-113970000D02*
X212762000Y-114770000D01*
X217412000Y-117170000D02*
X212762000Y-117170000D01*
%TO.C,D92*%
X217842000Y-98730000D02*
X217842000Y-99530000D01*
X222492000Y-101930000D02*
X217842000Y-101930000D01*
X222492000Y-98730000D02*
X217842000Y-98730000D01*
%TO.C,R76*%
X106669064Y-110850000D02*
X105214936Y-110850000D01*
X106669064Y-112670000D02*
X105214936Y-112670000D01*
%TO.C,D351*%
X168032000Y-109550000D02*
X168032000Y-108750000D01*
X163382000Y-106350000D02*
X168032000Y-106350000D01*
X163382000Y-109550000D02*
X168032000Y-109550000D01*
%TO.C,D77*%
X202602000Y-68250000D02*
X202602000Y-69050000D01*
X207252000Y-71450000D02*
X202602000Y-71450000D01*
X207252000Y-68250000D02*
X202602000Y-68250000D01*
%TO.C,D20*%
X133592000Y-75260000D02*
X128942000Y-75260000D01*
X128942000Y-72060000D02*
X128942000Y-72860000D01*
X133592000Y-72060000D02*
X128942000Y-72060000D01*
%TO.C,D428*%
X133592000Y-110160000D02*
X128942000Y-110160000D01*
X133592000Y-113360000D02*
X128942000Y-113360000D01*
X128942000Y-110160000D02*
X128942000Y-110960000D01*
%TO.C,D396*%
X178622000Y-133020000D02*
X183272000Y-133020000D01*
X178622000Y-136220000D02*
X183272000Y-136220000D01*
X183272000Y-136220000D02*
X183272000Y-135420000D01*
%TO.C,D61*%
X222922000Y-106350000D02*
X222922000Y-107150000D01*
X227572000Y-106350000D02*
X222922000Y-106350000D01*
X227572000Y-109550000D02*
X222922000Y-109550000D01*
%TO.C,D354*%
X178622000Y-106350000D02*
X183272000Y-106350000D01*
X183272000Y-109550000D02*
X183272000Y-108750000D01*
X178622000Y-109550000D02*
X183272000Y-109550000D01*
%TO.C,D66*%
X202172000Y-109550000D02*
X197522000Y-109550000D01*
X202172000Y-106350000D02*
X197522000Y-106350000D01*
X197522000Y-106350000D02*
X197522000Y-107150000D01*
%TO.C,D73*%
X227572000Y-68250000D02*
X222922000Y-68250000D01*
X227572000Y-71450000D02*
X222922000Y-71450000D01*
X222922000Y-68250000D02*
X222922000Y-69050000D01*
%TO.C,D122*%
X222492000Y-75870000D02*
X217842000Y-75870000D01*
X222492000Y-79070000D02*
X217842000Y-79070000D01*
X217842000Y-75870000D02*
X217842000Y-76670000D01*
%TO.C,D333*%
X163382000Y-90500000D02*
X168032000Y-90500000D01*
X163382000Y-87300000D02*
X168032000Y-87300000D01*
X168032000Y-90500000D02*
X168032000Y-89700000D01*
%TO.C,D123*%
X217412000Y-75870000D02*
X212762000Y-75870000D01*
X217412000Y-79070000D02*
X212762000Y-79070000D01*
X212762000Y-75870000D02*
X212762000Y-76670000D01*
%TO.C,D146*%
X222492000Y-117170000D02*
X217842000Y-117170000D01*
X217842000Y-113970000D02*
X217842000Y-114770000D01*
X222492000Y-113970000D02*
X217842000Y-113970000D01*
%TO.C,D132*%
X202172000Y-79680000D02*
X197522000Y-79680000D01*
X197522000Y-79680000D02*
X197522000Y-80480000D01*
X202172000Y-82880000D02*
X197522000Y-82880000D01*
%TO.C,R55*%
X185224936Y-127910000D02*
X186679064Y-127910000D01*
X185224936Y-126090000D02*
X186679064Y-126090000D01*
%TO.C,D246*%
X94602000Y-120980000D02*
X94602000Y-120180000D01*
X89952000Y-120980000D02*
X94602000Y-120980000D01*
X89952000Y-117780000D02*
X94602000Y-117780000D01*
%TO.C,U1*%
X53420000Y-109786000D02*
X54220000Y-109786000D01*
X53420000Y-123386000D02*
X54220000Y-123386000D01*
X54020000Y-123186000D02*
X37420000Y-123186000D01*
X54020000Y-109986000D02*
X54020000Y-123186000D01*
X54220000Y-123386000D02*
X54220000Y-122586000D01*
X42820000Y-123186000D02*
X42820000Y-109986000D01*
X37420000Y-109986000D02*
X54020000Y-109986000D01*
X37420000Y-123186000D02*
X37420000Y-109986000D01*
X37220000Y-109786000D02*
X37820000Y-109786000D01*
X37220000Y-110536000D02*
X37220000Y-109786000D01*
X54220000Y-109786000D02*
X54220000Y-110586000D01*
X37220000Y-122511000D02*
X37220000Y-123361000D01*
%TO.C,D26*%
X69632000Y-94310000D02*
X74282000Y-94310000D01*
X74282000Y-94310000D02*
X74282000Y-93510000D01*
X69632000Y-91110000D02*
X74282000Y-91110000D01*
%TO.C,R38*%
X96554936Y-68940000D02*
X98009064Y-68940000D01*
X96554936Y-70760000D02*
X98009064Y-70760000D01*
%TO.C,D326*%
X158302000Y-121590000D02*
X162952000Y-121590000D01*
X162952000Y-124790000D02*
X162952000Y-123990000D01*
X158302000Y-124790000D02*
X162952000Y-124790000D01*
%TO.C,R36*%
X185224936Y-74570000D02*
X186679064Y-74570000D01*
X185224936Y-72750000D02*
X186679064Y-72750000D01*
%TO.C,D81*%
X217412000Y-105740000D02*
X212762000Y-105740000D01*
X212762000Y-102540000D02*
X212762000Y-103340000D01*
X217412000Y-102540000D02*
X212762000Y-102540000D01*
%TO.C,D410*%
X74282000Y-79070000D02*
X74282000Y-78270000D01*
X69632000Y-79070000D02*
X74282000Y-79070000D01*
X69632000Y-75870000D02*
X74282000Y-75870000D01*
%TO.C,D200*%
X69632000Y-68250000D02*
X74282000Y-68250000D01*
X74282000Y-71450000D02*
X74282000Y-70650000D01*
X69632000Y-71450000D02*
X74282000Y-71450000D01*
%TO.C,D390*%
X178592000Y-117170000D02*
X183242000Y-117170000D01*
X183242000Y-117170000D02*
X183242000Y-116370000D01*
X178592000Y-113970000D02*
X183242000Y-113970000D01*
%TO.C,D160*%
X84442000Y-113360000D02*
X84442000Y-112560000D01*
X79792000Y-113360000D02*
X84442000Y-113360000D01*
X79792000Y-110160000D02*
X84442000Y-110160000D01*
%TO.C,D161*%
X89522000Y-113360000D02*
X89522000Y-112560000D01*
X84872000Y-113360000D02*
X89522000Y-113360000D01*
X84872000Y-110160000D02*
X89522000Y-110160000D01*
%TO.C,D293*%
X173542000Y-94310000D02*
X178192000Y-94310000D01*
X173542000Y-91110000D02*
X178192000Y-91110000D01*
X178192000Y-94310000D02*
X178192000Y-93510000D01*
%TO.C,D267*%
X217394500Y-87300000D02*
X212744500Y-87300000D01*
X217394500Y-90500000D02*
X212744500Y-90500000D01*
X212744500Y-87300000D02*
X212744500Y-88100000D01*
%TO.C,D409*%
X64552000Y-75870000D02*
X69202000Y-75870000D01*
X69202000Y-79070000D02*
X69202000Y-78270000D01*
X64552000Y-79070000D02*
X69202000Y-79070000D01*
%TO.C,D130*%
X212332000Y-82880000D02*
X207682000Y-82880000D01*
X207682000Y-79680000D02*
X207682000Y-80480000D01*
X212332000Y-79680000D02*
X207682000Y-79680000D01*
%TO.C,D18*%
X89952000Y-113970000D02*
X94602000Y-113970000D01*
X94602000Y-117170000D02*
X94602000Y-116370000D01*
X89952000Y-117170000D02*
X94602000Y-117170000D01*
%TO.C,D126*%
X202172000Y-79070000D02*
X197522000Y-79070000D01*
X202172000Y-75870000D02*
X197522000Y-75870000D01*
X197522000Y-75870000D02*
X197522000Y-76670000D01*
%TO.C,D109*%
X134022000Y-98730000D02*
X134022000Y-99530000D01*
X138672000Y-98730000D02*
X134022000Y-98730000D01*
X138672000Y-101930000D02*
X134022000Y-101930000D01*
%TO.C,D361*%
X64552000Y-79680000D02*
X69202000Y-79680000D01*
X64552000Y-82880000D02*
X69202000Y-82880000D01*
X69202000Y-82880000D02*
X69202000Y-82080000D01*
%TO.C,D140*%
X74282000Y-124790000D02*
X74282000Y-123990000D01*
X69632000Y-124790000D02*
X74282000Y-124790000D01*
X69632000Y-121590000D02*
X74282000Y-121590000D01*
%TO.C,R19*%
X106669064Y-93620000D02*
X105214936Y-93620000D01*
X106669064Y-91800000D02*
X105214936Y-91800000D01*
%TO.C,D250*%
X123432000Y-71450000D02*
X118782000Y-71450000D01*
X118782000Y-68250000D02*
X118782000Y-69050000D01*
X123432000Y-68250000D02*
X118782000Y-68250000D01*
%TO.C,D59*%
X202602000Y-121590000D02*
X202602000Y-122390000D01*
X207252000Y-124790000D02*
X202602000Y-124790000D01*
X207252000Y-121590000D02*
X202602000Y-121590000D01*
%TO.C,R66*%
X185254936Y-101240000D02*
X186709064Y-101240000D01*
X185254936Y-99420000D02*
X186709064Y-99420000D01*
%TO.C,D244*%
X79792000Y-117780000D02*
X84442000Y-117780000D01*
X79792000Y-120980000D02*
X84442000Y-120980000D01*
X84442000Y-120980000D02*
X84442000Y-120180000D01*
%TO.C,D337*%
X153222000Y-132410000D02*
X157872000Y-132410000D01*
X157872000Y-132410000D02*
X157872000Y-131610000D01*
X153222000Y-129210000D02*
X157872000Y-129210000D01*
%TO.C,SW1*%
X51104000Y-108880000D02*
X51004000Y-108880000D01*
X52804000Y-108880000D02*
X52804000Y-104480000D01*
X49304000Y-104480000D02*
X49304000Y-108880000D01*
X51104000Y-104480000D02*
X51004000Y-104480000D01*
%TO.C,D19*%
X134022000Y-72060000D02*
X134022000Y-72860000D01*
X138672000Y-75260000D02*
X134022000Y-75260000D01*
X138672000Y-72060000D02*
X134022000Y-72060000D01*
%TO.C,D405*%
X163382000Y-98120000D02*
X168032000Y-98120000D01*
X168032000Y-98120000D02*
X168032000Y-97320000D01*
X163382000Y-94920000D02*
X168032000Y-94920000D01*
%TO.C,D408*%
X178622000Y-98120000D02*
X183272000Y-98120000D01*
X183272000Y-98120000D02*
X183272000Y-97320000D01*
X178622000Y-94920000D02*
X183272000Y-94920000D01*
%TO.C,D392*%
X162952000Y-136220000D02*
X162952000Y-135420000D01*
X158302000Y-136220000D02*
X162952000Y-136220000D01*
X158302000Y-133020000D02*
X162952000Y-133020000D01*
%TO.C,R73*%
X96554936Y-78380000D02*
X98009064Y-78380000D01*
X96554936Y-76560000D02*
X98009064Y-76560000D01*
%TO.C,D389*%
X178162000Y-117170000D02*
X178162000Y-116370000D01*
X173512000Y-113970000D02*
X178162000Y-113970000D01*
X173512000Y-117170000D02*
X178162000Y-117170000D01*
D13*
%TO.C,IC1*%
X52922000Y-86411000D02*
X57822000Y-86411000D01*
X57977000Y-84536000D02*
X57977000Y-86061000D01*
X52922000Y-89611000D02*
X52922000Y-86411000D01*
X57822000Y-86411000D02*
X57822000Y-89611000D01*
X57822000Y-89611000D02*
X52922000Y-89611000D01*
D12*
%TO.C,D166*%
X79792000Y-128600000D02*
X84442000Y-128600000D01*
X84442000Y-128600000D02*
X84442000Y-127800000D01*
X79792000Y-125400000D02*
X84442000Y-125400000D01*
%TO.C,D210*%
X202172000Y-120980000D02*
X197522000Y-120980000D01*
X197522000Y-117780000D02*
X197522000Y-118580000D01*
X202172000Y-117780000D02*
X197522000Y-117780000D01*
%TO.C,D119*%
X84872000Y-129210000D02*
X89522000Y-129210000D01*
X89522000Y-132410000D02*
X89522000Y-131610000D01*
X84872000Y-132410000D02*
X89522000Y-132410000D01*
%TO.C,R17*%
X195569064Y-68940000D02*
X194114936Y-68940000D01*
X195569064Y-70760000D02*
X194114936Y-70760000D01*
%TO.C,D404*%
X162952000Y-98120000D02*
X162952000Y-97320000D01*
X158302000Y-94920000D02*
X162952000Y-94920000D01*
X158302000Y-98120000D02*
X162952000Y-98120000D01*
%TO.C,D379*%
X138672000Y-113970000D02*
X134022000Y-113970000D01*
X134022000Y-113970000D02*
X134022000Y-114770000D01*
X138672000Y-117170000D02*
X134022000Y-117170000D01*
%TO.C,D420*%
X183272000Y-113360000D02*
X183272000Y-112560000D01*
X178622000Y-113360000D02*
X183272000Y-113360000D01*
X178622000Y-110160000D02*
X183272000Y-110160000D01*
%TO.C,D204*%
X89952000Y-71450000D02*
X94602000Y-71450000D01*
X94602000Y-71450000D02*
X94602000Y-70650000D01*
X89952000Y-68250000D02*
X94602000Y-68250000D01*
%TO.C,R12*%
X106669064Y-135530000D02*
X105214936Y-135530000D01*
X106669064Y-133710000D02*
X105214936Y-133710000D01*
%TO.C,D336*%
X178622000Y-87300000D02*
X183272000Y-87300000D01*
X183272000Y-90500000D02*
X183272000Y-89700000D01*
X178622000Y-90500000D02*
X183272000Y-90500000D01*
%TO.C,D268*%
X212314500Y-90500000D02*
X207664500Y-90500000D01*
X207664500Y-87300000D02*
X207664500Y-88100000D01*
X212314500Y-87300000D02*
X207664500Y-87300000D01*
%TO.C,D223*%
X64552000Y-133020000D02*
X69202000Y-133020000D01*
X64552000Y-136220000D02*
X69202000Y-136220000D01*
X69202000Y-136220000D02*
X69202000Y-135420000D01*
%TO.C,D129*%
X217412000Y-82880000D02*
X212762000Y-82880000D01*
X212762000Y-79680000D02*
X212762000Y-80480000D01*
X217412000Y-79680000D02*
X212762000Y-79680000D01*
%TO.C,R29*%
X195569064Y-114660000D02*
X194114936Y-114660000D01*
X195569064Y-116480000D02*
X194114936Y-116480000D01*
%TO.C,D41*%
X113702000Y-129210000D02*
X113702000Y-130010000D01*
X118352000Y-132410000D02*
X113702000Y-132410000D01*
X118352000Y-129210000D02*
X113702000Y-129210000D01*
%TO.C,D364*%
X79792000Y-82880000D02*
X84442000Y-82880000D01*
X79792000Y-79680000D02*
X84442000Y-79680000D01*
X84442000Y-82880000D02*
X84442000Y-82080000D01*
%TO.C,D236*%
X69632000Y-72060000D02*
X74282000Y-72060000D01*
X69632000Y-75260000D02*
X74282000Y-75260000D01*
X74282000Y-75260000D02*
X74282000Y-74460000D01*
%TO.C,D177*%
X217412000Y-86690000D02*
X212762000Y-86690000D01*
X217412000Y-83490000D02*
X212762000Y-83490000D01*
X212762000Y-83490000D02*
X212762000Y-84290000D01*
%TO.C,D85*%
X134022000Y-91110000D02*
X134022000Y-91910000D01*
X138672000Y-91110000D02*
X134022000Y-91110000D01*
X138672000Y-94310000D02*
X134022000Y-94310000D01*
%TO.C,D247*%
X134022000Y-68250000D02*
X134022000Y-69050000D01*
X138672000Y-71450000D02*
X134022000Y-71450000D01*
X138672000Y-68250000D02*
X134022000Y-68250000D01*
%TO.C,D8*%
X158332000Y-83490000D02*
X162982000Y-83490000D01*
X162982000Y-86690000D02*
X162982000Y-85890000D01*
X158332000Y-86690000D02*
X162982000Y-86690000D01*
%TO.C,D288*%
X202172000Y-94920000D02*
X197522000Y-94920000D01*
X202172000Y-98120000D02*
X197522000Y-98120000D01*
X197522000Y-94920000D02*
X197522000Y-95720000D01*
%TO.C,R40*%
X185224936Y-78380000D02*
X186679064Y-78380000D01*
X185224936Y-76560000D02*
X186679064Y-76560000D01*
%TO.C,D115*%
X69202000Y-132410000D02*
X69202000Y-131610000D01*
X64552000Y-129210000D02*
X69202000Y-129210000D01*
X64552000Y-132410000D02*
X69202000Y-132410000D01*
%TO.C,D424*%
X118782000Y-106350000D02*
X118782000Y-107150000D01*
X123432000Y-106350000D02*
X118782000Y-106350000D01*
X123432000Y-109550000D02*
X118782000Y-109550000D01*
%TO.C,D185*%
X207252000Y-91110000D02*
X202602000Y-91110000D01*
X207252000Y-94310000D02*
X202602000Y-94310000D01*
X202602000Y-91110000D02*
X202602000Y-91910000D01*
%TO.C,R53*%
X185224936Y-93620000D02*
X186679064Y-93620000D01*
X185224936Y-91800000D02*
X186679064Y-91800000D01*
%TO.C,D235*%
X64552000Y-72060000D02*
X69202000Y-72060000D01*
X69202000Y-75260000D02*
X69202000Y-74460000D01*
X64552000Y-75260000D02*
X69202000Y-75260000D01*
%TO.C,D317*%
X84872000Y-87300000D02*
X89522000Y-87300000D01*
X89522000Y-90500000D02*
X89522000Y-89700000D01*
X84872000Y-90500000D02*
X89522000Y-90500000D01*
%TO.C,R65*%
X96554936Y-82190000D02*
X98009064Y-82190000D01*
X96554936Y-80370000D02*
X98009064Y-80370000D01*
%TO.C,D75*%
X212762000Y-68250000D02*
X212762000Y-69050000D01*
X217412000Y-68250000D02*
X212762000Y-68250000D01*
X217412000Y-71450000D02*
X212762000Y-71450000D01*
%TO.C,R63*%
X185224936Y-108860000D02*
X186679064Y-108860000D01*
X185224936Y-107040000D02*
X186679064Y-107040000D01*
%TO.C,R71*%
X106669064Y-126090000D02*
X105214936Y-126090000D01*
X106669064Y-127910000D02*
X105214936Y-127910000D01*
%TO.C,R26*%
X195339064Y-80370000D02*
X193884936Y-80370000D01*
X195339064Y-82190000D02*
X193884936Y-82190000D01*
%TO.C,D76*%
X212332000Y-68250000D02*
X207682000Y-68250000D01*
X207682000Y-68250000D02*
X207682000Y-69050000D01*
X212332000Y-71450000D02*
X207682000Y-71450000D01*
%TO.C,D89*%
X118352000Y-94310000D02*
X113702000Y-94310000D01*
X113702000Y-91110000D02*
X113702000Y-91910000D01*
X118352000Y-91110000D02*
X113702000Y-91110000D01*
%TO.C,D372*%
X178652000Y-98730000D02*
X183302000Y-98730000D01*
X178652000Y-101930000D02*
X183302000Y-101930000D01*
X183302000Y-101930000D02*
X183302000Y-101130000D01*
%TO.C,D11*%
X173572000Y-86690000D02*
X178222000Y-86690000D01*
X173572000Y-83490000D02*
X178222000Y-83490000D01*
X178222000Y-86690000D02*
X178222000Y-85890000D01*
%TO.C,D357*%
X163382000Y-105740000D02*
X168032000Y-105740000D01*
X163382000Y-102540000D02*
X168032000Y-102540000D01*
X168032000Y-105740000D02*
X168032000Y-104940000D01*
%TO.C,D215*%
X173542000Y-75870000D02*
X178192000Y-75870000D01*
X173542000Y-79070000D02*
X178192000Y-79070000D01*
X178192000Y-79070000D02*
X178192000Y-78270000D01*
%TO.C,D308*%
X69632000Y-86690000D02*
X74282000Y-86690000D01*
X69632000Y-83490000D02*
X74282000Y-83490000D01*
X74282000Y-86690000D02*
X74282000Y-85890000D01*
%TO.C,D344*%
X128942000Y-117780000D02*
X128942000Y-118580000D01*
X133592000Y-117780000D02*
X128942000Y-117780000D01*
X133592000Y-120980000D02*
X128942000Y-120980000D01*
%TO.C,D133*%
X64538250Y-101930000D02*
X69188250Y-101930000D01*
X69188250Y-101930000D02*
X69188250Y-101130000D01*
X64538250Y-98730000D02*
X69188250Y-98730000D01*
%TO.C,R67*%
X185224936Y-118470000D02*
X186679064Y-118470000D01*
X185224936Y-120290000D02*
X186679064Y-120290000D01*
%TO.C,R34*%
X195569064Y-86000000D02*
X194114936Y-86000000D01*
X195569064Y-84180000D02*
X194114936Y-84180000D01*
%TO.C,D401*%
X118352000Y-125400000D02*
X113702000Y-125400000D01*
X113702000Y-125400000D02*
X113702000Y-126200000D01*
X118352000Y-128600000D02*
X113702000Y-128600000D01*
%TO.C,D370*%
X173142000Y-101930000D02*
X173142000Y-101130000D01*
X168492000Y-101930000D02*
X173142000Y-101930000D01*
X168492000Y-98730000D02*
X173142000Y-98730000D01*
%TO.C,D238*%
X79792000Y-72060000D02*
X84442000Y-72060000D01*
X84442000Y-75260000D02*
X84442000Y-74460000D01*
X79792000Y-75260000D02*
X84442000Y-75260000D01*
%TO.C,D112*%
X118782000Y-98730000D02*
X118782000Y-99530000D01*
X123432000Y-101930000D02*
X118782000Y-101930000D01*
X123432000Y-98730000D02*
X118782000Y-98730000D01*
%TO.C,D9*%
X163412000Y-86690000D02*
X168062000Y-86690000D01*
X168062000Y-86690000D02*
X168062000Y-85890000D01*
X163412000Y-83490000D02*
X168062000Y-83490000D01*
%TO.C,D187*%
X153222000Y-75260000D02*
X157872000Y-75260000D01*
X153222000Y-72060000D02*
X157872000Y-72060000D01*
X157872000Y-75260000D02*
X157872000Y-74460000D01*
%TO.C,R45*%
X96554936Y-118470000D02*
X98009064Y-118470000D01*
X96554936Y-120290000D02*
X98009064Y-120290000D01*
%TO.C,D387*%
X168002000Y-117170000D02*
X168002000Y-116370000D01*
X163352000Y-117170000D02*
X168002000Y-117170000D01*
X163352000Y-113970000D02*
X168002000Y-113970000D01*
%TO.C,D21*%
X123862000Y-72060000D02*
X123862000Y-72860000D01*
X128512000Y-75260000D02*
X123862000Y-75260000D01*
X128512000Y-72060000D02*
X123862000Y-72060000D01*
%TO.C,D319*%
X138672000Y-105740000D02*
X134022000Y-105740000D01*
X138672000Y-102540000D02*
X134022000Y-102540000D01*
X134022000Y-102540000D02*
X134022000Y-103340000D01*
%TO.C,D305*%
X178192000Y-128600000D02*
X178192000Y-127800000D01*
X173542000Y-125400000D02*
X178192000Y-125400000D01*
X173542000Y-128600000D02*
X178192000Y-128600000D01*
%TO.C,R50*%
X195434064Y-126090000D02*
X193979936Y-126090000D01*
X195434064Y-127910000D02*
X193979936Y-127910000D01*
%TO.C,D352*%
X168462000Y-109550000D02*
X173112000Y-109550000D01*
X173112000Y-109550000D02*
X173112000Y-108750000D01*
X168462000Y-106350000D02*
X173112000Y-106350000D01*
%TO.C,SW2*%
X54201000Y-128946000D02*
X54201000Y-124546000D01*
X52401000Y-124546000D02*
X52501000Y-124546000D01*
X52401000Y-128946000D02*
X52501000Y-128946000D01*
X50701000Y-124546000D02*
X50701000Y-128946000D01*
%TO.C,D346*%
X118782000Y-117780000D02*
X118782000Y-118580000D01*
X123432000Y-120980000D02*
X118782000Y-120980000D01*
X123432000Y-117780000D02*
X118782000Y-117780000D01*
%TO.C,D259*%
X157872000Y-71450000D02*
X157872000Y-70650000D01*
X153222000Y-71450000D02*
X157872000Y-71450000D01*
X153222000Y-68250000D02*
X157872000Y-68250000D01*
%TO.C,D192*%
X178622000Y-75260000D02*
X183272000Y-75260000D01*
X178622000Y-72060000D02*
X183272000Y-72060000D01*
X183272000Y-75260000D02*
X183272000Y-74460000D01*
%TO.C,D278*%
X69637000Y-109550000D02*
X74287000Y-109550000D01*
X74287000Y-109550000D02*
X74287000Y-108750000D01*
X69637000Y-106350000D02*
X74287000Y-106350000D01*
%TO.C,D289*%
X157872000Y-94310000D02*
X157872000Y-93510000D01*
X153222000Y-91110000D02*
X157872000Y-91110000D01*
X153222000Y-94310000D02*
X157872000Y-94310000D01*
%TO.C,D179*%
X202602000Y-83490000D02*
X202602000Y-84290000D01*
X207252000Y-83490000D02*
X202602000Y-83490000D01*
X207252000Y-86690000D02*
X202602000Y-86690000D01*
%TO.C,D142*%
X79792000Y-124790000D02*
X84442000Y-124790000D01*
X84442000Y-124790000D02*
X84442000Y-123990000D01*
X79792000Y-121590000D02*
X84442000Y-121590000D01*
%TO.C,D49*%
X134022000Y-83490000D02*
X134022000Y-84290000D01*
X138672000Y-86690000D02*
X134022000Y-86690000D01*
X138672000Y-83490000D02*
X134022000Y-83490000D01*
%TO.C,D338*%
X162952000Y-132410000D02*
X162952000Y-131610000D01*
X158302000Y-132410000D02*
X162952000Y-132410000D01*
X158302000Y-129210000D02*
X162952000Y-129210000D01*
%TO.C,D70*%
X123432000Y-75870000D02*
X118782000Y-75870000D01*
X118782000Y-75870000D02*
X118782000Y-76670000D01*
X123432000Y-79070000D02*
X118782000Y-79070000D01*
%TO.C,D418*%
X168462000Y-113360000D02*
X173112000Y-113360000D01*
X168462000Y-110160000D02*
X173112000Y-110160000D01*
X173112000Y-113360000D02*
X173112000Y-112560000D01*
%TO.C,D97*%
X134022000Y-94920000D02*
X134022000Y-95720000D01*
X138672000Y-94920000D02*
X134022000Y-94920000D01*
X138672000Y-98120000D02*
X134022000Y-98120000D01*
%TO.C,R49*%
X195551564Y-89810000D02*
X194097436Y-89810000D01*
X195551564Y-87990000D02*
X194097436Y-87990000D01*
%TO.C,D46*%
X123432000Y-136220000D02*
X118782000Y-136220000D01*
X123432000Y-133020000D02*
X118782000Y-133020000D01*
X118782000Y-133020000D02*
X118782000Y-133820000D01*
%TO.C,D43*%
X138672000Y-133020000D02*
X134022000Y-133020000D01*
X134022000Y-133020000D02*
X134022000Y-133820000D01*
X138672000Y-136220000D02*
X134022000Y-136220000D01*
%TO.C,D285*%
X217412000Y-98120000D02*
X212762000Y-98120000D01*
X217412000Y-94920000D02*
X212762000Y-94920000D01*
X212762000Y-94920000D02*
X212762000Y-95720000D01*
%TO.C,D283*%
X222922000Y-94920000D02*
X222922000Y-95720000D01*
X227572000Y-94920000D02*
X222922000Y-94920000D01*
X227572000Y-98120000D02*
X222922000Y-98120000D01*
%TO.C,D431*%
X118352000Y-110160000D02*
X113702000Y-110160000D01*
X118352000Y-113360000D02*
X113702000Y-113360000D01*
X113702000Y-110160000D02*
X113702000Y-110960000D01*
%TO.C,D291*%
X168032000Y-94310000D02*
X168032000Y-93510000D01*
X163382000Y-94310000D02*
X168032000Y-94310000D01*
X163382000Y-91110000D02*
X168032000Y-91110000D01*
%TO.C,D175*%
X227572000Y-83490000D02*
X222922000Y-83490000D01*
X227572000Y-86690000D02*
X222922000Y-86690000D01*
X222922000Y-83490000D02*
X222922000Y-84290000D01*
%TO.C,D88*%
X118782000Y-91110000D02*
X118782000Y-91910000D01*
X123432000Y-94310000D02*
X118782000Y-94310000D01*
X123432000Y-91110000D02*
X118782000Y-91110000D01*
%TO.C,D216*%
X178622000Y-79070000D02*
X183272000Y-79070000D01*
X183272000Y-79070000D02*
X183272000Y-78270000D01*
X178622000Y-75870000D02*
X183272000Y-75870000D01*
%TO.C,D23*%
X118352000Y-75260000D02*
X113702000Y-75260000D01*
X118352000Y-72060000D02*
X113702000Y-72060000D01*
X113702000Y-72060000D02*
X113702000Y-72860000D01*
%TO.C,D332*%
X158302000Y-87300000D02*
X162952000Y-87300000D01*
X158302000Y-90500000D02*
X162952000Y-90500000D01*
X162952000Y-90500000D02*
X162952000Y-89700000D01*
%TO.C,D382*%
X118782000Y-113970000D02*
X118782000Y-114770000D01*
X123432000Y-113970000D02*
X118782000Y-113970000D01*
X123432000Y-117170000D02*
X118782000Y-117170000D01*
%TO.C,D239*%
X84872000Y-72060000D02*
X89522000Y-72060000D01*
X84872000Y-75260000D02*
X89522000Y-75260000D01*
X89522000Y-75260000D02*
X89522000Y-74460000D01*
%TO.C,R64*%
X185224936Y-105050000D02*
X186679064Y-105050000D01*
X185224936Y-103230000D02*
X186679064Y-103230000D01*
%TO.C,D269*%
X207234500Y-90500000D02*
X202584500Y-90500000D01*
X202584500Y-87300000D02*
X202584500Y-88100000D01*
X207234500Y-87300000D02*
X202584500Y-87300000D01*
%TO.C,D221*%
X118352000Y-82880000D02*
X113702000Y-82880000D01*
X113702000Y-79680000D02*
X113702000Y-80480000D01*
X118352000Y-79680000D02*
X113702000Y-79680000D01*
%TO.C,R52*%
X195569064Y-97430000D02*
X194114936Y-97430000D01*
X195569064Y-95610000D02*
X194114936Y-95610000D01*
%TO.C,U2*%
X54823000Y-116615000D02*
X55963000Y-116615000D01*
X55963000Y-116385000D02*
X58683000Y-116385000D01*
X55963000Y-121105000D02*
X55963000Y-120875000D01*
X55963000Y-116385000D02*
X55963000Y-116615000D01*
X58683000Y-116385000D02*
X58683000Y-117695000D01*
X58683000Y-121105000D02*
X55963000Y-121105000D01*
X58683000Y-119795000D02*
X58683000Y-121105000D01*
%TO.C,D156*%
X202172000Y-72060000D02*
X197522000Y-72060000D01*
X202172000Y-75260000D02*
X197522000Y-75260000D01*
X197522000Y-72060000D02*
X197522000Y-72860000D01*
%TO.C,D375*%
X168032000Y-120980000D02*
X168032000Y-120180000D01*
X163382000Y-117780000D02*
X168032000Y-117780000D01*
X163382000Y-120980000D02*
X168032000Y-120980000D01*
%TO.C,D262*%
X168462000Y-68250000D02*
X173112000Y-68250000D01*
X168462000Y-71450000D02*
X173112000Y-71450000D01*
X173112000Y-71450000D02*
X173112000Y-70650000D01*
%TO.C,C2*%
X55575252Y-93874000D02*
X54152748Y-93874000D01*
X55575252Y-92054000D02*
X54152748Y-92054000D01*
%TO.C,D251*%
X113702000Y-68250000D02*
X113702000Y-69050000D01*
X118352000Y-68250000D02*
X113702000Y-68250000D01*
X118352000Y-71450000D02*
X113702000Y-71450000D01*
%TO.C,D34*%
X207682000Y-133020000D02*
X207682000Y-133820000D01*
X212332000Y-136220000D02*
X207682000Y-136220000D01*
X212332000Y-133020000D02*
X207682000Y-133020000D01*
%TO.C,D207*%
X212762000Y-117780000D02*
X212762000Y-118580000D01*
X217412000Y-117780000D02*
X212762000Y-117780000D01*
X217412000Y-120980000D02*
X212762000Y-120980000D01*
%TO.C,D356*%
X158302000Y-105740000D02*
X162952000Y-105740000D01*
X158302000Y-102540000D02*
X162952000Y-102540000D01*
X162952000Y-105740000D02*
X162952000Y-104940000D01*
%TO.C,D84*%
X202172000Y-105740000D02*
X197522000Y-105740000D01*
X197522000Y-102540000D02*
X197522000Y-103340000D01*
X202172000Y-102540000D02*
X197522000Y-102540000D01*
%TO.C,D391*%
X153222000Y-136220000D02*
X157872000Y-136220000D01*
X153222000Y-133020000D02*
X157872000Y-133020000D01*
X157872000Y-136220000D02*
X157872000Y-135420000D01*
%TO.C,D134*%
X69618250Y-98730000D02*
X74268250Y-98730000D01*
X69618250Y-101930000D02*
X74268250Y-101930000D01*
X74268250Y-101930000D02*
X74268250Y-101130000D01*
%TO.C,D143*%
X89522000Y-124790000D02*
X89522000Y-123990000D01*
X84872000Y-124790000D02*
X89522000Y-124790000D01*
X84872000Y-121590000D02*
X89522000Y-121590000D01*
%TO.C,D373*%
X153222000Y-120980000D02*
X157872000Y-120980000D01*
X157872000Y-120980000D02*
X157872000Y-120180000D01*
X153222000Y-117780000D02*
X157872000Y-117780000D01*
%TO.C,D245*%
X84872000Y-120980000D02*
X89522000Y-120980000D01*
X89522000Y-120980000D02*
X89522000Y-120180000D01*
X84872000Y-117780000D02*
X89522000Y-117780000D01*
%TO.C,D203*%
X89522000Y-71450000D02*
X89522000Y-70650000D01*
X84872000Y-71450000D02*
X89522000Y-71450000D01*
X84872000Y-68250000D02*
X89522000Y-68250000D01*
%TO.C,D79*%
X227572000Y-105740000D02*
X222922000Y-105740000D01*
X222922000Y-102540000D02*
X222922000Y-103340000D01*
X227572000Y-102540000D02*
X222922000Y-102540000D01*
%TO.C,R60*%
X185224936Y-87990000D02*
X186679064Y-87990000D01*
X185224936Y-89810000D02*
X186679064Y-89810000D01*
%TO.C,R22*%
X195536564Y-129955000D02*
X194082436Y-129955000D01*
X195536564Y-131775000D02*
X194082436Y-131775000D01*
%TO.C,D310*%
X84442000Y-86690000D02*
X84442000Y-85890000D01*
X79792000Y-86690000D02*
X84442000Y-86690000D01*
X79792000Y-83490000D02*
X84442000Y-83490000D01*
%TO.C,D148*%
X212332000Y-117170000D02*
X207682000Y-117170000D01*
X207682000Y-113970000D02*
X207682000Y-114770000D01*
X212332000Y-113970000D02*
X207682000Y-113970000D01*
%TO.C,D163*%
X69202000Y-128600000D02*
X69202000Y-127800000D01*
X64552000Y-128600000D02*
X69202000Y-128600000D01*
X64552000Y-125400000D02*
X69202000Y-125400000D01*
%TO.C,D383*%
X113702000Y-113970000D02*
X113702000Y-114770000D01*
X118352000Y-113970000D02*
X113702000Y-113970000D01*
X118352000Y-117170000D02*
X113702000Y-117170000D01*
%TO.C,D367*%
X157902000Y-101930000D02*
X157902000Y-101130000D01*
X153252000Y-101930000D02*
X157902000Y-101930000D01*
X153252000Y-98730000D02*
X157902000Y-98730000D01*
%TO.C,D86*%
X133592000Y-91110000D02*
X128942000Y-91110000D01*
X133592000Y-94310000D02*
X128942000Y-94310000D01*
X128942000Y-91110000D02*
X128942000Y-91910000D01*
%TO.C,D218*%
X133592000Y-79680000D02*
X128942000Y-79680000D01*
X128942000Y-79680000D02*
X128942000Y-80480000D01*
X133592000Y-82880000D02*
X128942000Y-82880000D01*
%TO.C,D196*%
X212332000Y-110160000D02*
X207682000Y-110160000D01*
X212332000Y-113360000D02*
X207682000Y-113360000D01*
X207682000Y-110160000D02*
X207682000Y-110960000D01*
%TO.C,D273*%
X217277000Y-125400000D02*
X212627000Y-125400000D01*
X212627000Y-125400000D02*
X212627000Y-126200000D01*
X217277000Y-128600000D02*
X212627000Y-128600000D01*
%TO.C,D108*%
X202197000Y-132410000D02*
X197547000Y-132410000D01*
X197547000Y-129210000D02*
X197547000Y-130010000D01*
X202197000Y-129210000D02*
X197547000Y-129210000D01*
%TO.C,D170*%
X162952000Y-82880000D02*
X162952000Y-82080000D01*
X158302000Y-79680000D02*
X162952000Y-79680000D01*
X158302000Y-82880000D02*
X162952000Y-82880000D01*
%TO.C,R61*%
X185224936Y-131720000D02*
X186679064Y-131720000D01*
X185224936Y-129900000D02*
X186679064Y-129900000D01*
%TO.C,D330*%
X178622000Y-124790000D02*
X183272000Y-124790000D01*
X183272000Y-124790000D02*
X183272000Y-123990000D01*
X178622000Y-121590000D02*
X183272000Y-121590000D01*
%TO.C,D141*%
X74712000Y-121590000D02*
X79362000Y-121590000D01*
X74712000Y-124790000D02*
X79362000Y-124790000D01*
X79362000Y-124790000D02*
X79362000Y-123990000D01*
%TO.C,D105*%
X217437000Y-132410000D02*
X212787000Y-132410000D01*
X217437000Y-129210000D02*
X212787000Y-129210000D01*
X212787000Y-129210000D02*
X212787000Y-130010000D01*
%TO.C,R72*%
X185224936Y-97430000D02*
X186679064Y-97430000D01*
X185224936Y-95610000D02*
X186679064Y-95610000D01*
%TO.C,D45*%
X128512000Y-133020000D02*
X123862000Y-133020000D01*
X123862000Y-133020000D02*
X123862000Y-133820000D01*
X128512000Y-136220000D02*
X123862000Y-136220000D01*
%TO.C,D131*%
X207252000Y-82880000D02*
X202602000Y-82880000D01*
X202602000Y-79680000D02*
X202602000Y-80480000D01*
X207252000Y-79680000D02*
X202602000Y-79680000D01*
%TO.C,R30*%
X195569064Y-72750000D02*
X194114936Y-72750000D01*
X195569064Y-74570000D02*
X194114936Y-74570000D01*
%TO.C,D91*%
X227572000Y-98730000D02*
X222922000Y-98730000D01*
X222922000Y-98730000D02*
X222922000Y-99530000D01*
X227572000Y-101930000D02*
X222922000Y-101930000D01*
%TO.C,D15*%
X74712000Y-113970000D02*
X79362000Y-113970000D01*
X79362000Y-117170000D02*
X79362000Y-116370000D01*
X74712000Y-117170000D02*
X79362000Y-117170000D01*
%TO.C,D265*%
X227554500Y-87300000D02*
X222904500Y-87300000D01*
X227554500Y-90500000D02*
X222904500Y-90500000D01*
X222904500Y-87300000D02*
X222904500Y-88100000D01*
%TO.C,D258*%
X113272000Y-87300000D02*
X108622000Y-87300000D01*
X108622000Y-87300000D02*
X108622000Y-88100000D01*
X113272000Y-90500000D02*
X108622000Y-90500000D01*
%TO.C,D3*%
X74712000Y-102540000D02*
X79362000Y-102540000D01*
X79362000Y-105740000D02*
X79362000Y-104940000D01*
X74712000Y-105740000D02*
X79362000Y-105740000D01*
%TO.C,R59*%
X185224936Y-124100000D02*
X186679064Y-124100000D01*
X185224936Y-122280000D02*
X186679064Y-122280000D01*
%TO.C,C3*%
X56057748Y-115845000D02*
X57480252Y-115845000D01*
X56057748Y-114025000D02*
X57480252Y-114025000D01*
%TO.C,R46*%
X106669064Y-70760000D02*
X105214936Y-70760000D01*
X106669064Y-68940000D02*
X105214936Y-68940000D01*
%TO.C,D318*%
X89952000Y-87300000D02*
X94602000Y-87300000D01*
X89952000Y-90500000D02*
X94602000Y-90500000D01*
X94602000Y-90500000D02*
X94602000Y-89700000D01*
%TO.C,D96*%
X197522000Y-98730000D02*
X197522000Y-99530000D01*
X202172000Y-98730000D02*
X197522000Y-98730000D01*
X202172000Y-101930000D02*
X197522000Y-101930000D01*
%TO.C,D4*%
X79792000Y-102540000D02*
X84442000Y-102540000D01*
X84442000Y-105740000D02*
X84442000Y-104940000D01*
X79792000Y-105740000D02*
X84442000Y-105740000D01*
%TO.C,D432*%
X113272000Y-113360000D02*
X108622000Y-113360000D01*
X108622000Y-110160000D02*
X108622000Y-110960000D01*
X113272000Y-110160000D02*
X108622000Y-110160000D01*
%TO.C,D69*%
X128512000Y-79070000D02*
X123862000Y-79070000D01*
X123862000Y-75870000D02*
X123862000Y-76670000D01*
X128512000Y-75870000D02*
X123862000Y-75870000D01*
%TO.C,D155*%
X202602000Y-72060000D02*
X202602000Y-72860000D01*
X207252000Y-75260000D02*
X202602000Y-75260000D01*
X207252000Y-72060000D02*
X202602000Y-72060000D01*
%TO.C,D95*%
X202602000Y-98730000D02*
X202602000Y-99530000D01*
X207252000Y-101930000D02*
X202602000Y-101930000D01*
X207252000Y-98730000D02*
X202602000Y-98730000D01*
%TO.C,D198*%
X202172000Y-113360000D02*
X197522000Y-113360000D01*
X202172000Y-110160000D02*
X197522000Y-110160000D01*
X197522000Y-110160000D02*
X197522000Y-110960000D01*
%TO.C,D334*%
X168462000Y-87300000D02*
X173112000Y-87300000D01*
X168462000Y-90500000D02*
X173112000Y-90500000D01*
X173112000Y-90500000D02*
X173112000Y-89700000D01*
%TO.C,D381*%
X123862000Y-113970000D02*
X123862000Y-114770000D01*
X128512000Y-113970000D02*
X123862000Y-113970000D01*
X128512000Y-117170000D02*
X123862000Y-117170000D01*
%TO.C,R41*%
X106669064Y-80370000D02*
X105214936Y-80370000D01*
X106669064Y-82190000D02*
X105214936Y-82190000D01*
%TO.C,D270*%
X202154500Y-87300000D02*
X197504500Y-87300000D01*
X202154500Y-90500000D02*
X197504500Y-90500000D01*
X197504500Y-87300000D02*
X197504500Y-88100000D01*
%TO.C,D426*%
X113272000Y-106350000D02*
X108622000Y-106350000D01*
X113272000Y-109550000D02*
X108622000Y-109550000D01*
X108622000Y-106350000D02*
X108622000Y-107150000D01*
%TO.C,D243*%
X74712000Y-117780000D02*
X79362000Y-117780000D01*
X79362000Y-120980000D02*
X79362000Y-120180000D01*
X74712000Y-120980000D02*
X79362000Y-120980000D01*
%TO.C,D78*%
X202172000Y-71450000D02*
X197522000Y-71450000D01*
X197522000Y-68250000D02*
X197522000Y-69050000D01*
X202172000Y-68250000D02*
X197522000Y-68250000D01*
%TO.C,D222*%
X113272000Y-79680000D02*
X108622000Y-79680000D01*
X108622000Y-79680000D02*
X108622000Y-80480000D01*
X113272000Y-82880000D02*
X108622000Y-82880000D01*
%TO.C,D106*%
X212357000Y-132410000D02*
X207707000Y-132410000D01*
X207707000Y-129210000D02*
X207707000Y-130010000D01*
X212357000Y-129210000D02*
X207707000Y-129210000D01*
%TO.C,D42*%
X113272000Y-132410000D02*
X108622000Y-132410000D01*
X113272000Y-129210000D02*
X108622000Y-129210000D01*
X108622000Y-129210000D02*
X108622000Y-130010000D01*
%TO.C,D202*%
X79792000Y-68250000D02*
X84442000Y-68250000D01*
X79792000Y-71450000D02*
X84442000Y-71450000D01*
X84442000Y-71450000D02*
X84442000Y-70650000D01*
%TO.C,R57*%
X96554936Y-87990000D02*
X98009064Y-87990000D01*
X96554936Y-89810000D02*
X98009064Y-89810000D01*
%TO.C,D152*%
X217842000Y-72060000D02*
X217842000Y-72860000D01*
X222492000Y-72060000D02*
X217842000Y-72060000D01*
X222492000Y-75260000D02*
X217842000Y-75260000D01*
%TO.C,D281*%
X84877000Y-106350000D02*
X89527000Y-106350000D01*
X84877000Y-109550000D02*
X89527000Y-109550000D01*
X89527000Y-109550000D02*
X89527000Y-108750000D01*
%TO.C,D63*%
X212762000Y-106350000D02*
X212762000Y-107150000D01*
X217412000Y-106350000D02*
X212762000Y-106350000D01*
X217412000Y-109550000D02*
X212762000Y-109550000D01*
%TO.C,D397*%
X138672000Y-128600000D02*
X134022000Y-128600000D01*
X134022000Y-125400000D02*
X134022000Y-126200000D01*
X138672000Y-125400000D02*
X134022000Y-125400000D01*
%TO.C,D103*%
X227597000Y-132410000D02*
X222947000Y-132410000D01*
X227597000Y-129210000D02*
X222947000Y-129210000D01*
X222947000Y-129210000D02*
X222947000Y-130010000D01*
%TO.C,D229*%
X64552000Y-98120000D02*
X69202000Y-98120000D01*
X64552000Y-94920000D02*
X69202000Y-94920000D01*
X69202000Y-98120000D02*
X69202000Y-97320000D01*
%TO.C,D287*%
X207252000Y-94920000D02*
X202602000Y-94920000D01*
X202602000Y-94920000D02*
X202602000Y-95720000D01*
X207252000Y-98120000D02*
X202602000Y-98120000D01*
%TO.C,D29*%
X84872000Y-91110000D02*
X89522000Y-91110000D01*
X84872000Y-94310000D02*
X89522000Y-94310000D01*
X89522000Y-94310000D02*
X89522000Y-93510000D01*
%TO.C,D327*%
X163382000Y-121590000D02*
X168032000Y-121590000D01*
X163382000Y-124790000D02*
X168032000Y-124790000D01*
X168032000Y-124790000D02*
X168032000Y-123990000D01*
%TO.C,D174*%
X178622000Y-79680000D02*
X183272000Y-79680000D01*
X178622000Y-82880000D02*
X183272000Y-82880000D01*
X183272000Y-82880000D02*
X183272000Y-82080000D01*
%TO.C,D277*%
X64557000Y-109550000D02*
X69207000Y-109550000D01*
X64557000Y-106350000D02*
X69207000Y-106350000D01*
X69207000Y-109550000D02*
X69207000Y-108750000D01*
%TO.C,R1*%
X96554936Y-103230000D02*
X98009064Y-103230000D01*
X96554936Y-105050000D02*
X98009064Y-105050000D01*
%TO.C,D125*%
X207252000Y-75870000D02*
X202602000Y-75870000D01*
X202602000Y-75870000D02*
X202602000Y-76670000D01*
X207252000Y-79070000D02*
X202602000Y-79070000D01*
%TO.C,D403*%
X153222000Y-98120000D02*
X157872000Y-98120000D01*
X153222000Y-94920000D02*
X157872000Y-94920000D01*
X157872000Y-98120000D02*
X157872000Y-97320000D01*
%TO.C,D116*%
X69632000Y-132410000D02*
X74282000Y-132410000D01*
X69632000Y-129210000D02*
X74282000Y-129210000D01*
X74282000Y-132410000D02*
X74282000Y-131610000D01*
%TO.C,R39*%
X195569064Y-118470000D02*
X194114936Y-118470000D01*
X195569064Y-120290000D02*
X194114936Y-120290000D01*
%TO.C,D153*%
X217412000Y-72060000D02*
X212762000Y-72060000D01*
X212762000Y-72060000D02*
X212762000Y-72860000D01*
X217412000Y-75260000D02*
X212762000Y-75260000D01*
%TO.C,R42*%
X96554936Y-135530000D02*
X98009064Y-135530000D01*
X96554936Y-133710000D02*
X98009064Y-133710000D01*
%TO.C,D5*%
X84872000Y-102540000D02*
X89522000Y-102540000D01*
X89522000Y-105740000D02*
X89522000Y-104940000D01*
X84872000Y-105740000D02*
X89522000Y-105740000D01*
%TO.C,D2*%
X74282000Y-105740000D02*
X74282000Y-104940000D01*
X69632000Y-105740000D02*
X74282000Y-105740000D01*
X69632000Y-102540000D02*
X74282000Y-102540000D01*
%TO.C,D217*%
X138672000Y-82880000D02*
X134022000Y-82880000D01*
X138672000Y-79680000D02*
X134022000Y-79680000D01*
X134022000Y-79680000D02*
X134022000Y-80480000D01*
%TO.C,D82*%
X207682000Y-102540000D02*
X207682000Y-103340000D01*
X212332000Y-102540000D02*
X207682000Y-102540000D01*
X212332000Y-105740000D02*
X207682000Y-105740000D01*
%TO.C,D144*%
X89952000Y-124790000D02*
X94602000Y-124790000D01*
X94602000Y-124790000D02*
X94602000Y-123990000D01*
X89952000Y-121590000D02*
X94602000Y-121590000D01*
%TO.C,D227*%
X84872000Y-136220000D02*
X89522000Y-136220000D01*
X84872000Y-133020000D02*
X89522000Y-133020000D01*
X89522000Y-136220000D02*
X89522000Y-135420000D01*
%TO.C,D64*%
X212332000Y-106350000D02*
X207682000Y-106350000D01*
X207682000Y-106350000D02*
X207682000Y-107150000D01*
X212332000Y-109550000D02*
X207682000Y-109550000D01*
%TO.C,D321*%
X123862000Y-102540000D02*
X123862000Y-103340000D01*
X128512000Y-105740000D02*
X123862000Y-105740000D01*
X128512000Y-102540000D02*
X123862000Y-102540000D01*
%TO.C,R68*%
X106669064Y-116480000D02*
X105214936Y-116480000D01*
X106669064Y-114660000D02*
X105214936Y-114660000D01*
%TO.C,D363*%
X74712000Y-79680000D02*
X79362000Y-79680000D01*
X79362000Y-82880000D02*
X79362000Y-82080000D01*
X74712000Y-82880000D02*
X79362000Y-82880000D01*
%TO.C,R70*%
X185224936Y-133710000D02*
X186679064Y-133710000D01*
X185224936Y-135530000D02*
X186679064Y-135530000D01*
%TO.C,D249*%
X128512000Y-71450000D02*
X123862000Y-71450000D01*
X123862000Y-68250000D02*
X123862000Y-69050000D01*
X128512000Y-68250000D02*
X123862000Y-68250000D01*
%TO.C,R43*%
X96554936Y-95610000D02*
X98009064Y-95610000D01*
X96554936Y-97430000D02*
X98009064Y-97430000D01*
%TO.C,D271*%
X227572000Y-128600000D02*
X222922000Y-128600000D01*
X222922000Y-125400000D02*
X222922000Y-126200000D01*
X227572000Y-125400000D02*
X222922000Y-125400000D01*
%TO.C,D16*%
X79792000Y-117170000D02*
X84442000Y-117170000D01*
X84442000Y-117170000D02*
X84442000Y-116370000D01*
X79792000Y-113970000D02*
X84442000Y-113970000D01*
%TO.C,Q1*%
X50220000Y-70690000D02*
X50220000Y-82360000D01*
X60340000Y-80960000D02*
X60340000Y-70690000D01*
%TO.C,R24*%
X96554936Y-131720000D02*
X98009064Y-131720000D01*
X96554936Y-129900000D02*
X98009064Y-129900000D01*
%TO.C,R35*%
X195569064Y-91800000D02*
X194114936Y-91800000D01*
X195569064Y-93620000D02*
X194114936Y-93620000D01*
%TO.C,R5*%
X46207000Y-126838064D02*
X46207000Y-125383936D01*
X48027000Y-126838064D02*
X48027000Y-125383936D01*
%TO.C,R13*%
X106669064Y-86000000D02*
X105214936Y-86000000D01*
X106669064Y-84180000D02*
X105214936Y-84180000D01*
%TO.C,D423*%
X128512000Y-106350000D02*
X123862000Y-106350000D01*
X128512000Y-109550000D02*
X123862000Y-109550000D01*
X123862000Y-106350000D02*
X123862000Y-107150000D01*
%TO.C,R21*%
X106669064Y-95610000D02*
X105214936Y-95610000D01*
X106669064Y-97430000D02*
X105214936Y-97430000D01*
%TO.C,D395*%
X173542000Y-133020000D02*
X178192000Y-133020000D01*
X178192000Y-136220000D02*
X178192000Y-135420000D01*
X173542000Y-136220000D02*
X178192000Y-136220000D01*
%TO.C,D189*%
X168032000Y-75260000D02*
X168032000Y-74460000D01*
X163382000Y-75260000D02*
X168032000Y-75260000D01*
X163382000Y-72060000D02*
X168032000Y-72060000D01*
%TO.C,D312*%
X89952000Y-83490000D02*
X94602000Y-83490000D01*
X89952000Y-86690000D02*
X94602000Y-86690000D01*
X94602000Y-86690000D02*
X94602000Y-85890000D01*
%TO.C,D136*%
X79778250Y-101930000D02*
X84428250Y-101930000D01*
X84428250Y-101930000D02*
X84428250Y-101130000D01*
X79778250Y-98730000D02*
X84428250Y-98730000D01*
%TO.C,D276*%
X197387000Y-125400000D02*
X197387000Y-126200000D01*
X202037000Y-125400000D02*
X197387000Y-125400000D01*
X202037000Y-128600000D02*
X197387000Y-128600000D01*
%TO.C,D228*%
X89952000Y-133020000D02*
X94602000Y-133020000D01*
X89952000Y-136220000D02*
X94602000Y-136220000D01*
X94602000Y-136220000D02*
X94602000Y-135420000D01*
%TO.C,D100*%
X123432000Y-94920000D02*
X118782000Y-94920000D01*
X118782000Y-94920000D02*
X118782000Y-95720000D01*
X123432000Y-98120000D02*
X118782000Y-98120000D01*
%TO.C,R75*%
X106669064Y-107040000D02*
X105214936Y-107040000D01*
X106669064Y-108860000D02*
X105214936Y-108860000D01*
%TO.C,D13*%
X69202000Y-117170000D02*
X69202000Y-116370000D01*
X64552000Y-117170000D02*
X69202000Y-117170000D01*
X64552000Y-113970000D02*
X69202000Y-113970000D01*
%TO.C,D412*%
X84442000Y-79070000D02*
X84442000Y-78270000D01*
X79792000Y-79070000D02*
X84442000Y-79070000D01*
X79792000Y-75870000D02*
X84442000Y-75870000D01*
%TO.C,D206*%
X222492000Y-120980000D02*
X217842000Y-120980000D01*
X222492000Y-117780000D02*
X217842000Y-117780000D01*
X217842000Y-117780000D02*
X217842000Y-118580000D01*
%TO.C,D60*%
X197522000Y-121590000D02*
X197522000Y-122390000D01*
X202172000Y-121590000D02*
X197522000Y-121590000D01*
X202172000Y-124790000D02*
X197522000Y-124790000D01*
%TO.C,D194*%
X217842000Y-110160000D02*
X217842000Y-110960000D01*
X222492000Y-110160000D02*
X217842000Y-110160000D01*
X222492000Y-113360000D02*
X217842000Y-113360000D01*
%TO.C,D118*%
X79792000Y-132410000D02*
X84442000Y-132410000D01*
X79792000Y-129210000D02*
X84442000Y-129210000D01*
X84442000Y-132410000D02*
X84442000Y-131610000D01*
%TO.C,D24*%
X108622000Y-72060000D02*
X108622000Y-72860000D01*
X113272000Y-75260000D02*
X108622000Y-75260000D01*
X113272000Y-72060000D02*
X108622000Y-72060000D01*
%TO.C,D214*%
X168462000Y-75870000D02*
X173112000Y-75870000D01*
X168462000Y-79070000D02*
X173112000Y-79070000D01*
X173112000Y-79070000D02*
X173112000Y-78270000D01*
%TO.C,D322*%
X123432000Y-102540000D02*
X118782000Y-102540000D01*
X123432000Y-105740000D02*
X118782000Y-105740000D01*
X118782000Y-102540000D02*
X118782000Y-103340000D01*
%TO.C,D359*%
X173542000Y-102540000D02*
X178192000Y-102540000D01*
X173542000Y-105740000D02*
X178192000Y-105740000D01*
X178192000Y-105740000D02*
X178192000Y-104940000D01*
%TO.C,D350*%
X158302000Y-106350000D02*
X162952000Y-106350000D01*
X162952000Y-109550000D02*
X162952000Y-108750000D01*
X158302000Y-109550000D02*
X162952000Y-109550000D01*
%TO.C,D355*%
X157872000Y-105740000D02*
X157872000Y-104940000D01*
X153222000Y-102540000D02*
X157872000Y-102540000D01*
X153222000Y-105740000D02*
X157872000Y-105740000D01*
%TO.C,D295*%
X138672000Y-121590000D02*
X134022000Y-121590000D01*
X138672000Y-124790000D02*
X134022000Y-124790000D01*
X134022000Y-121590000D02*
X134022000Y-122390000D01*
%TO.C,D374*%
X162952000Y-120980000D02*
X162952000Y-120180000D01*
X158302000Y-120980000D02*
X162952000Y-120980000D01*
X158302000Y-117780000D02*
X162952000Y-117780000D01*
%TO.C,D102*%
X113272000Y-94920000D02*
X108622000Y-94920000D01*
X113272000Y-98120000D02*
X108622000Y-98120000D01*
X108622000Y-94920000D02*
X108622000Y-95720000D01*
%TO.C,R15*%
X195569064Y-107040000D02*
X194114936Y-107040000D01*
X195569064Y-108860000D02*
X194114936Y-108860000D01*
%TO.C,D208*%
X212332000Y-120980000D02*
X207682000Y-120980000D01*
X212332000Y-117780000D02*
X207682000Y-117780000D01*
X207682000Y-117780000D02*
X207682000Y-118580000D01*
%TO.C,R31*%
X96554936Y-112670000D02*
X98009064Y-112670000D01*
X96554936Y-110850000D02*
X98009064Y-110850000D01*
%TO.C,D38*%
X133592000Y-129210000D02*
X128942000Y-129210000D01*
X128942000Y-129210000D02*
X128942000Y-130010000D01*
X133592000Y-132410000D02*
X128942000Y-132410000D01*
%TO.C,D411*%
X79362000Y-79070000D02*
X79362000Y-78270000D01*
X74712000Y-75870000D02*
X79362000Y-75870000D01*
X74712000Y-79070000D02*
X79362000Y-79070000D01*
%TO.C,D135*%
X74698250Y-101930000D02*
X79348250Y-101930000D01*
X79348250Y-101930000D02*
X79348250Y-101130000D01*
X74698250Y-98730000D02*
X79348250Y-98730000D01*
%TO.C,D430*%
X118782000Y-110160000D02*
X118782000Y-110960000D01*
X123432000Y-110160000D02*
X118782000Y-110160000D01*
X123432000Y-113360000D02*
X118782000Y-113360000D01*
%TO.C,D27*%
X79362000Y-94310000D02*
X79362000Y-93510000D01*
X74712000Y-91110000D02*
X79362000Y-91110000D01*
X74712000Y-94310000D02*
X79362000Y-94310000D01*
%TO.C,D425*%
X118352000Y-109550000D02*
X113702000Y-109550000D01*
X113702000Y-106350000D02*
X113702000Y-107150000D01*
X118352000Y-106350000D02*
X113702000Y-106350000D01*
%TO.C,D199*%
X64552000Y-71450000D02*
X69202000Y-71450000D01*
X69202000Y-71450000D02*
X69202000Y-70650000D01*
X64552000Y-68250000D02*
X69202000Y-68250000D01*
%TO.C,D7*%
X157902000Y-86690000D02*
X157902000Y-85890000D01*
X153252000Y-86690000D02*
X157902000Y-86690000D01*
X153252000Y-83490000D02*
X157902000Y-83490000D01*
%TO.C,D145*%
X227572000Y-117170000D02*
X222922000Y-117170000D01*
X227572000Y-113970000D02*
X222922000Y-113970000D01*
X222922000Y-113970000D02*
X222922000Y-114770000D01*
%TO.C,D68*%
X133592000Y-79070000D02*
X128942000Y-79070000D01*
X133592000Y-75870000D02*
X128942000Y-75870000D01*
X128942000Y-75870000D02*
X128942000Y-76670000D01*
%TO.C,D117*%
X74712000Y-129210000D02*
X79362000Y-129210000D01*
X74712000Y-132410000D02*
X79362000Y-132410000D01*
X79362000Y-132410000D02*
X79362000Y-131610000D01*
%TO.C,D25*%
X64552000Y-91110000D02*
X69202000Y-91110000D01*
X64552000Y-94310000D02*
X69202000Y-94310000D01*
X69202000Y-94310000D02*
X69202000Y-93510000D01*
%TO.C,D195*%
X212762000Y-110160000D02*
X212762000Y-110960000D01*
X217412000Y-113360000D02*
X212762000Y-113360000D01*
X217412000Y-110160000D02*
X212762000Y-110160000D01*
%TO.C,R32*%
X96554936Y-126090000D02*
X98009064Y-126090000D01*
X96554936Y-127910000D02*
X98009064Y-127910000D01*
%TO.C,D65*%
X207252000Y-106350000D02*
X202602000Y-106350000D01*
X207252000Y-109550000D02*
X202602000Y-109550000D01*
X202602000Y-106350000D02*
X202602000Y-107150000D01*
%TO.C,D296*%
X133592000Y-124790000D02*
X128942000Y-124790000D01*
X128942000Y-121590000D02*
X128942000Y-122390000D01*
X133592000Y-121590000D02*
X128942000Y-121590000D01*
%TO.C,R10*%
X195569064Y-135530000D02*
X194114936Y-135530000D01*
X195569064Y-133710000D02*
X194114936Y-133710000D01*
%TO.C,R51*%
X96559936Y-108860000D02*
X98014064Y-108860000D01*
X96559936Y-107040000D02*
X98014064Y-107040000D01*
%TO.C,D340*%
X173112000Y-132410000D02*
X173112000Y-131610000D01*
X168462000Y-129210000D02*
X173112000Y-129210000D01*
X168462000Y-132410000D02*
X173112000Y-132410000D01*
%TO.C,D6*%
X89952000Y-105740000D02*
X94602000Y-105740000D01*
X89952000Y-102540000D02*
X94602000Y-102540000D01*
X94602000Y-105740000D02*
X94602000Y-104940000D01*
%TO.C,D52*%
X123432000Y-83490000D02*
X118782000Y-83490000D01*
X118782000Y-83490000D02*
X118782000Y-84290000D01*
X123432000Y-86690000D02*
X118782000Y-86690000D01*
%TO.C,D150*%
X197522000Y-113970000D02*
X197522000Y-114770000D01*
X202172000Y-113970000D02*
X197522000Y-113970000D01*
X202172000Y-117170000D02*
X197522000Y-117170000D01*
%TO.C,D107*%
X207277000Y-129210000D02*
X202627000Y-129210000D01*
X202627000Y-129210000D02*
X202627000Y-130010000D01*
X207277000Y-132410000D02*
X202627000Y-132410000D01*
%TO.C,D183*%
X217412000Y-94310000D02*
X212762000Y-94310000D01*
X212762000Y-91110000D02*
X212762000Y-91910000D01*
X217412000Y-91110000D02*
X212762000Y-91110000D01*
%TO.C,D56*%
X222492000Y-124790000D02*
X217842000Y-124790000D01*
X217842000Y-121590000D02*
X217842000Y-122390000D01*
X222492000Y-121590000D02*
X217842000Y-121590000D01*
%TO.C,D50*%
X133592000Y-86690000D02*
X128942000Y-86690000D01*
X133592000Y-83490000D02*
X128942000Y-83490000D01*
X128942000Y-83490000D02*
X128942000Y-84290000D01*
%TO.C,D58*%
X207682000Y-121590000D02*
X207682000Y-122390000D01*
X212332000Y-124790000D02*
X207682000Y-124790000D01*
X212332000Y-121590000D02*
X207682000Y-121590000D01*
%TO.C,D22*%
X123432000Y-72060000D02*
X118782000Y-72060000D01*
X118782000Y-72060000D02*
X118782000Y-72860000D01*
X123432000Y-75260000D02*
X118782000Y-75260000D01*
%TO.C,D127*%
X222922000Y-79680000D02*
X222922000Y-80480000D01*
X227572000Y-79680000D02*
X222922000Y-79680000D01*
X227572000Y-82880000D02*
X222922000Y-82880000D01*
%TO.C,D53*%
X113702000Y-83490000D02*
X113702000Y-84290000D01*
X118352000Y-86690000D02*
X113702000Y-86690000D01*
X118352000Y-83490000D02*
X113702000Y-83490000D01*
%TO.C,D311*%
X84872000Y-83490000D02*
X89522000Y-83490000D01*
X89522000Y-86690000D02*
X89522000Y-85890000D01*
X84872000Y-86690000D02*
X89522000Y-86690000D01*
%TO.C,D275*%
X207117000Y-125400000D02*
X202467000Y-125400000D01*
X202467000Y-125400000D02*
X202467000Y-126200000D01*
X207117000Y-128600000D02*
X202467000Y-128600000D01*
%TO.C,D384*%
X113272000Y-113970000D02*
X108622000Y-113970000D01*
X108622000Y-113970000D02*
X108622000Y-114770000D01*
X113272000Y-117170000D02*
X108622000Y-117170000D01*
%TO.C,R25*%
X195569064Y-76560000D02*
X194114936Y-76560000D01*
X195569064Y-78380000D02*
X194114936Y-78380000D01*
%TO.C,R9*%
X96554936Y-93620000D02*
X98009064Y-93620000D01*
X96554936Y-91800000D02*
X98009064Y-91800000D01*
%TO.C,RV1*%
X39582000Y-138494000D02*
X39582000Y-131254000D01*
X50223000Y-139744000D02*
X50223000Y-130004000D01*
X50223000Y-130004000D02*
X44582000Y-130004000D01*
X39582000Y-132254000D02*
X32582000Y-132254000D01*
X44582000Y-138494000D02*
X39582000Y-138494000D01*
X44582000Y-131254000D02*
X39582000Y-131254000D01*
X39582000Y-137494000D02*
X32582000Y-137494000D01*
X50223000Y-139744000D02*
X44582000Y-139744000D01*
X44582000Y-139744000D02*
X44582000Y-130004000D01*
X32582000Y-137494000D02*
X32582000Y-132254000D01*
%TO.C,D345*%
X123862000Y-117780000D02*
X123862000Y-118580000D01*
X128512000Y-120980000D02*
X123862000Y-120980000D01*
X128512000Y-117780000D02*
X123862000Y-117780000D01*
%TO.C,D74*%
X222492000Y-71450000D02*
X217842000Y-71450000D01*
X217842000Y-68250000D02*
X217842000Y-69050000D01*
X222492000Y-68250000D02*
X217842000Y-68250000D01*
%TO.C,D360*%
X183272000Y-105740000D02*
X183272000Y-104940000D01*
X178622000Y-105740000D02*
X183272000Y-105740000D01*
X178622000Y-102540000D02*
X183272000Y-102540000D01*
%TO.C,D233*%
X84872000Y-94920000D02*
X89522000Y-94920000D01*
X84872000Y-98120000D02*
X89522000Y-98120000D01*
X89522000Y-98120000D02*
X89522000Y-97320000D01*
%TO.C,D180*%
X202172000Y-86690000D02*
X197522000Y-86690000D01*
X202172000Y-83490000D02*
X197522000Y-83490000D01*
X197522000Y-83490000D02*
X197522000Y-84290000D01*
%TO.C,D224*%
X69632000Y-133020000D02*
X74282000Y-133020000D01*
X69632000Y-136220000D02*
X74282000Y-136220000D01*
X74282000Y-136220000D02*
X74282000Y-135420000D01*
%TO.C,D378*%
X178622000Y-120980000D02*
X183272000Y-120980000D01*
X178622000Y-117780000D02*
X183272000Y-117780000D01*
X183272000Y-120980000D02*
X183272000Y-120180000D01*
%TO.C,D399*%
X128512000Y-128600000D02*
X123862000Y-128600000D01*
X128512000Y-125400000D02*
X123862000Y-125400000D01*
X123862000Y-125400000D02*
X123862000Y-126200000D01*
%TO.C,D181*%
X227572000Y-94310000D02*
X222922000Y-94310000D01*
X227572000Y-91110000D02*
X222922000Y-91110000D01*
X222922000Y-91110000D02*
X222922000Y-91910000D01*
%TO.C,R37*%
X195569064Y-110850000D02*
X194114936Y-110850000D01*
X195569064Y-112670000D02*
X194114936Y-112670000D01*
%TO.C,D307*%
X64552000Y-83490000D02*
X69202000Y-83490000D01*
X64552000Y-86690000D02*
X69202000Y-86690000D01*
X69202000Y-86690000D02*
X69202000Y-85890000D01*
%TO.C,D365*%
X84872000Y-82880000D02*
X89522000Y-82880000D01*
X84872000Y-79680000D02*
X89522000Y-79680000D01*
X89522000Y-82880000D02*
X89522000Y-82080000D01*
%TO.C,R14*%
X195569064Y-124100000D02*
X194114936Y-124100000D01*
X195569064Y-122280000D02*
X194114936Y-122280000D01*
%TO.C,D209*%
X202602000Y-117780000D02*
X202602000Y-118580000D01*
X207252000Y-117780000D02*
X202602000Y-117780000D01*
X207252000Y-120980000D02*
X202602000Y-120980000D01*
%TO.C,D220*%
X123432000Y-79680000D02*
X118782000Y-79680000D01*
X118782000Y-79680000D02*
X118782000Y-80480000D01*
X123432000Y-82880000D02*
X118782000Y-82880000D01*
%TO.C,R54*%
X106669064Y-122280000D02*
X105214936Y-122280000D01*
X106669064Y-124100000D02*
X105214936Y-124100000D01*
%TO.C,D32*%
X222492000Y-136220000D02*
X217842000Y-136220000D01*
X222492000Y-133020000D02*
X217842000Y-133020000D01*
X217842000Y-133020000D02*
X217842000Y-133820000D01*
%TO.C,D290*%
X158302000Y-94310000D02*
X162952000Y-94310000D01*
X158302000Y-91110000D02*
X162952000Y-91110000D01*
X162952000Y-94310000D02*
X162952000Y-93510000D01*
%TO.C,D182*%
X222492000Y-91110000D02*
X217842000Y-91110000D01*
X222492000Y-94310000D02*
X217842000Y-94310000D01*
X217842000Y-91110000D02*
X217842000Y-91910000D01*
%TO.C,D226*%
X84442000Y-136220000D02*
X84442000Y-135420000D01*
X79792000Y-136220000D02*
X84442000Y-136220000D01*
X79792000Y-133020000D02*
X84442000Y-133020000D01*
%TO.C,D323*%
X118352000Y-102540000D02*
X113702000Y-102540000D01*
X118352000Y-105740000D02*
X113702000Y-105740000D01*
X113702000Y-102540000D02*
X113702000Y-103340000D01*
%TO.C,D297*%
X123862000Y-121590000D02*
X123862000Y-122390000D01*
X128512000Y-121590000D02*
X123862000Y-121590000D01*
X128512000Y-124790000D02*
X123862000Y-124790000D01*
%TO.C,D371*%
X178222000Y-101930000D02*
X178222000Y-101130000D01*
X173572000Y-101930000D02*
X178222000Y-101930000D01*
X173572000Y-98730000D02*
X178222000Y-98730000D01*
%TO.C,D369*%
X168062000Y-101930000D02*
X168062000Y-101130000D01*
X163412000Y-98730000D02*
X168062000Y-98730000D01*
X163412000Y-101930000D02*
X168062000Y-101930000D01*
%TO.C,D339*%
X163382000Y-129210000D02*
X168032000Y-129210000D01*
X168032000Y-132410000D02*
X168032000Y-131610000D01*
X163382000Y-132410000D02*
X168032000Y-132410000D01*
%TO.C,D380*%
X128942000Y-113970000D02*
X128942000Y-114770000D01*
X133592000Y-117170000D02*
X128942000Y-117170000D01*
X133592000Y-113970000D02*
X128942000Y-113970000D01*
%TO.C,D168*%
X94602000Y-128600000D02*
X94602000Y-127800000D01*
X89952000Y-128600000D02*
X94602000Y-128600000D01*
X89952000Y-125400000D02*
X94602000Y-125400000D01*
%TO.C,D416*%
X158302000Y-110160000D02*
X162952000Y-110160000D01*
X158302000Y-113360000D02*
X162952000Y-113360000D01*
X162952000Y-113360000D02*
X162952000Y-112560000D01*
%TO.C,D188*%
X162952000Y-75260000D02*
X162952000Y-74460000D01*
X158302000Y-75260000D02*
X162952000Y-75260000D01*
X158302000Y-72060000D02*
X162952000Y-72060000D01*
%TO.C,D164*%
X69632000Y-128600000D02*
X74282000Y-128600000D01*
X74282000Y-128600000D02*
X74282000Y-127800000D01*
X69632000Y-125400000D02*
X74282000Y-125400000D01*
%TO.C,R62*%
X106669064Y-120290000D02*
X105214936Y-120290000D01*
X106669064Y-118470000D02*
X105214936Y-118470000D01*
%TO.C,D299*%
X118352000Y-121590000D02*
X113702000Y-121590000D01*
X113702000Y-121590000D02*
X113702000Y-122390000D01*
X118352000Y-124790000D02*
X113702000Y-124790000D01*
%TO.C,R7*%
X96554936Y-116480000D02*
X98009064Y-116480000D01*
X96554936Y-114660000D02*
X98009064Y-114660000D01*
%TO.C,D427*%
X138672000Y-110160000D02*
X134022000Y-110160000D01*
X134022000Y-110160000D02*
X134022000Y-110960000D01*
X138672000Y-113360000D02*
X134022000Y-113360000D01*
%TO.C,D31*%
X222922000Y-133020000D02*
X222922000Y-133820000D01*
X227572000Y-133020000D02*
X222922000Y-133020000D01*
X227572000Y-136220000D02*
X222922000Y-136220000D01*
%TO.C,D255*%
X128512000Y-90500000D02*
X123862000Y-90500000D01*
X128512000Y-87300000D02*
X123862000Y-87300000D01*
X123862000Y-87300000D02*
X123862000Y-88100000D01*
%TO.C,D94*%
X212332000Y-101930000D02*
X207682000Y-101930000D01*
X212332000Y-98730000D02*
X207682000Y-98730000D01*
X207682000Y-98730000D02*
X207682000Y-99530000D01*
%TO.C,D190*%
X168462000Y-75260000D02*
X173112000Y-75260000D01*
X168462000Y-72060000D02*
X173112000Y-72060000D01*
X173112000Y-75260000D02*
X173112000Y-74460000D01*
%TO.C,D14*%
X74282000Y-117170000D02*
X74282000Y-116370000D01*
X69632000Y-117170000D02*
X74282000Y-117170000D01*
X69632000Y-113970000D02*
X74282000Y-113970000D01*
%TO.C,D54*%
X113272000Y-86690000D02*
X108622000Y-86690000D01*
X108622000Y-83490000D02*
X108622000Y-84290000D01*
X113272000Y-83490000D02*
X108622000Y-83490000D01*
%TO.C,D261*%
X163382000Y-68250000D02*
X168032000Y-68250000D01*
X168032000Y-71450000D02*
X168032000Y-70650000D01*
X163382000Y-71450000D02*
X168032000Y-71450000D01*
%TO.C,D421*%
X134022000Y-106350000D02*
X134022000Y-107150000D01*
X138672000Y-106350000D02*
X134022000Y-106350000D01*
X138672000Y-109550000D02*
X134022000Y-109550000D01*
%TO.C,R74*%
X185224936Y-110850000D02*
X186679064Y-110850000D01*
X185224936Y-112670000D02*
X186679064Y-112670000D01*
%TO.C,D93*%
X217412000Y-101930000D02*
X212762000Y-101930000D01*
X217412000Y-98730000D02*
X212762000Y-98730000D01*
X212762000Y-98730000D02*
X212762000Y-99530000D01*
%TO.C,R4*%
X57496064Y-113432000D02*
X56041936Y-113432000D01*
X57496064Y-111612000D02*
X56041936Y-111612000D01*
%TO.C,D402*%
X113272000Y-125400000D02*
X108622000Y-125400000D01*
X108622000Y-125400000D02*
X108622000Y-126200000D01*
X113272000Y-128600000D02*
X108622000Y-128600000D01*
%TO.C,D413*%
X84872000Y-79070000D02*
X89522000Y-79070000D01*
X89522000Y-79070000D02*
X89522000Y-78270000D01*
X84872000Y-75870000D02*
X89522000Y-75870000D01*
%TO.C,R69*%
X185194936Y-114660000D02*
X186649064Y-114660000D01*
X185194936Y-116480000D02*
X186649064Y-116480000D01*
%TO.C,D165*%
X79362000Y-128600000D02*
X79362000Y-127800000D01*
X74712000Y-128600000D02*
X79362000Y-128600000D01*
X74712000Y-125400000D02*
X79362000Y-125400000D01*
%TO.C,D17*%
X84872000Y-113970000D02*
X89522000Y-113970000D01*
X89522000Y-117170000D02*
X89522000Y-116370000D01*
X84872000Y-117170000D02*
X89522000Y-117170000D01*
%TO.C,D256*%
X118782000Y-87300000D02*
X118782000Y-88100000D01*
X123432000Y-90500000D02*
X118782000Y-90500000D01*
X123432000Y-87300000D02*
X118782000Y-87300000D01*
%TO.C,D87*%
X123862000Y-91110000D02*
X123862000Y-91910000D01*
X128512000Y-91110000D02*
X123862000Y-91110000D01*
X128512000Y-94310000D02*
X123862000Y-94310000D01*
%TO.C,D213*%
X168032000Y-79070000D02*
X168032000Y-78270000D01*
X163382000Y-79070000D02*
X168032000Y-79070000D01*
X163382000Y-75870000D02*
X168032000Y-75870000D01*
%TO.C,D169*%
X157872000Y-82880000D02*
X157872000Y-82080000D01*
X153222000Y-79680000D02*
X157872000Y-79680000D01*
X153222000Y-82880000D02*
X157872000Y-82880000D01*
%TO.C,D400*%
X123432000Y-128600000D02*
X118782000Y-128600000D01*
X118782000Y-125400000D02*
X118782000Y-126200000D01*
X123432000Y-125400000D02*
X118782000Y-125400000D01*
%TO.C,D231*%
X79362000Y-98120000D02*
X79362000Y-97320000D01*
X74712000Y-98120000D02*
X79362000Y-98120000D01*
X74712000Y-94920000D02*
X79362000Y-94920000D01*
%TO.C,D128*%
X222492000Y-82880000D02*
X217842000Y-82880000D01*
X222492000Y-79680000D02*
X217842000Y-79680000D01*
X217842000Y-79680000D02*
X217842000Y-80480000D01*
%TO.C,D110*%
X133592000Y-101930000D02*
X128942000Y-101930000D01*
X133592000Y-98730000D02*
X128942000Y-98730000D01*
X128942000Y-98730000D02*
X128942000Y-99530000D01*
%TO.C,D47*%
X118352000Y-136220000D02*
X113702000Y-136220000D01*
X118352000Y-133020000D02*
X113702000Y-133020000D01*
X113702000Y-133020000D02*
X113702000Y-133820000D01*
%TO.C,D99*%
X128512000Y-94920000D02*
X123862000Y-94920000D01*
X123862000Y-94920000D02*
X123862000Y-95720000D01*
X128512000Y-98120000D02*
X123862000Y-98120000D01*
%TO.C,D362*%
X69632000Y-79680000D02*
X74282000Y-79680000D01*
X74282000Y-82880000D02*
X74282000Y-82080000D01*
X69632000Y-82880000D02*
X74282000Y-82880000D01*
%TO.C,R56*%
X96554936Y-84180000D02*
X98009064Y-84180000D01*
X96554936Y-86000000D02*
X98009064Y-86000000D01*
%TO.C,D292*%
X168462000Y-94310000D02*
X173112000Y-94310000D01*
X168462000Y-91110000D02*
X173112000Y-91110000D01*
X173112000Y-94310000D02*
X173112000Y-93510000D01*
%TO.C,D264*%
X178622000Y-71450000D02*
X183272000Y-71450000D01*
X183272000Y-71450000D02*
X183272000Y-70650000D01*
X178622000Y-68250000D02*
X183272000Y-68250000D01*
%TO.C,D151*%
X222922000Y-72060000D02*
X222922000Y-72860000D01*
X227572000Y-75260000D02*
X222922000Y-75260000D01*
X227572000Y-72060000D02*
X222922000Y-72060000D01*
%TO.C,D71*%
X113702000Y-75870000D02*
X113702000Y-76670000D01*
X118352000Y-79070000D02*
X113702000Y-79070000D01*
X118352000Y-75870000D02*
X113702000Y-75870000D01*
%TO.C,D386*%
X162922000Y-117170000D02*
X162922000Y-116370000D01*
X158272000Y-117170000D02*
X162922000Y-117170000D01*
X158272000Y-113970000D02*
X162922000Y-113970000D01*
%TO.C,D186*%
X197522000Y-91110000D02*
X197522000Y-91910000D01*
X202172000Y-91110000D02*
X197522000Y-91110000D01*
X202172000Y-94310000D02*
X197522000Y-94310000D01*
%TO.C,D191*%
X173542000Y-72060000D02*
X178192000Y-72060000D01*
X178192000Y-75260000D02*
X178192000Y-74460000D01*
X173542000Y-75260000D02*
X178192000Y-75260000D01*
%TO.C,D211*%
X153222000Y-79070000D02*
X157872000Y-79070000D01*
X153222000Y-75870000D02*
X157872000Y-75870000D01*
X157872000Y-79070000D02*
X157872000Y-78270000D01*
%TO.C,D304*%
X168462000Y-125400000D02*
X173112000Y-125400000D01*
X168462000Y-128600000D02*
X173112000Y-128600000D01*
X173112000Y-128600000D02*
X173112000Y-127800000D01*
%TO.C,D37*%
X134067000Y-129265000D02*
X134067000Y-130065000D01*
X138717000Y-132465000D02*
X134067000Y-132465000D01*
X138717000Y-129265000D02*
X134067000Y-129265000D01*
%TO.C,D315*%
X79362000Y-90500000D02*
X79362000Y-89700000D01*
X74712000Y-90500000D02*
X79362000Y-90500000D01*
X74712000Y-87300000D02*
X79362000Y-87300000D01*
%TO.C,R3*%
X48493000Y-125383936D02*
X48493000Y-126838064D01*
X50313000Y-125383936D02*
X50313000Y-126838064D01*
%TO.C,D55*%
X227572000Y-121590000D02*
X222922000Y-121590000D01*
X227572000Y-124790000D02*
X222922000Y-124790000D01*
X222922000Y-121590000D02*
X222922000Y-122390000D01*
%TO.C,D201*%
X74712000Y-68250000D02*
X79362000Y-68250000D01*
X79362000Y-71450000D02*
X79362000Y-70650000D01*
X74712000Y-71450000D02*
X79362000Y-71450000D01*
%TO.C,D358*%
X168462000Y-102540000D02*
X173112000Y-102540000D01*
X173112000Y-105740000D02*
X173112000Y-104940000D01*
X168462000Y-105740000D02*
X173112000Y-105740000D01*
%TO.C,R16*%
X106669064Y-78380000D02*
X105214936Y-78380000D01*
X106669064Y-76560000D02*
X105214936Y-76560000D01*
%TO.C,D306*%
X183272000Y-128600000D02*
X183272000Y-127800000D01*
X178622000Y-125400000D02*
X183272000Y-125400000D01*
X178622000Y-128600000D02*
X183272000Y-128600000D01*
%TO.C,D393*%
X163382000Y-136220000D02*
X168032000Y-136220000D01*
X168032000Y-136220000D02*
X168032000Y-135420000D01*
X163382000Y-133020000D02*
X168032000Y-133020000D01*
%TO.C,D279*%
X79367000Y-109550000D02*
X79367000Y-108750000D01*
X74717000Y-109550000D02*
X79367000Y-109550000D01*
X74717000Y-106350000D02*
X79367000Y-106350000D01*
%TO.C,D154*%
X207682000Y-72060000D02*
X207682000Y-72860000D01*
X212332000Y-72060000D02*
X207682000Y-72060000D01*
X212332000Y-75260000D02*
X207682000Y-75260000D01*
%TO.C,D39*%
X128512000Y-129210000D02*
X123862000Y-129210000D01*
X123862000Y-129210000D02*
X123862000Y-130010000D01*
X128512000Y-132410000D02*
X123862000Y-132410000D01*
%TO.C,D219*%
X123862000Y-79680000D02*
X123862000Y-80480000D01*
X128512000Y-82880000D02*
X123862000Y-82880000D01*
X128512000Y-79680000D02*
X123862000Y-79680000D01*
%TO.C,D253*%
X134022000Y-87300000D02*
X134022000Y-88100000D01*
X138672000Y-90500000D02*
X134022000Y-90500000D01*
X138672000Y-87300000D02*
X134022000Y-87300000D01*
%TO.C,D62*%
X217842000Y-106350000D02*
X217842000Y-107150000D01*
X222492000Y-109550000D02*
X217842000Y-109550000D01*
X222492000Y-106350000D02*
X217842000Y-106350000D01*
%TO.C,D286*%
X212332000Y-98120000D02*
X207682000Y-98120000D01*
X212332000Y-94920000D02*
X207682000Y-94920000D01*
X207682000Y-94920000D02*
X207682000Y-95720000D01*
%TO.C,D197*%
X202602000Y-110160000D02*
X202602000Y-110960000D01*
X207252000Y-113360000D02*
X202602000Y-113360000D01*
X207252000Y-110160000D02*
X202602000Y-110160000D01*
%TO.C,D320*%
X133592000Y-102540000D02*
X128942000Y-102540000D01*
X128942000Y-102540000D02*
X128942000Y-103340000D01*
X133592000Y-105740000D02*
X128942000Y-105740000D01*
%TO.C,D205*%
X227572000Y-120980000D02*
X222922000Y-120980000D01*
X227572000Y-117780000D02*
X222922000Y-117780000D01*
X222922000Y-117780000D02*
X222922000Y-118580000D01*
%TO.C,D313*%
X64552000Y-90500000D02*
X69202000Y-90500000D01*
X64552000Y-87300000D02*
X69202000Y-87300000D01*
X69202000Y-90500000D02*
X69202000Y-89700000D01*
%TO.C,D398*%
X133592000Y-125400000D02*
X128942000Y-125400000D01*
X133592000Y-128600000D02*
X128942000Y-128600000D01*
X128942000Y-125400000D02*
X128942000Y-126200000D01*
%TO.C,D284*%
X217842000Y-94920000D02*
X217842000Y-95720000D01*
X222492000Y-98120000D02*
X217842000Y-98120000D01*
X222492000Y-94920000D02*
X217842000Y-94920000D01*
%TO.C,D101*%
X113702000Y-94920000D02*
X113702000Y-95720000D01*
X118352000Y-98120000D02*
X113702000Y-98120000D01*
X118352000Y-94920000D02*
X113702000Y-94920000D01*
%TO.C,D80*%
X222492000Y-105740000D02*
X217842000Y-105740000D01*
X222492000Y-102540000D02*
X217842000Y-102540000D01*
X217842000Y-102540000D02*
X217842000Y-103340000D01*
%TO.C,D40*%
X123432000Y-129210000D02*
X118782000Y-129210000D01*
X118782000Y-129210000D02*
X118782000Y-130010000D01*
X123432000Y-132410000D02*
X118782000Y-132410000D01*
%TO.C,R20*%
X195569064Y-99420000D02*
X194114936Y-99420000D01*
X195569064Y-101240000D02*
X194114936Y-101240000D01*
%TO.C,D114*%
X113272000Y-101930000D02*
X108622000Y-101930000D01*
X113272000Y-98730000D02*
X108622000Y-98730000D01*
X108622000Y-98730000D02*
X108622000Y-99530000D01*
%TO.C,D124*%
X212332000Y-75870000D02*
X207682000Y-75870000D01*
X212332000Y-79070000D02*
X207682000Y-79070000D01*
X207682000Y-75870000D02*
X207682000Y-76670000D01*
%TO.C,D303*%
X168032000Y-128600000D02*
X168032000Y-127800000D01*
X163382000Y-125400000D02*
X168032000Y-125400000D01*
X163382000Y-128600000D02*
X168032000Y-128600000D01*
%TO.C,D341*%
X173542000Y-129210000D02*
X178192000Y-129210000D01*
X173542000Y-132410000D02*
X178192000Y-132410000D01*
X178192000Y-132410000D02*
X178192000Y-131610000D01*
%TO.C,D1*%
X69202000Y-105740000D02*
X69202000Y-104940000D01*
X64552000Y-102540000D02*
X69202000Y-102540000D01*
X64552000Y-105740000D02*
X69202000Y-105740000D01*
%TO.C,D167*%
X89522000Y-128600000D02*
X89522000Y-127800000D01*
X84872000Y-128600000D02*
X89522000Y-128600000D01*
X84872000Y-125400000D02*
X89522000Y-125400000D01*
%TO.C,D158*%
X69632000Y-110160000D02*
X74282000Y-110160000D01*
X69632000Y-113360000D02*
X74282000Y-113360000D01*
X74282000Y-113360000D02*
X74282000Y-112560000D01*
%TO.C,D282*%
X94607000Y-109550000D02*
X94607000Y-108750000D01*
X89957000Y-106350000D02*
X94607000Y-106350000D01*
X89957000Y-109550000D02*
X94607000Y-109550000D01*
%TO.C,D157*%
X64552000Y-110160000D02*
X69202000Y-110160000D01*
X69202000Y-113360000D02*
X69202000Y-112560000D01*
X64552000Y-113360000D02*
X69202000Y-113360000D01*
%TO.C,R58*%
X106669064Y-103230000D02*
X105214936Y-103230000D01*
X106669064Y-105050000D02*
X105214936Y-105050000D01*
%TO.C,D234*%
X94602000Y-98120000D02*
X94602000Y-97320000D01*
X89952000Y-94920000D02*
X94602000Y-94920000D01*
X89952000Y-98120000D02*
X94602000Y-98120000D01*
%TO.C,D257*%
X118352000Y-87300000D02*
X113702000Y-87300000D01*
X118352000Y-90500000D02*
X113702000Y-90500000D01*
X113702000Y-87300000D02*
X113702000Y-88100000D01*
%TO.C,D301*%
X157872000Y-128600000D02*
X157872000Y-127800000D01*
X153222000Y-128600000D02*
X157872000Y-128600000D01*
X153222000Y-125400000D02*
X157872000Y-125400000D01*
%TO.C,J2*%
X45330000Y-98171000D02*
X47060000Y-98171000D01*
X47760000Y-100221000D02*
X47760000Y-100671000D01*
X42760000Y-105791000D02*
X42970000Y-105791000D01*
X47060000Y-105791000D02*
X47060000Y-105141000D01*
X42760000Y-98171000D02*
X42970000Y-98171000D01*
X45330000Y-105791000D02*
X47060000Y-105791000D01*
X47760000Y-100221000D02*
X47370000Y-100221000D01*
X47060000Y-98171000D02*
X47060000Y-98831000D01*
%TO.C,D263*%
X178192000Y-71450000D02*
X178192000Y-70650000D01*
X173542000Y-71450000D02*
X178192000Y-71450000D01*
X173542000Y-68250000D02*
X178192000Y-68250000D01*
%TO.C,D121*%
X227572000Y-79070000D02*
X222922000Y-79070000D01*
X227572000Y-75870000D02*
X222922000Y-75870000D01*
X222922000Y-75870000D02*
X222922000Y-76670000D01*
%TO.C,D230*%
X69632000Y-94920000D02*
X74282000Y-94920000D01*
X69632000Y-98120000D02*
X74282000Y-98120000D01*
X74282000Y-98120000D02*
X74282000Y-97320000D01*
%TO.C,D242*%
X69632000Y-120980000D02*
X74282000Y-120980000D01*
X69632000Y-117780000D02*
X74282000Y-117780000D01*
X74282000Y-120980000D02*
X74282000Y-120180000D01*
%TO.C,D415*%
X153222000Y-113360000D02*
X157872000Y-113360000D01*
X153222000Y-110160000D02*
X157872000Y-110160000D01*
X157872000Y-113360000D02*
X157872000Y-112560000D01*
%TO.C,D349*%
X153222000Y-106350000D02*
X157872000Y-106350000D01*
X157872000Y-109550000D02*
X157872000Y-108750000D01*
X153222000Y-109550000D02*
X157872000Y-109550000D01*
%TO.C,D113*%
X118352000Y-98730000D02*
X113702000Y-98730000D01*
X113702000Y-98730000D02*
X113702000Y-99530000D01*
X118352000Y-101930000D02*
X113702000Y-101930000D01*
%TO.C,D171*%
X163382000Y-82880000D02*
X168032000Y-82880000D01*
X168032000Y-82880000D02*
X168032000Y-82080000D01*
X163382000Y-79680000D02*
X168032000Y-79680000D01*
%TO.C,D98*%
X133592000Y-98120000D02*
X128942000Y-98120000D01*
X133592000Y-94920000D02*
X128942000Y-94920000D01*
X128942000Y-94920000D02*
X128942000Y-95720000D01*
%TD*%
M02*
