M48
; DRILL file {KiCad (6.0.9)} date Sat 28 Jan 2023 03:07:58 AM PST
; FORMAT={-:-/ absolute / inch / decimal}
; #@! TF.CreationDate,2023-01-28T03:07:58-08:00
; #@! TF.GenerationSoftware,Kicad,Pcbnew,(6.0.9)
; #@! TF.FileFunction,Plated,1,2,PTH
FMAT,2
INCH
; #@! TA.AperFunction,Plated,PTH,ViaDrill
T1C0.0120
; #@! TA.AperFunction,Plated,PTH,ComponentDrill
T2C0.0177
; #@! TA.AperFunction,Plated,PTH,ComponentDrill
T3C0.0394
%
G90
G05
T1
X1.7Y-2.565
X1.7Y-2.615
X1.7Y-2.665
X1.7Y-2.715
X1.7Y-2.765
X1.7Y-2.815
X1.7Y-2.865
X1.7Y-2.915
X1.7Y-2.965
X1.7Y-3.015
X1.75Y-2.515
X1.75Y-2.565
X1.75Y-2.615
X1.75Y-2.665
X1.75Y-2.715
X1.75Y-2.765
X1.75Y-2.815
X1.75Y-2.865
X1.75Y-2.915
X1.75Y-2.965
X1.75Y-3.015
X1.8Y-2.465
X1.8Y-2.515
X1.8Y-2.565
X1.8Y-2.615
X1.8Y-2.665
X1.8Y-2.715
X1.8Y-2.765
X1.8Y-2.815
X1.8Y-2.865
X1.8Y-2.915
X1.8Y-2.965
X1.8Y-3.015
X1.83Y-4.515
X1.85Y-2.465
X1.85Y-2.515
X1.85Y-2.565
X1.85Y-2.615
X1.85Y-2.665
X1.85Y-2.715
X1.85Y-2.765
X1.85Y-2.815
X1.85Y-2.865
X1.85Y-2.915
X1.85Y-2.965
X1.85Y-3.015
X1.9Y-2.465
X1.9Y-2.515
X1.9Y-2.565
X1.9Y-2.615
X1.9Y-2.665
X1.9Y-2.715
X1.9Y-2.765
X1.9Y-2.815
X1.9Y-2.865
X1.9Y-2.915
X1.9Y-2.965
X1.9Y-3.015
X1.95Y-2.465
X1.95Y-2.515
X1.95Y-2.565
X1.95Y-2.615
X1.95Y-2.665
X1.95Y-2.715
X1.95Y-2.765
X1.95Y-2.815
X1.95Y-2.865
X1.95Y-2.915
X1.95Y-2.965
X1.95Y-3.015
X2.0Y-2.465
X2.0Y-2.515
X2.0Y-2.565
X2.0Y-2.615
X2.0Y-2.665
X2.045Y-4.745
X2.05Y-2.465
X2.05Y-2.665
X2.05Y-4.475
X2.1Y-4.355
X2.1Y-4.825
X2.18Y-4.765
X2.2Y-2.465
X2.2Y-2.665
X2.2Y-3.435
X2.25Y-2.465
X2.25Y-2.515
X2.25Y-2.565
X2.25Y-2.615
X2.25Y-2.665
X2.2926Y-4.3824
X2.3Y-2.465
X2.3Y-2.515
X2.3Y-2.565
X2.3Y-2.615
X2.3Y-2.665
X2.3Y-3.415
X2.3Y-3.465
X2.3Y-3.515
X2.3Y-3.565
X2.3Y-3.615
X2.3Y-3.665
X2.3Y-3.715
X2.3Y-3.765
X2.3Y-3.815
X2.3Y-3.865
X2.3Y-3.915
X2.3Y-3.965
X2.3Y-4.015
X2.3Y-4.065
X2.3Y-4.115
X2.3Y-4.165
X2.3Y-4.215
X2.3Y-4.915
X2.3Y-4.965
X2.3Y-5.015
X2.3Y-5.065
X2.3Y-5.115
X2.3Y-5.165
X2.3Y-5.215
X2.3Y-5.265
X2.3Y-5.315
X2.3Y-5.365
X2.3Y-5.415
X2.3Y-5.465
X2.3Y-5.515
X2.3Y-5.565
X2.35Y-2.465
X2.35Y-2.515
X2.35Y-2.565
X2.35Y-2.615
X2.35Y-2.665
X2.35Y-3.415
X2.35Y-3.465
X2.35Y-3.515
X2.35Y-3.565
X2.35Y-3.615
X2.35Y-3.665
X2.35Y-3.715
X2.35Y-3.765
X2.35Y-3.815
X2.35Y-3.865
X2.35Y-3.915
X2.35Y-3.965
X2.35Y-4.015
X2.35Y-4.065
X2.35Y-4.115
X2.35Y-4.165
X2.35Y-4.215
X2.35Y-4.265
X2.35Y-4.915
X2.35Y-4.965
X2.35Y-5.015
X2.35Y-5.065
X2.35Y-5.115
X2.35Y-5.165
X2.35Y-5.215
X2.35Y-5.265
X2.35Y-5.315
X2.35Y-5.365
X2.35Y-5.415
X2.35Y-5.465
X2.35Y-5.515
X2.35Y-5.565
X2.4Y-2.465
X2.4Y-2.515
X2.4Y-2.565
X2.4Y-2.615
X2.4Y-2.665
X2.4Y-3.415
X2.4Y-3.465
X2.4Y-3.515
X2.4Y-3.565
X2.4Y-3.615
X2.4Y-3.665
X2.4Y-3.715
X2.4Y-3.765
X2.4Y-3.815
X2.4Y-3.865
X2.4Y-3.915
X2.4Y-3.965
X2.4Y-4.015
X2.4Y-4.065
X2.4Y-4.115
X2.4Y-4.165
X2.4Y-4.215
X2.4Y-4.265
X2.4Y-4.315
X2.4Y-4.365
X2.4Y-4.415
X2.4Y-4.465
X2.4Y-4.515
X2.4Y-4.565
X2.4Y-4.615
X2.4Y-4.665
X2.4Y-4.715
X2.4Y-4.765
X2.4Y-4.815
X2.4Y-4.865
X2.4Y-4.915
X2.4Y-4.965
X2.4Y-5.015
X2.4Y-5.065
X2.4Y-5.115
X2.4Y-5.165
X2.4Y-5.215
X2.4Y-5.265
X2.4Y-5.315
X2.4Y-5.365
X2.4Y-5.415
X2.4Y-5.465
X2.4Y-5.515
X2.4Y-5.565
X2.45Y-2.465
X2.45Y-2.515
X2.45Y-2.565
X2.45Y-2.615
X2.45Y-2.665
X2.45Y-2.765
X2.45Y-2.815
X2.45Y-2.865
X2.45Y-2.915
X2.45Y-2.965
X2.45Y-3.015
X2.45Y-3.065
X2.45Y-3.115
X2.45Y-3.165
X2.45Y-3.215
X2.45Y-3.265
X2.45Y-3.315
X2.45Y-3.365
X2.45Y-3.415
X2.45Y-3.465
X2.45Y-3.515
X2.45Y-3.565
X2.45Y-3.615
X2.45Y-3.665
X2.45Y-3.715
X2.45Y-3.765
X2.45Y-3.815
X2.45Y-3.865
X2.45Y-3.915
X2.45Y-3.965
X2.45Y-4.015
X2.45Y-4.065
X2.45Y-4.115
X2.45Y-4.165
X2.45Y-4.215
X2.45Y-4.265
X2.45Y-4.315
X2.45Y-4.365
X2.45Y-4.415
X2.45Y-4.465
X2.45Y-4.515
X2.45Y-4.565
X2.45Y-4.615
X2.45Y-4.665
X2.45Y-4.715
X2.45Y-4.765
X2.45Y-4.815
X2.45Y-4.865
X2.45Y-4.915
X2.45Y-4.965
X2.45Y-5.015
X2.45Y-5.065
X2.45Y-5.115
X2.45Y-5.165
X2.45Y-5.215
X2.45Y-5.265
X2.45Y-5.315
X2.45Y-5.365
X2.45Y-5.415
X2.45Y-5.465
X2.45Y-5.515
X2.45Y-5.565
X2.5Y-2.465
X2.5Y-2.515
X2.5Y-2.565
X2.5Y-2.615
X2.5Y-2.665
X2.5Y-2.765
X2.5Y-2.815
X2.5Y-2.865
X2.5Y-2.915
X2.5Y-2.965
X2.5Y-3.015
X2.5Y-3.065
X2.5Y-3.115
X2.5Y-3.165
X2.5Y-3.215
X2.5Y-3.265
X2.5Y-3.315
X2.5Y-3.365
X2.5Y-3.415
X2.5Y-3.465
X2.5Y-3.515
X2.5Y-3.565
X2.5Y-3.615
X2.5Y-3.665
X2.5Y-3.715
X2.5Y-3.765
X2.5Y-3.815
X2.5Y-3.865
X2.5Y-3.915
X2.5Y-3.965
X2.5Y-4.015
X2.5Y-4.065
X2.5Y-4.115
X2.5Y-4.165
X2.5Y-4.215
X2.5Y-4.265
X2.5Y-4.315
X2.5Y-4.365
X2.5Y-4.415
X2.5Y-4.465
X2.5Y-4.515
X2.5Y-4.565
X2.5Y-4.615
X2.5Y-4.665
X2.5Y-4.715
X2.5Y-4.765
X2.5Y-4.815
X2.5Y-4.865
X2.5Y-4.915
X2.5Y-4.965
X2.5Y-5.015
X2.5Y-5.065
X2.5Y-5.115
X2.5Y-5.165
X2.5Y-5.215
X2.5Y-5.265
X2.5Y-5.315
X2.5Y-5.365
X2.5Y-5.415
X2.5Y-5.465
X2.5Y-5.515
X2.5Y-5.565
X2.55Y-2.465
X2.55Y-2.515
X2.55Y-2.565
X2.55Y-2.615
X2.55Y-2.665
X2.55Y-5.415
X2.55Y-5.465
X2.55Y-5.515
X2.55Y-5.565
X2.6Y-2.465
X2.6Y-2.515
X2.6Y-2.565
X2.6Y-2.615
X2.6Y-2.665
X2.6Y-5.415
X2.6Y-5.465
X2.6Y-5.515
X2.6Y-5.565
X2.65Y-2.465
X2.65Y-2.515
X2.65Y-2.565
X2.65Y-2.615
X2.65Y-2.665
X2.65Y-5.415
X2.65Y-5.465
X2.65Y-5.515
X2.65Y-5.565
X2.7Y-2.465
X2.7Y-2.515
X2.7Y-2.565
X2.7Y-2.615
X2.7Y-2.665
X2.7Y-5.415
X2.7Y-5.465
X2.7Y-5.515
X2.7Y-5.565
X2.75Y-2.465
X2.75Y-2.515
X2.75Y-2.565
X2.75Y-2.615
X2.75Y-2.665
X2.75Y-5.415
X2.75Y-5.465
X2.75Y-5.515
X2.75Y-5.565
X2.8Y-2.465
X2.8Y-2.515
X2.8Y-2.565
X2.8Y-2.615
X2.8Y-2.665
X2.8Y-5.415
X2.8Y-5.465
X2.8Y-5.515
X2.8Y-5.565
X2.85Y-2.465
X2.85Y-2.515
X2.85Y-2.565
X2.85Y-2.615
X2.85Y-2.665
X2.85Y-5.415
X2.85Y-5.465
X2.85Y-5.515
X2.85Y-5.565
X2.9Y-2.465
X2.9Y-2.515
X2.9Y-2.565
X2.9Y-2.615
X2.9Y-2.665
X2.9Y-5.415
X2.9Y-5.465
X2.9Y-5.515
X2.9Y-5.565
X2.95Y-2.465
X2.95Y-2.515
X2.95Y-2.565
X2.95Y-2.615
X2.95Y-2.665
X2.95Y-5.415
X2.95Y-5.465
X2.95Y-5.515
X2.95Y-5.565
X3.0Y-2.465
X3.0Y-2.515
X3.0Y-2.565
X3.0Y-2.615
X3.0Y-2.665
X3.0Y-5.415
X3.0Y-5.465
X3.0Y-5.515
X3.0Y-5.565
X3.05Y-2.465
X3.05Y-2.515
X3.05Y-2.565
X3.05Y-2.615
X3.05Y-2.665
X3.05Y-5.415
X3.05Y-5.465
X3.05Y-5.515
X3.05Y-5.565
X3.1Y-2.465
X3.1Y-2.515
X3.1Y-2.565
X3.1Y-2.615
X3.1Y-2.665
X3.1Y-5.415
X3.1Y-5.465
X3.1Y-5.515
X3.1Y-5.565
X3.15Y-2.465
X3.15Y-2.515
X3.15Y-2.565
X3.15Y-2.615
X3.15Y-2.665
X3.15Y-5.415
X3.15Y-5.465
X3.15Y-5.515
X3.15Y-5.565
X3.2Y-2.465
X3.2Y-2.515
X3.2Y-2.565
X3.2Y-2.615
X3.2Y-2.665
X3.2Y-5.415
X3.2Y-5.465
X3.2Y-5.515
X3.2Y-5.565
X3.25Y-2.465
X3.25Y-2.515
X3.25Y-2.565
X3.25Y-2.615
X3.25Y-2.665
X3.25Y-5.415
X3.25Y-5.465
X3.25Y-5.515
X3.25Y-5.565
X3.3Y-2.465
X3.3Y-2.515
X3.3Y-2.565
X3.3Y-2.615
X3.3Y-2.665
X3.3Y-5.415
X3.3Y-5.465
X3.3Y-5.515
X3.3Y-5.565
X3.35Y-2.465
X3.35Y-2.515
X3.35Y-2.565
X3.35Y-2.615
X3.35Y-2.665
X3.35Y-5.415
X3.35Y-5.465
X3.35Y-5.515
X3.35Y-5.565
X3.4Y-2.465
X3.4Y-2.515
X3.4Y-2.565
X3.4Y-2.615
X3.4Y-2.665
X3.4Y-5.415
X3.4Y-5.465
X3.4Y-5.515
X3.4Y-5.565
X3.45Y-2.465
X3.45Y-2.515
X3.45Y-2.565
X3.45Y-2.615
X3.45Y-2.665
X3.45Y-5.415
X3.45Y-5.465
X3.45Y-5.515
X3.45Y-5.565
X3.5Y-2.465
X3.5Y-2.515
X3.5Y-2.565
X3.5Y-2.615
X3.5Y-2.665
X3.5Y-5.415
X3.5Y-5.465
X3.5Y-5.515
X3.5Y-5.565
X3.55Y-2.465
X3.55Y-2.515
X3.55Y-2.565
X3.55Y-2.615
X3.55Y-2.665
X3.55Y-5.415
X3.55Y-5.465
X3.55Y-5.515
X3.55Y-5.565
X3.6Y-2.465
X3.6Y-2.515
X3.6Y-2.565
X3.6Y-2.615
X3.6Y-2.665
X3.6Y-5.415
X3.6Y-5.465
X3.6Y-5.515
X3.6Y-5.565
X3.65Y-2.465
X3.65Y-2.515
X3.65Y-2.565
X3.65Y-2.615
X3.65Y-2.665
X3.65Y-5.415
X3.65Y-5.465
X3.65Y-5.515
X3.65Y-5.565
X3.7Y-2.465
X3.7Y-2.515
X3.7Y-2.565
X3.7Y-2.615
X3.7Y-2.665
X3.7Y-5.415
X3.7Y-5.465
X3.7Y-5.515
X3.7Y-5.565
X3.75Y-2.465
X3.75Y-2.515
X3.75Y-2.565
X3.75Y-2.615
X3.75Y-2.665
X3.75Y-5.415
X3.75Y-5.465
X3.75Y-5.515
X3.75Y-5.565
X3.8Y-2.465
X3.8Y-2.515
X3.8Y-2.565
X3.8Y-2.615
X3.8Y-2.665
X3.8Y-5.415
X3.8Y-5.465
X3.8Y-5.515
X3.8Y-5.565
X3.85Y-2.465
X3.85Y-2.515
X3.85Y-2.565
X3.85Y-2.615
X3.85Y-2.665
X3.85Y-2.815
X3.85Y-2.965
X3.85Y-3.115
X3.85Y-3.265
X3.85Y-3.415
X3.85Y-3.565
X3.85Y-3.715
X3.85Y-3.865
X3.85Y-4.015
X3.85Y-4.165
X3.85Y-4.315
X3.85Y-4.465
X3.85Y-4.615
X3.85Y-4.765
X3.85Y-4.915
X3.85Y-5.065
X3.85Y-5.215
X3.85Y-5.415
X3.85Y-5.465
X3.85Y-5.515
X3.85Y-5.565
X3.9Y-2.465
X3.9Y-2.515
X3.9Y-2.565
X3.9Y-2.615
X3.9Y-2.665
X3.9Y-2.815
X3.9Y-2.965
X3.9Y-3.115
X3.9Y-3.265
X3.9Y-3.415
X3.9Y-3.565
X3.9Y-3.715
X3.9Y-3.865
X3.9Y-4.015
X3.9Y-4.165
X3.9Y-4.315
X3.9Y-4.465
X3.9Y-4.615
X3.9Y-4.765
X3.9Y-4.915
X3.9Y-5.065
X3.9Y-5.215
X3.9Y-5.415
X3.9Y-5.465
X3.9Y-5.515
X3.9Y-5.565
X3.95Y-2.465
X3.95Y-2.515
X3.95Y-2.565
X3.95Y-2.615
X3.95Y-2.665
X3.95Y-2.715
X3.95Y-2.765
X3.95Y-2.815
X3.95Y-2.865
X3.95Y-2.915
X3.95Y-2.965
X3.95Y-3.015
X3.95Y-3.065
X3.95Y-3.115
X3.95Y-3.165
X3.95Y-3.215
X3.95Y-3.265
X3.95Y-3.315
X3.95Y-3.365
X3.95Y-3.415
X3.95Y-3.465
X3.95Y-3.515
X3.95Y-3.565
X3.95Y-3.615
X3.95Y-3.665
X3.95Y-3.715
X3.95Y-3.765
X3.95Y-3.815
X3.95Y-3.865
X3.95Y-3.915
X3.95Y-3.965
X3.95Y-4.015
X3.95Y-4.065
X3.95Y-4.115
X3.95Y-4.165
X3.95Y-4.215
X3.95Y-4.265
X3.95Y-4.315
X3.95Y-4.365
X3.95Y-4.415
X3.95Y-4.465
X3.95Y-4.515
X3.95Y-4.565
X3.95Y-4.615
X3.95Y-4.665
X3.95Y-4.715
X3.95Y-4.765
X3.95Y-4.815
X3.95Y-4.865
X3.95Y-4.915
X3.95Y-4.965
X3.95Y-5.015
X3.95Y-5.065
X3.95Y-5.115
X3.95Y-5.165
X3.95Y-5.215
X3.95Y-5.265
X3.95Y-5.315
X3.95Y-5.415
X3.95Y-5.465
X3.95Y-5.515
X3.95Y-5.565
X4.0Y-2.465
X4.0Y-2.515
X4.0Y-2.565
X4.0Y-2.615
X4.0Y-2.665
X4.0Y-2.715
X4.0Y-2.765
X4.0Y-2.815
X4.0Y-2.865
X4.0Y-2.915
X4.0Y-2.965
X4.0Y-3.015
X4.0Y-3.065
X4.0Y-3.115
X4.0Y-3.165
X4.0Y-3.215
X4.0Y-3.265
X4.0Y-3.315
X4.0Y-3.365
X4.0Y-3.415
X4.0Y-3.465
X4.0Y-3.515
X4.0Y-3.565
X4.0Y-3.615
X4.0Y-3.665
X4.0Y-3.715
X4.0Y-3.765
X4.0Y-3.815
X4.0Y-3.865
X4.0Y-3.915
X4.0Y-3.965
X4.0Y-4.015
X4.0Y-4.065
X4.0Y-4.115
X4.0Y-4.165
X4.0Y-4.215
X4.0Y-4.265
X4.0Y-4.315
X4.0Y-4.365
X4.0Y-4.415
X4.0Y-4.465
X4.0Y-4.515
X4.0Y-4.565
X4.0Y-4.615
X4.0Y-4.665
X4.0Y-4.715
X4.0Y-4.765
X4.0Y-4.815
X4.0Y-4.865
X4.0Y-4.915
X4.0Y-4.965
X4.0Y-5.015
X4.0Y-5.065
X4.0Y-5.115
X4.0Y-5.165
X4.0Y-5.215
X4.0Y-5.265
X4.0Y-5.315
X4.0Y-5.415
X4.0Y-5.465
X4.0Y-5.515
X4.0Y-5.565
X4.05Y-2.465
X4.05Y-2.515
X4.05Y-2.565
X4.05Y-2.615
X4.05Y-2.665
X4.05Y-2.715
X4.05Y-2.765
X4.05Y-2.815
X4.05Y-2.865
X4.05Y-2.915
X4.05Y-2.965
X4.05Y-3.015
X4.05Y-3.065
X4.05Y-3.115
X4.05Y-3.165
X4.05Y-3.215
X4.05Y-3.265
X4.05Y-3.315
X4.05Y-3.365
X4.05Y-3.415
X4.05Y-3.465
X4.05Y-3.515
X4.05Y-3.565
X4.05Y-3.615
X4.05Y-3.665
X4.05Y-3.715
X4.05Y-3.765
X4.05Y-3.815
X4.05Y-3.865
X4.05Y-3.915
X4.05Y-3.965
X4.05Y-4.015
X4.05Y-4.065
X4.05Y-4.115
X4.05Y-4.165
X4.05Y-4.215
X4.05Y-4.265
X4.05Y-4.315
X4.05Y-4.365
X4.05Y-4.415
X4.05Y-4.465
X4.05Y-4.515
X4.05Y-4.565
X4.05Y-4.615
X4.05Y-4.665
X4.05Y-4.715
X4.05Y-4.765
X4.05Y-4.815
X4.05Y-4.865
X4.05Y-4.915
X4.05Y-4.965
X4.05Y-5.015
X4.05Y-5.065
X4.05Y-5.115
X4.05Y-5.165
X4.05Y-5.215
X4.05Y-5.265
X4.05Y-5.315
X4.05Y-5.415
X4.05Y-5.465
X4.05Y-5.515
X4.05Y-5.565
X4.1Y-2.465
X4.1Y-2.515
X4.1Y-2.565
X4.1Y-2.615
X4.1Y-2.665
X4.1Y-2.815
X4.1Y-2.965
X4.1Y-3.115
X4.1Y-3.265
X4.1Y-3.415
X4.1Y-3.565
X4.1Y-3.715
X4.1Y-3.865
X4.1Y-4.015
X4.1Y-4.165
X4.1Y-4.315
X4.1Y-4.465
X4.1Y-4.615
X4.1Y-4.765
X4.1Y-4.915
X4.1Y-5.065
X4.1Y-5.215
X4.1Y-5.415
X4.1Y-5.465
X4.1Y-5.515
X4.1Y-5.565
X4.15Y-2.465
X4.15Y-2.515
X4.15Y-2.565
X4.15Y-2.615
X4.15Y-2.665
X4.15Y-2.815
X4.15Y-2.965
X4.15Y-3.115
X4.15Y-3.265
X4.15Y-3.415
X4.15Y-3.565
X4.15Y-3.715
X4.15Y-3.865
X4.15Y-4.015
X4.15Y-4.165
X4.15Y-4.315
X4.15Y-4.465
X4.15Y-4.615
X4.15Y-4.765
X4.15Y-4.915
X4.15Y-5.065
X4.15Y-5.215
X4.15Y-5.415
X4.15Y-5.465
X4.15Y-5.515
X4.15Y-5.565
X4.2Y-2.465
X4.2Y-2.515
X4.2Y-2.565
X4.2Y-2.615
X4.2Y-2.665
X4.2Y-5.415
X4.2Y-5.465
X4.2Y-5.515
X4.2Y-5.565
X4.25Y-2.465
X4.25Y-2.515
X4.25Y-2.565
X4.25Y-2.615
X4.25Y-2.665
X4.25Y-5.415
X4.25Y-5.465
X4.25Y-5.515
X4.25Y-5.565
X4.3Y-2.465
X4.3Y-2.515
X4.3Y-2.565
X4.3Y-2.615
X4.3Y-2.665
X4.3Y-5.415
X4.3Y-5.465
X4.3Y-5.515
X4.3Y-5.565
X4.35Y-2.465
X4.35Y-2.515
X4.35Y-2.565
X4.35Y-2.615
X4.35Y-2.665
X4.35Y-5.415
X4.35Y-5.465
X4.35Y-5.515
X4.35Y-5.565
X4.4Y-2.465
X4.4Y-2.515
X4.4Y-2.565
X4.4Y-2.615
X4.4Y-2.665
X4.4Y-5.415
X4.4Y-5.465
X4.4Y-5.515
X4.4Y-5.565
X4.45Y-2.465
X4.45Y-2.515
X4.45Y-2.565
X4.45Y-2.615
X4.45Y-2.665
X4.45Y-5.415
X4.45Y-5.465
X4.45Y-5.515
X4.45Y-5.565
X4.5Y-2.465
X4.5Y-2.515
X4.5Y-2.565
X4.5Y-2.615
X4.5Y-2.665
X4.5Y-5.415
X4.5Y-5.465
X4.5Y-5.515
X4.5Y-5.565
X4.55Y-2.465
X4.55Y-2.515
X4.55Y-2.565
X4.55Y-2.615
X4.55Y-2.665
X4.55Y-5.415
X4.55Y-5.465
X4.55Y-5.515
X4.55Y-5.565
X4.6Y-2.465
X4.6Y-2.515
X4.6Y-2.565
X4.6Y-2.615
X4.6Y-2.665
X4.6Y-5.415
X4.6Y-5.465
X4.6Y-5.515
X4.6Y-5.565
X4.65Y-2.465
X4.65Y-2.515
X4.65Y-2.565
X4.65Y-2.615
X4.65Y-2.665
X4.65Y-5.415
X4.65Y-5.465
X4.65Y-5.515
X4.65Y-5.565
X4.7Y-2.465
X4.7Y-2.515
X4.7Y-2.565
X4.7Y-2.615
X4.7Y-2.665
X4.7Y-5.415
X4.7Y-5.465
X4.7Y-5.515
X4.7Y-5.565
X4.75Y-2.465
X4.75Y-2.515
X4.75Y-2.565
X4.75Y-2.615
X4.75Y-2.665
X4.75Y-5.415
X4.75Y-5.465
X4.75Y-5.515
X4.75Y-5.565
X4.8Y-2.465
X4.8Y-2.515
X4.8Y-2.565
X4.8Y-2.615
X4.8Y-2.665
X4.8Y-5.415
X4.8Y-5.465
X4.8Y-5.515
X4.8Y-5.565
X4.85Y-2.465
X4.85Y-2.515
X4.85Y-2.565
X4.85Y-2.615
X4.85Y-2.665
X4.85Y-5.415
X4.85Y-5.465
X4.85Y-5.515
X4.85Y-5.565
X4.9Y-2.465
X4.9Y-2.515
X4.9Y-2.565
X4.9Y-2.615
X4.9Y-2.665
X4.9Y-5.415
X4.9Y-5.465
X4.9Y-5.515
X4.9Y-5.565
X4.95Y-2.465
X4.95Y-2.515
X4.95Y-2.565
X4.95Y-2.615
X4.95Y-2.665
X4.95Y-5.415
X4.95Y-5.465
X4.95Y-5.515
X4.95Y-5.565
X5.0Y-2.465
X5.0Y-2.515
X5.0Y-2.565
X5.0Y-2.615
X5.0Y-2.665
X5.0Y-5.415
X5.0Y-5.465
X5.0Y-5.515
X5.0Y-5.565
X5.05Y-2.465
X5.05Y-2.515
X5.05Y-2.565
X5.05Y-2.615
X5.05Y-2.665
X5.05Y-5.415
X5.05Y-5.465
X5.05Y-5.515
X5.05Y-5.565
X5.1Y-2.465
X5.1Y-2.515
X5.1Y-2.565
X5.1Y-2.615
X5.1Y-2.665
X5.1Y-5.415
X5.1Y-5.465
X5.1Y-5.515
X5.1Y-5.565
X5.15Y-2.465
X5.15Y-2.515
X5.15Y-2.565
X5.15Y-2.615
X5.15Y-2.665
X5.15Y-5.415
X5.15Y-5.465
X5.15Y-5.515
X5.15Y-5.565
X5.2Y-2.465
X5.2Y-2.515
X5.2Y-2.565
X5.2Y-2.615
X5.2Y-2.665
X5.2Y-5.415
X5.2Y-5.465
X5.2Y-5.515
X5.2Y-5.565
X5.25Y-2.465
X5.25Y-2.515
X5.25Y-2.565
X5.25Y-2.615
X5.25Y-2.665
X5.25Y-5.415
X5.25Y-5.465
X5.25Y-5.515
X5.25Y-5.565
X5.3Y-2.465
X5.3Y-2.515
X5.3Y-2.565
X5.3Y-2.615
X5.3Y-2.665
X5.3Y-5.415
X5.3Y-5.465
X5.3Y-5.515
X5.3Y-5.565
X5.35Y-2.465
X5.35Y-2.515
X5.35Y-2.565
X5.35Y-2.615
X5.35Y-2.665
X5.35Y-5.415
X5.35Y-5.465
X5.35Y-5.515
X5.35Y-5.565
X5.4Y-2.465
X5.4Y-2.515
X5.4Y-2.565
X5.4Y-2.615
X5.4Y-2.665
X5.4Y-5.415
X5.4Y-5.465
X5.4Y-5.515
X5.4Y-5.565
X5.45Y-2.465
X5.45Y-2.515
X5.45Y-2.565
X5.45Y-2.615
X5.45Y-2.665
X5.45Y-5.415
X5.45Y-5.465
X5.45Y-5.515
X5.45Y-5.565
X5.4995Y-5.3686
X5.5Y-2.465
X5.5Y-2.515
X5.5Y-2.565
X5.5Y-2.615
X5.5Y-2.665
X5.5Y-2.765
X5.5Y-2.815
X5.5Y-2.865
X5.5Y-2.915
X5.5Y-2.965
X5.5Y-3.015
X5.5Y-3.065
X5.5Y-3.115
X5.5Y-3.165
X5.5Y-3.215
X5.5Y-3.265
X5.5Y-3.315
X5.5Y-3.365
X5.5Y-3.415
X5.5Y-3.465
X5.5Y-3.515
X5.5Y-3.565
X5.5Y-3.615
X5.5Y-3.665
X5.5Y-3.715
X5.5Y-3.765
X5.5Y-3.815
X5.5Y-3.865
X5.5Y-3.915
X5.5Y-3.965
X5.5Y-4.015
X5.5Y-4.065
X5.5Y-4.115
X5.5Y-4.165
X5.5Y-4.215
X5.5Y-4.265
X5.5Y-4.315
X5.5Y-4.365
X5.5Y-4.415
X5.5Y-4.465
X5.5Y-4.515
X5.5Y-4.565
X5.5Y-4.615
X5.5Y-4.665
X5.5Y-4.715
X5.5Y-4.765
X5.5Y-4.815
X5.5Y-4.865
X5.5Y-4.915
X5.5Y-4.965
X5.5Y-5.015
X5.5Y-5.065
X5.5Y-5.115
X5.5Y-5.165
X5.5Y-5.215
X5.5Y-5.265
X5.5Y-5.315
X5.5Y-5.415
X5.5Y-5.465
X5.5Y-5.515
X5.5Y-5.565
X5.5495Y-5.3686
X5.55Y-3.2136
X5.55Y-3.5147
X5.55Y-2.465
X5.55Y-2.515
X5.55Y-2.565
X5.55Y-2.615
X5.55Y-2.665
X5.55Y-2.765
X5.55Y-2.815
X5.55Y-2.865
X5.55Y-2.915
X5.55Y-2.965
X5.55Y-3.015
X5.55Y-3.065
X5.55Y-3.115
X5.55Y-3.165
X5.55Y-3.265
X5.55Y-3.315
X5.55Y-3.365
X5.55Y-3.415
X5.55Y-3.465
X5.55Y-3.565
X5.55Y-3.615
X5.55Y-3.665
X5.55Y-3.715
X5.55Y-3.765
X5.55Y-3.815
X5.55Y-3.865
X5.55Y-3.915
X5.55Y-3.965
X5.55Y-4.015
X5.55Y-4.065
X5.55Y-4.115
X5.55Y-4.165
X5.55Y-4.215
X5.55Y-4.265
X5.55Y-4.315
X5.55Y-4.365
X5.55Y-4.415
X5.55Y-4.465
X5.55Y-4.515
X5.55Y-4.565
X5.55Y-4.615
X5.55Y-4.665
X5.55Y-4.715
X5.55Y-4.765
X5.55Y-4.815
X5.55Y-4.865
X5.55Y-4.915
X5.55Y-4.965
X5.55Y-5.015
X5.55Y-5.065
X5.55Y-5.115
X5.55Y-5.165
X5.55Y-5.215
X5.55Y-5.265
X5.55Y-5.315
X5.55Y-5.415
X5.55Y-5.465
X5.55Y-5.515
X5.55Y-5.565
X5.5995Y-5.3686
X5.6Y-2.465
X5.6Y-2.515
X5.6Y-2.565
X5.6Y-2.615
X5.6Y-2.665
X5.6Y-2.765
X5.6Y-2.815
X5.6Y-2.865
X5.6Y-2.915
X5.6Y-2.965
X5.6Y-3.015
X5.6Y-3.065
X5.6Y-3.115
X5.6Y-3.165
X5.6Y-3.215
X5.6Y-3.265
X5.6Y-3.315
X5.6Y-3.365
X5.6Y-3.415
X5.6Y-3.465
X5.6Y-3.515
X5.6Y-3.565
X5.6Y-3.615
X5.6Y-3.665
X5.6Y-3.715
X5.6Y-3.765
X5.6Y-3.815
X5.6Y-3.865
X5.6Y-3.915
X5.6Y-3.965
X5.6Y-4.015
X5.6Y-4.065
X5.6Y-4.115
X5.6Y-4.165
X5.6Y-4.215
X5.6Y-4.265
X5.6Y-4.315
X5.6Y-4.365
X5.6Y-4.415
X5.6Y-4.465
X5.6Y-4.515
X5.6Y-4.565
X5.6Y-4.615
X5.6Y-4.665
X5.6Y-4.715
X5.6Y-4.765
X5.6Y-4.815
X5.6Y-4.865
X5.6Y-4.915
X5.6Y-4.965
X5.6Y-5.015
X5.6Y-5.065
X5.6Y-5.115
X5.6Y-5.165
X5.6Y-5.215
X5.6Y-5.265
X5.6Y-5.315
X5.6Y-5.415
X5.6Y-5.465
X5.6Y-5.515
X5.6Y-5.565
X5.6495Y-5.3686
X5.65Y-3.2136
X5.65Y-3.5147
X5.65Y-2.465
X5.65Y-2.515
X5.65Y-2.565
X5.65Y-2.615
X5.65Y-2.665
X5.65Y-2.765
X5.65Y-2.815
X5.65Y-2.865
X5.65Y-2.915
X5.65Y-2.965
X5.65Y-3.015
X5.65Y-3.065
X5.65Y-3.115
X5.65Y-3.165
X5.65Y-3.265
X5.65Y-3.315
X5.65Y-3.365
X5.65Y-3.415
X5.65Y-3.465
X5.65Y-3.565
X5.65Y-3.615
X5.65Y-3.665
X5.65Y-3.715
X5.65Y-3.765
X5.65Y-3.815
X5.65Y-3.865
X5.65Y-3.915
X5.65Y-3.965
X5.65Y-4.015
X5.65Y-4.065
X5.65Y-4.115
X5.65Y-4.165
X5.65Y-4.215
X5.65Y-4.265
X5.65Y-4.315
X5.65Y-4.365
X5.65Y-4.415
X5.65Y-4.465
X5.65Y-4.515
X5.65Y-4.565
X5.65Y-4.615
X5.65Y-4.665
X5.65Y-4.715
X5.65Y-4.765
X5.65Y-4.815
X5.65Y-4.865
X5.65Y-4.915
X5.65Y-4.965
X5.65Y-5.015
X5.65Y-5.065
X5.65Y-5.115
X5.65Y-5.165
X5.65Y-5.215
X5.65Y-5.265
X5.65Y-5.315
X5.65Y-5.415
X5.65Y-5.465
X5.65Y-5.515
X5.65Y-5.565
X5.6995Y-5.3686
X5.7Y-2.465
X5.7Y-2.515
X5.7Y-2.565
X5.7Y-2.615
X5.7Y-2.665
X5.7Y-2.765
X5.7Y-2.815
X5.7Y-2.865
X5.7Y-2.915
X5.7Y-2.965
X5.7Y-3.015
X5.7Y-3.065
X5.7Y-3.115
X5.7Y-3.165
X5.7Y-3.215
X5.7Y-3.265
X5.7Y-3.315
X5.7Y-3.365
X5.7Y-3.415
X5.7Y-3.465
X5.7Y-3.515
X5.7Y-3.565
X5.7Y-3.615
X5.7Y-3.665
X5.7Y-3.715
X5.7Y-3.765
X5.7Y-3.815
X5.7Y-3.865
X5.7Y-3.915
X5.7Y-3.965
X5.7Y-4.015
X5.7Y-4.065
X5.7Y-4.115
X5.7Y-4.165
X5.7Y-4.215
X5.7Y-4.265
X5.7Y-4.315
X5.7Y-4.365
X5.7Y-4.415
X5.7Y-4.465
X5.7Y-4.515
X5.7Y-4.565
X5.7Y-4.615
X5.7Y-4.665
X5.7Y-4.715
X5.7Y-4.765
X5.7Y-4.815
X5.7Y-4.865
X5.7Y-4.915
X5.7Y-4.965
X5.7Y-5.015
X5.7Y-5.065
X5.7Y-5.115
X5.7Y-5.165
X5.7Y-5.215
X5.7Y-5.265
X5.7Y-5.315
X5.7Y-5.415
X5.7Y-5.465
X5.7Y-5.515
X5.7Y-5.565
X5.7495Y-5.3686
X5.75Y-3.2136
X5.75Y-3.5147
X5.75Y-2.465
X5.75Y-2.515
X5.75Y-2.565
X5.75Y-2.615
X5.75Y-2.665
X5.75Y-2.765
X5.75Y-2.815
X5.75Y-2.865
X5.75Y-2.915
X5.75Y-2.965
X5.75Y-3.015
X5.75Y-3.065
X5.75Y-3.115
X5.75Y-3.165
X5.75Y-3.265
X5.75Y-3.315
X5.75Y-3.365
X5.75Y-3.415
X5.75Y-3.465
X5.75Y-3.565
X5.75Y-3.615
X5.75Y-3.665
X5.75Y-3.715
X5.75Y-3.765
X5.75Y-3.815
X5.75Y-3.865
X5.75Y-3.915
X5.75Y-3.965
X5.75Y-4.015
X5.75Y-4.065
X5.75Y-4.115
X5.75Y-4.165
X5.75Y-4.215
X5.75Y-4.265
X5.75Y-4.315
X5.75Y-4.365
X5.75Y-4.415
X5.75Y-4.465
X5.75Y-4.515
X5.75Y-4.565
X5.75Y-4.615
X5.75Y-4.665
X5.75Y-4.715
X5.75Y-4.765
X5.75Y-4.815
X5.75Y-4.865
X5.75Y-4.915
X5.75Y-4.965
X5.75Y-5.015
X5.75Y-5.065
X5.75Y-5.115
X5.75Y-5.165
X5.75Y-5.215
X5.75Y-5.265
X5.75Y-5.315
X5.75Y-5.415
X5.75Y-5.465
X5.75Y-5.515
X5.75Y-5.565
X5.7995Y-5.3686
X5.8Y-2.465
X5.8Y-2.515
X5.8Y-2.565
X5.8Y-2.615
X5.8Y-2.665
X5.8Y-2.765
X5.8Y-2.815
X5.8Y-2.865
X5.8Y-2.915
X5.8Y-2.965
X5.8Y-3.015
X5.8Y-3.065
X5.8Y-3.115
X5.8Y-3.165
X5.8Y-3.215
X5.8Y-3.265
X5.8Y-3.315
X5.8Y-3.365
X5.8Y-3.415
X5.8Y-3.465
X5.8Y-3.515
X5.8Y-3.565
X5.8Y-3.615
X5.8Y-3.665
X5.8Y-3.715
X5.8Y-3.765
X5.8Y-3.815
X5.8Y-3.865
X5.8Y-3.915
X5.8Y-3.965
X5.8Y-4.015
X5.8Y-4.065
X5.8Y-4.115
X5.8Y-4.165
X5.8Y-4.215
X5.8Y-4.265
X5.8Y-4.315
X5.8Y-4.365
X5.8Y-4.415
X5.8Y-4.465
X5.8Y-4.515
X5.8Y-4.565
X5.8Y-4.615
X5.8Y-4.665
X5.8Y-4.715
X5.8Y-4.765
X5.8Y-4.815
X5.8Y-4.865
X5.8Y-4.915
X5.8Y-4.965
X5.8Y-5.015
X5.8Y-5.065
X5.8Y-5.115
X5.8Y-5.165
X5.8Y-5.215
X5.8Y-5.265
X5.8Y-5.315
X5.8Y-5.415
X5.8Y-5.465
X5.8Y-5.515
X5.8Y-5.565
X5.8495Y-5.3686
X5.85Y-3.2136
X5.85Y-3.5147
X5.85Y-2.465
X5.85Y-2.515
X5.85Y-2.565
X5.85Y-2.615
X5.85Y-2.665
X5.85Y-2.765
X5.85Y-2.815
X5.85Y-2.865
X5.85Y-2.915
X5.85Y-2.965
X5.85Y-3.015
X5.85Y-3.065
X5.85Y-3.115
X5.85Y-3.165
X5.85Y-3.265
X5.85Y-3.315
X5.85Y-3.365
X5.85Y-3.415
X5.85Y-3.465
X5.85Y-3.565
X5.85Y-3.615
X5.85Y-3.665
X5.85Y-3.715
X5.85Y-3.765
X5.85Y-3.815
X5.85Y-3.865
X5.85Y-3.915
X5.85Y-3.965
X5.85Y-4.015
X5.85Y-4.065
X5.85Y-4.115
X5.85Y-4.165
X5.85Y-4.215
X5.85Y-4.265
X5.85Y-4.315
X5.85Y-4.365
X5.85Y-4.415
X5.85Y-4.465
X5.85Y-4.515
X5.85Y-4.565
X5.85Y-4.615
X5.85Y-4.665
X5.85Y-4.715
X5.85Y-4.765
X5.85Y-4.815
X5.85Y-4.865
X5.85Y-4.915
X5.85Y-4.965
X5.85Y-5.015
X5.85Y-5.065
X5.85Y-5.115
X5.85Y-5.165
X5.85Y-5.215
X5.85Y-5.265
X5.85Y-5.315
X5.85Y-5.415
X5.85Y-5.465
X5.85Y-5.515
X5.85Y-5.565
X5.8995Y-5.3686
X5.9Y-2.465
X5.9Y-2.515
X5.9Y-2.565
X5.9Y-2.615
X5.9Y-2.665
X5.9Y-2.765
X5.9Y-2.815
X5.9Y-2.865
X5.9Y-2.915
X5.9Y-2.965
X5.9Y-3.015
X5.9Y-3.065
X5.9Y-3.115
X5.9Y-3.165
X5.9Y-3.215
X5.9Y-3.265
X5.9Y-3.315
X5.9Y-3.365
X5.9Y-3.415
X5.9Y-3.465
X5.9Y-3.515
X5.9Y-3.565
X5.9Y-3.615
X5.9Y-3.665
X5.9Y-3.715
X5.9Y-3.765
X5.9Y-3.815
X5.9Y-3.865
X5.9Y-3.915
X5.9Y-3.965
X5.9Y-4.015
X5.9Y-4.065
X5.9Y-4.115
X5.9Y-4.165
X5.9Y-4.215
X5.9Y-4.265
X5.9Y-4.315
X5.9Y-4.365
X5.9Y-4.415
X5.9Y-4.465
X5.9Y-4.515
X5.9Y-4.565
X5.9Y-4.615
X5.9Y-4.665
X5.9Y-4.715
X5.9Y-4.765
X5.9Y-4.815
X5.9Y-4.865
X5.9Y-4.915
X5.9Y-4.965
X5.9Y-5.015
X5.9Y-5.065
X5.9Y-5.115
X5.9Y-5.165
X5.9Y-5.215
X5.9Y-5.265
X5.9Y-5.315
X5.9Y-5.415
X5.9Y-5.465
X5.9Y-5.515
X5.9Y-5.565
X5.9495Y-5.3686
X5.95Y-3.2136
X5.95Y-3.5147
X5.95Y-2.465
X5.95Y-2.515
X5.95Y-2.565
X5.95Y-2.615
X5.95Y-2.665
X5.95Y-2.765
X5.95Y-2.815
X5.95Y-2.865
X5.95Y-2.915
X5.95Y-2.965
X5.95Y-3.015
X5.95Y-3.065
X5.95Y-3.115
X5.95Y-3.165
X5.95Y-3.265
X5.95Y-3.315
X5.95Y-3.365
X5.95Y-3.415
X5.95Y-3.465
X5.95Y-3.565
X5.95Y-3.615
X5.95Y-3.665
X5.95Y-3.715
X5.95Y-3.765
X5.95Y-3.815
X5.95Y-3.865
X5.95Y-3.915
X5.95Y-3.965
X5.95Y-4.015
X5.95Y-4.065
X5.95Y-4.115
X5.95Y-4.165
X5.95Y-4.215
X5.95Y-4.265
X5.95Y-4.315
X5.95Y-4.365
X5.95Y-4.415
X5.95Y-4.465
X5.95Y-4.515
X5.95Y-4.565
X5.95Y-4.615
X5.95Y-4.665
X5.95Y-4.715
X5.95Y-4.765
X5.95Y-4.815
X5.95Y-4.865
X5.95Y-4.915
X5.95Y-4.965
X5.95Y-5.015
X5.95Y-5.065
X5.95Y-5.115
X5.95Y-5.165
X5.95Y-5.215
X5.95Y-5.265
X5.95Y-5.315
X5.95Y-5.415
X5.95Y-5.465
X5.95Y-5.515
X5.95Y-5.565
X5.9995Y-5.3686
X6.0Y-2.465
X6.0Y-2.515
X6.0Y-2.565
X6.0Y-2.615
X6.0Y-2.665
X6.0Y-2.765
X6.0Y-2.815
X6.0Y-2.865
X6.0Y-2.915
X6.0Y-2.965
X6.0Y-3.015
X6.0Y-3.065
X6.0Y-3.115
X6.0Y-3.165
X6.0Y-3.215
X6.0Y-3.265
X6.0Y-3.315
X6.0Y-3.365
X6.0Y-3.415
X6.0Y-3.465
X6.0Y-3.515
X6.0Y-3.565
X6.0Y-3.615
X6.0Y-3.665
X6.0Y-3.715
X6.0Y-3.765
X6.0Y-3.815
X6.0Y-3.865
X6.0Y-3.915
X6.0Y-3.965
X6.0Y-4.015
X6.0Y-4.065
X6.0Y-4.115
X6.0Y-4.165
X6.0Y-4.215
X6.0Y-4.265
X6.0Y-4.315
X6.0Y-4.365
X6.0Y-4.415
X6.0Y-4.465
X6.0Y-4.515
X6.0Y-4.565
X6.0Y-4.615
X6.0Y-4.665
X6.0Y-4.715
X6.0Y-4.765
X6.0Y-4.815
X6.0Y-4.865
X6.0Y-4.915
X6.0Y-4.965
X6.0Y-5.015
X6.0Y-5.065
X6.0Y-5.115
X6.0Y-5.165
X6.0Y-5.215
X6.0Y-5.265
X6.0Y-5.315
X6.0Y-5.415
X6.0Y-5.465
X6.0Y-5.515
X6.0Y-5.565
X6.05Y-2.465
X6.05Y-2.515
X6.05Y-2.565
X6.05Y-2.615
X6.05Y-2.665
X6.05Y-5.415
X6.05Y-5.465
X6.05Y-5.515
X6.05Y-5.565
X6.1Y-2.465
X6.1Y-2.515
X6.1Y-2.565
X6.1Y-2.615
X6.1Y-2.665
X6.1Y-5.415
X6.1Y-5.465
X6.1Y-5.515
X6.1Y-5.565
X6.15Y-2.465
X6.15Y-2.515
X6.15Y-2.565
X6.15Y-2.615
X6.15Y-2.665
X6.15Y-5.415
X6.15Y-5.465
X6.15Y-5.515
X6.15Y-5.565
X6.2Y-2.465
X6.2Y-2.515
X6.2Y-2.565
X6.2Y-2.615
X6.2Y-2.665
X6.2Y-5.415
X6.2Y-5.465
X6.2Y-5.515
X6.2Y-5.565
X6.25Y-2.465
X6.25Y-2.515
X6.25Y-2.565
X6.25Y-2.615
X6.25Y-2.665
X6.25Y-5.415
X6.25Y-5.465
X6.25Y-5.515
X6.25Y-5.565
X6.3Y-2.465
X6.3Y-2.515
X6.3Y-2.565
X6.3Y-2.615
X6.3Y-2.665
X6.3Y-5.415
X6.3Y-5.465
X6.3Y-5.515
X6.3Y-5.565
X6.35Y-2.465
X6.35Y-2.515
X6.35Y-2.565
X6.35Y-2.615
X6.35Y-2.665
X6.35Y-5.415
X6.35Y-5.465
X6.35Y-5.515
X6.35Y-5.565
X6.4Y-2.465
X6.4Y-2.515
X6.4Y-2.565
X6.4Y-2.615
X6.4Y-2.665
X6.4Y-5.415
X6.4Y-5.465
X6.4Y-5.515
X6.4Y-5.565
X6.45Y-2.465
X6.45Y-2.515
X6.45Y-2.565
X6.45Y-2.615
X6.45Y-2.665
X6.45Y-5.415
X6.45Y-5.465
X6.45Y-5.515
X6.45Y-5.565
X6.5Y-2.465
X6.5Y-2.515
X6.5Y-2.565
X6.5Y-2.615
X6.5Y-2.665
X6.5Y-5.415
X6.5Y-5.465
X6.5Y-5.515
X6.5Y-5.565
X6.55Y-2.465
X6.55Y-2.515
X6.55Y-2.565
X6.55Y-2.615
X6.55Y-2.665
X6.55Y-5.415
X6.55Y-5.465
X6.55Y-5.515
X6.55Y-5.565
X6.6Y-2.465
X6.6Y-2.515
X6.6Y-2.565
X6.6Y-2.615
X6.6Y-2.665
X6.6Y-5.415
X6.6Y-5.465
X6.6Y-5.515
X6.6Y-5.565
X6.65Y-2.465
X6.65Y-2.515
X6.65Y-2.565
X6.65Y-2.615
X6.65Y-2.665
X6.65Y-5.415
X6.65Y-5.465
X6.65Y-5.515
X6.65Y-5.565
X6.7Y-2.465
X6.7Y-2.515
X6.7Y-2.565
X6.7Y-2.615
X6.7Y-2.665
X6.7Y-5.415
X6.7Y-5.465
X6.7Y-5.515
X6.7Y-5.565
X6.75Y-2.465
X6.75Y-2.515
X6.75Y-2.565
X6.75Y-2.615
X6.75Y-2.665
X6.75Y-5.415
X6.75Y-5.465
X6.75Y-5.515
X6.75Y-5.565
X6.8Y-2.465
X6.8Y-2.515
X6.8Y-2.565
X6.8Y-2.615
X6.8Y-2.665
X6.8Y-5.415
X6.8Y-5.465
X6.8Y-5.515
X6.8Y-5.565
X6.85Y-2.465
X6.85Y-2.515
X6.85Y-2.565
X6.85Y-2.615
X6.85Y-2.665
X6.85Y-5.415
X6.85Y-5.465
X6.85Y-5.515
X6.85Y-5.565
X6.9Y-2.465
X6.9Y-2.515
X6.9Y-2.565
X6.9Y-2.615
X6.9Y-2.665
X6.9Y-5.415
X6.9Y-5.465
X6.9Y-5.515
X6.9Y-5.565
X6.95Y-2.465
X6.95Y-2.515
X6.95Y-2.565
X6.95Y-2.615
X6.95Y-2.665
X6.95Y-5.415
X6.95Y-5.465
X6.95Y-5.515
X6.95Y-5.565
X7.0Y-2.465
X7.0Y-2.515
X7.0Y-2.565
X7.0Y-2.615
X7.0Y-2.665
X7.0Y-5.415
X7.0Y-5.465
X7.0Y-5.515
X7.0Y-5.565
X7.05Y-2.465
X7.05Y-2.515
X7.05Y-2.565
X7.05Y-2.615
X7.05Y-2.665
X7.05Y-5.415
X7.05Y-5.465
X7.05Y-5.515
X7.05Y-5.565
X7.1Y-2.465
X7.1Y-2.515
X7.1Y-2.565
X7.1Y-2.615
X7.1Y-2.665
X7.1Y-5.415
X7.1Y-5.465
X7.1Y-5.515
X7.1Y-5.565
X7.15Y-2.465
X7.15Y-2.515
X7.15Y-2.565
X7.15Y-2.615
X7.15Y-2.665
X7.15Y-5.415
X7.15Y-5.465
X7.15Y-5.515
X7.15Y-5.565
X7.2Y-2.465
X7.2Y-2.515
X7.2Y-2.565
X7.2Y-2.615
X7.2Y-2.665
X7.2Y-5.415
X7.2Y-5.465
X7.2Y-5.515
X7.2Y-5.565
X7.25Y-2.465
X7.25Y-2.515
X7.25Y-2.565
X7.25Y-2.615
X7.25Y-2.665
X7.25Y-5.415
X7.25Y-5.465
X7.25Y-5.515
X7.25Y-5.565
X7.3Y-2.465
X7.3Y-2.515
X7.3Y-2.565
X7.3Y-2.615
X7.3Y-2.665
X7.3Y-5.415
X7.3Y-5.465
X7.3Y-5.515
X7.3Y-5.565
X7.35Y-2.465
X7.35Y-2.515
X7.35Y-2.565
X7.35Y-2.615
X7.35Y-2.665
X7.35Y-2.815
X7.35Y-2.965
X7.35Y-3.115
X7.35Y-3.265
X7.35Y-3.415
X7.35Y-3.565
X7.35Y-3.715
X7.35Y-3.865
X7.35Y-4.015
X7.35Y-4.165
X7.35Y-4.315
X7.35Y-4.465
X7.35Y-4.615
X7.35Y-4.765
X7.35Y-4.915
X7.35Y-5.065
X7.35Y-5.215
X7.35Y-5.415
X7.35Y-5.465
X7.35Y-5.515
X7.35Y-5.565
X7.4Y-2.465
X7.4Y-2.515
X7.4Y-2.565
X7.4Y-2.615
X7.4Y-2.665
X7.4Y-2.815
X7.4Y-2.965
X7.4Y-3.115
X7.4Y-3.265
X7.4Y-3.415
X7.4Y-3.565
X7.4Y-3.715
X7.4Y-3.865
X7.4Y-4.015
X7.4Y-4.165
X7.4Y-4.315
X7.4Y-4.465
X7.4Y-4.615
X7.4Y-4.765
X7.4Y-4.915
X7.4Y-5.065
X7.4Y-5.215
X7.4Y-5.415
X7.4Y-5.465
X7.4Y-5.515
X7.4Y-5.565
X7.45Y-2.465
X7.45Y-2.515
X7.45Y-2.565
X7.45Y-2.615
X7.45Y-2.665
X7.45Y-2.715
X7.45Y-2.765
X7.45Y-2.815
X7.45Y-2.865
X7.45Y-2.915
X7.45Y-2.965
X7.45Y-3.015
X7.45Y-3.065
X7.45Y-3.115
X7.45Y-3.165
X7.45Y-3.215
X7.45Y-3.265
X7.45Y-3.315
X7.45Y-3.365
X7.45Y-3.415
X7.45Y-3.465
X7.45Y-3.515
X7.45Y-3.565
X7.45Y-3.615
X7.45Y-3.665
X7.45Y-3.715
X7.45Y-3.765
X7.45Y-3.815
X7.45Y-3.865
X7.45Y-3.915
X7.45Y-3.965
X7.45Y-4.015
X7.45Y-4.065
X7.45Y-4.115
X7.45Y-4.165
X7.45Y-4.215
X7.45Y-4.265
X7.45Y-4.315
X7.45Y-4.365
X7.45Y-4.415
X7.45Y-4.465
X7.45Y-4.515
X7.45Y-4.565
X7.45Y-4.615
X7.45Y-4.665
X7.45Y-4.715
X7.45Y-4.765
X7.45Y-4.815
X7.45Y-4.865
X7.45Y-4.915
X7.45Y-4.965
X7.45Y-5.015
X7.45Y-5.065
X7.45Y-5.115
X7.45Y-5.165
X7.45Y-5.215
X7.45Y-5.265
X7.45Y-5.315
X7.45Y-5.415
X7.45Y-5.465
X7.45Y-5.515
X7.45Y-5.565
X7.5Y-2.465
X7.5Y-2.515
X7.5Y-2.565
X7.5Y-2.615
X7.5Y-2.665
X7.5Y-2.715
X7.5Y-2.765
X7.5Y-2.815
X7.5Y-2.865
X7.5Y-2.915
X7.5Y-2.965
X7.5Y-3.015
X7.5Y-3.065
X7.5Y-3.115
X7.5Y-3.165
X7.5Y-3.215
X7.5Y-3.265
X7.5Y-3.315
X7.5Y-3.365
X7.5Y-3.415
X7.5Y-3.465
X7.5Y-3.515
X7.5Y-3.565
X7.5Y-3.615
X7.5Y-3.665
X7.5Y-3.715
X7.5Y-3.765
X7.5Y-3.815
X7.5Y-3.865
X7.5Y-3.915
X7.5Y-3.965
X7.5Y-4.015
X7.5Y-4.065
X7.5Y-4.115
X7.5Y-4.165
X7.5Y-4.215
X7.5Y-4.265
X7.5Y-4.315
X7.5Y-4.365
X7.5Y-4.415
X7.5Y-4.465
X7.5Y-4.515
X7.5Y-4.565
X7.5Y-4.615
X7.5Y-4.665
X7.5Y-4.715
X7.5Y-4.765
X7.5Y-4.815
X7.5Y-4.865
X7.5Y-4.915
X7.5Y-4.965
X7.5Y-5.015
X7.5Y-5.065
X7.5Y-5.115
X7.5Y-5.165
X7.5Y-5.215
X7.5Y-5.265
X7.5Y-5.315
X7.5Y-5.415
X7.5Y-5.465
X7.5Y-5.515
X7.5Y-5.565
X7.55Y-2.465
X7.55Y-2.515
X7.55Y-2.565
X7.55Y-2.615
X7.55Y-2.665
X7.55Y-2.715
X7.55Y-2.765
X7.55Y-2.815
X7.55Y-2.865
X7.55Y-2.915
X7.55Y-2.965
X7.55Y-3.015
X7.55Y-3.065
X7.55Y-3.115
X7.55Y-3.165
X7.55Y-3.215
X7.55Y-3.265
X7.55Y-3.315
X7.55Y-3.365
X7.55Y-3.415
X7.55Y-3.465
X7.55Y-3.515
X7.55Y-3.565
X7.55Y-3.615
X7.55Y-3.665
X7.55Y-3.715
X7.55Y-3.765
X7.55Y-3.815
X7.55Y-3.865
X7.55Y-3.915
X7.55Y-3.965
X7.55Y-4.015
X7.55Y-4.065
X7.55Y-4.115
X7.55Y-4.165
X7.55Y-4.215
X7.55Y-4.265
X7.55Y-4.315
X7.55Y-4.365
X7.55Y-4.415
X7.55Y-4.465
X7.55Y-4.515
X7.55Y-4.565
X7.55Y-4.615
X7.55Y-4.665
X7.55Y-4.715
X7.55Y-4.765
X7.55Y-4.815
X7.55Y-4.865
X7.55Y-4.915
X7.55Y-4.965
X7.55Y-5.015
X7.55Y-5.065
X7.55Y-5.115
X7.55Y-5.165
X7.55Y-5.215
X7.55Y-5.265
X7.55Y-5.315
X7.55Y-5.415
X7.55Y-5.465
X7.55Y-5.515
X7.55Y-5.565
X7.6Y-2.465
X7.6Y-2.515
X7.6Y-2.565
X7.6Y-2.615
X7.6Y-2.665
X7.6Y-2.815
X7.6Y-2.965
X7.6Y-3.115
X7.6Y-3.265
X7.6Y-3.415
X7.6Y-3.565
X7.6Y-3.715
X7.6Y-3.865
X7.6Y-4.015
X7.6Y-4.165
X7.6Y-4.315
X7.6Y-4.465
X7.6Y-4.615
X7.6Y-4.765
X7.6Y-4.915
X7.6Y-5.065
X7.6Y-5.215
X7.6Y-5.415
X7.6Y-5.465
X7.6Y-5.515
X7.6Y-5.565
X7.65Y-2.465
X7.65Y-2.515
X7.65Y-2.565
X7.65Y-2.615
X7.65Y-2.665
X7.65Y-2.815
X7.65Y-2.965
X7.65Y-3.115
X7.65Y-3.265
X7.65Y-3.415
X7.65Y-3.565
X7.65Y-3.715
X7.65Y-3.865
X7.65Y-4.015
X7.65Y-4.165
X7.65Y-4.315
X7.65Y-4.465
X7.65Y-4.615
X7.65Y-4.765
X7.65Y-4.915
X7.65Y-5.065
X7.65Y-5.215
X7.65Y-5.415
X7.65Y-5.465
X7.65Y-5.515
X7.65Y-5.565
X7.7Y-2.465
X7.7Y-2.515
X7.7Y-2.565
X7.7Y-2.615
X7.7Y-2.665
X7.7Y-5.415
X7.7Y-5.465
X7.7Y-5.515
X7.7Y-5.565
X7.75Y-2.465
X7.75Y-2.515
X7.75Y-2.565
X7.75Y-2.615
X7.75Y-2.665
X7.75Y-5.415
X7.75Y-5.465
X7.75Y-5.515
X7.75Y-5.565
X7.8Y-2.465
X7.8Y-2.515
X7.8Y-2.565
X7.8Y-2.615
X7.8Y-2.665
X7.8Y-5.415
X7.8Y-5.465
X7.8Y-5.515
X7.8Y-5.565
X7.85Y-2.465
X7.85Y-2.515
X7.85Y-2.565
X7.85Y-2.615
X7.85Y-2.665
X7.85Y-5.415
X7.85Y-5.465
X7.85Y-5.515
X7.85Y-5.565
X7.9Y-2.465
X7.9Y-2.515
X7.9Y-2.565
X7.9Y-2.615
X7.9Y-2.665
X7.9Y-5.415
X7.9Y-5.465
X7.9Y-5.515
X7.9Y-5.565
X7.95Y-2.465
X7.95Y-2.515
X7.95Y-2.565
X7.95Y-2.615
X7.95Y-2.665
X7.95Y-5.415
X7.95Y-5.465
X7.95Y-5.515
X7.95Y-5.565
X8.0Y-2.465
X8.0Y-2.515
X8.0Y-2.565
X8.0Y-2.615
X8.0Y-2.665
X8.0Y-5.415
X8.0Y-5.465
X8.0Y-5.515
X8.0Y-5.565
X8.05Y-2.465
X8.05Y-2.515
X8.05Y-2.565
X8.05Y-2.615
X8.05Y-2.665
X8.05Y-5.415
X8.05Y-5.465
X8.05Y-5.515
X8.05Y-5.565
X8.1Y-2.465
X8.1Y-2.515
X8.1Y-2.565
X8.1Y-2.615
X8.1Y-2.665
X8.1Y-5.415
X8.1Y-5.465
X8.1Y-5.515
X8.1Y-5.565
X8.15Y-2.465
X8.15Y-2.515
X8.15Y-2.565
X8.15Y-2.615
X8.15Y-2.665
X8.15Y-5.415
X8.15Y-5.465
X8.15Y-5.515
X8.15Y-5.565
X8.2Y-2.465
X8.2Y-2.515
X8.2Y-2.565
X8.2Y-2.615
X8.2Y-2.665
X8.2Y-5.415
X8.2Y-5.465
X8.2Y-5.515
X8.2Y-5.565
X8.25Y-2.465
X8.25Y-2.515
X8.25Y-2.565
X8.25Y-2.615
X8.25Y-2.665
X8.25Y-5.415
X8.25Y-5.465
X8.25Y-5.515
X8.25Y-5.565
X8.3Y-2.465
X8.3Y-2.515
X8.3Y-2.565
X8.3Y-2.615
X8.3Y-2.665
X8.3Y-5.415
X8.3Y-5.465
X8.3Y-5.515
X8.3Y-5.565
X8.35Y-2.465
X8.35Y-2.515
X8.35Y-2.565
X8.35Y-2.615
X8.35Y-2.665
X8.35Y-5.415
X8.35Y-5.465
X8.35Y-5.515
X8.35Y-5.565
X8.4Y-2.465
X8.4Y-2.515
X8.4Y-2.565
X8.4Y-2.615
X8.4Y-2.665
X8.4Y-5.415
X8.4Y-5.465
X8.4Y-5.515
X8.4Y-5.565
X8.45Y-2.465
X8.45Y-2.515
X8.45Y-2.565
X8.45Y-2.615
X8.45Y-2.665
X8.45Y-5.415
X8.45Y-5.465
X8.45Y-5.515
X8.45Y-5.565
X8.5Y-2.465
X8.5Y-2.515
X8.5Y-2.565
X8.5Y-2.615
X8.5Y-2.665
X8.5Y-5.415
X8.5Y-5.465
X8.5Y-5.515
X8.5Y-5.565
X8.55Y-2.465
X8.55Y-2.515
X8.55Y-2.565
X8.55Y-2.615
X8.55Y-2.665
X8.55Y-5.415
X8.55Y-5.465
X8.55Y-5.515
X8.55Y-5.565
X8.6Y-2.465
X8.6Y-2.515
X8.6Y-2.565
X8.6Y-2.615
X8.6Y-2.665
X8.6Y-5.415
X8.6Y-5.465
X8.6Y-5.515
X8.6Y-5.565
X8.65Y-2.465
X8.65Y-2.515
X8.65Y-2.565
X8.65Y-2.615
X8.65Y-2.665
X8.65Y-5.415
X8.65Y-5.465
X8.65Y-5.515
X8.65Y-5.565
X8.7Y-5.415
X8.7Y-5.465
X8.7Y-5.515
X8.7Y-5.565
X8.75Y-5.415
X8.75Y-5.465
X8.75Y-5.515
X8.75Y-5.565
X8.8Y-5.415
X8.8Y-5.465
X8.8Y-5.515
X8.8Y-5.565
X8.85Y-5.415
X8.85Y-5.465
X8.85Y-5.515
X8.85Y-5.565
X8.9Y-5.415
X8.9Y-5.465
X8.9Y-5.515
X8.9Y-5.565
X8.95Y-5.415
X8.95Y-5.465
X8.95Y-5.515
X8.95Y-5.565
X9.0Y-2.765
X9.0Y-2.815
X9.0Y-2.865
X9.0Y-2.915
X9.0Y-2.965
X9.0Y-3.015
X9.0Y-3.065
X9.0Y-3.115
X9.0Y-3.165
X9.0Y-3.215
X9.0Y-3.265
X9.0Y-3.315
X9.0Y-3.365
X9.0Y-3.415
X9.0Y-3.465
X9.0Y-3.515
X9.0Y-3.565
X9.0Y-3.615
X9.0Y-3.665
X9.0Y-3.715
X9.0Y-3.765
X9.0Y-3.815
X9.0Y-3.865
X9.0Y-3.915
X9.0Y-3.965
X9.0Y-4.015
X9.0Y-4.065
X9.0Y-4.115
X9.0Y-4.165
X9.0Y-4.215
X9.0Y-4.265
X9.0Y-4.315
X9.0Y-4.365
X9.0Y-4.415
X9.0Y-4.465
X9.0Y-4.515
X9.0Y-4.565
X9.0Y-4.615
X9.0Y-4.665
X9.0Y-4.715
X9.0Y-4.765
X9.0Y-4.815
X9.0Y-4.865
X9.0Y-4.915
X9.0Y-4.965
X9.0Y-5.015
X9.0Y-5.065
X9.0Y-5.115
X9.0Y-5.165
X9.0Y-5.215
X9.0Y-5.265
X9.0Y-5.315
X9.0Y-5.365
X9.0Y-5.415
X9.0Y-5.465
X9.0Y-5.515
X9.0Y-5.565
X9.05Y-2.765
X9.05Y-2.815
X9.05Y-2.865
X9.05Y-2.915
X9.05Y-2.965
X9.05Y-3.015
X9.05Y-3.065
X9.05Y-3.115
X9.05Y-3.165
X9.05Y-3.215
X9.05Y-3.265
X9.05Y-3.315
X9.05Y-3.365
X9.05Y-3.415
X9.05Y-3.465
X9.05Y-3.515
X9.05Y-3.565
X9.05Y-3.615
X9.05Y-3.665
X9.05Y-3.715
X9.05Y-3.765
X9.05Y-3.815
X9.05Y-3.865
X9.05Y-3.915
X9.05Y-3.965
X9.05Y-4.015
X9.05Y-4.065
X9.05Y-4.115
X9.05Y-4.165
X9.05Y-4.215
X9.05Y-4.265
X9.05Y-4.315
X9.05Y-4.365
X9.05Y-4.415
X9.05Y-4.465
X9.05Y-4.515
X9.05Y-4.565
X9.05Y-4.615
X9.05Y-4.665
X9.05Y-4.715
X9.05Y-4.765
X9.05Y-4.815
X9.05Y-4.865
X9.05Y-4.915
X9.05Y-4.965
X9.05Y-5.015
X9.05Y-5.065
X9.05Y-5.115
X9.05Y-5.165
X9.05Y-5.215
X9.05Y-5.265
X9.05Y-5.315
X9.05Y-5.365
X9.05Y-5.415
X9.05Y-5.465
X9.05Y-5.515
X9.1Y-2.765
X9.1Y-2.815
X9.1Y-2.865
X9.1Y-2.915
X9.1Y-2.965
X9.1Y-3.015
X9.1Y-3.065
X9.1Y-3.115
X9.1Y-3.165
X9.1Y-3.215
X9.1Y-3.265
X9.1Y-3.315
X9.1Y-3.365
X9.1Y-3.415
X9.1Y-3.465
X9.1Y-3.515
X9.1Y-3.565
X9.1Y-3.615
X9.1Y-3.665
X9.1Y-3.715
X9.1Y-3.765
X9.1Y-3.815
X9.1Y-3.865
X9.1Y-3.915
X9.1Y-3.965
X9.1Y-4.015
X9.1Y-4.065
X9.1Y-4.115
X9.1Y-4.165
X9.1Y-4.215
X9.1Y-4.265
X9.1Y-4.315
X9.1Y-4.365
X9.1Y-4.415
X9.1Y-4.465
X9.1Y-4.515
X9.1Y-4.565
X9.1Y-4.615
X9.1Y-4.665
X9.1Y-4.715
X9.1Y-4.765
X9.1Y-4.815
X9.1Y-4.865
X9.1Y-4.915
X9.1Y-4.965
X9.1Y-5.015
X9.1Y-5.065
X9.1Y-5.115
X9.1Y-5.165
X9.1Y-5.215
X9.1Y-5.265
X9.1Y-5.315
X9.1Y-5.365
X9.1Y-5.415
X9.1Y-5.465
T3
X1.8957Y-5.2116
X1.8957Y-5.31
X1.8957Y-5.4084
T2
G00X1.7224Y-3.8743
M15
G01X1.7539Y-3.8743
M16
G05
G00X1.7539Y-4.1557
M15
G01X1.7224Y-4.1557
M16
G05
T3
G00X1.752Y-3.4717
M15
G01X1.752Y-3.5583
M16
G05
G00X1.9291Y-3.704
M15
G01X1.8425Y-3.704
M16
G05
G00X2.0Y-3.4638
M15
G01X2.0Y-3.5662
M16
G05
T0
M30
