%TF.GenerationSoftware,KiCad,Pcbnew,(6.0.11)*%
%TF.CreationDate,2023-02-06T17:53:22-08:00*%
%TF.ProjectId,GrowLight,47726f77-4c69-4676-9874-2e6b69636164,rev?*%
%TF.SameCoordinates,PX31a8670PY832b588*%
%TF.FileFunction,Paste,Top*%
%TF.FilePolarity,Positive*%
%FSLAX46Y46*%
G04 Gerber Fmt 4.6, Leading zero omitted, Abs format (unit mm)*
G04 Created by KiCad (PCBNEW (6.0.11)) date 2023-02-06 17:53:22*
%MOMM*%
%LPD*%
G01*
G04 APERTURE LIST*
G04 Aperture macros list*
%AMRoundRect*
0 Rectangle with rounded corners*
0 $1 Rounding radius*
0 $2 $3 $4 $5 $6 $7 $8 $9 X,Y pos of 4 corners*
0 Add a 4 corners polygon primitive as box body*
4,1,4,$2,$3,$4,$5,$6,$7,$8,$9,$2,$3,0*
0 Add four circle primitives for the rounded corners*
1,1,$1+$1,$2,$3*
1,1,$1+$1,$4,$5*
1,1,$1+$1,$6,$7*
1,1,$1+$1,$8,$9*
0 Add four rect primitives between the rounded corners*
20,1,$1+$1,$2,$3,$4,$5,0*
20,1,$1+$1,$4,$5,$6,$7,0*
20,1,$1+$1,$6,$7,$8,$9,0*
20,1,$1+$1,$8,$9,$2,$3,0*%
G04 Aperture macros list end*
%ADD10R,2.600000X1.500000*%
%ADD11RoundRect,0.250000X-0.625000X0.312500X-0.625000X-0.312500X0.625000X-0.312500X0.625000X0.312500X0*%
%ADD12RoundRect,0.250000X0.625000X-0.312500X0.625000X0.312500X-0.625000X0.312500X-0.625000X-0.312500X0*%
%ADD13RoundRect,0.225000X-0.250000X0.225000X-0.250000X-0.225000X0.250000X-0.225000X0.250000X0.225000X0*%
%ADD14RoundRect,0.150000X-0.150000X0.825000X-0.150000X-0.825000X0.150000X-0.825000X0.150000X0.825000X0*%
%ADD15RoundRect,0.218750X-0.218750X-0.256250X0.218750X-0.256250X0.218750X0.256250X-0.218750X0.256250X0*%
%ADD16RoundRect,0.218750X0.218750X0.256250X-0.218750X0.256250X-0.218750X-0.256250X0.218750X-0.256250X0*%
%ADD17R,0.700000X2.600000*%
%ADD18C,1.000000*%
%ADD19RoundRect,0.200000X-0.275000X0.200000X-0.275000X-0.200000X0.275000X-0.200000X0.275000X0.200000X0*%
G04 APERTURE END LIST*
D10*
%TO.C,D288*%
X11430000Y72400000D03*
X11430000Y69400000D03*
%TD*%
%TO.C,D447*%
X100330000Y31494000D03*
X100330000Y34494000D03*
%TD*%
%TO.C,D456*%
X103866000Y16206000D03*
X103866000Y19206000D03*
%TD*%
%TO.C,D223*%
X46970000Y46934000D03*
X46970000Y43934000D03*
%TD*%
%TO.C,D220*%
X50546000Y62224000D03*
X50546000Y59224000D03*
%TD*%
%TO.C,D311*%
X18542000Y11274000D03*
X18542000Y14274000D03*
%TD*%
%TO.C,D284*%
X11430000Y52030000D03*
X11430000Y49030000D03*
%TD*%
%TO.C,D492*%
X125202000Y16230000D03*
X125202000Y19230000D03*
%TD*%
%TO.C,D412*%
X78974000Y16254000D03*
X78974000Y19254000D03*
%TD*%
%TO.C,D277*%
X14986000Y46950000D03*
X14986000Y43950000D03*
%TD*%
%TO.C,D121*%
X107402000Y46850000D03*
X107402000Y43850000D03*
%TD*%
%TO.C,D18*%
X171430000Y72260000D03*
X171430000Y69260000D03*
%TD*%
%TO.C,D328*%
X29190000Y16306000D03*
X29190000Y19306000D03*
%TD*%
%TO.C,D552*%
X160782000Y16220000D03*
X160782000Y19220000D03*
%TD*%
%TO.C,D224*%
X46970000Y52014000D03*
X46970000Y49014000D03*
%TD*%
%TO.C,D179*%
X75418000Y67230000D03*
X75418000Y64230000D03*
%TD*%
%TO.C,D77*%
X135870000Y67180000D03*
X135870000Y64180000D03*
%TD*%
%TO.C,D397*%
X71882000Y31544000D03*
X71882000Y34544000D03*
%TD*%
%TO.C,D487*%
X121666000Y11150000D03*
X121666000Y14150000D03*
%TD*%
%TO.C,D307*%
X18542000Y31594000D03*
X18542000Y34594000D03*
%TD*%
%TO.C,D221*%
X50526000Y67304000D03*
X50526000Y64304000D03*
%TD*%
%TO.C,D364*%
X50526000Y16304000D03*
X50526000Y19304000D03*
%TD*%
%TO.C,D34*%
X160782000Y62047000D03*
X160782000Y59047000D03*
%TD*%
%TO.C,D79*%
X132314000Y46860000D03*
X132314000Y43860000D03*
%TD*%
%TO.C,D305*%
X14986000Y11258000D03*
X14986000Y14258000D03*
%TD*%
%TO.C,D165*%
X82530000Y57070000D03*
X82530000Y54070000D03*
%TD*%
%TO.C,D235*%
X39878000Y46974000D03*
X39878000Y43974000D03*
%TD*%
%TO.C,D138*%
X100310000Y72360000D03*
X100310000Y69360000D03*
%TD*%
%TO.C,D568*%
X171450000Y26440000D03*
X171450000Y29440000D03*
%TD*%
%TO.C,D445*%
X96774000Y11126000D03*
X96774000Y14126000D03*
%TD*%
%TO.C,D541*%
X153670000Y11165000D03*
X153670000Y14165000D03*
%TD*%
%TO.C,D205*%
X57638000Y46934000D03*
X57638000Y43934000D03*
%TD*%
%TO.C,D453*%
X103886000Y31446000D03*
X103886000Y34446000D03*
%TD*%
%TO.C,D455*%
X103886000Y21286000D03*
X103886000Y24286000D03*
%TD*%
%TO.C,D295*%
X11430000Y31594000D03*
X11430000Y34594000D03*
%TD*%
%TO.C,D470*%
X110998000Y6020000D03*
X110998000Y9020000D03*
%TD*%
%TO.C,D289*%
X7874000Y46950000D03*
X7874000Y43950000D03*
%TD*%
%TO.C,D57*%
X146538000Y57094000D03*
X146538000Y54094000D03*
%TD*%
%TO.C,D110*%
X114534000Y51890000D03*
X114534000Y48890000D03*
%TD*%
%TO.C,D228*%
X46970000Y72384000D03*
X46970000Y69384000D03*
%TD*%
%TO.C,D366*%
X50546000Y6094000D03*
X50546000Y9094000D03*
%TD*%
%TO.C,D89*%
X128758000Y67180000D03*
X128758000Y64180000D03*
%TD*%
%TO.C,D508*%
X135890000Y26390000D03*
X135890000Y29390000D03*
%TD*%
%TO.C,D166*%
X82550000Y62150000D03*
X82550000Y59150000D03*
%TD*%
%TO.C,D520*%
X142982000Y26350000D03*
X142982000Y29350000D03*
%TD*%
%TO.C,D231*%
X43414000Y57094000D03*
X43414000Y54094000D03*
%TD*%
%TO.C,D119*%
X110978000Y67180000D03*
X110978000Y64180000D03*
%TD*%
%TO.C,D558*%
X164318000Y16196000D03*
X164318000Y19196000D03*
%TD*%
%TO.C,D184*%
X71882000Y62174000D03*
X71882000Y59174000D03*
%TD*%
%TO.C,D61*%
X142982000Y46900000D03*
X142982000Y43900000D03*
%TD*%
%TO.C,D105*%
X118090000Y56996000D03*
X118090000Y53996000D03*
%TD*%
%TO.C,D566*%
X167894000Y6020000D03*
X167894000Y9020000D03*
%TD*%
%TO.C,D439*%
X93218000Y11126000D03*
X93218000Y14126000D03*
%TD*%
%TO.C,D191*%
X68306000Y67278000D03*
X68306000Y64278000D03*
%TD*%
%TO.C,D438*%
X93198000Y16206000D03*
X93198000Y19206000D03*
%TD*%
%TO.C,D475*%
X114554000Y11126000D03*
X114554000Y14126000D03*
%TD*%
%TO.C,D321*%
X25654000Y21418000D03*
X25654000Y24418000D03*
%TD*%
%TO.C,D156*%
X89642000Y72408000D03*
X89642000Y69408000D03*
%TD*%
%TO.C,D389*%
X64770000Y11248000D03*
X64770000Y14248000D03*
%TD*%
%TO.C,D91*%
X125202000Y46860000D03*
X125202000Y43860000D03*
%TD*%
%TO.C,D134*%
X100310000Y51990000D03*
X100310000Y48990000D03*
%TD*%
%TO.C,D98*%
X121646000Y51964000D03*
X121646000Y48964000D03*
%TD*%
%TO.C,D471*%
X114554000Y31446000D03*
X114554000Y34446000D03*
%TD*%
%TO.C,D146*%
X93198000Y51990000D03*
X93198000Y48990000D03*
%TD*%
%TO.C,D410*%
X78994000Y26414000D03*
X78994000Y29414000D03*
%TD*%
%TO.C,D427*%
X89662000Y31494000D03*
X89662000Y34494000D03*
%TD*%
%TO.C,D29*%
X164318000Y67130000D03*
X164318000Y64130000D03*
%TD*%
%TO.C,D372*%
X54102000Y6094000D03*
X54102000Y9094000D03*
%TD*%
%TO.C,D30*%
X164318000Y72260000D03*
X164318000Y69260000D03*
%TD*%
%TO.C,D5*%
X174986000Y67104000D03*
X174986000Y64104000D03*
%TD*%
%TO.C,D40*%
X157226000Y62066000D03*
X157226000Y59066000D03*
%TD*%
%TO.C,D404*%
X75458000Y26474000D03*
X75458000Y29474000D03*
%TD*%
%TO.C,D343*%
X39878000Y31504000D03*
X39878000Y34504000D03*
%TD*%
%TO.C,D270*%
X22058000Y72394000D03*
X22058000Y69394000D03*
%TD*%
%TO.C,D245*%
X36322000Y67270000D03*
X36322000Y64270000D03*
%TD*%
%TO.C,D93*%
X125202000Y57020000D03*
X125202000Y54020000D03*
%TD*%
%TO.C,D322*%
X25634000Y16338000D03*
X25634000Y19338000D03*
%TD*%
%TO.C,D371*%
X54102000Y11224000D03*
X54102000Y14224000D03*
%TD*%
%TO.C,D329*%
X29210000Y11226000D03*
X29210000Y14226000D03*
%TD*%
%TO.C,D416*%
X82550000Y26414000D03*
X82550000Y29414000D03*
%TD*%
%TO.C,D48*%
X153650000Y72308000D03*
X153650000Y69308000D03*
%TD*%
%TO.C,D271*%
X18522000Y46968000D03*
X18522000Y43968000D03*
%TD*%
%TO.C,D81*%
X132314000Y57020000D03*
X132314000Y54020000D03*
%TD*%
%TO.C,D43*%
X153650000Y46858000D03*
X153650000Y43858000D03*
%TD*%
%TO.C,D373*%
X57658000Y31544000D03*
X57658000Y34544000D03*
%TD*%
%TO.C,D500*%
X128778000Y6020000D03*
X128778000Y9020000D03*
%TD*%
%TO.C,D50*%
X150074000Y52014000D03*
X150074000Y49014000D03*
%TD*%
%TO.C,D263*%
X25634000Y67239000D03*
X25634000Y64239000D03*
%TD*%
%TO.C,D115*%
X110978000Y46860000D03*
X110978000Y43860000D03*
%TD*%
%TO.C,D567*%
X171450000Y31520000D03*
X171450000Y34520000D03*
%TD*%
%TO.C,D530*%
X146538000Y6004000D03*
X146538000Y9004000D03*
%TD*%
%TO.C,D544*%
X157226000Y26405000D03*
X157226000Y29405000D03*
%TD*%
%TO.C,D365*%
X50546000Y11224000D03*
X50546000Y14224000D03*
%TD*%
%TO.C,D276*%
X18522000Y72418000D03*
X18522000Y69418000D03*
%TD*%
%TO.C,D370*%
X54082000Y16304000D03*
X54082000Y19304000D03*
%TD*%
%TO.C,D259*%
X25634000Y46919000D03*
X25634000Y43919000D03*
%TD*%
%TO.C,D396*%
X68326000Y6144000D03*
X68326000Y9144000D03*
%TD*%
%TO.C,D25*%
X164318000Y46810000D03*
X164318000Y43810000D03*
%TD*%
%TO.C,D421*%
X86106000Y31494000D03*
X86106000Y34494000D03*
%TD*%
%TO.C,D28*%
X164338000Y62050000D03*
X164338000Y59050000D03*
%TD*%
%TO.C,D147*%
X93198000Y57070000D03*
X93198000Y54070000D03*
%TD*%
%TO.C,D222*%
X50526000Y72434000D03*
X50526000Y69434000D03*
%TD*%
%TO.C,D54*%
X150074000Y72384000D03*
X150074000Y69384000D03*
%TD*%
%TO.C,D290*%
X7874000Y52030000D03*
X7874000Y49030000D03*
%TD*%
%TO.C,D160*%
X86106000Y62198000D03*
X86106000Y59198000D03*
%TD*%
%TO.C,D414*%
X78994000Y6044000D03*
X78994000Y9044000D03*
%TD*%
%TO.C,D531*%
X150054000Y31480000D03*
X150054000Y34480000D03*
%TD*%
%TO.C,D539*%
X153670000Y21325000D03*
X153670000Y24325000D03*
%TD*%
%TO.C,D361*%
X50546000Y31544000D03*
X50546000Y34544000D03*
%TD*%
%TO.C,D351*%
X43434000Y21384000D03*
X43434000Y24384000D03*
%TD*%
%TO.C,D247*%
X32806000Y46924000D03*
X32806000Y43924000D03*
%TD*%
%TO.C,D312*%
X18542000Y6144000D03*
X18542000Y9144000D03*
%TD*%
%TO.C,D198*%
X64750000Y72384000D03*
X64750000Y69384000D03*
%TD*%
%TO.C,D62*%
X142982000Y51980000D03*
X142982000Y48980000D03*
%TD*%
%TO.C,D234*%
X43414000Y72384000D03*
X43414000Y69384000D03*
%TD*%
%TO.C,D486*%
X121646000Y16230000D03*
X121646000Y19230000D03*
%TD*%
%TO.C,D534*%
X150034000Y16240000D03*
X150034000Y19240000D03*
%TD*%
%TO.C,D498*%
X128758000Y16230000D03*
X128758000Y19230000D03*
%TD*%
%TO.C,D143*%
X96754000Y67230000D03*
X96754000Y64230000D03*
%TD*%
%TO.C,D333*%
X32786000Y21310000D03*
X32786000Y24310000D03*
%TD*%
%TO.C,D529*%
X146538000Y11134000D03*
X146538000Y14134000D03*
%TD*%
%TO.C,D550*%
X160802000Y26380000D03*
X160802000Y29380000D03*
%TD*%
%TO.C,D253*%
X29190000Y46919000D03*
X29190000Y43919000D03*
%TD*%
%TO.C,D279*%
X14986000Y57110000D03*
X14986000Y54110000D03*
%TD*%
%TO.C,D493*%
X125222000Y11150000D03*
X125222000Y14150000D03*
%TD*%
%TO.C,D514*%
X139446000Y26390000D03*
X139446000Y29390000D03*
%TD*%
%TO.C,D219*%
X50526000Y57144000D03*
X50526000Y54144000D03*
%TD*%
%TO.C,D385*%
X64770000Y31568000D03*
X64770000Y34568000D03*
%TD*%
%TO.C,D501*%
X132334000Y31420000D03*
X132334000Y34420000D03*
%TD*%
%TO.C,D152*%
X89642000Y52038000D03*
X89642000Y49038000D03*
%TD*%
%TO.C,D241*%
X36322000Y46950000D03*
X36322000Y43950000D03*
%TD*%
%TO.C,D174*%
X78974000Y72408000D03*
X78974000Y69408000D03*
%TD*%
%TO.C,D283*%
X11430000Y46950000D03*
X11430000Y43950000D03*
%TD*%
%TO.C,D400*%
X71862000Y16304000D03*
X71862000Y19304000D03*
%TD*%
%TO.C,D379*%
X61214000Y31520000D03*
X61214000Y34520000D03*
%TD*%
%TO.C,D442*%
X96774000Y26366000D03*
X96774000Y29366000D03*
%TD*%
%TO.C,D542*%
X153670000Y6035000D03*
X153670000Y9035000D03*
%TD*%
%TO.C,D41*%
X157206000Y67146000D03*
X157206000Y64146000D03*
%TD*%
%TO.C,D482*%
X118110000Y6020000D03*
X118110000Y9020000D03*
%TD*%
%TO.C,D481*%
X118110000Y11150000D03*
X118110000Y14150000D03*
%TD*%
%TO.C,D296*%
X11430000Y26514000D03*
X11430000Y29514000D03*
%TD*%
%TO.C,D158*%
X86086000Y52038000D03*
X86086000Y49038000D03*
%TD*%
%TO.C,D360*%
X46990000Y6094000D03*
X46990000Y9094000D03*
%TD*%
%TO.C,D73*%
X135870000Y46860000D03*
X135870000Y43860000D03*
%TD*%
%TO.C,D326*%
X29210000Y26466000D03*
X29210000Y29466000D03*
%TD*%
%TO.C,D429*%
X89662000Y21334000D03*
X89662000Y24334000D03*
%TD*%
%TO.C,D251*%
X32806000Y67244000D03*
X32806000Y64244000D03*
%TD*%
%TO.C,D71*%
X139426000Y67180000D03*
X139426000Y64180000D03*
%TD*%
%TO.C,D554*%
X160802000Y6010000D03*
X160802000Y9010000D03*
%TD*%
%TO.C,D394*%
X68306000Y16354000D03*
X68306000Y19354000D03*
%TD*%
%TO.C,D248*%
X32806000Y52004000D03*
X32806000Y49004000D03*
%TD*%
%TO.C,D369*%
X54102000Y21384000D03*
X54102000Y24384000D03*
%TD*%
%TO.C,D104*%
X118090000Y51916000D03*
X118090000Y48916000D03*
%TD*%
%TO.C,D386*%
X64770000Y26488000D03*
X64770000Y29488000D03*
%TD*%
%TO.C,D265*%
X22058000Y46944000D03*
X22058000Y43944000D03*
%TD*%
%TO.C,D178*%
X75438000Y62150000D03*
X75438000Y59150000D03*
%TD*%
%TO.C,D27*%
X164318000Y56970000D03*
X164318000Y53970000D03*
%TD*%
%TO.C,D10*%
X7854000Y16380000D03*
X7854000Y19380000D03*
%TD*%
%TO.C,D420*%
X82550000Y6044000D03*
X82550000Y9044000D03*
%TD*%
%TO.C,D306*%
X14986000Y6128000D03*
X14986000Y9128000D03*
%TD*%
%TO.C,D157*%
X86086000Y46958000D03*
X86086000Y43958000D03*
%TD*%
%TO.C,D339*%
X36322000Y21310000D03*
X36322000Y24310000D03*
%TD*%
%TO.C,D63*%
X142982000Y57060000D03*
X142982000Y54060000D03*
%TD*%
%TO.C,D483*%
X121666000Y31470000D03*
X121666000Y34470000D03*
%TD*%
%TO.C,D403*%
X75458000Y31554000D03*
X75458000Y34554000D03*
%TD*%
%TO.C,D532*%
X150054000Y26400000D03*
X150054000Y29400000D03*
%TD*%
%TO.C,D395*%
X68326000Y11274000D03*
X68326000Y14274000D03*
%TD*%
%TO.C,D14*%
X171430000Y51890000D03*
X171430000Y48890000D03*
%TD*%
%TO.C,D476*%
X114554000Y5996000D03*
X114554000Y8996000D03*
%TD*%
%TO.C,D92*%
X125202000Y51940000D03*
X125202000Y48940000D03*
%TD*%
%TO.C,D74*%
X135870000Y51940000D03*
X135870000Y48940000D03*
%TD*%
%TO.C,D176*%
X75418000Y51990000D03*
X75418000Y48990000D03*
%TD*%
%TO.C,D491*%
X125222000Y21310000D03*
X125222000Y24310000D03*
%TD*%
%TO.C,D527*%
X146538000Y21294000D03*
X146538000Y24294000D03*
%TD*%
%TO.C,D546*%
X157206000Y16245000D03*
X157206000Y19245000D03*
%TD*%
%TO.C,D2*%
X174986000Y51864000D03*
X174986000Y48864000D03*
%TD*%
%TO.C,D252*%
X32806000Y72374000D03*
X32806000Y69374000D03*
%TD*%
%TO.C,D319*%
X25654000Y31578000D03*
X25654000Y34578000D03*
%TD*%
%TO.C,D72*%
X139426000Y72310000D03*
X139426000Y69310000D03*
%TD*%
%TO.C,D519*%
X142982000Y31430000D03*
X142982000Y34430000D03*
%TD*%
%TO.C,D523*%
X142982000Y11110000D03*
X142982000Y14110000D03*
%TD*%
%TO.C,D458*%
X103886000Y5996000D03*
X103886000Y8996000D03*
%TD*%
%TO.C,D286*%
X11450000Y62190000D03*
X11450000Y59190000D03*
%TD*%
%TO.C,D548*%
X157226000Y6035000D03*
X157226000Y9035000D03*
%TD*%
%TO.C,D540*%
X153650000Y16245000D03*
X153650000Y19245000D03*
%TD*%
%TO.C,D301*%
X14986000Y31578000D03*
X14986000Y34578000D03*
%TD*%
%TO.C,D281*%
X14986000Y67270000D03*
X14986000Y64270000D03*
%TD*%
%TO.C,D56*%
X146538000Y52014000D03*
X146538000Y49014000D03*
%TD*%
%TO.C,D136*%
X100330000Y62150000D03*
X100330000Y59150000D03*
%TD*%
%TO.C,D113*%
X114534000Y67130000D03*
X114534000Y64130000D03*
%TD*%
%TO.C,D32*%
X160762000Y51887000D03*
X160762000Y48887000D03*
%TD*%
%TO.C,D236*%
X39878000Y52054000D03*
X39878000Y49054000D03*
%TD*%
%TO.C,D267*%
X22058000Y57104000D03*
X22058000Y54104000D03*
%TD*%
%TO.C,D418*%
X82530000Y16254000D03*
X82530000Y19254000D03*
%TD*%
%TO.C,D336*%
X32786000Y6020000D03*
X32786000Y9020000D03*
%TD*%
%TO.C,D422*%
X86106000Y26414000D03*
X86106000Y29414000D03*
%TD*%
%TO.C,D275*%
X18522000Y67288000D03*
X18522000Y64288000D03*
%TD*%
%TO.C,D496*%
X128778000Y26390000D03*
X128778000Y29390000D03*
%TD*%
%TO.C,D16*%
X171450000Y62050000D03*
X171450000Y59050000D03*
%TD*%
%TO.C,D452*%
X100330000Y6044000D03*
X100330000Y9044000D03*
%TD*%
%TO.C,D559*%
X164338000Y11116000D03*
X164338000Y14116000D03*
%TD*%
%TO.C,D171*%
X78974000Y57118000D03*
X78974000Y54118000D03*
%TD*%
%TO.C,D139*%
X96754000Y46910000D03*
X96754000Y43910000D03*
%TD*%
%TO.C,D249*%
X32806000Y57084000D03*
X32806000Y54084000D03*
%TD*%
%TO.C,D504*%
X132314000Y16180000D03*
X132314000Y19180000D03*
%TD*%
%TO.C,D254*%
X29190000Y51999000D03*
X29190000Y48999000D03*
%TD*%
%TO.C,D348*%
X39878000Y6054000D03*
X39878000Y9054000D03*
%TD*%
%TO.C,D4*%
X175006000Y62024000D03*
X175006000Y59024000D03*
%TD*%
%TO.C,D536*%
X150054000Y6030000D03*
X150054000Y9030000D03*
%TD*%
%TO.C,D141*%
X96754000Y57070000D03*
X96754000Y54070000D03*
%TD*%
%TO.C,D511*%
X135890000Y11150000D03*
X135890000Y14150000D03*
%TD*%
%TO.C,D226*%
X46990000Y62174000D03*
X46990000Y59174000D03*
%TD*%
%TO.C,D87*%
X128758000Y57020000D03*
X128758000Y54020000D03*
%TD*%
%TO.C,D84*%
X132314000Y72310000D03*
X132314000Y69310000D03*
%TD*%
%TO.C,D285*%
X11430000Y57110000D03*
X11430000Y54110000D03*
%TD*%
%TO.C,D225*%
X46970000Y57094000D03*
X46970000Y54094000D03*
%TD*%
%TO.C,D242*%
X36322000Y52030000D03*
X36322000Y49030000D03*
%TD*%
%TO.C,D512*%
X135890000Y6020000D03*
X135890000Y9020000D03*
%TD*%
%TO.C,D23*%
X167874000Y67146000D03*
X167874000Y64146000D03*
%TD*%
%TO.C,D162*%
X86086000Y72408000D03*
X86086000Y69408000D03*
%TD*%
%TO.C,D246*%
X36322000Y72400000D03*
X36322000Y69400000D03*
%TD*%
%TO.C,D398*%
X71882000Y26464000D03*
X71882000Y29464000D03*
%TD*%
%TO.C,D537*%
X153670000Y31485000D03*
X153670000Y34485000D03*
%TD*%
%TO.C,D382*%
X61194000Y16280000D03*
X61194000Y19280000D03*
%TD*%
%TO.C,D435*%
X93218000Y31446000D03*
X93218000Y34446000D03*
%TD*%
%TO.C,D578*%
X175006000Y6070000D03*
X175006000Y9070000D03*
%TD*%
%TO.C,D280*%
X15006000Y62190000D03*
X15006000Y59190000D03*
%TD*%
%TO.C,D425*%
X86106000Y11174000D03*
X86106000Y14174000D03*
%TD*%
%TO.C,D477*%
X118110000Y31470000D03*
X118110000Y34470000D03*
%TD*%
%TO.C,D159*%
X86086000Y57118000D03*
X86086000Y54118000D03*
%TD*%
%TO.C,D464*%
X107442000Y6044000D03*
X107442000Y9044000D03*
%TD*%
%TO.C,D323*%
X25654000Y11258000D03*
X25654000Y14258000D03*
%TD*%
%TO.C,D405*%
X75458000Y21394000D03*
X75458000Y24394000D03*
%TD*%
%TO.C,D173*%
X78974000Y67278000D03*
X78974000Y64278000D03*
%TD*%
%TO.C,D432*%
X89662000Y6044000D03*
X89662000Y9044000D03*
%TD*%
%TO.C,D170*%
X78974000Y52038000D03*
X78974000Y49038000D03*
%TD*%
%TO.C,D155*%
X89642000Y67278000D03*
X89642000Y64278000D03*
%TD*%
%TO.C,D300*%
X11430000Y6144000D03*
X11430000Y9144000D03*
%TD*%
%TO.C,D3*%
X174986000Y56944000D03*
X174986000Y53944000D03*
%TD*%
%TO.C,D78*%
X135870000Y72310000D03*
X135870000Y69310000D03*
%TD*%
%TO.C,D135*%
X100310000Y57070000D03*
X100310000Y54070000D03*
%TD*%
%TO.C,D393*%
X68326000Y21434000D03*
X68326000Y24434000D03*
%TD*%
%TO.C,D229*%
X43414000Y46934000D03*
X43414000Y43934000D03*
%TD*%
%TO.C,D402*%
X71882000Y6094000D03*
X71882000Y9094000D03*
%TD*%
%TO.C,D454*%
X103886000Y26366000D03*
X103886000Y29366000D03*
%TD*%
%TO.C,D355*%
X46990000Y31544000D03*
X46990000Y34544000D03*
%TD*%
%TO.C,D551*%
X160802000Y21300000D03*
X160802000Y24300000D03*
%TD*%
%TO.C,D503*%
X132334000Y21260000D03*
X132334000Y24260000D03*
%TD*%
%TO.C,D367*%
X54102000Y31544000D03*
X54102000Y34544000D03*
%TD*%
%TO.C,D125*%
X107402000Y67170000D03*
X107402000Y64170000D03*
%TD*%
%TO.C,D243*%
X36322000Y57110000D03*
X36322000Y54110000D03*
%TD*%
%TO.C,D569*%
X171450000Y21360000D03*
X171450000Y24360000D03*
%TD*%
%TO.C,D572*%
X171450000Y6070000D03*
X171450000Y9070000D03*
%TD*%
%TO.C,D408*%
X75458000Y6104000D03*
X75458000Y9104000D03*
%TD*%
%TO.C,D374*%
X57658000Y26464000D03*
X57658000Y29464000D03*
%TD*%
%TO.C,D131*%
X103866000Y67230000D03*
X103866000Y64230000D03*
%TD*%
%TO.C,D375*%
X57658000Y21384000D03*
X57658000Y24384000D03*
%TD*%
%TO.C,D387*%
X64770000Y21408000D03*
X64770000Y24408000D03*
%TD*%
%TO.C,D506*%
X132334000Y5970000D03*
X132334000Y8970000D03*
%TD*%
%TO.C,D142*%
X96774000Y62150000D03*
X96774000Y59150000D03*
%TD*%
%TO.C,D332*%
X32786000Y26390000D03*
X32786000Y29390000D03*
%TD*%
%TO.C,D561*%
X167894000Y31470000D03*
X167894000Y34470000D03*
%TD*%
%TO.C,D163*%
X82530000Y46910000D03*
X82530000Y43910000D03*
%TD*%
%TO.C,D260*%
X25634000Y51999000D03*
X25634000Y48999000D03*
%TD*%
%TO.C,D543*%
X157226000Y31485000D03*
X157226000Y34485000D03*
%TD*%
%TO.C,D97*%
X121646000Y46884000D03*
X121646000Y43884000D03*
%TD*%
%TO.C,D345*%
X39878000Y21344000D03*
X39878000Y24344000D03*
%TD*%
%TO.C,D505*%
X132334000Y11100000D03*
X132334000Y14100000D03*
%TD*%
%TO.C,D114*%
X114534000Y72260000D03*
X114534000Y69260000D03*
%TD*%
%TO.C,D318*%
X22098000Y6147000D03*
X22098000Y9147000D03*
%TD*%
%TO.C,D310*%
X18522000Y16354000D03*
X18522000Y19354000D03*
%TD*%
%TO.C,D262*%
X25654000Y62159000D03*
X25654000Y59159000D03*
%TD*%
%TO.C,D85*%
X128758000Y46860000D03*
X128758000Y43860000D03*
%TD*%
%TO.C,D96*%
X125202000Y72310000D03*
X125202000Y69310000D03*
%TD*%
%TO.C,D294*%
X7874000Y72400000D03*
X7874000Y69400000D03*
%TD*%
%TO.C,D86*%
X128758000Y51940000D03*
X128758000Y48940000D03*
%TD*%
%TO.C,D212*%
X54082000Y52014000D03*
X54082000Y49014000D03*
%TD*%
%TO.C,D392*%
X68326000Y26514000D03*
X68326000Y29514000D03*
%TD*%
%TO.C,D466*%
X110998000Y26390000D03*
X110998000Y29390000D03*
%TD*%
%TO.C,D575*%
X175006000Y21360000D03*
X175006000Y24360000D03*
%TD*%
%TO.C,D517*%
X139446000Y11150000D03*
X139446000Y14150000D03*
%TD*%
%TO.C,D240*%
X39878000Y72424000D03*
X39878000Y69424000D03*
%TD*%
%TO.C,D350*%
X43434000Y26464000D03*
X43434000Y29464000D03*
%TD*%
%TO.C,D194*%
X64750000Y52014000D03*
X64750000Y49014000D03*
%TD*%
%TO.C,D381*%
X61214000Y21360000D03*
X61214000Y24360000D03*
%TD*%
%TO.C,D344*%
X39878000Y26424000D03*
X39878000Y29424000D03*
%TD*%
%TO.C,D53*%
X150074000Y67254000D03*
X150074000Y64254000D03*
%TD*%
%TO.C,D144*%
X96754000Y72360000D03*
X96754000Y69360000D03*
%TD*%
%TO.C,D161*%
X86086000Y67278000D03*
X86086000Y64278000D03*
%TD*%
%TO.C,D36*%
X160762000Y72257000D03*
X160762000Y69257000D03*
%TD*%
%TO.C,D413*%
X78994000Y11174000D03*
X78994000Y14174000D03*
%TD*%
%TO.C,D424*%
X86086000Y16254000D03*
X86086000Y19254000D03*
%TD*%
%TO.C,D463*%
X107442000Y11174000D03*
X107442000Y14174000D03*
%TD*%
%TO.C,D255*%
X29190000Y57079000D03*
X29190000Y54079000D03*
%TD*%
%TO.C,D46*%
X153670000Y62098000D03*
X153670000Y59098000D03*
%TD*%
%TO.C,D64*%
X143002000Y62140000D03*
X143002000Y59140000D03*
%TD*%
%TO.C,D330*%
X29210000Y6096000D03*
X29210000Y9096000D03*
%TD*%
%TO.C,D103*%
X118090000Y46836000D03*
X118090000Y43836000D03*
%TD*%
%TO.C,D443*%
X96774000Y21286000D03*
X96774000Y24286000D03*
%TD*%
%TO.C,D450*%
X100310000Y16254000D03*
X100310000Y19254000D03*
%TD*%
%TO.C,D298*%
X11410000Y16354000D03*
X11410000Y19354000D03*
%TD*%
%TO.C,D213*%
X54082000Y57094000D03*
X54082000Y54094000D03*
%TD*%
%TO.C,D293*%
X7874000Y67270000D03*
X7874000Y64270000D03*
%TD*%
%TO.C,D264*%
X25634000Y72369000D03*
X25634000Y69369000D03*
%TD*%
%TO.C,D446*%
X96774000Y5996000D03*
X96774000Y8996000D03*
%TD*%
%TO.C,D565*%
X167894000Y11150000D03*
X167894000Y14150000D03*
%TD*%
%TO.C,D324*%
X25654000Y6128000D03*
X25654000Y9128000D03*
%TD*%
%TO.C,D12*%
X7874000Y6170000D03*
X7874000Y9170000D03*
%TD*%
%TO.C,D472*%
X114554000Y26366000D03*
X114554000Y29366000D03*
%TD*%
%TO.C,D538*%
X153670000Y26405000D03*
X153670000Y29405000D03*
%TD*%
%TO.C,D186*%
X71862000Y72384000D03*
X71862000Y69384000D03*
%TD*%
%TO.C,D358*%
X46970000Y16304000D03*
X46970000Y19304000D03*
%TD*%
%TO.C,D185*%
X71862000Y67254000D03*
X71862000Y64254000D03*
%TD*%
%TO.C,D317*%
X22098000Y11277000D03*
X22098000Y14277000D03*
%TD*%
%TO.C,D342*%
X36322000Y6020000D03*
X36322000Y9020000D03*
%TD*%
%TO.C,D38*%
X157206000Y51906000D03*
X157206000Y48906000D03*
%TD*%
%TO.C,D33*%
X160762000Y56967000D03*
X160762000Y53967000D03*
%TD*%
%TO.C,D562*%
X167894000Y26390000D03*
X167894000Y29390000D03*
%TD*%
%TO.C,D399*%
X71882000Y21384000D03*
X71882000Y24384000D03*
%TD*%
%TO.C,D340*%
X36302000Y16230000D03*
X36302000Y19230000D03*
%TD*%
%TO.C,D201*%
X61194000Y57094000D03*
X61194000Y54094000D03*
%TD*%
%TO.C,D35*%
X160762000Y67127000D03*
X160762000Y64127000D03*
%TD*%
%TO.C,D556*%
X164338000Y26356000D03*
X164338000Y29356000D03*
%TD*%
%TO.C,D137*%
X100310000Y67230000D03*
X100310000Y64230000D03*
%TD*%
%TO.C,D75*%
X135870000Y57020000D03*
X135870000Y54020000D03*
%TD*%
%TO.C,D200*%
X61194000Y52014000D03*
X61194000Y49014000D03*
%TD*%
%TO.C,D218*%
X50526000Y52064000D03*
X50526000Y49064000D03*
%TD*%
%TO.C,D334*%
X32766000Y16230000D03*
X32766000Y19230000D03*
%TD*%
%TO.C,D20*%
X167874000Y51906000D03*
X167874000Y48906000D03*
%TD*%
%TO.C,D313*%
X22098000Y31597000D03*
X22098000Y34597000D03*
%TD*%
%TO.C,D1*%
X174986000Y46784000D03*
X174986000Y43784000D03*
%TD*%
%TO.C,D338*%
X36322000Y26390000D03*
X36322000Y29390000D03*
%TD*%
%TO.C,D309*%
X18542000Y21434000D03*
X18542000Y24434000D03*
%TD*%
%TO.C,D51*%
X150074000Y57094000D03*
X150074000Y54094000D03*
%TD*%
%TO.C,D460*%
X107442000Y26414000D03*
X107442000Y29414000D03*
%TD*%
%TO.C,D274*%
X18542000Y62208000D03*
X18542000Y59208000D03*
%TD*%
%TO.C,D76*%
X135890000Y62100000D03*
X135890000Y59100000D03*
%TD*%
%TO.C,D100*%
X121666000Y62124000D03*
X121666000Y59124000D03*
%TD*%
%TO.C,D132*%
X103866000Y72360000D03*
X103866000Y69360000D03*
%TD*%
%TO.C,D437*%
X93218000Y21286000D03*
X93218000Y24286000D03*
%TD*%
%TO.C,D510*%
X135870000Y16230000D03*
X135870000Y19230000D03*
%TD*%
%TO.C,D535*%
X150054000Y11160000D03*
X150054000Y14160000D03*
%TD*%
%TO.C,D525*%
X146538000Y31454000D03*
X146538000Y34454000D03*
%TD*%
%TO.C,D211*%
X54082000Y46934000D03*
X54082000Y43934000D03*
%TD*%
%TO.C,D331*%
X32786000Y31470000D03*
X32786000Y34470000D03*
%TD*%
%TO.C,D555*%
X164338000Y31436000D03*
X164338000Y34436000D03*
%TD*%
%TO.C,D239*%
X39878000Y67294000D03*
X39878000Y64294000D03*
%TD*%
%TO.C,D140*%
X96754000Y51990000D03*
X96754000Y48990000D03*
%TD*%
%TO.C,D401*%
X71882000Y11224000D03*
X71882000Y14224000D03*
%TD*%
%TO.C,D206*%
X57638000Y52014000D03*
X57638000Y49014000D03*
%TD*%
%TO.C,D55*%
X146538000Y46934000D03*
X146538000Y43934000D03*
%TD*%
%TO.C,D451*%
X100330000Y11174000D03*
X100330000Y14174000D03*
%TD*%
%TO.C,D368*%
X54102000Y26464000D03*
X54102000Y29464000D03*
%TD*%
%TO.C,D522*%
X142962000Y16190000D03*
X142962000Y19190000D03*
%TD*%
%TO.C,D488*%
X121666000Y6020000D03*
X121666000Y9020000D03*
%TD*%
%TO.C,D299*%
X11430000Y11274000D03*
X11430000Y14274000D03*
%TD*%
%TO.C,D151*%
X89642000Y46958000D03*
X89642000Y43958000D03*
%TD*%
%TO.C,D495*%
X128778000Y31470000D03*
X128778000Y34470000D03*
%TD*%
%TO.C,D24*%
X167874000Y72276000D03*
X167874000Y69276000D03*
%TD*%
%TO.C,D8*%
X7874000Y26540000D03*
X7874000Y29540000D03*
%TD*%
%TO.C,D346*%
X39858000Y16264000D03*
X39858000Y19264000D03*
%TD*%
%TO.C,D574*%
X175006000Y26440000D03*
X175006000Y29440000D03*
%TD*%
%TO.C,D507*%
X135890000Y31470000D03*
X135890000Y34470000D03*
%TD*%
%TO.C,D130*%
X103886000Y62150000D03*
X103886000Y59150000D03*
%TD*%
%TO.C,D415*%
X82550000Y31494000D03*
X82550000Y34494000D03*
%TD*%
%TO.C,D354*%
X43434000Y6094000D03*
X43434000Y9094000D03*
%TD*%
%TO.C,D189*%
X68306000Y57118000D03*
X68306000Y54118000D03*
%TD*%
%TO.C,D44*%
X153650000Y51938000D03*
X153650000Y48938000D03*
%TD*%
%TO.C,D108*%
X118090000Y72286000D03*
X118090000Y69286000D03*
%TD*%
%TO.C,D518*%
X139446000Y6020000D03*
X139446000Y9020000D03*
%TD*%
%TO.C,D461*%
X107442000Y21334000D03*
X107442000Y24334000D03*
%TD*%
%TO.C,D573*%
X175006000Y31520000D03*
X175006000Y34520000D03*
%TD*%
%TO.C,D563*%
X167894000Y21310000D03*
X167894000Y24310000D03*
%TD*%
%TO.C,D490*%
X125222000Y26390000D03*
X125222000Y29390000D03*
%TD*%
%TO.C,D195*%
X64750000Y57094000D03*
X64750000Y54094000D03*
%TD*%
%TO.C,D95*%
X125202000Y67180000D03*
X125202000Y64180000D03*
%TD*%
%TO.C,D207*%
X57638000Y57094000D03*
X57638000Y54094000D03*
%TD*%
%TO.C,D215*%
X54082000Y67254000D03*
X54082000Y64254000D03*
%TD*%
%TO.C,D180*%
X75418000Y72360000D03*
X75418000Y69360000D03*
%TD*%
%TO.C,D497*%
X128778000Y21310000D03*
X128778000Y24310000D03*
%TD*%
%TO.C,D431*%
X89662000Y11174000D03*
X89662000Y14174000D03*
%TD*%
%TO.C,D577*%
X175006000Y11200000D03*
X175006000Y14200000D03*
%TD*%
%TO.C,D106*%
X118110000Y62076000D03*
X118110000Y59076000D03*
%TD*%
%TO.C,D117*%
X110978000Y57020000D03*
X110978000Y54020000D03*
%TD*%
%TO.C,D59*%
X146538000Y67254000D03*
X146538000Y64254000D03*
%TD*%
%TO.C,D68*%
X139426000Y51940000D03*
X139426000Y48940000D03*
%TD*%
%TO.C,D268*%
X22078000Y62184000D03*
X22078000Y59184000D03*
%TD*%
%TO.C,D111*%
X114534000Y56970000D03*
X114534000Y53970000D03*
%TD*%
%TO.C,D327*%
X29210000Y21386000D03*
X29210000Y24386000D03*
%TD*%
%TO.C,D238*%
X39898000Y62214000D03*
X39898000Y59214000D03*
%TD*%
%TO.C,D480*%
X118090000Y16230000D03*
X118090000Y19230000D03*
%TD*%
%TO.C,D560*%
X164338000Y5986000D03*
X164338000Y8986000D03*
%TD*%
%TO.C,D462*%
X107422000Y16254000D03*
X107422000Y19254000D03*
%TD*%
%TO.C,D52*%
X150094000Y62174000D03*
X150094000Y59174000D03*
%TD*%
%TO.C,D513*%
X139446000Y31470000D03*
X139446000Y34470000D03*
%TD*%
%TO.C,D457*%
X103886000Y11126000D03*
X103886000Y14126000D03*
%TD*%
%TO.C,D308*%
X18542000Y26514000D03*
X18542000Y29514000D03*
%TD*%
%TO.C,D576*%
X174986000Y16280000D03*
X174986000Y19280000D03*
%TD*%
%TO.C,D388*%
X64750000Y16328000D03*
X64750000Y19328000D03*
%TD*%
%TO.C,D19*%
X167874000Y46826000D03*
X167874000Y43826000D03*
%TD*%
%TO.C,D123*%
X107402000Y57010000D03*
X107402000Y54010000D03*
%TD*%
%TO.C,D26*%
X164318000Y51890000D03*
X164318000Y48890000D03*
%TD*%
%TO.C,D485*%
X121666000Y21310000D03*
X121666000Y24310000D03*
%TD*%
%TO.C,D303*%
X14986000Y21418000D03*
X14986000Y24418000D03*
%TD*%
%TO.C,D426*%
X86106000Y6044000D03*
X86106000Y9044000D03*
%TD*%
%TO.C,D528*%
X146518000Y16214000D03*
X146518000Y19214000D03*
%TD*%
%TO.C,D335*%
X32786000Y11150000D03*
X32786000Y14150000D03*
%TD*%
%TO.C,D449*%
X100330000Y21334000D03*
X100330000Y24334000D03*
%TD*%
%TO.C,D469*%
X110998000Y11150000D03*
X110998000Y14150000D03*
%TD*%
%TO.C,D208*%
X57658000Y62174000D03*
X57658000Y59174000D03*
%TD*%
%TO.C,D9*%
X7874000Y21460000D03*
X7874000Y24460000D03*
%TD*%
%TO.C,D183*%
X71862000Y57094000D03*
X71862000Y54094000D03*
%TD*%
%TO.C,D441*%
X96774000Y31446000D03*
X96774000Y34446000D03*
%TD*%
%TO.C,D337*%
X36322000Y31470000D03*
X36322000Y34470000D03*
%TD*%
%TO.C,D112*%
X114554000Y62050000D03*
X114554000Y59050000D03*
%TD*%
%TO.C,D494*%
X125222000Y6020000D03*
X125222000Y9020000D03*
%TD*%
%TO.C,D256*%
X29210000Y62159000D03*
X29210000Y59159000D03*
%TD*%
%TO.C,D60*%
X146538000Y72384000D03*
X146538000Y69384000D03*
%TD*%
%TO.C,D58*%
X146558000Y62174000D03*
X146558000Y59174000D03*
%TD*%
%TO.C,D250*%
X32826000Y62164000D03*
X32826000Y59164000D03*
%TD*%
%TO.C,D122*%
X107402000Y51930000D03*
X107402000Y48930000D03*
%TD*%
%TO.C,D524*%
X142982000Y5980000D03*
X142982000Y8980000D03*
%TD*%
%TO.C,D6*%
X174986000Y72234000D03*
X174986000Y69234000D03*
%TD*%
%TO.C,D126*%
X107402000Y72300000D03*
X107402000Y69300000D03*
%TD*%
%TO.C,D175*%
X75418000Y46910000D03*
X75418000Y43910000D03*
%TD*%
%TO.C,D149*%
X93198000Y67230000D03*
X93198000Y64230000D03*
%TD*%
%TO.C,D217*%
X50526000Y46984000D03*
X50526000Y43984000D03*
%TD*%
%TO.C,D353*%
X43434000Y11224000D03*
X43434000Y14224000D03*
%TD*%
%TO.C,D232*%
X43434000Y62174000D03*
X43434000Y59174000D03*
%TD*%
%TO.C,D467*%
X110998000Y21310000D03*
X110998000Y24310000D03*
%TD*%
%TO.C,D533*%
X150054000Y21320000D03*
X150054000Y24320000D03*
%TD*%
%TO.C,D407*%
X75458000Y11234000D03*
X75458000Y14234000D03*
%TD*%
%TO.C,D269*%
X22058000Y67264000D03*
X22058000Y64264000D03*
%TD*%
%TO.C,D378*%
X57658000Y6094000D03*
X57658000Y9094000D03*
%TD*%
%TO.C,D216*%
X54082000Y72384000D03*
X54082000Y69384000D03*
%TD*%
%TO.C,D150*%
X93198000Y72360000D03*
X93198000Y69360000D03*
%TD*%
%TO.C,D315*%
X22098000Y21437000D03*
X22098000Y24437000D03*
%TD*%
%TO.C,D436*%
X93218000Y26366000D03*
X93218000Y29366000D03*
%TD*%
%TO.C,D278*%
X14986000Y52030000D03*
X14986000Y49030000D03*
%TD*%
%TO.C,D526*%
X146538000Y26374000D03*
X146538000Y29374000D03*
%TD*%
%TO.C,D107*%
X118090000Y67156000D03*
X118090000Y64156000D03*
%TD*%
%TO.C,D384*%
X61214000Y6070000D03*
X61214000Y9070000D03*
%TD*%
%TO.C,D203*%
X61194000Y67254000D03*
X61194000Y64254000D03*
%TD*%
%TO.C,D571*%
X171450000Y11200000D03*
X171450000Y14200000D03*
%TD*%
%TO.C,D190*%
X68326000Y62198000D03*
X68326000Y59198000D03*
%TD*%
%TO.C,D391*%
X68326000Y31594000D03*
X68326000Y34594000D03*
%TD*%
%TO.C,D49*%
X150074000Y46934000D03*
X150074000Y43934000D03*
%TD*%
%TO.C,D192*%
X68306000Y72408000D03*
X68306000Y69408000D03*
%TD*%
%TO.C,D181*%
X71862000Y46934000D03*
X71862000Y43934000D03*
%TD*%
%TO.C,D359*%
X46990000Y11224000D03*
X46990000Y14224000D03*
%TD*%
%TO.C,D45*%
X153650000Y57018000D03*
X153650000Y54018000D03*
%TD*%
%TO.C,D349*%
X43434000Y31544000D03*
X43434000Y34544000D03*
%TD*%
%TO.C,D90*%
X128758000Y72310000D03*
X128758000Y69310000D03*
%TD*%
%TO.C,D169*%
X78974000Y46958000D03*
X78974000Y43958000D03*
%TD*%
%TO.C,D101*%
X121646000Y67204000D03*
X121646000Y64204000D03*
%TD*%
%TO.C,D193*%
X64750000Y46934000D03*
X64750000Y43934000D03*
%TD*%
%TO.C,D154*%
X89662000Y62198000D03*
X89662000Y59198000D03*
%TD*%
%TO.C,D489*%
X125222000Y31470000D03*
X125222000Y34470000D03*
%TD*%
%TO.C,D116*%
X110978000Y51940000D03*
X110978000Y48940000D03*
%TD*%
%TO.C,D118*%
X110998000Y62100000D03*
X110998000Y59100000D03*
%TD*%
%TO.C,D473*%
X114554000Y21286000D03*
X114554000Y24286000D03*
%TD*%
%TO.C,D292*%
X7894000Y62190000D03*
X7894000Y59190000D03*
%TD*%
%TO.C,D187*%
X68306000Y46958000D03*
X68306000Y43958000D03*
%TD*%
%TO.C,D557*%
X164338000Y21276000D03*
X164338000Y24276000D03*
%TD*%
%TO.C,D177*%
X75418000Y57070000D03*
X75418000Y54070000D03*
%TD*%
%TO.C,D22*%
X167894000Y62066000D03*
X167894000Y59066000D03*
%TD*%
%TO.C,D499*%
X128778000Y11150000D03*
X128778000Y14150000D03*
%TD*%
%TO.C,D237*%
X39878000Y57134000D03*
X39878000Y54134000D03*
%TD*%
%TO.C,D214*%
X54102000Y62174000D03*
X54102000Y59174000D03*
%TD*%
%TO.C,D47*%
X153650000Y67178000D03*
X153650000Y64178000D03*
%TD*%
%TO.C,D553*%
X160802000Y11140000D03*
X160802000Y14140000D03*
%TD*%
%TO.C,D21*%
X167874000Y56986000D03*
X167874000Y53986000D03*
%TD*%
%TO.C,D302*%
X14986000Y26498000D03*
X14986000Y29498000D03*
%TD*%
%TO.C,D31*%
X160762000Y46807000D03*
X160762000Y43807000D03*
%TD*%
%TO.C,D153*%
X89642000Y57118000D03*
X89642000Y54118000D03*
%TD*%
%TO.C,D7*%
X7874000Y31620000D03*
X7874000Y34620000D03*
%TD*%
%TO.C,D172*%
X78994000Y62198000D03*
X78994000Y59198000D03*
%TD*%
%TO.C,D13*%
X171430000Y46810000D03*
X171430000Y43810000D03*
%TD*%
%TO.C,D65*%
X142982000Y67220000D03*
X142982000Y64220000D03*
%TD*%
%TO.C,D120*%
X110978000Y72310000D03*
X110978000Y69310000D03*
%TD*%
%TO.C,D82*%
X132334000Y62100000D03*
X132334000Y59100000D03*
%TD*%
%TO.C,D479*%
X118110000Y21310000D03*
X118110000Y24310000D03*
%TD*%
%TO.C,D474*%
X114534000Y16206000D03*
X114534000Y19206000D03*
%TD*%
%TO.C,D164*%
X82530000Y51990000D03*
X82530000Y48990000D03*
%TD*%
%TO.C,D357*%
X46990000Y21384000D03*
X46990000Y24384000D03*
%TD*%
%TO.C,D204*%
X61194000Y72384000D03*
X61194000Y69384000D03*
%TD*%
%TO.C,D66*%
X142982000Y72350000D03*
X142982000Y69350000D03*
%TD*%
%TO.C,D509*%
X135890000Y21310000D03*
X135890000Y24310000D03*
%TD*%
%TO.C,D83*%
X132314000Y67180000D03*
X132314000Y64180000D03*
%TD*%
%TO.C,D430*%
X89642000Y16254000D03*
X89642000Y19254000D03*
%TD*%
%TO.C,D363*%
X50546000Y21384000D03*
X50546000Y24384000D03*
%TD*%
%TO.C,D196*%
X64770000Y62174000D03*
X64770000Y59174000D03*
%TD*%
%TO.C,D478*%
X118110000Y26390000D03*
X118110000Y29390000D03*
%TD*%
%TO.C,D15*%
X171430000Y56970000D03*
X171430000Y53970000D03*
%TD*%
%TO.C,D419*%
X82550000Y11174000D03*
X82550000Y14174000D03*
%TD*%
%TO.C,D197*%
X64750000Y67254000D03*
X64750000Y64254000D03*
%TD*%
%TO.C,D549*%
X160802000Y31460000D03*
X160802000Y34460000D03*
%TD*%
%TO.C,D199*%
X61194000Y46934000D03*
X61194000Y43934000D03*
%TD*%
%TO.C,D11*%
X7874000Y11300000D03*
X7874000Y14300000D03*
%TD*%
%TO.C,D341*%
X36322000Y11150000D03*
X36322000Y14150000D03*
%TD*%
%TO.C,D209*%
X57638000Y67254000D03*
X57638000Y64254000D03*
%TD*%
%TO.C,D316*%
X22078000Y16357000D03*
X22078000Y19357000D03*
%TD*%
%TO.C,D244*%
X36342000Y62190000D03*
X36342000Y59190000D03*
%TD*%
%TO.C,D380*%
X61214000Y26440000D03*
X61214000Y29440000D03*
%TD*%
%TO.C,D448*%
X100330000Y26414000D03*
X100330000Y29414000D03*
%TD*%
%TO.C,D69*%
X139426000Y57020000D03*
X139426000Y54020000D03*
%TD*%
%TO.C,D287*%
X11430000Y67270000D03*
X11430000Y64270000D03*
%TD*%
%TO.C,D516*%
X139426000Y16230000D03*
X139426000Y19230000D03*
%TD*%
%TO.C,D465*%
X110998000Y31470000D03*
X110998000Y34470000D03*
%TD*%
%TO.C,D362*%
X50546000Y26464000D03*
X50546000Y29464000D03*
%TD*%
%TO.C,D233*%
X43414000Y67254000D03*
X43414000Y64254000D03*
%TD*%
%TO.C,D347*%
X39878000Y11184000D03*
X39878000Y14184000D03*
%TD*%
%TO.C,D423*%
X86106000Y21334000D03*
X86106000Y24334000D03*
%TD*%
%TO.C,D88*%
X128778000Y62100000D03*
X128778000Y59100000D03*
%TD*%
%TO.C,D377*%
X57658000Y11224000D03*
X57658000Y14224000D03*
%TD*%
%TO.C,D411*%
X78994000Y21334000D03*
X78994000Y24334000D03*
%TD*%
%TO.C,D545*%
X157226000Y21325000D03*
X157226000Y24325000D03*
%TD*%
%TO.C,D210*%
X57638000Y72384000D03*
X57638000Y69384000D03*
%TD*%
%TO.C,D257*%
X29190000Y67239000D03*
X29190000Y64239000D03*
%TD*%
%TO.C,D258*%
X29190000Y72369000D03*
X29190000Y69369000D03*
%TD*%
%TO.C,D17*%
X171430000Y67130000D03*
X171430000Y64130000D03*
%TD*%
%TO.C,D227*%
X46970000Y67254000D03*
X46970000Y64254000D03*
%TD*%
%TO.C,D297*%
X11430000Y21434000D03*
X11430000Y24434000D03*
%TD*%
%TO.C,D320*%
X25654000Y26498000D03*
X25654000Y29498000D03*
%TD*%
%TO.C,D468*%
X110978000Y16230000D03*
X110978000Y19230000D03*
%TD*%
%TO.C,D417*%
X82550000Y21334000D03*
X82550000Y24334000D03*
%TD*%
%TO.C,D444*%
X96754000Y16206000D03*
X96754000Y19206000D03*
%TD*%
%TO.C,D266*%
X22058000Y52024000D03*
X22058000Y49024000D03*
%TD*%
%TO.C,D67*%
X139426000Y46860000D03*
X139426000Y43860000D03*
%TD*%
%TO.C,D547*%
X157226000Y11165000D03*
X157226000Y14165000D03*
%TD*%
%TO.C,D128*%
X103866000Y51990000D03*
X103866000Y48990000D03*
%TD*%
%TO.C,D99*%
X121646000Y57044000D03*
X121646000Y54044000D03*
%TD*%
%TO.C,D129*%
X103866000Y57070000D03*
X103866000Y54070000D03*
%TD*%
%TO.C,D352*%
X43414000Y16304000D03*
X43414000Y19304000D03*
%TD*%
%TO.C,D202*%
X61214000Y62174000D03*
X61214000Y59174000D03*
%TD*%
%TO.C,D42*%
X157206000Y72276000D03*
X157206000Y69276000D03*
%TD*%
%TO.C,D109*%
X114534000Y46810000D03*
X114534000Y43810000D03*
%TD*%
%TO.C,D127*%
X103866000Y46910000D03*
X103866000Y43910000D03*
%TD*%
%TO.C,D304*%
X14966000Y16338000D03*
X14966000Y19338000D03*
%TD*%
%TO.C,D168*%
X82530000Y72360000D03*
X82530000Y69360000D03*
%TD*%
%TO.C,D37*%
X157206000Y46826000D03*
X157206000Y43826000D03*
%TD*%
%TO.C,D390*%
X64770000Y6118000D03*
X64770000Y9118000D03*
%TD*%
%TO.C,D314*%
X22098000Y26517000D03*
X22098000Y29517000D03*
%TD*%
%TO.C,D182*%
X71862000Y52014000D03*
X71862000Y49014000D03*
%TD*%
%TO.C,D102*%
X121646000Y72334000D03*
X121646000Y69334000D03*
%TD*%
%TO.C,D167*%
X82530000Y67230000D03*
X82530000Y64230000D03*
%TD*%
%TO.C,D383*%
X61214000Y11200000D03*
X61214000Y14200000D03*
%TD*%
%TO.C,D94*%
X125222000Y62100000D03*
X125222000Y59100000D03*
%TD*%
%TO.C,D428*%
X89662000Y26414000D03*
X89662000Y29414000D03*
%TD*%
%TO.C,D356*%
X46990000Y26464000D03*
X46990000Y29464000D03*
%TD*%
%TO.C,D406*%
X75438000Y16314000D03*
X75438000Y19314000D03*
%TD*%
%TO.C,D272*%
X18522000Y52048000D03*
X18522000Y49048000D03*
%TD*%
%TO.C,D515*%
X139446000Y21310000D03*
X139446000Y24310000D03*
%TD*%
%TO.C,D188*%
X68306000Y52038000D03*
X68306000Y49038000D03*
%TD*%
%TO.C,D80*%
X132314000Y51940000D03*
X132314000Y48940000D03*
%TD*%
%TO.C,D291*%
X7874000Y57110000D03*
X7874000Y54110000D03*
%TD*%
%TO.C,D124*%
X107422000Y62090000D03*
X107422000Y59090000D03*
%TD*%
%TO.C,D148*%
X93218000Y62150000D03*
X93218000Y59150000D03*
%TD*%
%TO.C,D502*%
X132334000Y26340000D03*
X132334000Y29340000D03*
%TD*%
%TO.C,D261*%
X25634000Y57079000D03*
X25634000Y54079000D03*
%TD*%
%TO.C,D145*%
X93198000Y46910000D03*
X93198000Y43910000D03*
%TD*%
%TO.C,D133*%
X100310000Y46910000D03*
X100310000Y43910000D03*
%TD*%
%TO.C,D484*%
X121666000Y26390000D03*
X121666000Y29390000D03*
%TD*%
%TO.C,D376*%
X57638000Y16304000D03*
X57638000Y19304000D03*
%TD*%
%TO.C,D521*%
X142982000Y21270000D03*
X142982000Y24270000D03*
%TD*%
%TO.C,D230*%
X43414000Y52014000D03*
X43414000Y49014000D03*
%TD*%
%TO.C,D39*%
X157206000Y56986000D03*
X157206000Y53986000D03*
%TD*%
%TO.C,D440*%
X93218000Y5996000D03*
X93218000Y8996000D03*
%TD*%
%TO.C,D564*%
X167874000Y16230000D03*
X167874000Y19230000D03*
%TD*%
%TO.C,D70*%
X139446000Y62100000D03*
X139446000Y59100000D03*
%TD*%
%TO.C,D325*%
X29210000Y31546000D03*
X29210000Y34546000D03*
%TD*%
%TO.C,D459*%
X107442000Y31494000D03*
X107442000Y34494000D03*
%TD*%
%TO.C,D409*%
X78994000Y31494000D03*
X78994000Y34494000D03*
%TD*%
%TO.C,D570*%
X171430000Y16280000D03*
X171430000Y19280000D03*
%TD*%
%TO.C,D282*%
X14986000Y72400000D03*
X14986000Y69400000D03*
%TD*%
%TO.C,D273*%
X18522000Y57128000D03*
X18522000Y54128000D03*
%TD*%
D11*
%TO.C,R62*%
X50546000Y4026500D03*
X50546000Y1101500D03*
%TD*%
D12*
%TO.C,R1*%
X174986000Y74301500D03*
X174986000Y77226500D03*
%TD*%
%TO.C,R48*%
X14986000Y74467500D03*
X14986000Y77392500D03*
%TD*%
%TO.C,R44*%
X29190000Y74436500D03*
X29190000Y77361500D03*
%TD*%
D11*
%TO.C,R73*%
X89662000Y3976500D03*
X89662000Y1051500D03*
%TD*%
D12*
%TO.C,R31*%
X75418000Y74427500D03*
X75418000Y77352500D03*
%TD*%
%TO.C,R41*%
X39878000Y74491500D03*
X39878000Y77416500D03*
%TD*%
%TO.C,R20*%
X114534000Y74327500D03*
X114534000Y77252500D03*
%TD*%
%TO.C,R29*%
X82530000Y74427500D03*
X82530000Y77352500D03*
%TD*%
D11*
%TO.C,R70*%
X78994000Y3976500D03*
X78994000Y1051500D03*
%TD*%
D12*
%TO.C,R10*%
X150074000Y74451500D03*
X150074000Y77376500D03*
%TD*%
%TO.C,R49*%
X11430000Y74467500D03*
X11430000Y77392500D03*
%TD*%
D13*
%TO.C,C1*%
X-6350000Y23127000D03*
X-6350000Y21577000D03*
%TD*%
D11*
%TO.C,R90*%
X150054000Y3962500D03*
X150054000Y1037500D03*
%TD*%
D12*
%TO.C,R18*%
X121646000Y74401500D03*
X121646000Y77326500D03*
%TD*%
%TO.C,R8*%
X157206000Y74343500D03*
X157206000Y77268500D03*
%TD*%
D11*
%TO.C,R64*%
X57658000Y4026500D03*
X57658000Y1101500D03*
%TD*%
D12*
%TO.C,R4*%
X171430000Y74327500D03*
X171430000Y77252500D03*
%TD*%
D11*
%TO.C,R84*%
X128778000Y3952500D03*
X128778000Y1027500D03*
%TD*%
%TO.C,R77*%
X103886000Y3928500D03*
X103886000Y1003500D03*
%TD*%
%TO.C,R85*%
X132334000Y3902500D03*
X132334000Y977500D03*
%TD*%
%TO.C,R52*%
X14986000Y4060500D03*
X14986000Y1135500D03*
%TD*%
%TO.C,R72*%
X86106000Y3976500D03*
X86106000Y1051500D03*
%TD*%
D12*
%TO.C,R30*%
X78974000Y74475500D03*
X78974000Y77400500D03*
%TD*%
D11*
%TO.C,R51*%
X11430000Y4076500D03*
X11430000Y1151500D03*
%TD*%
%TO.C,R69*%
X75458000Y4036500D03*
X75458000Y1111500D03*
%TD*%
D14*
%TO.C,U1*%
X-2413000Y30161000D03*
X-3683000Y30161000D03*
X-4953000Y30161000D03*
X-6223000Y30161000D03*
X-6223000Y25211000D03*
X-4953000Y25211000D03*
X-3683000Y25211000D03*
X-2413000Y25211000D03*
%TD*%
D12*
%TO.C,R5*%
X167874000Y74343500D03*
X167874000Y77268500D03*
%TD*%
%TO.C,R33*%
X68306000Y74475500D03*
X68306000Y77400500D03*
%TD*%
%TO.C,R37*%
X54082000Y74451500D03*
X54082000Y77376500D03*
%TD*%
%TO.C,R11*%
X146538000Y74451500D03*
X146538000Y77376500D03*
%TD*%
D11*
%TO.C,R74*%
X93218000Y3928500D03*
X93218000Y1003500D03*
%TD*%
D15*
%TO.C,D433*%
X-3581500Y11430000D03*
X-2006500Y11430000D03*
%TD*%
D12*
%TO.C,R38*%
X50526000Y74501500D03*
X50526000Y77426500D03*
%TD*%
D16*
%TO.C,D434*%
X-2006500Y13970000D03*
X-3581500Y13970000D03*
%TD*%
D11*
%TO.C,R54*%
X22098000Y4079500D03*
X22098000Y1154500D03*
%TD*%
D12*
%TO.C,R27*%
X89642000Y74475500D03*
X89642000Y77400500D03*
%TD*%
%TO.C,R6*%
X164318000Y74327500D03*
X164318000Y77252500D03*
%TD*%
%TO.C,R39*%
X46970000Y74451500D03*
X46970000Y77376500D03*
%TD*%
D11*
%TO.C,R76*%
X100330000Y3976500D03*
X100330000Y1051500D03*
%TD*%
D12*
%TO.C,R50*%
X7874000Y74467500D03*
X7874000Y77392500D03*
%TD*%
D11*
%TO.C,R55*%
X25654000Y4060500D03*
X25654000Y1135500D03*
%TD*%
%TO.C,R57*%
X32786000Y3952500D03*
X32786000Y1027500D03*
%TD*%
%TO.C,R86*%
X135890000Y3952500D03*
X135890000Y1027500D03*
%TD*%
%TO.C,R94*%
X164338000Y3918500D03*
X164338000Y993500D03*
%TD*%
%TO.C,R3*%
X7874000Y4102500D03*
X7874000Y1177500D03*
%TD*%
%TO.C,R59*%
X39878000Y3986500D03*
X39878000Y1061500D03*
%TD*%
%TO.C,R91*%
X153670000Y3967500D03*
X153670000Y1042500D03*
%TD*%
D12*
%TO.C,R28*%
X86086000Y74475500D03*
X86086000Y77400500D03*
%TD*%
%TO.C,R47*%
X18522000Y74485500D03*
X18522000Y77410500D03*
%TD*%
D11*
%TO.C,R66*%
X64770000Y4050500D03*
X64770000Y1125500D03*
%TD*%
D12*
%TO.C,R22*%
X107402000Y74367500D03*
X107402000Y77292500D03*
%TD*%
D11*
%TO.C,R87*%
X139446000Y3952500D03*
X139446000Y1027500D03*
%TD*%
%TO.C,R53*%
X18542000Y4076500D03*
X18542000Y1151500D03*
%TD*%
%TO.C,R75*%
X96774000Y3928500D03*
X96774000Y1003500D03*
%TD*%
D12*
%TO.C,R43*%
X32806000Y74441500D03*
X32806000Y77366500D03*
%TD*%
D11*
%TO.C,R71*%
X82550000Y3976500D03*
X82550000Y1051500D03*
%TD*%
D12*
%TO.C,R24*%
X100310000Y74427500D03*
X100310000Y77352500D03*
%TD*%
%TO.C,R21*%
X110978000Y74377500D03*
X110978000Y77302500D03*
%TD*%
%TO.C,R26*%
X93198000Y74427500D03*
X93198000Y77352500D03*
%TD*%
D11*
%TO.C,R82*%
X121666000Y3952500D03*
X121666000Y1027500D03*
%TD*%
%TO.C,R80*%
X114554000Y3928500D03*
X114554000Y1003500D03*
%TD*%
D12*
%TO.C,R25*%
X96754000Y74427500D03*
X96754000Y77352500D03*
%TD*%
D11*
%TO.C,R97*%
X175006000Y4002500D03*
X175006000Y1077500D03*
%TD*%
D12*
%TO.C,R17*%
X125202000Y74377500D03*
X125202000Y77302500D03*
%TD*%
D17*
%TO.C,Q1*%
X-740000Y48090000D03*
D18*
X-4340000Y54470000D03*
X-3140000Y55670000D03*
D17*
X1660000Y48090000D03*
D18*
X-5540000Y56870000D03*
D17*
X460000Y48090000D03*
D18*
X-3140000Y58070000D03*
D17*
X-6740000Y48090000D03*
D18*
X-6740000Y53270000D03*
X-3140000Y53270000D03*
X-740000Y55670000D03*
X-1940000Y53270000D03*
X-6740000Y59270000D03*
X-1940000Y59270000D03*
X-1940000Y55670000D03*
X1660000Y54470000D03*
X-4340000Y56870000D03*
X-5540000Y54470000D03*
X460000Y59270000D03*
X460000Y53270000D03*
D17*
X-3140000Y48090000D03*
D18*
X-4340000Y58070000D03*
X-6740000Y54470000D03*
X-740000Y54470000D03*
X-4340000Y55670000D03*
X-740000Y59270000D03*
D17*
X-4340000Y48090000D03*
D18*
X-3140000Y59270000D03*
X460000Y55670000D03*
X-740000Y56870000D03*
X1660000Y59270000D03*
X-3140000Y54470000D03*
X-5540000Y58070000D03*
X-1940000Y54470000D03*
X-1940000Y58070000D03*
X-1940000Y56870000D03*
X-5540000Y55670000D03*
X460000Y58070000D03*
X-4340000Y53270000D03*
X-5540000Y53270000D03*
D17*
X-1940000Y48090000D03*
D18*
X-740000Y58070000D03*
X-5540000Y59270000D03*
X460000Y54470000D03*
X-740000Y53270000D03*
X460000Y56870000D03*
X-3140000Y56870000D03*
D17*
X-5540000Y48090000D03*
D18*
X-4340000Y59270000D03*
X1660000Y53270000D03*
%TD*%
D12*
%TO.C,R32*%
X71862000Y74451500D03*
X71862000Y77376500D03*
%TD*%
%TO.C,R14*%
X135870000Y74377500D03*
X135870000Y77302500D03*
%TD*%
D11*
%TO.C,R95*%
X167894000Y3952500D03*
X167894000Y1027500D03*
%TD*%
%TO.C,R56*%
X29210000Y4028500D03*
X29210000Y1103500D03*
%TD*%
D12*
%TO.C,R40*%
X43414000Y74451500D03*
X43414000Y77376500D03*
%TD*%
D11*
%TO.C,R60*%
X43434000Y4026500D03*
X43434000Y1101500D03*
%TD*%
D12*
%TO.C,R35*%
X61194000Y74451500D03*
X61194000Y77376500D03*
%TD*%
D11*
%TO.C,R58*%
X36322000Y3952500D03*
X36322000Y1027500D03*
%TD*%
D12*
%TO.C,R42*%
X36322000Y74467500D03*
X36322000Y77392500D03*
%TD*%
%TO.C,R16*%
X128758000Y74377500D03*
X128758000Y77302500D03*
%TD*%
D11*
%TO.C,R65*%
X61214000Y4002500D03*
X61214000Y1077500D03*
%TD*%
D12*
%TO.C,R9*%
X153650000Y74375500D03*
X153650000Y77300500D03*
%TD*%
D11*
%TO.C,R89*%
X146538000Y3936500D03*
X146538000Y1011500D03*
%TD*%
%TO.C,R61*%
X46990000Y4026500D03*
X46990000Y1101500D03*
%TD*%
D12*
%TO.C,R12*%
X142982000Y74417500D03*
X142982000Y77342500D03*
%TD*%
D11*
%TO.C,R92*%
X157226000Y3967500D03*
X157226000Y1042500D03*
%TD*%
D12*
%TO.C,R15*%
X132314000Y74377500D03*
X132314000Y77302500D03*
%TD*%
%TO.C,R34*%
X64750000Y74451500D03*
X64750000Y77376500D03*
%TD*%
D11*
%TO.C,R81*%
X118110000Y3952500D03*
X118110000Y1027500D03*
%TD*%
D12*
%TO.C,R19*%
X118090000Y74353500D03*
X118090000Y77278500D03*
%TD*%
D11*
%TO.C,R83*%
X125222000Y3952500D03*
X125222000Y1027500D03*
%TD*%
%TO.C,R67*%
X68326000Y4076500D03*
X68326000Y1151500D03*
%TD*%
D12*
%TO.C,R7*%
X160762000Y74324500D03*
X160762000Y77249500D03*
%TD*%
D11*
%TO.C,R79*%
X110998000Y3952500D03*
X110998000Y1027500D03*
%TD*%
D12*
%TO.C,R46*%
X22058000Y74461500D03*
X22058000Y77386500D03*
%TD*%
D11*
%TO.C,R93*%
X160802000Y3942500D03*
X160802000Y1017500D03*
%TD*%
%TO.C,R63*%
X54102000Y4026500D03*
X54102000Y1101500D03*
%TD*%
%TO.C,R78*%
X107442000Y3976500D03*
X107442000Y1051500D03*
%TD*%
D12*
%TO.C,R23*%
X103866000Y74427500D03*
X103866000Y77352500D03*
%TD*%
%TO.C,R45*%
X25634000Y74436500D03*
X25634000Y77361500D03*
%TD*%
D11*
%TO.C,R68*%
X71882000Y4026500D03*
X71882000Y1101500D03*
%TD*%
D12*
%TO.C,R13*%
X139426000Y74377500D03*
X139426000Y77302500D03*
%TD*%
D11*
%TO.C,R88*%
X142982000Y3912500D03*
X142982000Y987500D03*
%TD*%
D19*
%TO.C,R2*%
X-2286000Y23177000D03*
X-2286000Y21527000D03*
%TD*%
D11*
%TO.C,R96*%
X171450000Y4002500D03*
X171450000Y1077500D03*
%TD*%
D12*
%TO.C,R36*%
X57638000Y74451500D03*
X57638000Y77376500D03*
%TD*%
M02*
