M48
; DRILL file {KiCad (6.0.11)} date Mon 06 Feb 2023 05:53:24 PM PST
; FORMAT={-:-/ absolute / inch / decimal}
; #@! TF.CreationDate,2023-02-06T17:53:24-08:00
; #@! TF.GenerationSoftware,Kicad,Pcbnew,(6.0.11)
; #@! TF.FileFunction,Plated,1,2,PTH
FMAT,2
INCH
; #@! TA.AperFunction,Plated,PTH,ViaDrill
T1C0.0120
; #@! TA.AperFunction,Plated,PTH,ViaDrill
T2C0.0157
; #@! TA.AperFunction,Plated,PTH,ComponentDrill
T3C0.0394
; #@! TA.AperFunction,Plated,PTH,ComponentDrill
T4C0.0906
%
G90
G05
T1
X-0.35Y3.15
X-0.35Y3.1
X-0.35Y3.05
X-0.35Y3.0
X-0.35Y2.95
X-0.35Y2.9
X-0.35Y2.85
X-0.35Y2.8
X-0.35Y2.75
X-0.35Y2.7
X-0.35Y2.65
X-0.35Y2.6
X-0.35Y2.55
X-0.35Y2.5
X-0.35Y2.45
X-0.35Y2.4
X-0.35Y2.35
X-0.35Y2.3
X-0.35Y2.25
X-0.35Y2.2
X-0.35Y2.15
X-0.35Y2.1
X-0.35Y2.05
X-0.3Y3.2
X-0.3Y3.15
X-0.3Y3.1
X-0.3Y3.05
X-0.3Y3.0
X-0.3Y2.95
X-0.3Y2.9
X-0.3Y2.85
X-0.3Y2.8
X-0.3Y2.75
X-0.3Y2.7
X-0.3Y2.65
X-0.3Y2.6
X-0.3Y2.55
X-0.3Y2.5
X-0.3Y2.45
X-0.3Y2.4
X-0.3Y2.35
X-0.3Y2.3
X-0.3Y2.25
X-0.3Y2.2
X-0.3Y2.15
X-0.3Y2.1
X-0.3Y2.05
X-0.3Y1.8
X-0.3Y1.75
X-0.3Y1.7
X-0.3Y1.65
X-0.3Y1.45
X-0.3Y1.4
X-0.3Y1.35
X-0.3Y1.3
X-0.25Y3.25
X-0.25Y3.2
X-0.25Y3.0
X-0.25Y2.95
X-0.25Y2.9
X-0.25Y2.85
X-0.25Y2.8
X-0.25Y2.75
X-0.25Y2.7
X-0.25Y2.65
X-0.25Y2.6
X-0.25Y2.55
X-0.25Y2.5
X-0.25Y2.45
X-0.25Y2.4
X-0.25Y2.35
X-0.25Y2.3
X-0.25Y2.25
X-0.25Y2.2
X-0.25Y2.15
X-0.25Y2.1
X-0.25Y2.05
X-0.25Y1.8
X-0.25Y1.75
X-0.25Y1.7
X-0.25Y1.65
X-0.25Y1.45
X-0.25Y1.3
X-0.2Y3.25
X-0.2Y3.2
X-0.2Y3.0
X-0.2Y2.95
X-0.2Y2.9
X-0.2Y2.85
X-0.2Y2.8
X-0.2Y2.75
X-0.2Y2.7
X-0.2Y2.65
X-0.2Y2.6
X-0.2Y2.55
X-0.2Y2.5
X-0.2Y2.45
X-0.2Y2.4
X-0.2Y2.35
X-0.2Y2.3
X-0.2Y2.25
X-0.2Y2.2
X-0.2Y2.15
X-0.2Y2.1
X-0.2Y2.05
X-0.2Y1.8
X-0.2Y1.75
X-0.2Y1.7
X-0.2Y1.65
X-0.2Y1.6
X-0.2Y1.55
X-0.2Y1.5
X-0.2Y1.45
X-0.2Y1.3
X-0.15Y3.25
X-0.15Y3.2
X-0.15Y3.0
X-0.15Y2.95
X-0.15Y2.9
X-0.15Y2.85
X-0.15Y2.8
X-0.15Y2.75
X-0.15Y2.7
X-0.15Y2.65
X-0.15Y2.6
X-0.15Y2.55
X-0.15Y2.5
X-0.15Y2.45
X-0.15Y2.4
X-0.15Y2.35
X-0.15Y2.3
X-0.15Y2.25
X-0.15Y2.2
X-0.15Y2.15
X-0.15Y2.1
X-0.15Y2.05
X-0.15Y1.8
X-0.15Y1.75
X-0.15Y1.7
X-0.15Y1.65
X-0.15Y1.6
X-0.15Y1.55
X-0.15Y1.5
X-0.15Y1.45
X-0.15Y1.3
X-0.1Y3.25
X-0.1Y3.2
X-0.1Y3.15
X-0.1Y3.1
X-0.1Y3.05
X-0.1Y3.0
X-0.1Y2.95
X-0.1Y2.9
X-0.1Y2.85
X-0.1Y2.8
X-0.1Y2.75
X-0.1Y2.7
X-0.1Y2.65
X-0.1Y2.6
X-0.1Y2.55
X-0.1Y2.5
X-0.1Y2.45
X-0.1Y2.4
X-0.1Y2.35
X-0.1Y2.3
X-0.1Y2.25
X-0.1Y2.2
X-0.1Y2.15
X-0.1Y2.1
X-0.1Y2.05
X-0.1Y1.75
X-0.1Y1.7
X-0.05Y3.25
X-0.05Y3.2
X-0.05Y3.15
X-0.05Y3.1
X-0.05Y3.05
X-0.05Y3.0
X-0.05Y2.95
X-0.05Y2.9
X-0.05Y2.85
X-0.05Y2.8
X-0.05Y2.75
X-0.05Y2.7
X-0.05Y2.65
X-0.05Y2.6
X-0.05Y2.55
X-0.05Y2.5
X-0.05Y2.45
X-0.05Y2.4
X-0.05Y2.35
X-0.05Y2.3
X-0.05Y2.25
X-0.05Y2.2
X-0.05Y2.15
X-0.05Y2.1
X-0.05Y2.05
X-0.05Y1.75
X-0.05Y1.7
X-0.05Y1.4
X-0.05Y1.35
X0.0Y3.25
X0.0Y3.2
X0.0Y3.15
X0.0Y3.05
X0.0Y3.0
X0.0Y2.95
X0.0Y2.9
X0.0Y2.85
X0.0Y2.8
X0.0Y2.75
X0.0Y2.7
X0.0Y2.65
X0.0Y2.6
X0.0Y2.55
X0.0Y2.5
X0.0Y2.45
X0.0Y2.4
X0.0Y2.35
X0.0Y2.3
X0.0Y2.25
X0.0Y2.2
X0.0Y2.15
X0.0Y2.1
X0.0Y2.05
X0.0Y1.75
X0.0Y1.7
X0.0Y1.65
X0.0Y1.6
X0.0Y1.55
X0.0Y1.5
X0.0Y1.45
X0.0Y1.4
X0.0Y1.35
X0.05Y3.25
X0.05Y3.2
X0.05Y3.15
X0.05Y3.1
X0.05Y3.05
X0.05Y3.0
X0.05Y2.95
X0.05Y2.9
X0.05Y2.85
X0.05Y2.8
X0.05Y2.75
X0.05Y2.7
X0.05Y2.65
X0.05Y2.6
X0.05Y2.55
X0.05Y2.5
X0.05Y2.45
X0.05Y2.4
X0.05Y2.35
X0.05Y2.3
X0.05Y2.25
X0.05Y2.2
X0.05Y2.15
X0.05Y2.1
X0.05Y2.05
X0.05Y1.75
X0.05Y1.7
X0.05Y1.65
X0.05Y1.6
X0.05Y1.55
X0.05Y1.5
X0.05Y1.45
X0.05Y1.4
X0.05Y1.35
X0.1Y3.25
X0.1Y3.2
X0.1Y3.15
X0.1Y3.1
X0.1Y3.05
X0.1Y3.0
X0.1Y2.95
X0.1Y2.9
X0.1Y2.85
X0.1Y2.8
X0.1Y2.75
X0.1Y2.7
X0.1Y2.65
X0.1Y2.6
X0.1Y2.55
X0.1Y2.5
X0.1Y2.45
X0.1Y2.4
X0.1Y2.35
X0.1Y2.3
X0.1Y2.25
X0.1Y2.2
X0.1Y2.15
X0.1Y2.1
X0.1Y2.05
X0.1Y1.75
X0.1Y1.7
X0.1Y1.65
X0.1Y1.6
X0.1Y1.55
X0.1Y1.5
X0.1Y1.45
X0.1Y1.4
X0.1Y1.35
X0.15Y3.25
X0.15Y3.2
X0.15Y3.15
X0.15Y3.1
X0.15Y3.05
X0.15Y3.0
X0.15Y2.95
X0.15Y2.9
X0.15Y2.85
X0.15Y2.8
X0.15Y2.75
X0.15Y2.7
X0.15Y2.65
X0.15Y2.6
X0.15Y2.55
X0.15Y2.5
X0.15Y2.45
X0.15Y2.4
X0.15Y2.35
X0.15Y2.3
X0.15Y2.25
X0.15Y2.2
X0.15Y2.15
X0.15Y2.1
X0.15Y2.05
X0.15Y1.95
X0.15Y1.9
X0.15Y1.85
X0.15Y1.75
X0.15Y1.7
X0.15Y1.65
X0.15Y1.6
X0.15Y1.55
X0.15Y1.5
X0.15Y1.45
X0.15Y1.4
X0.15Y1.35
X0.2Y3.25
X0.2Y3.2
X0.2Y3.15
X0.2Y3.1
X0.2Y3.05
X0.2Y3.0
X0.2Y1.95
X0.2Y1.9
X0.2Y1.85
X0.2Y1.75
X0.2Y1.7
X0.2Y1.65
X0.2Y1.6
X0.2Y1.55
X0.2Y1.5
X0.2Y1.45
X0.2Y1.4
X0.2Y1.35
X0.25Y3.25
X0.25Y3.2
X0.25Y3.15
X0.25Y3.1
X0.25Y3.05
X0.25Y3.0
X0.25Y1.65
X0.25Y1.6
X0.25Y1.55
X0.25Y1.5
X0.25Y1.45
X0.25Y0.0
X0.25Y-0.05
X0.25Y-0.1
X0.25Y-0.15
X0.3Y3.25
X0.3Y3.2
X0.3Y3.15
X0.3Y3.1
X0.3Y1.65
X0.3Y1.6
X0.3Y1.55
X0.3Y1.5
X0.3Y1.45
X0.3Y0.0
X0.3Y-0.05
X0.3Y-0.1
X0.3Y-0.15
X0.35Y3.25
X0.35Y3.2
X0.35Y3.15
X0.35Y3.1
X0.35Y1.65
X0.35Y1.6
X0.35Y1.55
X0.35Y1.5
X0.35Y1.45
X0.35Y0.0
X0.35Y-0.05
X0.35Y-0.1
X0.35Y-0.15
X0.4Y3.25
X0.4Y3.2
X0.4Y3.15
X0.4Y3.1
X0.4Y1.65
X0.4Y1.6
X0.4Y1.55
X0.4Y1.5
X0.4Y1.45
X0.4Y0.0
X0.4Y-0.05
X0.4Y-0.1
X0.4Y-0.15
X0.45Y3.25
X0.45Y3.2
X0.45Y3.15
X0.45Y3.1
X0.45Y1.65
X0.45Y1.6
X0.45Y1.55
X0.45Y1.5
X0.45Y1.45
X0.45Y0.0
X0.45Y-0.05
X0.45Y-0.1
X0.45Y-0.15
X0.5Y3.25
X0.5Y3.2
X0.5Y3.15
X0.5Y3.1
X0.5Y1.65
X0.5Y1.6
X0.5Y1.55
X0.5Y1.5
X0.5Y1.45
X0.5Y0.0
X0.5Y-0.05
X0.5Y-0.1
X0.5Y-0.15
X0.55Y3.25
X0.55Y3.2
X0.55Y3.15
X0.55Y3.1
X0.55Y1.65
X0.55Y1.6
X0.55Y1.55
X0.55Y1.5
X0.55Y1.45
X0.55Y0.0
X0.55Y-0.05
X0.55Y-0.1
X0.55Y-0.15
X0.6Y3.25
X0.6Y3.2
X0.6Y3.15
X0.6Y3.1
X0.6Y1.65
X0.6Y1.6
X0.6Y1.55
X0.6Y1.5
X0.6Y1.45
X0.6Y0.0
X0.6Y-0.05
X0.6Y-0.1
X0.6Y-0.15
X0.65Y3.25
X0.65Y3.2
X0.65Y3.15
X0.65Y3.1
X0.65Y1.65
X0.65Y1.6
X0.65Y1.55
X0.65Y1.5
X0.65Y1.45
X0.65Y0.0
X0.65Y-0.05
X0.65Y-0.1
X0.65Y-0.15
X0.7Y3.25
X0.7Y3.2
X0.7Y3.15
X0.7Y3.1
X0.7Y1.65
X0.7Y1.6
X0.7Y1.55
X0.7Y1.5
X0.7Y1.45
X0.7Y0.0
X0.7Y-0.05
X0.7Y-0.1
X0.7Y-0.15
X0.75Y3.25
X0.75Y3.2
X0.75Y3.15
X0.75Y3.1
X0.75Y1.65
X0.75Y1.6
X0.75Y1.55
X0.75Y1.5
X0.75Y1.45
X0.75Y0.0
X0.75Y-0.05
X0.75Y-0.1
X0.75Y-0.15
X0.8Y3.25
X0.8Y3.2
X0.8Y3.15
X0.8Y3.1
X0.8Y1.65
X0.8Y1.6
X0.8Y1.55
X0.8Y1.5
X0.8Y1.45
X0.8Y0.0
X0.8Y-0.05
X0.8Y-0.1
X0.8Y-0.15
X0.85Y3.25
X0.85Y3.2
X0.85Y3.15
X0.85Y3.1
X0.85Y1.65
X0.85Y1.6
X0.85Y1.55
X0.85Y1.5
X0.85Y1.45
X0.85Y0.0
X0.85Y-0.05
X0.85Y-0.1
X0.85Y-0.15
X0.9Y3.25
X0.9Y3.2
X0.9Y3.15
X0.9Y3.1
X0.9Y1.65
X0.9Y1.6
X0.9Y1.55
X0.9Y1.5
X0.9Y1.45
X0.9Y0.0
X0.9Y-0.05
X0.9Y-0.1
X0.9Y-0.15
X0.95Y3.25
X0.95Y3.2
X0.95Y3.15
X0.95Y3.1
X0.95Y1.65
X0.95Y1.6
X0.95Y1.55
X0.95Y1.5
X0.95Y1.45
X0.95Y0.0
X0.95Y-0.05
X0.95Y-0.1
X0.95Y-0.15
X1.0Y3.25
X1.0Y3.2
X1.0Y3.15
X1.0Y3.1
X1.0Y1.65
X1.0Y1.6
X1.0Y1.55
X1.0Y1.5
X1.0Y1.45
X1.0Y0.0
X1.0Y-0.05
X1.0Y-0.1
X1.0Y-0.15
X1.05Y3.25
X1.05Y3.2
X1.05Y3.15
X1.05Y3.1
X1.05Y1.65
X1.05Y1.6
X1.05Y1.55
X1.05Y1.5
X1.05Y1.45
X1.05Y0.0
X1.05Y-0.05
X1.05Y-0.1
X1.05Y-0.15
X1.1Y3.25
X1.1Y3.2
X1.1Y3.15
X1.1Y3.1
X1.1Y1.65
X1.1Y1.6
X1.1Y1.55
X1.1Y1.5
X1.1Y1.45
X1.1Y0.0
X1.1Y-0.05
X1.1Y-0.1
X1.1Y-0.15
X1.15Y3.25
X1.15Y3.2
X1.15Y3.15
X1.15Y3.1
X1.15Y1.65
X1.15Y1.6
X1.15Y1.55
X1.15Y1.5
X1.15Y1.45
X1.15Y0.0
X1.15Y-0.05
X1.15Y-0.1
X1.15Y-0.15
X1.2Y3.25
X1.2Y3.2
X1.2Y3.15
X1.2Y3.1
X1.2Y1.65
X1.2Y1.6
X1.2Y1.55
X1.2Y1.5
X1.2Y1.45
X1.2Y0.0
X1.2Y-0.05
X1.2Y-0.1
X1.2Y-0.15
X1.25Y3.25
X1.25Y3.2
X1.25Y3.15
X1.25Y3.1
X1.25Y1.65
X1.25Y1.6
X1.25Y1.55
X1.25Y1.5
X1.25Y1.45
X1.25Y0.0
X1.25Y-0.05
X1.25Y-0.1
X1.25Y-0.15
X1.3Y3.25
X1.3Y3.2
X1.3Y3.15
X1.3Y3.1
X1.3Y1.65
X1.3Y1.6
X1.3Y1.55
X1.3Y1.5
X1.3Y1.45
X1.3Y0.0
X1.3Y-0.05
X1.3Y-0.1
X1.3Y-0.15
X1.35Y3.25
X1.35Y3.2
X1.35Y3.15
X1.35Y3.1
X1.35Y1.65
X1.35Y1.6
X1.35Y1.55
X1.35Y1.5
X1.35Y1.45
X1.35Y0.0
X1.35Y-0.05
X1.35Y-0.1
X1.35Y-0.15
X1.4Y3.25
X1.4Y3.2
X1.4Y3.15
X1.4Y3.1
X1.4Y1.65
X1.4Y1.6
X1.4Y1.55
X1.4Y1.5
X1.4Y1.45
X1.4Y0.0
X1.4Y-0.05
X1.4Y-0.1
X1.4Y-0.15
X1.45Y3.25
X1.45Y3.2
X1.45Y3.15
X1.45Y3.1
X1.45Y1.65
X1.45Y1.6
X1.45Y1.55
X1.45Y1.5
X1.45Y1.45
X1.45Y0.0
X1.45Y-0.05
X1.45Y-0.1
X1.45Y-0.15
X1.5Y3.25
X1.5Y3.2
X1.5Y3.15
X1.5Y3.1
X1.5Y1.65
X1.5Y1.6
X1.5Y1.55
X1.5Y1.5
X1.5Y1.45
X1.5Y0.0
X1.5Y-0.05
X1.5Y-0.1
X1.5Y-0.15
X1.55Y3.25
X1.55Y3.2
X1.55Y3.15
X1.55Y3.1
X1.55Y1.65
X1.55Y1.6
X1.55Y1.55
X1.55Y1.5
X1.55Y1.45
X1.55Y0.0
X1.55Y-0.05
X1.55Y-0.1
X1.55Y-0.15
X1.6Y3.25
X1.6Y3.2
X1.6Y3.15
X1.6Y3.1
X1.6Y1.65
X1.6Y1.6
X1.6Y1.55
X1.6Y1.5
X1.6Y1.45
X1.6Y0.0
X1.6Y-0.05
X1.6Y-0.1
X1.6Y-0.15
X1.65Y3.25
X1.65Y3.2
X1.65Y3.15
X1.65Y3.1
X1.65Y1.65
X1.65Y1.6
X1.65Y1.55
X1.65Y1.5
X1.65Y1.45
X1.65Y0.0
X1.65Y-0.05
X1.65Y-0.1
X1.65Y-0.15
X1.7Y3.25
X1.7Y3.2
X1.7Y3.15
X1.7Y3.1
X1.7Y1.65
X1.7Y1.6
X1.7Y1.55
X1.7Y1.5
X1.7Y1.45
X1.7Y0.0
X1.7Y-0.05
X1.7Y-0.1
X1.7Y-0.15
X1.75Y3.25
X1.75Y3.2
X1.75Y3.15
X1.75Y3.1
X1.75Y1.65
X1.75Y1.6
X1.75Y1.55
X1.75Y1.5
X1.75Y1.45
X1.75Y0.0
X1.75Y-0.05
X1.75Y-0.1
X1.75Y-0.15
X1.8Y3.25
X1.8Y3.2
X1.8Y3.15
X1.8Y3.1
X1.8Y1.65
X1.8Y1.6
X1.8Y1.55
X1.8Y1.5
X1.8Y1.45
X1.8Y0.0
X1.8Y-0.05
X1.8Y-0.1
X1.8Y-0.15
X1.85Y3.25
X1.85Y3.2
X1.85Y3.15
X1.85Y3.1
X1.85Y1.65
X1.85Y1.6
X1.85Y1.55
X1.85Y1.5
X1.85Y1.45
X1.85Y0.0
X1.85Y-0.05
X1.85Y-0.1
X1.85Y-0.15
X1.9Y3.25
X1.9Y3.2
X1.9Y3.15
X1.9Y3.1
X1.9Y1.65
X1.9Y1.6
X1.9Y1.55
X1.9Y1.5
X1.9Y1.45
X1.9Y0.0
X1.9Y-0.05
X1.9Y-0.1
X1.9Y-0.15
X1.95Y3.25
X1.95Y3.2
X1.95Y3.15
X1.95Y3.1
X1.95Y1.65
X1.95Y1.6
X1.95Y1.55
X1.95Y1.5
X1.95Y1.45
X1.95Y0.0
X1.95Y-0.05
X1.95Y-0.1
X1.95Y-0.15
X2.0Y3.25
X2.0Y3.2
X2.0Y3.15
X2.0Y3.1
X2.0Y1.65
X2.0Y1.6
X2.0Y1.55
X2.0Y1.5
X2.0Y1.45
X2.0Y0.0
X2.0Y-0.05
X2.0Y-0.1
X2.0Y-0.15
X2.05Y3.25
X2.05Y3.2
X2.05Y3.15
X2.05Y3.1
X2.05Y1.65
X2.05Y1.6
X2.05Y1.55
X2.05Y1.5
X2.05Y1.45
X2.05Y0.0
X2.05Y-0.05
X2.05Y-0.1
X2.05Y-0.15
X2.1Y3.25
X2.1Y3.2
X2.1Y3.15
X2.1Y3.1
X2.1Y1.65
X2.1Y1.6
X2.1Y1.55
X2.1Y1.5
X2.1Y1.45
X2.1Y0.0
X2.1Y-0.05
X2.1Y-0.1
X2.1Y-0.15
X2.15Y3.25
X2.15Y3.2
X2.15Y3.15
X2.15Y3.1
X2.15Y1.65
X2.15Y1.6
X2.15Y1.55
X2.15Y1.5
X2.15Y1.45
X2.15Y0.0
X2.15Y-0.05
X2.15Y-0.1
X2.15Y-0.15
X2.2Y3.25
X2.2Y3.2
X2.2Y3.15
X2.2Y3.1
X2.2Y1.65
X2.2Y1.6
X2.2Y1.55
X2.2Y1.5
X2.2Y1.45
X2.2Y0.0
X2.2Y-0.05
X2.2Y-0.1
X2.2Y-0.15
X2.25Y3.25
X2.25Y3.2
X2.25Y3.15
X2.25Y3.1
X2.25Y1.65
X2.25Y1.6
X2.25Y1.55
X2.25Y1.5
X2.25Y1.45
X2.25Y0.0
X2.25Y-0.05
X2.25Y-0.1
X2.25Y-0.15
X2.3Y3.25
X2.3Y3.2
X2.3Y3.15
X2.3Y3.1
X2.3Y1.65
X2.3Y1.6
X2.3Y1.55
X2.3Y1.5
X2.3Y1.45
X2.3Y0.0
X2.3Y-0.05
X2.3Y-0.1
X2.3Y-0.15
X2.35Y3.25
X2.35Y3.2
X2.35Y3.15
X2.35Y3.1
X2.35Y1.65
X2.35Y1.6
X2.35Y1.55
X2.35Y1.5
X2.35Y1.45
X2.35Y0.0
X2.35Y-0.05
X2.35Y-0.1
X2.35Y-0.15
X2.4Y3.25
X2.4Y3.2
X2.4Y3.15
X2.4Y3.1
X2.4Y1.65
X2.4Y1.6
X2.4Y1.55
X2.4Y1.5
X2.4Y1.45
X2.4Y0.0
X2.4Y-0.05
X2.4Y-0.1
X2.4Y-0.15
X2.45Y3.25
X2.45Y3.2
X2.45Y3.15
X2.45Y3.1
X2.45Y1.65
X2.45Y1.6
X2.45Y1.55
X2.45Y1.5
X2.45Y1.45
X2.45Y0.0
X2.45Y-0.05
X2.45Y-0.1
X2.45Y-0.15
X2.5Y3.25
X2.5Y3.2
X2.5Y3.15
X2.5Y3.1
X2.5Y1.65
X2.5Y1.6
X2.5Y1.55
X2.5Y1.5
X2.5Y1.45
X2.5Y0.0
X2.5Y-0.05
X2.5Y-0.1
X2.5Y-0.15
X2.55Y3.25
X2.55Y3.2
X2.55Y3.15
X2.55Y3.1
X2.55Y1.65
X2.55Y1.6
X2.55Y1.55
X2.55Y1.5
X2.55Y1.45
X2.55Y0.0
X2.55Y-0.05
X2.55Y-0.1
X2.55Y-0.15
X2.6Y3.25
X2.6Y3.2
X2.6Y3.15
X2.6Y3.1
X2.6Y1.65
X2.6Y1.6
X2.6Y1.55
X2.6Y1.5
X2.6Y1.45
X2.6Y0.0
X2.6Y-0.05
X2.6Y-0.1
X2.6Y-0.15
X2.65Y3.25
X2.65Y3.2
X2.65Y3.15
X2.65Y3.1
X2.65Y1.65
X2.65Y1.6
X2.65Y1.55
X2.65Y1.5
X2.65Y1.45
X2.65Y0.0
X2.65Y-0.05
X2.65Y-0.1
X2.65Y-0.15
X2.7Y3.25
X2.7Y3.2
X2.7Y3.15
X2.7Y3.1
X2.7Y1.65
X2.7Y1.6
X2.7Y1.55
X2.7Y1.5
X2.7Y1.45
X2.7Y0.0
X2.7Y-0.05
X2.7Y-0.1
X2.7Y-0.15
X2.75Y3.25
X2.75Y3.2
X2.75Y3.15
X2.75Y3.1
X2.75Y1.65
X2.75Y1.6
X2.75Y1.55
X2.75Y1.5
X2.75Y1.45
X2.75Y0.0
X2.75Y-0.05
X2.75Y-0.1
X2.75Y-0.15
X2.8Y3.25
X2.8Y3.2
X2.8Y3.15
X2.8Y3.1
X2.8Y1.65
X2.8Y1.6
X2.8Y1.55
X2.8Y1.5
X2.8Y1.45
X2.8Y0.0
X2.8Y-0.05
X2.8Y-0.1
X2.8Y-0.15
X2.85Y3.25
X2.85Y3.2
X2.85Y3.15
X2.85Y3.1
X2.85Y1.65
X2.85Y1.6
X2.85Y1.55
X2.85Y1.5
X2.85Y1.45
X2.85Y0.0
X2.85Y-0.05
X2.85Y-0.1
X2.85Y-0.15
X2.9Y3.25
X2.9Y3.2
X2.9Y3.15
X2.9Y3.1
X2.9Y1.65
X2.9Y1.6
X2.9Y1.55
X2.9Y1.5
X2.9Y1.45
X2.9Y0.0
X2.9Y-0.05
X2.9Y-0.1
X2.9Y-0.15
X2.95Y3.25
X2.95Y3.2
X2.95Y3.15
X2.95Y3.1
X2.95Y1.65
X2.95Y1.6
X2.95Y1.55
X2.95Y1.5
X2.95Y1.45
X2.95Y0.0
X2.95Y-0.05
X2.95Y-0.1
X2.95Y-0.15
X3.0Y3.25
X3.0Y3.2
X3.0Y3.15
X3.0Y3.1
X3.0Y1.65
X3.0Y1.6
X3.0Y1.55
X3.0Y1.5
X3.0Y1.45
X3.0Y0.0
X3.0Y-0.05
X3.0Y-0.1
X3.0Y-0.15
X3.05Y3.25
X3.05Y3.2
X3.05Y3.15
X3.05Y3.1
X3.05Y1.65
X3.05Y1.6
X3.05Y1.55
X3.05Y1.5
X3.05Y1.45
X3.05Y0.0
X3.05Y-0.05
X3.05Y-0.1
X3.05Y-0.15
X3.1Y3.25
X3.1Y3.2
X3.1Y3.15
X3.1Y3.1
X3.1Y1.65
X3.1Y1.6
X3.1Y1.55
X3.1Y1.5
X3.1Y1.45
X3.1Y0.0
X3.1Y-0.05
X3.1Y-0.1
X3.1Y-0.15
X3.15Y3.25
X3.15Y3.2
X3.15Y3.15
X3.15Y3.1
X3.15Y1.65
X3.15Y1.6
X3.15Y1.55
X3.15Y1.5
X3.15Y1.45
X3.15Y0.0
X3.15Y-0.05
X3.15Y-0.1
X3.15Y-0.15
X3.2Y3.25
X3.2Y3.2
X3.2Y3.15
X3.2Y3.1
X3.2Y1.65
X3.2Y1.6
X3.2Y1.55
X3.2Y1.5
X3.2Y1.45
X3.2Y0.0
X3.2Y-0.05
X3.2Y-0.1
X3.2Y-0.15
X3.25Y3.25
X3.25Y3.2
X3.25Y3.15
X3.25Y3.1
X3.25Y1.65
X3.25Y1.6
X3.25Y1.55
X3.25Y1.5
X3.25Y1.45
X3.25Y0.0
X3.25Y-0.05
X3.25Y-0.1
X3.25Y-0.15
X3.3Y3.25
X3.3Y3.2
X3.3Y3.15
X3.3Y3.1
X3.3Y1.65
X3.3Y1.6
X3.3Y1.55
X3.3Y1.5
X3.3Y1.45
X3.3Y0.0
X3.3Y-0.05
X3.3Y-0.1
X3.3Y-0.15
X3.35Y3.25
X3.35Y3.2
X3.35Y3.15
X3.35Y3.1
X3.35Y1.65
X3.35Y1.6
X3.35Y1.55
X3.35Y1.5
X3.35Y1.45
X3.35Y0.0
X3.35Y-0.05
X3.35Y-0.1
X3.35Y-0.15
X3.4Y3.25
X3.4Y3.2
X3.4Y3.15
X3.4Y3.1
X3.4Y1.65
X3.4Y1.6
X3.4Y1.55
X3.4Y1.5
X3.4Y1.45
X3.4Y0.0
X3.4Y-0.05
X3.4Y-0.1
X3.4Y-0.15
X3.45Y3.25
X3.45Y3.2
X3.45Y3.15
X3.45Y3.1
X3.45Y1.65
X3.45Y1.6
X3.45Y1.55
X3.45Y1.5
X3.45Y1.45
X3.45Y0.0
X3.45Y-0.05
X3.45Y-0.1
X3.45Y-0.15
X3.5Y3.25
X3.5Y3.2
X3.5Y3.15
X3.5Y3.1
X3.5Y1.65
X3.5Y1.6
X3.5Y1.55
X3.5Y1.5
X3.5Y1.45
X3.5Y0.0
X3.5Y-0.05
X3.5Y-0.1
X3.5Y-0.15
X3.55Y3.25
X3.55Y3.2
X3.55Y3.15
X3.55Y3.1
X3.55Y1.65
X3.55Y1.6
X3.55Y1.55
X3.55Y1.5
X3.55Y1.45
X3.55Y0.0
X3.55Y-0.05
X3.55Y-0.1
X3.55Y-0.15
X3.6Y3.25
X3.6Y3.2
X3.6Y3.15
X3.6Y3.1
X3.6Y1.65
X3.6Y1.6
X3.6Y1.55
X3.6Y1.5
X3.6Y1.45
X3.6Y0.0
X3.6Y-0.05
X3.6Y-0.1
X3.6Y-0.15
X3.65Y3.25
X3.65Y3.2
X3.65Y3.15
X3.65Y3.1
X3.65Y1.65
X3.65Y1.6
X3.65Y1.55
X3.65Y1.5
X3.65Y1.45
X3.65Y0.0
X3.65Y-0.05
X3.65Y-0.1
X3.65Y-0.15
X3.7Y3.25
X3.7Y3.2
X3.7Y3.15
X3.7Y3.1
X3.7Y1.65
X3.7Y1.6
X3.7Y1.55
X3.7Y1.5
X3.7Y1.45
X3.7Y0.0
X3.7Y-0.05
X3.7Y-0.1
X3.7Y-0.15
X3.75Y3.25
X3.75Y3.2
X3.75Y3.15
X3.75Y3.1
X3.75Y1.65
X3.75Y1.6
X3.75Y1.55
X3.75Y1.5
X3.75Y1.45
X3.75Y0.0
X3.75Y-0.05
X3.75Y-0.1
X3.75Y-0.15
X3.8Y3.25
X3.8Y3.2
X3.8Y3.15
X3.8Y3.1
X3.8Y1.65
X3.8Y1.6
X3.8Y1.55
X3.8Y1.5
X3.8Y1.45
X3.8Y0.0
X3.8Y-0.05
X3.8Y-0.1
X3.8Y-0.15
X3.85Y3.25
X3.85Y3.2
X3.85Y3.15
X3.85Y3.1
X3.85Y1.65
X3.85Y1.6
X3.85Y1.55
X3.85Y1.5
X3.85Y1.45
X3.85Y0.0
X3.85Y-0.05
X3.85Y-0.1
X3.85Y-0.15
X3.9Y3.25
X3.9Y3.2
X3.9Y3.15
X3.9Y3.1
X3.9Y1.65
X3.9Y1.6
X3.9Y1.55
X3.9Y1.5
X3.9Y1.45
X3.9Y0.0
X3.9Y-0.05
X3.9Y-0.1
X3.9Y-0.15
X3.95Y3.25
X3.95Y3.2
X3.95Y3.15
X3.95Y3.1
X3.95Y1.65
X3.95Y1.6
X3.95Y1.55
X3.95Y1.5
X3.95Y1.45
X3.95Y0.0
X3.95Y-0.05
X3.95Y-0.1
X3.95Y-0.15
X4.0Y3.25
X4.0Y3.2
X4.0Y3.15
X4.0Y3.1
X4.0Y1.65
X4.0Y1.6
X4.0Y1.55
X4.0Y1.5
X4.0Y1.45
X4.0Y0.0
X4.0Y-0.05
X4.0Y-0.1
X4.0Y-0.15
X4.05Y3.25
X4.05Y3.2
X4.05Y3.15
X4.05Y3.1
X4.05Y1.65
X4.05Y1.6
X4.05Y1.55
X4.05Y1.5
X4.05Y1.45
X4.05Y0.0
X4.05Y-0.05
X4.05Y-0.1
X4.05Y-0.15
X4.1Y3.25
X4.1Y3.2
X4.1Y3.15
X4.1Y3.1
X4.1Y1.65
X4.1Y1.6
X4.1Y1.55
X4.1Y1.5
X4.1Y1.45
X4.1Y0.0
X4.1Y-0.05
X4.1Y-0.1
X4.1Y-0.15
X4.15Y3.25
X4.15Y3.2
X4.15Y3.15
X4.15Y3.1
X4.15Y1.65
X4.15Y1.6
X4.15Y1.55
X4.15Y1.5
X4.15Y1.45
X4.15Y0.0
X4.15Y-0.05
X4.15Y-0.1
X4.15Y-0.15
X4.2Y3.25
X4.2Y3.2
X4.2Y3.15
X4.2Y3.1
X4.2Y1.65
X4.2Y1.6
X4.2Y1.55
X4.2Y1.5
X4.2Y1.45
X4.2Y0.0
X4.2Y-0.05
X4.2Y-0.1
X4.2Y-0.15
X4.25Y3.25
X4.25Y3.2
X4.25Y3.15
X4.25Y3.1
X4.25Y1.65
X4.25Y1.6
X4.25Y1.55
X4.25Y1.5
X4.25Y1.45
X4.25Y0.0
X4.25Y-0.05
X4.25Y-0.1
X4.25Y-0.15
X4.3Y3.25
X4.3Y3.2
X4.3Y3.15
X4.3Y3.1
X4.3Y1.65
X4.3Y1.6
X4.3Y1.55
X4.3Y1.5
X4.3Y1.45
X4.3Y0.0
X4.3Y-0.05
X4.3Y-0.1
X4.3Y-0.15
X4.35Y3.25
X4.35Y3.2
X4.35Y3.15
X4.35Y3.1
X4.35Y1.65
X4.35Y1.6
X4.35Y1.55
X4.35Y1.5
X4.35Y1.45
X4.35Y0.0
X4.35Y-0.05
X4.35Y-0.1
X4.35Y-0.15
X4.4Y3.25
X4.4Y3.2
X4.4Y3.15
X4.4Y3.1
X4.4Y1.65
X4.4Y1.6
X4.4Y1.55
X4.4Y1.5
X4.4Y1.45
X4.4Y0.0
X4.4Y-0.05
X4.4Y-0.1
X4.4Y-0.15
X4.45Y3.25
X4.45Y3.2
X4.45Y3.15
X4.45Y3.1
X4.45Y1.65
X4.45Y1.6
X4.45Y1.55
X4.45Y1.5
X4.45Y1.45
X4.45Y0.0
X4.45Y-0.05
X4.45Y-0.1
X4.45Y-0.15
X4.5Y3.25
X4.5Y3.2
X4.5Y3.15
X4.5Y3.1
X4.5Y1.65
X4.5Y1.6
X4.5Y1.55
X4.5Y1.5
X4.5Y1.45
X4.5Y0.0
X4.5Y-0.05
X4.5Y-0.1
X4.5Y-0.15
X4.55Y3.25
X4.55Y3.2
X4.55Y3.15
X4.55Y3.1
X4.55Y1.65
X4.55Y1.6
X4.55Y1.55
X4.55Y1.5
X4.55Y1.45
X4.55Y0.0
X4.55Y-0.05
X4.55Y-0.1
X4.55Y-0.15
X4.6Y3.25
X4.6Y3.2
X4.6Y3.15
X4.6Y3.1
X4.6Y1.65
X4.6Y1.6
X4.6Y1.55
X4.6Y1.5
X4.6Y1.45
X4.6Y0.0
X4.6Y-0.05
X4.6Y-0.1
X4.6Y-0.15
X4.65Y3.25
X4.65Y3.2
X4.65Y3.15
X4.65Y3.1
X4.65Y1.65
X4.65Y1.6
X4.65Y1.55
X4.65Y1.5
X4.65Y1.45
X4.65Y0.0
X4.65Y-0.05
X4.65Y-0.1
X4.65Y-0.15
X4.7Y3.25
X4.7Y3.2
X4.7Y3.15
X4.7Y3.1
X4.7Y1.65
X4.7Y1.6
X4.7Y1.55
X4.7Y1.5
X4.7Y1.45
X4.7Y0.0
X4.7Y-0.05
X4.7Y-0.1
X4.7Y-0.15
X4.75Y3.25
X4.75Y3.2
X4.75Y3.15
X4.75Y3.1
X4.75Y1.65
X4.75Y1.6
X4.75Y1.55
X4.75Y1.5
X4.75Y1.45
X4.75Y0.0
X4.75Y-0.05
X4.75Y-0.1
X4.75Y-0.15
X4.8Y3.25
X4.8Y3.2
X4.8Y3.15
X4.8Y3.1
X4.8Y1.65
X4.8Y1.6
X4.8Y1.55
X4.8Y1.5
X4.8Y1.45
X4.8Y0.0
X4.8Y-0.05
X4.8Y-0.1
X4.8Y-0.15
X4.85Y3.25
X4.85Y3.2
X4.85Y3.15
X4.85Y3.1
X4.85Y1.65
X4.85Y1.6
X4.85Y1.55
X4.85Y1.5
X4.85Y1.45
X4.85Y0.0
X4.85Y-0.05
X4.85Y-0.1
X4.85Y-0.15
X4.9Y3.25
X4.9Y3.2
X4.9Y3.15
X4.9Y3.1
X4.9Y1.65
X4.9Y1.6
X4.9Y1.55
X4.9Y1.5
X4.9Y1.45
X4.9Y0.0
X4.9Y-0.05
X4.9Y-0.1
X4.9Y-0.15
X4.95Y3.25
X4.95Y3.2
X4.95Y3.15
X4.95Y3.1
X4.95Y1.65
X4.95Y1.6
X4.95Y1.55
X4.95Y1.5
X4.95Y1.45
X4.95Y0.0
X4.95Y-0.05
X4.95Y-0.1
X4.95Y-0.15
X5.0Y3.25
X5.0Y3.2
X5.0Y3.15
X5.0Y3.1
X5.0Y1.65
X5.0Y1.6
X5.0Y1.55
X5.0Y1.5
X5.0Y1.45
X5.0Y0.0
X5.0Y-0.05
X5.0Y-0.1
X5.0Y-0.15
X5.05Y3.25
X5.05Y3.2
X5.05Y3.15
X5.05Y3.1
X5.05Y1.65
X5.05Y1.6
X5.05Y1.55
X5.05Y1.5
X5.05Y1.45
X5.05Y0.0
X5.05Y-0.05
X5.05Y-0.1
X5.05Y-0.15
X5.1Y3.25
X5.1Y3.2
X5.1Y3.15
X5.1Y3.1
X5.1Y1.65
X5.1Y1.6
X5.1Y1.55
X5.1Y1.5
X5.1Y1.45
X5.1Y0.0
X5.1Y-0.05
X5.1Y-0.1
X5.1Y-0.15
X5.15Y3.25
X5.15Y3.2
X5.15Y3.15
X5.15Y3.1
X5.15Y1.65
X5.15Y1.6
X5.15Y1.55
X5.15Y1.5
X5.15Y1.45
X5.15Y0.0
X5.15Y-0.05
X5.15Y-0.1
X5.15Y-0.15
X5.2Y3.25
X5.2Y3.2
X5.2Y3.15
X5.2Y3.1
X5.2Y1.65
X5.2Y1.6
X5.2Y1.55
X5.2Y1.5
X5.2Y1.45
X5.2Y0.0
X5.2Y-0.05
X5.2Y-0.1
X5.2Y-0.15
X5.25Y3.25
X5.25Y3.2
X5.25Y3.15
X5.25Y3.1
X5.25Y1.65
X5.25Y1.6
X5.25Y1.55
X5.25Y1.5
X5.25Y1.45
X5.25Y0.0
X5.25Y-0.05
X5.25Y-0.1
X5.25Y-0.15
X5.3Y3.25
X5.3Y3.2
X5.3Y3.15
X5.3Y3.1
X5.3Y1.65
X5.3Y1.6
X5.3Y1.55
X5.3Y1.5
X5.3Y1.45
X5.3Y0.0
X5.3Y-0.05
X5.3Y-0.1
X5.3Y-0.15
X5.35Y3.25
X5.35Y3.2
X5.35Y3.15
X5.35Y3.1
X5.35Y1.65
X5.35Y1.6
X5.35Y1.55
X5.35Y1.5
X5.35Y1.45
X5.35Y0.0
X5.35Y-0.05
X5.35Y-0.1
X5.35Y-0.15
X5.4Y3.25
X5.4Y3.2
X5.4Y3.15
X5.4Y3.1
X5.4Y1.65
X5.4Y1.6
X5.4Y1.55
X5.4Y1.5
X5.4Y1.45
X5.4Y0.0
X5.4Y-0.05
X5.4Y-0.1
X5.4Y-0.15
X5.45Y3.25
X5.45Y3.2
X5.45Y3.15
X5.45Y3.1
X5.45Y1.65
X5.45Y1.6
X5.45Y1.55
X5.45Y1.5
X5.45Y1.45
X5.45Y0.0
X5.45Y-0.05
X5.45Y-0.1
X5.45Y-0.15
X5.5Y3.25
X5.5Y3.2
X5.5Y3.15
X5.5Y3.1
X5.5Y1.65
X5.5Y1.6
X5.5Y1.55
X5.5Y1.5
X5.5Y1.45
X5.5Y0.0
X5.5Y-0.05
X5.5Y-0.1
X5.5Y-0.15
X5.55Y3.25
X5.55Y3.2
X5.55Y3.15
X5.55Y3.1
X5.55Y1.65
X5.55Y1.6
X5.55Y1.55
X5.55Y1.5
X5.55Y1.45
X5.55Y0.0
X5.55Y-0.05
X5.55Y-0.1
X5.55Y-0.15
X5.6Y3.25
X5.6Y3.2
X5.6Y3.15
X5.6Y3.1
X5.6Y1.65
X5.6Y1.6
X5.6Y1.55
X5.6Y1.5
X5.6Y1.45
X5.6Y0.0
X5.6Y-0.05
X5.6Y-0.1
X5.6Y-0.15
X5.65Y3.25
X5.65Y3.2
X5.65Y3.15
X5.65Y3.1
X5.65Y1.65
X5.65Y1.6
X5.65Y1.55
X5.65Y1.5
X5.65Y1.45
X5.65Y0.0
X5.65Y-0.05
X5.65Y-0.1
X5.65Y-0.15
X5.7Y3.25
X5.7Y3.2
X5.7Y3.15
X5.7Y3.1
X5.7Y1.65
X5.7Y1.6
X5.7Y1.55
X5.7Y1.5
X5.7Y1.45
X5.7Y0.0
X5.7Y-0.05
X5.7Y-0.1
X5.7Y-0.15
X5.75Y3.25
X5.75Y3.2
X5.75Y3.15
X5.75Y3.1
X5.75Y1.65
X5.75Y1.6
X5.75Y1.55
X5.75Y1.5
X5.75Y1.45
X5.75Y0.0
X5.75Y-0.05
X5.75Y-0.1
X5.75Y-0.15
X5.8Y3.25
X5.8Y3.2
X5.8Y3.15
X5.8Y3.1
X5.8Y1.65
X5.8Y1.6
X5.8Y1.55
X5.8Y1.5
X5.8Y1.45
X5.8Y0.0
X5.8Y-0.05
X5.8Y-0.1
X5.8Y-0.15
X5.85Y3.25
X5.85Y3.2
X5.85Y3.15
X5.85Y3.1
X5.85Y1.65
X5.85Y1.6
X5.85Y1.55
X5.85Y1.5
X5.85Y1.45
X5.85Y0.0
X5.85Y-0.05
X5.85Y-0.1
X5.85Y-0.15
X5.9Y3.25
X5.9Y3.2
X5.9Y3.15
X5.9Y3.1
X5.9Y1.65
X5.9Y1.6
X5.9Y1.55
X5.9Y1.5
X5.9Y1.45
X5.9Y0.0
X5.9Y-0.05
X5.9Y-0.1
X5.9Y-0.15
X5.95Y3.25
X5.95Y3.2
X5.95Y3.15
X5.95Y3.1
X5.95Y1.65
X5.95Y1.6
X5.95Y1.55
X5.95Y1.5
X5.95Y1.45
X5.95Y0.0
X5.95Y-0.05
X5.95Y-0.1
X5.95Y-0.15
X6.0Y3.25
X6.0Y3.2
X6.0Y3.15
X6.0Y3.1
X6.0Y1.65
X6.0Y1.6
X6.0Y1.55
X6.0Y1.5
X6.0Y1.45
X6.0Y0.0
X6.0Y-0.05
X6.0Y-0.1
X6.0Y-0.15
X6.05Y3.25
X6.05Y3.2
X6.05Y3.15
X6.05Y3.1
X6.05Y1.65
X6.05Y1.6
X6.05Y1.55
X6.05Y1.5
X6.05Y1.45
X6.05Y0.0
X6.05Y-0.05
X6.05Y-0.1
X6.05Y-0.15
X6.1Y3.25
X6.1Y3.2
X6.1Y3.15
X6.1Y3.1
X6.1Y1.65
X6.1Y1.6
X6.1Y1.55
X6.1Y1.5
X6.1Y1.45
X6.1Y0.0
X6.1Y-0.05
X6.1Y-0.1
X6.1Y-0.15
X6.15Y3.25
X6.15Y3.2
X6.15Y3.15
X6.15Y3.1
X6.15Y1.65
X6.15Y1.6
X6.15Y1.55
X6.15Y1.5
X6.15Y1.45
X6.15Y0.0
X6.15Y-0.05
X6.15Y-0.1
X6.15Y-0.15
X6.2Y3.25
X6.2Y3.2
X6.2Y3.15
X6.2Y3.1
X6.2Y1.65
X6.2Y1.6
X6.2Y1.55
X6.2Y1.5
X6.2Y1.45
X6.2Y0.0
X6.2Y-0.05
X6.2Y-0.1
X6.2Y-0.15
X6.25Y3.25
X6.25Y3.2
X6.25Y3.15
X6.25Y3.1
X6.25Y1.65
X6.25Y1.6
X6.25Y1.55
X6.25Y1.5
X6.25Y1.45
X6.25Y0.0
X6.25Y-0.05
X6.25Y-0.1
X6.25Y-0.15
X6.3Y3.25
X6.3Y3.2
X6.3Y3.15
X6.3Y3.1
X6.3Y1.65
X6.3Y1.6
X6.3Y1.55
X6.3Y1.5
X6.3Y1.45
X6.3Y0.0
X6.3Y-0.05
X6.3Y-0.1
X6.3Y-0.15
X6.35Y3.25
X6.35Y3.2
X6.35Y3.15
X6.35Y3.1
X6.35Y1.65
X6.35Y1.6
X6.35Y1.55
X6.35Y1.5
X6.35Y1.45
X6.35Y0.0
X6.35Y-0.05
X6.35Y-0.1
X6.35Y-0.15
X6.4Y3.25
X6.4Y3.2
X6.4Y3.15
X6.4Y3.1
X6.4Y1.65
X6.4Y1.6
X6.4Y1.55
X6.4Y1.5
X6.4Y1.45
X6.4Y0.0
X6.4Y-0.05
X6.4Y-0.1
X6.4Y-0.15
X6.45Y3.25
X6.45Y3.2
X6.45Y3.15
X6.45Y3.1
X6.45Y1.65
X6.45Y1.6
X6.45Y1.55
X6.45Y1.5
X6.45Y1.45
X6.45Y0.0
X6.45Y-0.05
X6.45Y-0.1
X6.45Y-0.15
X6.5Y3.25
X6.5Y3.2
X6.5Y3.15
X6.5Y3.1
X6.5Y1.65
X6.5Y1.6
X6.5Y1.55
X6.5Y1.5
X6.5Y1.45
X6.5Y0.0
X6.5Y-0.05
X6.5Y-0.1
X6.5Y-0.15
X6.55Y3.25
X6.55Y3.2
X6.55Y3.15
X6.55Y3.1
X6.55Y1.65
X6.55Y1.6
X6.55Y1.55
X6.55Y1.5
X6.55Y1.45
X6.55Y0.0
X6.55Y-0.05
X6.55Y-0.1
X6.55Y-0.15
X6.6Y3.25
X6.6Y3.2
X6.6Y3.15
X6.6Y3.1
X6.6Y1.65
X6.6Y1.6
X6.6Y1.55
X6.6Y1.5
X6.6Y1.45
X6.6Y0.0
X6.6Y-0.05
X6.6Y-0.1
X6.6Y-0.15
X6.65Y3.25
X6.65Y3.2
X6.65Y3.15
X6.65Y3.1
X6.65Y1.65
X6.65Y1.6
X6.65Y1.55
X6.65Y1.5
X6.65Y1.45
X6.65Y0.0
X6.65Y-0.05
X6.65Y-0.1
X6.65Y-0.15
X6.7Y3.25
X6.7Y3.2
X6.7Y3.15
X6.7Y3.1
X6.7Y1.65
X6.7Y1.6
X6.7Y1.55
X6.7Y1.5
X6.7Y1.45
X6.7Y0.0
X6.7Y-0.05
X6.7Y-0.1
X6.7Y-0.15
X6.75Y3.25
X6.75Y3.2
X6.75Y3.15
X6.75Y3.1
X6.75Y1.65
X6.75Y1.6
X6.75Y1.55
X6.75Y1.5
X6.75Y1.45
X6.75Y0.0
X6.75Y-0.05
X6.75Y-0.1
X6.75Y-0.15
X6.8Y3.25
X6.8Y3.2
X6.8Y3.15
X6.8Y3.1
X6.8Y1.65
X6.8Y1.6
X6.8Y1.55
X6.8Y1.5
X6.8Y1.45
X6.8Y0.0
X6.8Y-0.05
X6.8Y-0.1
X6.8Y-0.15
X6.85Y3.25
X6.85Y3.2
X6.85Y3.15
X6.85Y3.1
X6.85Y1.65
X6.85Y1.6
X6.85Y1.55
X6.85Y1.5
X6.85Y1.45
X6.85Y0.0
X6.85Y-0.05
X6.85Y-0.1
X6.85Y-0.15
X6.9Y3.25
X6.9Y3.2
X6.9Y3.15
X6.9Y3.1
X6.9Y1.65
X6.9Y1.6
X6.9Y1.55
X6.9Y1.5
X6.9Y1.45
X6.9Y0.0
X6.9Y-0.05
X6.9Y-0.1
X6.9Y-0.15
X6.95Y3.25
X6.95Y3.2
X6.95Y3.15
X6.95Y3.1
X6.95Y3.05
X6.95Y3.0
X6.95Y1.65
X6.95Y1.6
X6.95Y1.55
X6.95Y1.5
X6.95Y1.45
X6.95Y0.1
X6.95Y0.05
X6.95Y0.0
X6.95Y-0.05
X6.95Y-0.1
X6.95Y-0.15
X7.0Y3.25
X7.0Y3.2
X7.0Y3.15
X7.0Y3.1
X7.0Y3.05
X7.0Y3.0
X7.0Y0.1
X7.0Y0.05
X7.0Y0.0
X7.0Y-0.05
X7.0Y-0.1
X7.0Y-0.15
X7.05Y3.25
X7.05Y3.2
X7.05Y3.15
X7.05Y3.1
X7.05Y3.05
X7.05Y3.0
X7.05Y2.95
X7.05Y2.9
X7.05Y2.85
X7.05Y2.8
X7.05Y2.75
X7.05Y2.7
X7.05Y2.65
X7.05Y2.6
X7.05Y2.55
X7.05Y2.5
X7.05Y2.45
X7.05Y2.4
X7.05Y2.35
X7.05Y2.3
X7.05Y2.25
X7.05Y2.2
X7.05Y2.15
X7.05Y2.1
X7.05Y2.05
X7.05Y2.0
X7.05Y1.95
X7.05Y1.9
X7.05Y1.85
X7.05Y1.8
X7.05Y1.75
X7.05Y1.7
X7.05Y1.65
X7.05Y1.6
X7.05Y1.55
X7.05Y1.5
X7.05Y1.45
X7.05Y1.4
X7.05Y1.35
X7.05Y1.3
X7.05Y1.25
X7.05Y1.2
X7.05Y1.15
X7.05Y1.1
X7.05Y1.05
X7.05Y1.0
X7.05Y0.95
X7.05Y0.9
X7.05Y0.85
X7.05Y0.8
X7.05Y0.75
X7.05Y0.7
X7.05Y0.65
X7.05Y0.6
X7.05Y0.55
X7.05Y0.5
X7.05Y0.45
X7.05Y0.4
X7.05Y0.35
X7.05Y0.3
X7.05Y0.25
X7.05Y0.2
X7.05Y0.15
X7.05Y0.1
X7.05Y0.05
X7.05Y0.0
X7.05Y-0.05
X7.05Y-0.1
X7.05Y-0.15
X7.1Y3.25
X7.1Y3.2
X7.1Y3.15
X7.1Y3.1
X7.1Y3.05
X7.1Y3.0
X7.1Y2.95
X7.1Y2.9
X7.1Y2.85
X7.1Y2.8
X7.1Y2.75
X7.1Y2.7
X7.1Y2.65
X7.1Y2.6
X7.1Y2.55
X7.1Y2.5
X7.1Y2.45
X7.1Y2.4
X7.1Y2.35
X7.1Y2.3
X7.1Y2.25
X7.1Y2.2
X7.1Y2.15
X7.1Y2.1
X7.1Y2.05
X7.1Y2.0
X7.1Y1.95
X7.1Y1.9
X7.1Y1.85
X7.1Y1.8
X7.1Y1.75
X7.1Y1.7
X7.1Y1.65
X7.1Y1.6
X7.1Y1.55
X7.1Y1.5
X7.1Y1.45
X7.1Y1.4
X7.1Y1.35
X7.1Y1.3
X7.1Y1.25
X7.1Y1.2
X7.1Y1.15
X7.1Y1.1
X7.1Y1.05
X7.1Y1.0
X7.1Y0.95
X7.1Y0.9
X7.1Y0.85
X7.1Y0.8
X7.1Y0.75
X7.1Y0.7
X7.1Y0.65
X7.1Y0.6
X7.1Y0.55
X7.1Y0.5
X7.1Y0.45
X7.1Y0.4
X7.1Y0.35
X7.1Y0.3
X7.1Y0.25
X7.1Y0.2
X7.1Y0.15
X7.1Y0.1
X7.1Y0.05
X7.1Y0.0
X7.1Y-0.05
X7.1Y-0.1
X7.1Y-0.15
X7.15Y3.25
X7.15Y3.2
X7.15Y3.15
X7.15Y3.1
X7.15Y3.05
X7.15Y3.0
X7.15Y2.95
X7.15Y2.9
X7.15Y2.85
X7.15Y2.8
X7.15Y2.75
X7.15Y2.7
X7.15Y2.65
X7.15Y2.6
X7.15Y2.55
X7.15Y2.5
X7.15Y2.45
X7.15Y2.4
X7.15Y2.35
X7.15Y2.3
X7.15Y2.25
X7.15Y2.2
X7.15Y2.15
X7.15Y2.1
X7.15Y2.05
X7.15Y2.0
X7.15Y1.95
X7.15Y1.9
X7.15Y1.85
X7.15Y1.8
X7.15Y1.75
X7.15Y1.7
X7.15Y1.65
X7.15Y1.6
X7.15Y1.55
X7.15Y1.5
X7.15Y1.45
X7.15Y1.4
X7.15Y1.35
X7.15Y1.3
X7.15Y1.25
X7.15Y1.2
X7.15Y1.15
X7.15Y1.1
X7.15Y1.05
X7.15Y1.0
X7.15Y0.95
X7.15Y0.9
X7.15Y0.85
X7.15Y0.8
X7.15Y0.75
X7.15Y0.7
X7.15Y0.65
X7.15Y0.6
X7.15Y0.55
X7.15Y0.5
X7.15Y0.45
X7.15Y0.4
X7.15Y0.35
X7.15Y0.3
X7.15Y0.25
X7.15Y0.2
X7.15Y0.15
X7.15Y0.1
X7.15Y0.05
X7.15Y0.0
X7.15Y-0.05
X7.15Y-0.1
X7.15Y-0.15
X7.2Y3.25
X7.2Y3.2
X7.2Y3.15
X7.2Y3.1
X7.2Y3.05
X7.2Y3.0
X7.2Y2.95
X7.2Y2.9
X7.2Y2.85
X7.2Y2.8
X7.2Y2.75
X7.2Y2.7
X7.2Y2.65
X7.2Y2.6
X7.2Y2.55
X7.2Y2.5
X7.2Y2.45
X7.2Y2.4
X7.2Y2.35
X7.2Y2.3
X7.2Y2.25
X7.2Y2.2
X7.2Y2.15
X7.2Y2.1
X7.2Y2.05
X7.2Y2.0
X7.2Y1.95
X7.2Y1.9
X7.2Y1.85
X7.2Y1.8
X7.2Y1.75
X7.2Y1.7
X7.2Y1.65
X7.2Y1.6
X7.2Y1.55
X7.2Y1.5
X7.2Y1.45
X7.2Y1.4
X7.2Y1.35
X7.2Y1.3
X7.2Y1.25
X7.2Y1.2
X7.2Y1.15
X7.2Y1.1
X7.2Y1.05
X7.2Y1.0
X7.2Y0.95
X7.2Y0.9
X7.2Y0.85
X7.2Y0.8
X7.2Y0.75
X7.2Y0.7
X7.2Y0.65
X7.2Y0.6
X7.2Y0.55
X7.2Y0.5
X7.2Y0.45
X7.2Y0.4
X7.2Y0.35
X7.2Y0.3
X7.2Y0.25
X7.2Y0.2
X7.2Y0.15
X7.2Y0.1
X7.2Y0.05
X7.2Y-0.05
X7.2Y-0.1
X7.2Y-0.15
X7.25Y3.25
X7.25Y3.2
X7.25Y3.15
X7.25Y3.1
X7.25Y3.05
X7.25Y3.0
X7.25Y2.95
X7.25Y2.9
X7.25Y2.85
X7.25Y2.8
X7.25Y2.75
X7.25Y2.7
X7.25Y2.65
X7.25Y2.6
X7.25Y2.55
X7.25Y2.5
X7.25Y2.45
X7.25Y2.4
X7.25Y2.35
X7.25Y2.3
X7.25Y2.25
X7.25Y2.2
X7.25Y2.15
X7.25Y2.1
X7.25Y2.05
X7.25Y2.0
X7.25Y1.95
X7.25Y1.9
X7.25Y1.85
X7.25Y1.8
X7.25Y1.75
X7.25Y1.7
X7.25Y1.65
X7.25Y1.6
X7.25Y1.55
X7.25Y1.5
X7.25Y1.45
X7.25Y1.4
X7.25Y1.35
X7.25Y1.3
X7.25Y1.25
X7.25Y1.2
X7.25Y1.15
X7.25Y1.1
X7.25Y1.05
X7.25Y1.0
X7.25Y0.95
X7.25Y0.9
X7.25Y0.85
X7.25Y0.8
X7.25Y0.75
X7.25Y0.7
X7.25Y0.65
X7.25Y0.6
X7.25Y0.55
X7.25Y0.5
X7.25Y0.45
X7.25Y0.4
X7.25Y0.35
X7.25Y0.3
X7.25Y0.25
X7.25Y0.2
X7.25Y0.15
X7.25Y0.1
X7.25Y0.05
X7.25Y0.0
X7.25Y-0.05
X7.25Y-0.1
X7.25Y-0.15
X7.3Y3.25
X7.3Y3.2
X7.3Y3.15
X7.3Y3.1
X7.3Y3.05
X7.3Y3.0
X7.3Y2.95
X7.3Y2.9
X7.3Y2.85
X7.3Y2.8
X7.3Y2.75
X7.3Y2.7
X7.3Y2.65
X7.3Y2.6
X7.3Y2.55
X7.3Y2.5
X7.3Y2.45
X7.3Y2.4
X7.3Y2.35
X7.3Y2.3
X7.3Y2.25
X7.3Y2.2
X7.3Y2.15
X7.3Y2.1
X7.3Y2.05
X7.3Y2.0
X7.3Y1.95
X7.3Y1.9
X7.3Y1.85
X7.3Y1.8
X7.3Y1.75
X7.3Y1.7
X7.3Y1.65
X7.3Y1.6
X7.3Y1.55
X7.3Y1.5
X7.3Y1.45
X7.3Y1.4
X7.3Y1.35
X7.3Y1.3
X7.3Y1.25
X7.3Y1.2
X7.3Y1.15
X7.3Y1.1
X7.3Y1.05
X7.3Y1.0
X7.3Y0.95
X7.3Y0.9
X7.3Y0.85
X7.3Y0.8
X7.3Y0.75
X7.3Y0.7
X7.3Y0.65
X7.3Y0.6
X7.3Y0.55
X7.3Y0.5
X7.3Y0.45
X7.3Y0.4
X7.3Y0.35
X7.3Y0.3
X7.3Y0.25
X7.3Y0.2
X7.3Y0.15
X7.3Y0.1
X7.3Y0.05
X7.3Y0.0
X7.3Y-0.05
X7.3Y-0.1
X7.3Y-0.15
X7.35Y3.25
X7.35Y3.2
X7.35Y3.0
X7.35Y2.95
X7.35Y2.9
X7.35Y2.85
X7.35Y2.8
X7.35Y2.75
X7.35Y2.7
X7.35Y2.65
X7.35Y2.6
X7.35Y2.55
X7.35Y2.5
X7.35Y2.45
X7.35Y2.4
X7.35Y2.35
X7.35Y2.3
X7.35Y2.25
X7.35Y2.2
X7.35Y2.15
X7.35Y2.1
X7.35Y2.05
X7.35Y2.0
X7.35Y1.95
X7.35Y1.9
X7.35Y1.85
X7.35Y1.8
X7.35Y1.75
X7.35Y1.7
X7.35Y1.65
X7.35Y1.6
X7.35Y1.55
X7.35Y1.5
X7.35Y1.45
X7.35Y1.4
X7.35Y1.35
X7.35Y1.3
X7.35Y1.25
X7.35Y1.2
X7.35Y1.15
X7.35Y1.1
X7.35Y1.05
X7.35Y1.0
X7.35Y0.95
X7.35Y0.9
X7.35Y0.85
X7.35Y0.8
X7.35Y0.75
X7.35Y0.7
X7.35Y0.65
X7.35Y0.6
X7.35Y0.55
X7.35Y0.5
X7.35Y0.45
X7.35Y0.4
X7.35Y0.35
X7.35Y0.3
X7.35Y0.25
X7.35Y0.2
X7.35Y0.15
X7.35Y0.1
X7.35Y-0.1
X7.35Y-0.15
X7.4Y3.25
X7.4Y3.2
X7.4Y3.0
X7.4Y2.95
X7.4Y2.9
X7.4Y2.85
X7.4Y2.8
X7.4Y2.75
X7.4Y2.7
X7.4Y2.65
X7.4Y2.6
X7.4Y2.55
X7.4Y2.5
X7.4Y2.45
X7.4Y2.4
X7.4Y2.35
X7.4Y2.3
X7.4Y2.25
X7.4Y2.2
X7.4Y2.15
X7.4Y2.1
X7.4Y2.05
X7.4Y2.0
X7.4Y1.95
X7.4Y1.9
X7.4Y1.85
X7.4Y1.8
X7.4Y1.75
X7.4Y1.7
X7.4Y1.65
X7.4Y1.6
X7.4Y1.55
X7.4Y1.5
X7.4Y1.45
X7.4Y1.4
X7.4Y1.35
X7.4Y1.3
X7.4Y1.25
X7.4Y1.2
X7.4Y1.15
X7.4Y1.1
X7.4Y1.05
X7.4Y1.0
X7.4Y0.95
X7.4Y0.9
X7.4Y0.85
X7.4Y0.8
X7.4Y0.75
X7.4Y0.7
X7.4Y0.65
X7.4Y0.6
X7.4Y0.55
X7.4Y0.5
X7.4Y0.45
X7.4Y0.4
X7.4Y0.35
X7.4Y0.3
X7.4Y0.25
X7.4Y0.2
X7.4Y0.15
X7.4Y0.1
X7.4Y-0.1
X7.4Y-0.15
X7.45Y3.25
X7.45Y3.2
X7.45Y3.0
X7.45Y2.95
X7.45Y2.9
X7.45Y2.85
X7.45Y2.8
X7.45Y2.75
X7.45Y2.7
X7.45Y2.65
X7.45Y2.6
X7.45Y2.55
X7.45Y2.5
X7.45Y2.45
X7.45Y2.4
X7.45Y2.35
X7.45Y2.3
X7.45Y2.25
X7.45Y2.2
X7.45Y2.15
X7.45Y2.1
X7.45Y2.05
X7.45Y2.0
X7.45Y1.95
X7.45Y1.9
X7.45Y1.85
X7.45Y1.8
X7.45Y1.75
X7.45Y1.7
X7.45Y1.65
X7.45Y1.6
X7.45Y1.55
X7.45Y1.5
X7.45Y1.45
X7.45Y1.4
X7.45Y1.35
X7.45Y1.3
X7.45Y1.25
X7.45Y1.2
X7.45Y1.15
X7.45Y1.1
X7.45Y1.05
X7.45Y1.0
X7.45Y0.95
X7.45Y0.9
X7.45Y0.85
X7.45Y0.8
X7.45Y0.75
X7.45Y0.7
X7.45Y0.65
X7.45Y0.6
X7.45Y0.55
X7.45Y0.5
X7.45Y0.45
X7.45Y0.4
X7.45Y0.35
X7.45Y0.3
X7.45Y0.25
X7.45Y0.2
X7.45Y0.15
X7.45Y0.1
X7.45Y-0.1
X7.45Y-0.15
X7.5Y3.2
X7.5Y3.15
X7.5Y3.1
X7.5Y3.05
X7.5Y3.0
X7.5Y2.95
X7.5Y2.9
X7.5Y2.85
X7.5Y2.8
X7.5Y2.75
X7.5Y2.7
X7.5Y2.65
X7.5Y2.6
X7.5Y2.55
X7.5Y2.5
X7.5Y2.45
X7.5Y2.4
X7.5Y2.35
X7.5Y2.3
X7.5Y2.25
X7.5Y2.2
X7.5Y2.15
X7.5Y2.1
X7.5Y2.05
X7.5Y2.0
X7.5Y1.95
X7.5Y1.9
X7.5Y1.85
X7.5Y1.8
X7.5Y1.75
X7.5Y1.7
X7.5Y1.65
X7.5Y1.6
X7.5Y1.55
X7.5Y1.5
X7.5Y1.45
X7.5Y1.4
X7.5Y1.35
X7.5Y1.3
X7.5Y1.25
X7.5Y1.2
X7.5Y1.15
X7.5Y1.1
X7.5Y1.05
X7.5Y1.0
X7.5Y0.95
X7.5Y0.9
X7.5Y0.85
X7.5Y0.8
X7.5Y0.75
X7.5Y0.7
X7.5Y0.65
X7.5Y0.6
X7.5Y0.55
X7.5Y0.5
X7.5Y0.45
X7.5Y0.4
X7.5Y0.35
X7.5Y0.3
X7.5Y0.25
X7.5Y0.2
X7.5Y0.15
X7.5Y0.1
X7.5Y0.05
X7.5Y0.0
X7.5Y-0.05
X7.5Y-0.1
X7.55Y3.15
X7.55Y3.1
X7.55Y3.05
X7.55Y3.0
X7.55Y2.95
X7.55Y2.9
X7.55Y2.85
X7.55Y2.8
X7.55Y2.75
X7.55Y2.7
X7.55Y2.65
X7.55Y2.6
X7.55Y2.55
X7.55Y2.5
X7.55Y2.45
X7.55Y2.4
X7.55Y2.35
X7.55Y2.3
X7.55Y2.25
X7.55Y2.2
X7.55Y2.15
X7.55Y2.1
X7.55Y2.05
X7.55Y2.0
X7.55Y1.95
X7.55Y1.9
X7.55Y1.85
X7.55Y1.8
X7.55Y1.75
X7.55Y1.7
X7.55Y1.65
X7.55Y1.6
X7.55Y1.55
X7.55Y1.5
X7.55Y1.45
X7.55Y1.4
X7.55Y1.35
X7.55Y1.3
X7.55Y1.25
X7.55Y1.2
X7.55Y1.15
X7.55Y1.1
X7.55Y1.05
X7.55Y1.0
X7.55Y0.95
X7.55Y0.9
X7.55Y0.85
X7.55Y0.8
X7.55Y0.75
X7.55Y0.7
X7.55Y0.65
X7.55Y0.6
X7.55Y0.55
X7.55Y0.5
X7.55Y0.45
X7.55Y0.4
X7.55Y0.35
X7.55Y0.3
X7.55Y0.25
X7.55Y0.2
X7.55Y0.15
X7.55Y0.1
X7.55Y0.05
X7.55Y0.0
X7.55Y-0.05
T2
X-0.3Y1.9507
X-0.23Y1.1
X-0.19Y1.25
X-0.1Y1.07
T3
X-0.2445Y0.6
X-0.2445Y0.5016
X-0.2445Y0.4031
T4
X-0.1146Y0.6984
X-0.1146Y0.3047
T3
G00X-0.298Y1.5939
M15
G01X-0.298Y1.5073
M16
G05
G00X-0.1209Y1.3616
M15
G01X-0.2075Y1.3616
M16
G05
G00X-0.05Y1.6018
M15
G01X-0.05Y1.4994
M16
G05
T0
M30
