%TF.GenerationSoftware,KiCad,Pcbnew,(6.0.11)*%
%TF.CreationDate,2023-02-06T17:53:22-08:00*%
%TF.ProjectId,GrowLight,47726f77-4c69-4676-9874-2e6b69636164,rev?*%
%TF.SameCoordinates,PX31a8670PY832b588*%
%TF.FileFunction,Legend,Bot*%
%TF.FilePolarity,Positive*%
%FSLAX46Y46*%
G04 Gerber Fmt 4.6, Leading zero omitted, Abs format (unit mm)*
G04 Created by KiCad (PCBNEW (6.0.11)) date 2023-02-06 17:53:22*
%MOMM*%
%LPD*%
G01*
G04 APERTURE LIST*
%ADD10C,0.750000*%
%ADD11C,0.150000*%
%ADD12C,0.010000*%
G04 APERTURE END LIST*
D10*
X102741428Y28316858D02*
X101741428Y25316858D01*
X100741428Y28316858D01*
X98598571Y25459715D02*
X98884285Y25316858D01*
X99455714Y25316858D01*
X99741428Y25459715D01*
X99884285Y25745429D01*
X99884285Y26888286D01*
X99741428Y27174000D01*
X99455714Y27316858D01*
X98884285Y27316858D01*
X98598571Y27174000D01*
X98455714Y26888286D01*
X98455714Y26602572D01*
X99884285Y26316858D01*
X97170000Y25316858D02*
X97170000Y27316858D01*
X97170000Y26745429D02*
X97027142Y27031143D01*
X96884285Y27174000D01*
X96598571Y27316858D01*
X96312857Y27316858D01*
X95455714Y25459715D02*
X95170000Y25316858D01*
X94598571Y25316858D01*
X94312857Y25459715D01*
X94170000Y25745429D01*
X94170000Y25888286D01*
X94312857Y26174000D01*
X94598571Y26316858D01*
X95027142Y26316858D01*
X95312857Y26459715D01*
X95455714Y26745429D01*
X95455714Y26888286D01*
X95312857Y27174000D01*
X95027142Y27316858D01*
X94598571Y27316858D01*
X94312857Y27174000D01*
X92884285Y25316858D02*
X92884285Y27316858D01*
X92884285Y28316858D02*
X93027142Y28174000D01*
X92884285Y28031143D01*
X92741428Y28174000D01*
X92884285Y28316858D01*
X92884285Y28031143D01*
X91027142Y25316858D02*
X91312857Y25459715D01*
X91455714Y25602572D01*
X91598571Y25888286D01*
X91598571Y26745429D01*
X91455714Y27031143D01*
X91312857Y27174000D01*
X91027142Y27316858D01*
X90598571Y27316858D01*
X90312857Y27174000D01*
X90170000Y27031143D01*
X90027142Y26745429D01*
X90027142Y25888286D01*
X90170000Y25602572D01*
X90312857Y25459715D01*
X90598571Y25316858D01*
X91027142Y25316858D01*
X88741428Y27316858D02*
X88741428Y25316858D01*
X88741428Y27031143D02*
X88598571Y27174000D01*
X88312857Y27316858D01*
X87884285Y27316858D01*
X87598571Y27174000D01*
X87455714Y26888286D01*
X87455714Y25316858D01*
X83884285Y28031143D02*
X83741428Y28174000D01*
X83455714Y28316858D01*
X82741428Y28316858D01*
X82455714Y28174000D01*
X82312857Y28031143D01*
X82170000Y27745429D01*
X82170000Y27459715D01*
X82312857Y27031143D01*
X84027142Y25316858D01*
X82170000Y25316858D01*
X80884285Y25602572D02*
X80741428Y25459715D01*
X80884285Y25316858D01*
X81027142Y25459715D01*
X80884285Y25602572D01*
X80884285Y25316858D01*
X78884285Y28316858D02*
X78598571Y28316858D01*
X78312857Y28174000D01*
X78170000Y28031143D01*
X78027142Y27745429D01*
X77884285Y27174000D01*
X77884285Y26459715D01*
X78027142Y25888286D01*
X78170000Y25602572D01*
X78312857Y25459715D01*
X78598571Y25316858D01*
X78884285Y25316858D01*
X79170000Y25459715D01*
X79312857Y25602572D01*
X79455714Y25888286D01*
X79598571Y26459715D01*
X79598571Y27174000D01*
X79455714Y27745429D01*
X79312857Y28031143D01*
X79170000Y28174000D01*
X78884285Y28316858D01*
X102312857Y23486858D02*
X101741428Y23486858D01*
X101455714Y23344000D01*
X101170000Y23058286D01*
X101027142Y22486858D01*
X101027142Y21486858D01*
X101170000Y20915429D01*
X101455714Y20629715D01*
X101741428Y20486858D01*
X102312857Y20486858D01*
X102598571Y20629715D01*
X102884285Y20915429D01*
X103027142Y21486858D01*
X103027142Y22486858D01*
X102884285Y23058286D01*
X102598571Y23344000D01*
X102312857Y23486858D01*
X99741428Y20486858D02*
X99741428Y22486858D01*
X99741428Y21915429D02*
X99598571Y22201143D01*
X99455714Y22344000D01*
X99170000Y22486858D01*
X98884285Y22486858D01*
X97884285Y20486858D02*
X97884285Y22486858D01*
X97884285Y23486858D02*
X98027142Y23344000D01*
X97884285Y23201143D01*
X97741428Y23344000D01*
X97884285Y23486858D01*
X97884285Y23201143D01*
X96027142Y20486858D02*
X96312857Y20629715D01*
X96455714Y20772572D01*
X96598571Y21058286D01*
X96598571Y21915429D01*
X96455714Y22201143D01*
X96312857Y22344000D01*
X96027142Y22486858D01*
X95598571Y22486858D01*
X95312857Y22344000D01*
X95170000Y22201143D01*
X95027142Y21915429D01*
X95027142Y21058286D01*
X95170000Y20772572D01*
X95312857Y20629715D01*
X95598571Y20486858D01*
X96027142Y20486858D01*
X93741428Y22486858D02*
X93741428Y20486858D01*
X93741428Y22201143D02*
X93598571Y22344000D01*
X93312857Y22486858D01*
X92884285Y22486858D01*
X92598571Y22344000D01*
X92455714Y22058286D01*
X92455714Y20486858D01*
X88884285Y20629715D02*
X88455714Y20486858D01*
X87741428Y20486858D01*
X87455714Y20629715D01*
X87312857Y20772572D01*
X87170000Y21058286D01*
X87170000Y21344000D01*
X87312857Y21629715D01*
X87455714Y21772572D01*
X87741428Y21915429D01*
X88312857Y22058286D01*
X88598571Y22201143D01*
X88741428Y22344000D01*
X88884285Y22629715D01*
X88884285Y22915429D01*
X88741428Y23201143D01*
X88598571Y23344000D01*
X88312857Y23486858D01*
X87598571Y23486858D01*
X87170000Y23344000D01*
X84741428Y20629715D02*
X85027142Y20486858D01*
X85598571Y20486858D01*
X85884285Y20629715D01*
X86027142Y20915429D01*
X86027142Y22058286D01*
X85884285Y22344000D01*
X85598571Y22486858D01*
X85027142Y22486858D01*
X84741428Y22344000D01*
X84598571Y22058286D01*
X84598571Y21772572D01*
X86027142Y21486858D01*
X83312857Y20486858D02*
X83312857Y22486858D01*
X83312857Y21915429D02*
X83170000Y22201143D01*
X83027142Y22344000D01*
X82741428Y22486858D01*
X82455714Y22486858D01*
X80170000Y22486858D02*
X80170000Y20486858D01*
X81455714Y22486858D02*
X81455714Y20915429D01*
X81312857Y20629715D01*
X81027142Y20486858D01*
X80598571Y20486858D01*
X80312857Y20629715D01*
X80170000Y20772572D01*
X78741428Y22486858D02*
X78741428Y19486858D01*
X78741428Y22344000D02*
X78455714Y22486858D01*
X77884285Y22486858D01*
X77598571Y22344000D01*
X77455714Y22201143D01*
X77312857Y21915429D01*
X77312857Y21058286D01*
X77455714Y20772572D01*
X77598571Y20629715D01*
X77884285Y20486858D01*
X78455714Y20486858D01*
X78741428Y20629715D01*
X124741428Y15656858D02*
X124741428Y18656858D01*
X123455714Y15656858D02*
X123455714Y17228286D01*
X123598571Y17514000D01*
X123884285Y17656858D01*
X124312857Y17656858D01*
X124598571Y17514000D01*
X124741428Y17371143D01*
X122455714Y17656858D02*
X121312857Y17656858D01*
X122027142Y18656858D02*
X122027142Y16085429D01*
X121884285Y15799715D01*
X121598571Y15656858D01*
X121312857Y15656858D01*
X120741428Y17656858D02*
X119598571Y17656858D01*
X120312857Y18656858D02*
X120312857Y16085429D01*
X120170000Y15799715D01*
X119884285Y15656858D01*
X119598571Y15656858D01*
X118598571Y17656858D02*
X118598571Y14656858D01*
X118598571Y17514000D02*
X118312857Y17656858D01*
X117741428Y17656858D01*
X117455714Y17514000D01*
X117312857Y17371143D01*
X117170000Y17085429D01*
X117170000Y16228286D01*
X117312857Y15942572D01*
X117455714Y15799715D01*
X117741428Y15656858D01*
X118312857Y15656858D01*
X118598571Y15799715D01*
X116027142Y15799715D02*
X115741428Y15656858D01*
X115170000Y15656858D01*
X114884285Y15799715D01*
X114741428Y16085429D01*
X114741428Y16228286D01*
X114884285Y16514000D01*
X115170000Y16656858D01*
X115598571Y16656858D01*
X115884285Y16799715D01*
X116027142Y17085429D01*
X116027142Y17228286D01*
X115884285Y17514000D01*
X115598571Y17656858D01*
X115170000Y17656858D01*
X114884285Y17514000D01*
X113455714Y15942572D02*
X113312857Y15799715D01*
X113455714Y15656858D01*
X113598571Y15799715D01*
X113455714Y15942572D01*
X113455714Y15656858D01*
X113455714Y17514000D02*
X113312857Y17371143D01*
X113455714Y17228286D01*
X113598571Y17371143D01*
X113455714Y17514000D01*
X113455714Y17228286D01*
X109884285Y18799715D02*
X112455714Y14942572D01*
X106741428Y18799715D02*
X109312857Y14942572D01*
X104455714Y17656858D02*
X104455714Y15228286D01*
X104598571Y14942572D01*
X104741428Y14799715D01*
X105027142Y14656858D01*
X105455714Y14656858D01*
X105741428Y14799715D01*
X104455714Y15799715D02*
X104741428Y15656858D01*
X105312857Y15656858D01*
X105598571Y15799715D01*
X105741428Y15942572D01*
X105884285Y16228286D01*
X105884285Y17085429D01*
X105741428Y17371143D01*
X105598571Y17514000D01*
X105312857Y17656858D01*
X104741428Y17656858D01*
X104455714Y17514000D01*
X103027142Y15656858D02*
X103027142Y17656858D01*
X103027142Y18656858D02*
X103170000Y18514000D01*
X103027142Y18371143D01*
X102884285Y18514000D01*
X103027142Y18656858D01*
X103027142Y18371143D01*
X102027142Y17656858D02*
X100884285Y17656858D01*
X101598571Y18656858D02*
X101598571Y16085429D01*
X101455714Y15799715D01*
X101170000Y15656858D01*
X100884285Y15656858D01*
X99884285Y15656858D02*
X99884285Y18656858D01*
X98598571Y15656858D02*
X98598571Y17228286D01*
X98741428Y17514000D01*
X99027142Y17656858D01*
X99455714Y17656858D01*
X99741428Y17514000D01*
X99884285Y17371143D01*
X95884285Y17656858D02*
X95884285Y15656858D01*
X97170000Y17656858D02*
X97170000Y16085429D01*
X97027142Y15799715D01*
X96741428Y15656858D01*
X96312857Y15656858D01*
X96027142Y15799715D01*
X95884285Y15942572D01*
X94455714Y15656858D02*
X94455714Y18656858D01*
X94455714Y17514000D02*
X94170000Y17656858D01*
X93598571Y17656858D01*
X93312857Y17514000D01*
X93170000Y17371143D01*
X93027142Y17085429D01*
X93027142Y16228286D01*
X93170000Y15942572D01*
X93312857Y15799715D01*
X93598571Y15656858D01*
X94170000Y15656858D01*
X94455714Y15799715D01*
X91741428Y15942572D02*
X91598571Y15799715D01*
X91741428Y15656858D01*
X91884285Y15799715D01*
X91741428Y15942572D01*
X91741428Y15656858D01*
X89027142Y15799715D02*
X89312857Y15656858D01*
X89884285Y15656858D01*
X90170000Y15799715D01*
X90312857Y15942572D01*
X90455714Y16228286D01*
X90455714Y17085429D01*
X90312857Y17371143D01*
X90170000Y17514000D01*
X89884285Y17656858D01*
X89312857Y17656858D01*
X89027142Y17514000D01*
X87312857Y15656858D02*
X87598571Y15799715D01*
X87741428Y15942572D01*
X87884285Y16228286D01*
X87884285Y17085429D01*
X87741428Y17371143D01*
X87598571Y17514000D01*
X87312857Y17656858D01*
X86884285Y17656858D01*
X86598571Y17514000D01*
X86455714Y17371143D01*
X86312857Y17085429D01*
X86312857Y16228286D01*
X86455714Y15942572D01*
X86598571Y15799715D01*
X86884285Y15656858D01*
X87312857Y15656858D01*
X85027142Y15656858D02*
X85027142Y17656858D01*
X85027142Y17371143D02*
X84884285Y17514000D01*
X84598571Y17656858D01*
X84170000Y17656858D01*
X83884285Y17514000D01*
X83741428Y17228286D01*
X83741428Y15656858D01*
X83741428Y17228286D02*
X83598571Y17514000D01*
X83312857Y17656858D01*
X82884285Y17656858D01*
X82598571Y17514000D01*
X82455714Y17228286D01*
X82455714Y15656858D01*
X78884285Y18799715D02*
X81455714Y14942572D01*
X77455714Y15656858D02*
X77741428Y15799715D01*
X77884285Y15942572D01*
X78027142Y16228286D01*
X78027142Y17085429D01*
X77884285Y17371143D01*
X77741428Y17514000D01*
X77455714Y17656858D01*
X77027142Y17656858D01*
X76741428Y17514000D01*
X76598571Y17371143D01*
X76455714Y17085429D01*
X76455714Y16228286D01*
X76598571Y15942572D01*
X76741428Y15799715D01*
X77027142Y15656858D01*
X77455714Y15656858D01*
X75170000Y15656858D02*
X75170000Y17656858D01*
X75170000Y17085429D02*
X75027142Y17371143D01*
X74884285Y17514000D01*
X74598571Y17656858D01*
X74312857Y17656858D01*
X73312857Y15656858D02*
X73312857Y17656858D01*
X73312857Y18656858D02*
X73455714Y18514000D01*
X73312857Y18371143D01*
X73170000Y18514000D01*
X73312857Y18656858D01*
X73312857Y18371143D01*
X71455714Y15656858D02*
X71741428Y15799715D01*
X71884285Y15942572D01*
X72027142Y16228286D01*
X72027142Y17085429D01*
X71884285Y17371143D01*
X71741428Y17514000D01*
X71455714Y17656858D01*
X71027142Y17656858D01*
X70741428Y17514000D01*
X70598571Y17371143D01*
X70455714Y17085429D01*
X70455714Y16228286D01*
X70598571Y15942572D01*
X70741428Y15799715D01*
X71027142Y15656858D01*
X71455714Y15656858D01*
X69170000Y17656858D02*
X69170000Y15656858D01*
X69170000Y17371143D02*
X69027142Y17514000D01*
X68741428Y17656858D01*
X68312857Y17656858D01*
X68027142Y17514000D01*
X67884285Y17228286D01*
X67884285Y15656858D01*
X66598571Y15799715D02*
X66312857Y15656858D01*
X65741428Y15656858D01*
X65455714Y15799715D01*
X65312857Y16085429D01*
X65312857Y16228286D01*
X65455714Y16514000D01*
X65741428Y16656858D01*
X66170000Y16656858D01*
X66455714Y16799715D01*
X66598571Y17085429D01*
X66598571Y17228286D01*
X66455714Y17514000D01*
X66170000Y17656858D01*
X65741428Y17656858D01*
X65455714Y17514000D01*
X62884285Y15799715D02*
X63170000Y15656858D01*
X63741428Y15656858D01*
X64027142Y15799715D01*
X64170000Y16085429D01*
X64170000Y17228286D01*
X64027142Y17514000D01*
X63741428Y17656858D01*
X63170000Y17656858D01*
X62884285Y17514000D01*
X62741428Y17228286D01*
X62741428Y16942572D01*
X64170000Y16656858D01*
X61455714Y15656858D02*
X61455714Y17656858D01*
X61455714Y17085429D02*
X61312857Y17371143D01*
X61170000Y17514000D01*
X60884285Y17656858D01*
X60598571Y17656858D01*
X58312857Y17656858D02*
X58312857Y15656858D01*
X59598571Y17656858D02*
X59598571Y16085429D01*
X59455714Y15799715D01*
X59170000Y15656858D01*
X58741428Y15656858D01*
X58455714Y15799715D01*
X58312857Y15942572D01*
X56884285Y17656858D02*
X56884285Y14656858D01*
X56884285Y17514000D02*
X56598571Y17656858D01*
X56027142Y17656858D01*
X55741428Y17514000D01*
X55598571Y17371143D01*
X55455714Y17085429D01*
X55455714Y16228286D01*
X55598571Y15942572D01*
X55741428Y15799715D01*
X56027142Y15656858D01*
X56598571Y15656858D01*
X56884285Y15799715D01*
%TO.C,kibuzzard-63E1AE7A*%
G36*
X47079532Y29687557D02*
G01*
X45986423Y29849704D01*
X44914471Y30118214D01*
X43874000Y30490501D01*
X42875029Y30962979D01*
X41927180Y31531098D01*
X41039580Y32189388D01*
X40220777Y32931507D01*
X39478658Y33750309D01*
X38820369Y34637909D01*
X38252250Y35585759D01*
X37779772Y36584730D01*
X37407485Y37625201D01*
X37138975Y38697153D01*
X36976828Y39790262D01*
X36922605Y40894000D01*
X36976828Y41997738D01*
X37138975Y43090847D01*
X37236860Y43481625D01*
X51490562Y43481625D01*
X51597718Y42675969D01*
X51919187Y42259250D01*
X52339874Y42124312D01*
X52887562Y42100500D01*
X53919437Y42164000D01*
X53919437Y39973250D01*
X53784499Y39354125D01*
X53276499Y39163625D01*
X52704999Y39139812D01*
X52284312Y38989000D01*
X51919187Y37925375D01*
X52030312Y37119719D01*
X52363687Y36703000D01*
X52784374Y36568063D01*
X53316187Y36544250D01*
X54328659Y36627153D01*
X55164742Y36875861D01*
X55824437Y37290375D01*
X56300687Y37902444D01*
X56308475Y37925375D01*
X59015312Y37925375D01*
X59039124Y37377688D01*
X59189937Y36957000D01*
X59598718Y36647437D01*
X60412312Y36544250D01*
X61198124Y36647437D01*
X61618812Y36957000D01*
X61769624Y37385625D01*
X61793437Y37957125D01*
X61793437Y40735250D01*
X62158562Y41751250D01*
X63087249Y42116375D01*
X64079437Y41775063D01*
X64571562Y41005125D01*
X64571562Y37925375D01*
X64595374Y37377688D01*
X64746187Y36957000D01*
X65154968Y36647437D01*
X65968562Y36544250D01*
X66774218Y36651406D01*
X67190937Y36972875D01*
X67201317Y37004625D01*
X68619687Y37004625D01*
X68760798Y35866035D01*
X69184131Y34884431D01*
X69889687Y34059812D01*
X70771631Y33438042D01*
X71724131Y33064979D01*
X72747187Y32940625D01*
X73925905Y33087469D01*
X75049062Y33528000D01*
X75870593Y34087594D01*
X76144437Y34591625D01*
X75668187Y35687000D01*
X75199874Y36147375D01*
X74810937Y36274375D01*
X74350562Y36083875D01*
X73556812Y35643344D01*
X72699562Y35496500D01*
X71715312Y35972750D01*
X71334312Y37115750D01*
X71334312Y37592000D01*
X72116155Y36996687D01*
X73255187Y36798250D01*
X74115083Y36933187D01*
X74937937Y37338000D01*
X75622056Y37925375D01*
X77906562Y37925375D01*
X77930374Y37377688D01*
X78081187Y36957000D01*
X78489968Y36647437D01*
X79303562Y36544250D01*
X80109218Y36651406D01*
X80525937Y36972875D01*
X80660874Y37385625D01*
X80684007Y37925375D01*
X81557812Y37925375D01*
X81637187Y37119719D01*
X81875312Y36703000D01*
X82573812Y36536312D01*
X83843812Y36607750D01*
X84851874Y36889531D01*
X85431312Y37417375D01*
X85764687Y38425438D01*
X85875812Y39893875D01*
X85875812Y43751500D01*
X86748937Y43751500D01*
X87002937Y42886313D01*
X87431562Y41846500D01*
X89177812Y37592000D01*
X89495312Y36996687D01*
X89971562Y36607750D01*
X90574812Y36496625D01*
X91281249Y36774437D01*
X91733687Y37338000D01*
X91860687Y37607875D01*
X92021201Y38024153D01*
X92333409Y38849653D01*
X92797312Y40084375D01*
X92993765Y39582328D01*
X93265624Y38838187D01*
X93662499Y37758687D01*
X93773624Y37472937D01*
X93908562Y37211000D01*
X94162562Y36877625D01*
X95035687Y36496625D01*
X95861187Y36774437D01*
X96305687Y37338000D01*
X97699667Y40735250D01*
X99496562Y40735250D01*
X99667218Y39491047D01*
X100179187Y38393687D01*
X100935234Y37504687D01*
X101838124Y36885562D01*
X102832296Y36522422D01*
X103862187Y36401375D01*
X104894062Y36530359D01*
X105894187Y36917312D01*
X106801046Y37556281D01*
X107553124Y38441312D01*
X108059140Y39514859D01*
X108227812Y40719375D01*
X108079645Y41915292D01*
X107635145Y42963042D01*
X106985827Y43751500D01*
X108862812Y43751500D01*
X109164437Y42640250D01*
X110037562Y42037000D01*
X110585249Y42164000D01*
X111275812Y42291000D01*
X112077499Y41989375D01*
X112450562Y41259125D01*
X112450562Y37925375D01*
X112474374Y37377688D01*
X112625187Y36957000D01*
X113053812Y36647437D01*
X113863437Y36544250D01*
X114958812Y36814125D01*
X115244562Y37496750D01*
X115244562Y38735000D01*
X116514562Y38735000D01*
X116959062Y37766625D01*
X117709155Y37162383D01*
X118625937Y36730781D01*
X119709405Y36471820D01*
X120959562Y36385500D01*
X122103554Y36497121D01*
X123170155Y36831984D01*
X124159366Y37390090D01*
X125071187Y38171437D01*
X125835171Y39110543D01*
X126380874Y40141922D01*
X126708296Y41265574D01*
X126817437Y42481500D01*
X126706312Y43691473D01*
X126372937Y44797266D01*
X125817312Y45798879D01*
X125039437Y46696313D01*
X124110749Y47435988D01*
X123102687Y47964328D01*
X122015249Y48281332D01*
X120848437Y48387000D01*
X119622534Y48249417D01*
X118442492Y47836667D01*
X117308312Y47148750D01*
X116879687Y46442313D01*
X117244812Y45545375D01*
X117836155Y44914344D01*
X118371937Y44704000D01*
X119340312Y45140563D01*
X120070562Y45467984D01*
X120927812Y45577125D01*
X122066843Y45364797D01*
X123070937Y44727812D01*
X123773405Y43747531D01*
X124007562Y42505313D01*
X123901728Y41635715D01*
X123584228Y40857840D01*
X123055062Y40171688D01*
X122039062Y39451359D01*
X120896062Y39211250D01*
X120066593Y39282687D01*
X119324437Y39497000D01*
X119324437Y41227375D01*
X120578562Y41227375D01*
X121277062Y41354375D01*
X121546937Y41727437D01*
X121610437Y42394187D01*
X121538999Y43068875D01*
X121277062Y43418125D01*
X120515062Y43561000D01*
X117721062Y43561000D01*
X116673312Y43116500D01*
X116514562Y42227500D01*
X116514562Y38735000D01*
X115244562Y38735000D01*
X115244562Y43529250D01*
X115220749Y44076938D01*
X115085812Y44481750D01*
X114665124Y44803219D01*
X113847562Y44910375D01*
X113073655Y44819094D01*
X112656937Y44545250D01*
X112482312Y44021375D01*
X112252124Y44291250D01*
X111609187Y44719875D01*
X110743999Y44989750D01*
X110116937Y44950063D01*
X109561312Y44815125D01*
X109061249Y44489688D01*
X108862812Y43751500D01*
X106985827Y43751500D01*
X106894312Y43862625D01*
X105962978Y44550542D01*
X104946978Y44963292D01*
X103846312Y45100875D01*
X102747409Y44964174D01*
X101736701Y44554069D01*
X100814187Y43870563D01*
X100082173Y42975389D01*
X99642964Y41930285D01*
X99496562Y40735250D01*
X97699667Y40735250D01*
X98702812Y43180000D01*
X98861562Y43799125D01*
X98635343Y44366656D01*
X97956687Y44799250D01*
X97131187Y45005625D01*
X96615249Y44870688D01*
X96337437Y44600813D01*
X96210437Y44323000D01*
X95965256Y43709167D01*
X95589548Y42714333D01*
X95083312Y41338500D01*
X94146687Y43910250D01*
X93797437Y44465875D01*
X92860812Y44926250D01*
X92043249Y44672250D01*
X91574937Y44164250D01*
X91447937Y43894375D01*
X90991089Y42624375D01*
X90678881Y41777708D01*
X90511312Y41354375D01*
X89542937Y43989625D01*
X89066687Y44751625D01*
X88399937Y45005625D01*
X87764937Y44846875D01*
X87002937Y44350781D01*
X86748937Y43751500D01*
X85875812Y43751500D01*
X85875812Y47450375D01*
X85851999Y47998062D01*
X85717062Y48418750D01*
X85296374Y48740219D01*
X84478812Y48847375D01*
X83692999Y48740219D01*
X83272312Y48418750D01*
X83121499Y47990125D01*
X83097687Y47434500D01*
X83097687Y40084375D01*
X83002437Y39362062D01*
X82581749Y39211250D01*
X82145187Y39187437D01*
X81875312Y39052500D01*
X81557812Y37925375D01*
X80684007Y37925375D01*
X80684687Y37941250D01*
X80684687Y43513375D01*
X80660874Y44061063D01*
X80525937Y44481750D01*
X80105249Y44791313D01*
X79295624Y44893498D01*
X79287687Y44894500D01*
X78208187Y44624625D01*
X77922437Y43942000D01*
X77906562Y43481625D01*
X77906562Y37925375D01*
X75622056Y37925375D01*
X75723749Y38012687D01*
X76363159Y38867292D01*
X76746805Y39811854D01*
X76874687Y40846375D01*
X76745923Y41881778D01*
X76359631Y42828986D01*
X75715812Y43688000D01*
X74918534Y44367097D01*
X74071867Y44774556D01*
X73175812Y44910375D01*
X72191562Y44711938D01*
X71580374Y44346812D01*
X71318437Y44037250D01*
X70992999Y44711938D01*
X70096062Y44942125D01*
X69191187Y44846875D01*
X68786374Y44521438D01*
X68643499Y44116625D01*
X68619687Y43576875D01*
X68619687Y37004625D01*
X67201317Y37004625D01*
X67325874Y37385625D01*
X67349687Y37941250D01*
X67349687Y47418625D01*
X77906562Y47418625D01*
X77930374Y46870938D01*
X78073249Y46458188D01*
X78493937Y46132750D01*
X79295624Y46037500D01*
X80097312Y46132750D01*
X80517999Y46466125D01*
X80660874Y46886813D01*
X80684687Y47434500D01*
X80660874Y47982188D01*
X80525937Y48387000D01*
X80105249Y48708469D01*
X79287687Y48815625D01*
X78485999Y48708469D01*
X78081187Y48387000D01*
X77930374Y47966313D01*
X77906562Y47418625D01*
X67349687Y47418625D01*
X67349687Y47434500D01*
X67325874Y47982188D01*
X67190937Y48387000D01*
X66770249Y48708469D01*
X65952687Y48815625D01*
X65150999Y48708469D01*
X64746187Y48387000D01*
X64595374Y47966313D01*
X64571562Y47418625D01*
X64571562Y43910250D01*
X63710343Y44636531D01*
X62714187Y44878625D01*
X61714944Y44744569D01*
X60833881Y44342403D01*
X60070999Y43672125D01*
X59484506Y42807819D01*
X59132610Y41823569D01*
X59015312Y40719375D01*
X59015312Y37925375D01*
X56308475Y37925375D01*
X56586437Y38743819D01*
X56681687Y39814500D01*
X56681687Y42164000D01*
X57332562Y42116375D01*
X57911999Y42386250D01*
X58142187Y43307000D01*
X58062812Y44251563D01*
X57840562Y44672250D01*
X57205562Y44878625D01*
X56681687Y44815125D01*
X56681687Y46450250D01*
X56657874Y46990000D01*
X56507062Y47371000D01*
X56098280Y47668656D01*
X55284687Y47767875D01*
X54423468Y47621031D01*
X53998812Y47180500D01*
X53919437Y46370875D01*
X53919437Y44815125D01*
X52863749Y44878625D01*
X52323999Y44854813D01*
X51903312Y44704000D01*
X51593749Y44295219D01*
X51490562Y43481625D01*
X37236860Y43481625D01*
X37407485Y44162799D01*
X37779772Y45203270D01*
X38252250Y46202241D01*
X38820369Y47150091D01*
X39478658Y48037691D01*
X40220777Y48856493D01*
X41039580Y49598612D01*
X41927180Y50256902D01*
X42875029Y50825021D01*
X43874000Y51297499D01*
X44914471Y51669786D01*
X45986423Y51938296D01*
X47079532Y52100443D01*
X48183270Y52154667D01*
X130124728Y52154667D01*
X131228467Y52100443D01*
X132321575Y51938296D01*
X133393527Y51669786D01*
X134433999Y51297499D01*
X135432970Y50825021D01*
X136380820Y50256902D01*
X137268420Y49598613D01*
X138087222Y48856494D01*
X138829341Y48037691D01*
X139487631Y47150091D01*
X140055750Y46202242D01*
X140528228Y45203271D01*
X140900515Y44162799D01*
X141169024Y43090847D01*
X141331172Y41997738D01*
X141385395Y40894000D01*
X141331172Y39790262D01*
X141169024Y38697153D01*
X140900515Y37625201D01*
X140528228Y36584729D01*
X140055750Y35585758D01*
X139487631Y34637909D01*
X138829341Y33750309D01*
X138087222Y32931506D01*
X137268420Y32189387D01*
X136380820Y31531098D01*
X135432970Y30962979D01*
X134433999Y30490501D01*
X133393527Y30118214D01*
X132321575Y29849704D01*
X131228467Y29687557D01*
X130124728Y29633333D01*
X48183270Y29633333D01*
X47079532Y29687557D01*
G37*
G36*
X104925812Y41910000D02*
G01*
X105294905Y41419859D01*
X105417937Y40743187D01*
X105290937Y40068500D01*
X104909937Y39584312D01*
X103878062Y39195375D01*
X102830312Y39592250D01*
X102437405Y40084375D01*
X102306437Y40767000D01*
X102429468Y41445656D01*
X102798562Y41925875D01*
X103862187Y42306875D01*
X104925812Y41910000D01*
G37*
G36*
X73779062Y41783000D02*
G01*
X74160062Y40838438D01*
X73755249Y39909750D01*
X72770999Y39497000D01*
X71810562Y39917688D01*
X71429562Y40838438D01*
X71794687Y41775063D01*
X72778937Y42211625D01*
X73779062Y41783000D01*
G37*
D11*
%TO.C,REF\u002A\u002A*%
X169988000Y71526000D02*
X169388000Y71426000D01*
X169588000Y70976000D02*
X171638000Y65376000D01*
X168588000Y68026000D02*
X168588000Y67026000D01*
X169488000Y65726000D02*
X170488000Y65126000D01*
X171688000Y70826000D02*
X170988000Y71226000D01*
X170488000Y71326000D02*
X169888000Y71326000D01*
X171188000Y65126000D02*
X171788000Y65626000D01*
X168588000Y68926000D02*
X168588000Y68026000D01*
X172288000Y66426000D02*
X171888000Y65826000D01*
X169288000Y70626000D02*
X169088000Y69726000D01*
X169938000Y65826000D02*
X170438000Y65576000D01*
X171938000Y66576000D02*
X172188000Y67576000D01*
X170688000Y71326000D02*
X169938000Y71076000D01*
X171888000Y71426000D02*
X171088000Y71926000D01*
X172088000Y70526000D02*
X171688000Y71226000D01*
X172688000Y69926000D02*
X172388000Y70726000D01*
X171438000Y65826000D02*
X171938000Y66576000D01*
X172488000Y69026000D02*
X172088000Y70526000D01*
X170988000Y71226000D02*
X170488000Y71326000D01*
X172788000Y68926000D02*
X172688000Y69926000D01*
X172388000Y67326000D02*
X172488000Y69026000D01*
X170888000Y71626000D02*
X169988000Y71526000D01*
X169188000Y65726000D02*
X169588000Y65326000D01*
X171788000Y65626000D02*
X172588000Y67726000D01*
X169688000Y65626000D02*
X170188000Y65326000D01*
X169938000Y71076000D02*
X169688000Y70576000D01*
X172188000Y65726000D02*
X172588000Y66626000D01*
X170488000Y65126000D02*
X171188000Y65126000D01*
X168988000Y70726000D02*
X168688000Y69926000D01*
X170288000Y65026000D02*
X170788000Y64926000D01*
X169588000Y65326000D02*
X170288000Y65026000D01*
X170788000Y64926000D02*
X171488000Y65126000D01*
X171088000Y71926000D02*
X170288000Y71926000D01*
X170438000Y65576000D02*
X170938000Y65576000D01*
X169388000Y71426000D02*
X168988000Y70726000D01*
X169088000Y69726000D02*
X168988000Y68626000D01*
X172388000Y70726000D02*
X171888000Y71426000D01*
X168988000Y67426000D02*
X169288000Y66526000D01*
X172788000Y67926000D02*
X172788000Y68926000D01*
X171788000Y65826000D02*
X169688000Y71426000D01*
X169888000Y71326000D02*
X169288000Y70626000D01*
X169438000Y66826000D02*
X169938000Y65826000D01*
X169188000Y69326000D02*
X169188000Y68826000D01*
X168588000Y67026000D02*
X168788000Y66526000D01*
X169188000Y68826000D02*
X169188000Y67826000D01*
X168888000Y67226000D02*
X169488000Y65726000D01*
X170288000Y71926000D02*
X169588000Y71526000D01*
X171988000Y66026000D02*
X172388000Y67326000D01*
X168888000Y69826000D02*
X168888000Y68726000D01*
X171938000Y70076000D02*
X171688000Y70826000D01*
X171088000Y65326000D02*
X171988000Y66026000D01*
X172588000Y66626000D02*
X172788000Y67926000D01*
X171488000Y65126000D02*
X172188000Y65726000D01*
X171688000Y71226000D02*
X170888000Y71626000D01*
X168688000Y69926000D02*
X168588000Y68926000D01*
X171638000Y65376000D02*
X171788000Y65826000D01*
X168788000Y66526000D02*
X169188000Y65726000D01*
X172588000Y67726000D02*
X172388000Y70226000D01*
X169588000Y71226000D02*
X168888000Y69826000D01*
X172188000Y69076000D02*
X171938000Y70076000D01*
X172488000Y67126000D02*
X172288000Y66426000D01*
X169588000Y71526000D02*
X169588000Y71226000D01*
X170938000Y65576000D02*
X171438000Y65826000D01*
X169188000Y67826000D02*
X169438000Y66826000D01*
X170188000Y65326000D02*
X171088000Y65326000D01*
X169688000Y70576000D02*
X169188000Y69326000D01*
X172188000Y67576000D02*
X172188000Y69076000D01*
X169288000Y66526000D02*
X169688000Y65626000D01*
X169588000Y70826000D02*
X169288000Y70226000D01*
X168888000Y68726000D02*
X168888000Y67226000D01*
X168988000Y68626000D02*
X168988000Y67426000D01*
X175838000Y68326000D02*
G75*
G03*
X175838000Y68326000I-5200000J0D01*
G01*
X176188000Y68326000D02*
G75*
G03*
X176188000Y68326000I-5500000J0D01*
G01*
X176488216Y68326000D02*
G75*
G03*
X176488216Y68326000I-5800216J0D01*
G01*
G36*
X4619782Y30618316D02*
G01*
X5826911Y30618316D01*
X5826911Y30014752D01*
X4619782Y30014752D01*
X4619782Y28807623D01*
X4016218Y28807623D01*
X4016218Y30014752D01*
X2809089Y30014752D01*
X2809089Y30618073D01*
X3409510Y30621338D01*
X4009931Y30624604D01*
X4013196Y31225024D01*
X4016462Y31825445D01*
X4619782Y31825445D01*
X4619782Y30618316D01*
G37*
D12*
X4619782Y30618316D02*
X5826911Y30618316D01*
X5826911Y30014752D01*
X4619782Y30014752D01*
X4619782Y28807623D01*
X4016218Y28807623D01*
X4016218Y30014752D01*
X2809089Y30014752D01*
X2809089Y30618073D01*
X3409510Y30621338D01*
X4009931Y30624604D01*
X4013196Y31225024D01*
X4016462Y31825445D01*
X4619782Y31825445D01*
X4619782Y30618316D01*
G36*
X4619782Y46901980D02*
G01*
X4016218Y46901980D01*
X4016218Y49919802D01*
X4619782Y49919802D01*
X4619782Y46901980D01*
G37*
X4619782Y46901980D02*
X4016218Y46901980D01*
X4016218Y49919802D01*
X4619782Y49919802D01*
X4619782Y46901980D01*
G36*
X4609073Y40745202D02*
G01*
X4790636Y40696614D01*
X4874607Y40665267D01*
X5030292Y40588275D01*
X5176261Y40489461D01*
X5314705Y40367447D01*
X5391625Y40284555D01*
X5497829Y40141717D01*
X5583503Y39988093D01*
X5648650Y39825977D01*
X5693275Y39657664D01*
X5717379Y39485450D01*
X5720966Y39311628D01*
X5704040Y39138494D01*
X5666604Y38968342D01*
X5608661Y38803467D01*
X5530215Y38646164D01*
X5431268Y38498728D01*
X5311825Y38363453D01*
X5270660Y38324085D01*
X5166478Y38237043D01*
X5055391Y38162807D01*
X4932878Y38098895D01*
X4794421Y38042827D01*
X4635500Y37992120D01*
X4635256Y37991989D01*
X4633290Y37985824D01*
X4631486Y37969974D01*
X4629840Y37943529D01*
X4628343Y37905579D01*
X4626992Y37855215D01*
X4625778Y37791527D01*
X4624697Y37713606D01*
X4623742Y37620541D01*
X4622907Y37511424D01*
X4622186Y37385345D01*
X4621573Y37241394D01*
X4621061Y37078661D01*
X4620645Y36896238D01*
X4620318Y36693214D01*
X4620075Y36468680D01*
X4619908Y36221726D01*
X4619813Y35951443D01*
X4619782Y35656921D01*
X4619782Y33326222D01*
X4773817Y33303583D01*
X4840882Y33292964D01*
X5097620Y33238187D01*
X5348547Y33162489D01*
X5590735Y33067128D01*
X5821255Y32953364D01*
X6037178Y32822453D01*
X6235575Y32675654D01*
X6245921Y32667115D01*
X6328595Y32594593D01*
X6418408Y32509491D01*
X6508585Y32418605D01*
X6592354Y32328737D01*
X6662941Y32246683D01*
X6761269Y32118015D01*
X6901096Y31903696D01*
X7023555Y31675371D01*
X7127154Y31436628D01*
X7210397Y31191053D01*
X7271789Y30942235D01*
X7309837Y30693762D01*
X7313854Y30655549D01*
X7320019Y30597447D01*
X7325233Y30548934D01*
X7328670Y30517722D01*
X7330474Y30495614D01*
X7332155Y30437245D01*
X7331745Y30361993D01*
X7329484Y30275196D01*
X7325614Y30182193D01*
X7320373Y30088322D01*
X7314003Y29998923D01*
X7306743Y29919334D01*
X7298834Y29854893D01*
X7250574Y29598566D01*
X7177355Y29334626D01*
X7081787Y29081925D01*
X6963671Y28839936D01*
X6822804Y28608134D01*
X6760980Y28519580D01*
X6593370Y28309668D01*
X6408501Y28117597D01*
X6207311Y27943998D01*
X5990735Y27789499D01*
X5759710Y27654731D01*
X5515173Y27540324D01*
X5258062Y27446908D01*
X4989311Y27375113D01*
X4819257Y27343050D01*
X4563057Y27314030D01*
X4300526Y27305843D01*
X4036125Y27318398D01*
X3774313Y27351602D01*
X3519549Y27405364D01*
X3305869Y27468620D01*
X3053623Y27566532D01*
X2812838Y27686245D01*
X2584754Y27826979D01*
X2370612Y27987957D01*
X2171650Y28168399D01*
X1989108Y28367524D01*
X1854007Y28543370D01*
X1712776Y28764145D01*
X1590654Y28998897D01*
X1488554Y29245379D01*
X1407392Y29501342D01*
X1348082Y29764538D01*
X1311539Y30032719D01*
X1307561Y30085976D01*
X1303352Y30195143D01*
X1302648Y30312023D01*
X1966048Y30312023D01*
X1978149Y30078604D01*
X2011255Y29848205D01*
X2065041Y29623426D01*
X2139185Y29406868D01*
X2233361Y29201130D01*
X2347246Y29008812D01*
X2405483Y28925455D01*
X2558288Y28736451D01*
X2726387Y28567231D01*
X2909126Y28418192D01*
X3105853Y28289734D01*
X3315915Y28182254D01*
X3538657Y28096150D01*
X3773427Y28031821D01*
X4019572Y27989664D01*
X4112927Y27981665D01*
X4227030Y27977969D01*
X4351195Y27978756D01*
X4478418Y27983747D01*
X4601696Y27992662D01*
X4714023Y28005222D01*
X4808396Y28021147D01*
X5012965Y28073169D01*
X5240942Y28153801D01*
X5455342Y28254672D01*
X5655274Y28374757D01*
X5839849Y28513030D01*
X6008176Y28668466D01*
X6159366Y28840038D01*
X6292528Y29026722D01*
X6406772Y29227491D01*
X6501209Y29441321D01*
X6574947Y29667185D01*
X6627097Y29904058D01*
X6656769Y30150914D01*
X6657792Y30165305D01*
X6662021Y30230183D01*
X6665147Y30287104D01*
X6666885Y30330364D01*
X6666950Y30354257D01*
X6665920Y30369896D01*
X6663526Y30409507D01*
X6660962Y30454851D01*
X6649388Y30595115D01*
X6611094Y30833815D01*
X6550520Y31063907D01*
X6468533Y31284060D01*
X6366002Y31492947D01*
X6243794Y31689239D01*
X6102775Y31871607D01*
X5943814Y32038723D01*
X5767778Y32189258D01*
X5575535Y32321884D01*
X5367951Y32435272D01*
X5240297Y32492306D01*
X5021923Y32570020D01*
X4797902Y32624801D01*
X4565590Y32657239D01*
X4322344Y32667920D01*
X4295316Y32667808D01*
X4215106Y32666343D01*
X4136586Y32663451D01*
X4067574Y32659468D01*
X4015888Y32654730D01*
X3982582Y32650383D01*
X3742637Y32605444D01*
X3512701Y32538388D01*
X3293947Y32450164D01*
X3087549Y32341719D01*
X2894681Y32214004D01*
X2716517Y32067966D01*
X2554231Y31904554D01*
X2408996Y31724717D01*
X2281986Y31529402D01*
X2174375Y31319560D01*
X2087337Y31096138D01*
X2059007Y31004402D01*
X2006153Y30777522D01*
X1975274Y30545863D01*
X1966048Y30312023D01*
X1302648Y30312023D01*
X1302620Y30316698D01*
X1305175Y30443160D01*
X1310824Y30567047D01*
X1319374Y30680876D01*
X1330635Y30777164D01*
X1356973Y30929995D01*
X1421888Y31197007D01*
X1508724Y31453427D01*
X1616674Y31698217D01*
X1744930Y31930335D01*
X1892686Y32148741D01*
X2059134Y32352397D01*
X2243468Y32540261D01*
X2444879Y32711293D01*
X2662560Y32864454D01*
X2895705Y32998703D01*
X3143507Y33113000D01*
X3273810Y33161629D01*
X3438886Y33213245D01*
X3610647Y33257672D01*
X3779944Y33292577D01*
X3937629Y33315623D01*
X4016218Y33324251D01*
X4016218Y35694243D01*
X4016179Y35985719D01*
X4016076Y36253070D01*
X4015900Y36497206D01*
X4015647Y36719035D01*
X4015310Y36919467D01*
X4014882Y37099412D01*
X4014359Y37259778D01*
X4013733Y37401476D01*
X4012998Y37525415D01*
X4012150Y37632504D01*
X4011180Y37723652D01*
X4010084Y37799769D01*
X4008854Y37861764D01*
X4007486Y37910547D01*
X4005973Y37947026D01*
X4004308Y37972112D01*
X4002486Y37986714D01*
X4000500Y37991741D01*
X3840432Y38040266D01*
X3685868Y38103459D01*
X3547455Y38179704D01*
X3421370Y38271129D01*
X3303791Y38379865D01*
X3273030Y38412527D01*
X3225642Y38466063D01*
X3183287Y38517436D01*
X3152461Y38558960D01*
X3070631Y38697302D01*
X2997728Y38864004D01*
X2946637Y39037628D01*
X2917292Y39215638D01*
X2909630Y39395498D01*
X2923588Y39574671D01*
X2959103Y39750623D01*
X3016111Y39920818D01*
X3094549Y40082718D01*
X3194353Y40233789D01*
X3289826Y40345555D01*
X3421563Y40466295D01*
X3567108Y40568068D01*
X3724296Y40650244D01*
X3890961Y40712196D01*
X4064936Y40753295D01*
X4244057Y40772915D01*
X4322344Y40771845D01*
X4426158Y40770427D01*
X4609073Y40745202D01*
G37*
X4609073Y40745202D02*
X4790636Y40696614D01*
X4874607Y40665267D01*
X5030292Y40588275D01*
X5176261Y40489461D01*
X5314705Y40367447D01*
X5391625Y40284555D01*
X5497829Y40141717D01*
X5583503Y39988093D01*
X5648650Y39825977D01*
X5693275Y39657664D01*
X5717379Y39485450D01*
X5720966Y39311628D01*
X5704040Y39138494D01*
X5666604Y38968342D01*
X5608661Y38803467D01*
X5530215Y38646164D01*
X5431268Y38498728D01*
X5311825Y38363453D01*
X5270660Y38324085D01*
X5166478Y38237043D01*
X5055391Y38162807D01*
X4932878Y38098895D01*
X4794421Y38042827D01*
X4635500Y37992120D01*
X4635256Y37991989D01*
X4633290Y37985824D01*
X4631486Y37969974D01*
X4629840Y37943529D01*
X4628343Y37905579D01*
X4626992Y37855215D01*
X4625778Y37791527D01*
X4624697Y37713606D01*
X4623742Y37620541D01*
X4622907Y37511424D01*
X4622186Y37385345D01*
X4621573Y37241394D01*
X4621061Y37078661D01*
X4620645Y36896238D01*
X4620318Y36693214D01*
X4620075Y36468680D01*
X4619908Y36221726D01*
X4619813Y35951443D01*
X4619782Y35656921D01*
X4619782Y33326222D01*
X4773817Y33303583D01*
X4840882Y33292964D01*
X5097620Y33238187D01*
X5348547Y33162489D01*
X5590735Y33067128D01*
X5821255Y32953364D01*
X6037178Y32822453D01*
X6235575Y32675654D01*
X6245921Y32667115D01*
X6328595Y32594593D01*
X6418408Y32509491D01*
X6508585Y32418605D01*
X6592354Y32328737D01*
X6662941Y32246683D01*
X6761269Y32118015D01*
X6901096Y31903696D01*
X7023555Y31675371D01*
X7127154Y31436628D01*
X7210397Y31191053D01*
X7271789Y30942235D01*
X7309837Y30693762D01*
X7313854Y30655549D01*
X7320019Y30597447D01*
X7325233Y30548934D01*
X7328670Y30517722D01*
X7330474Y30495614D01*
X7332155Y30437245D01*
X7331745Y30361993D01*
X7329484Y30275196D01*
X7325614Y30182193D01*
X7320373Y30088322D01*
X7314003Y29998923D01*
X7306743Y29919334D01*
X7298834Y29854893D01*
X7250574Y29598566D01*
X7177355Y29334626D01*
X7081787Y29081925D01*
X6963671Y28839936D01*
X6822804Y28608134D01*
X6760980Y28519580D01*
X6593370Y28309668D01*
X6408501Y28117597D01*
X6207311Y27943998D01*
X5990735Y27789499D01*
X5759710Y27654731D01*
X5515173Y27540324D01*
X5258062Y27446908D01*
X4989311Y27375113D01*
X4819257Y27343050D01*
X4563057Y27314030D01*
X4300526Y27305843D01*
X4036125Y27318398D01*
X3774313Y27351602D01*
X3519549Y27405364D01*
X3305869Y27468620D01*
X3053623Y27566532D01*
X2812838Y27686245D01*
X2584754Y27826979D01*
X2370612Y27987957D01*
X2171650Y28168399D01*
X1989108Y28367524D01*
X1854007Y28543370D01*
X1712776Y28764145D01*
X1590654Y28998897D01*
X1488554Y29245379D01*
X1407392Y29501342D01*
X1348082Y29764538D01*
X1311539Y30032719D01*
X1307561Y30085976D01*
X1303352Y30195143D01*
X1302648Y30312023D01*
X1966048Y30312023D01*
X1978149Y30078604D01*
X2011255Y29848205D01*
X2065041Y29623426D01*
X2139185Y29406868D01*
X2233361Y29201130D01*
X2347246Y29008812D01*
X2405483Y28925455D01*
X2558288Y28736451D01*
X2726387Y28567231D01*
X2909126Y28418192D01*
X3105853Y28289734D01*
X3315915Y28182254D01*
X3538657Y28096150D01*
X3773427Y28031821D01*
X4019572Y27989664D01*
X4112927Y27981665D01*
X4227030Y27977969D01*
X4351195Y27978756D01*
X4478418Y27983747D01*
X4601696Y27992662D01*
X4714023Y28005222D01*
X4808396Y28021147D01*
X5012965Y28073169D01*
X5240942Y28153801D01*
X5455342Y28254672D01*
X5655274Y28374757D01*
X5839849Y28513030D01*
X6008176Y28668466D01*
X6159366Y28840038D01*
X6292528Y29026722D01*
X6406772Y29227491D01*
X6501209Y29441321D01*
X6574947Y29667185D01*
X6627097Y29904058D01*
X6656769Y30150914D01*
X6657792Y30165305D01*
X6662021Y30230183D01*
X6665147Y30287104D01*
X6666885Y30330364D01*
X6666950Y30354257D01*
X6665920Y30369896D01*
X6663526Y30409507D01*
X6660962Y30454851D01*
X6649388Y30595115D01*
X6611094Y30833815D01*
X6550520Y31063907D01*
X6468533Y31284060D01*
X6366002Y31492947D01*
X6243794Y31689239D01*
X6102775Y31871607D01*
X5943814Y32038723D01*
X5767778Y32189258D01*
X5575535Y32321884D01*
X5367951Y32435272D01*
X5240297Y32492306D01*
X5021923Y32570020D01*
X4797902Y32624801D01*
X4565590Y32657239D01*
X4322344Y32667920D01*
X4295316Y32667808D01*
X4215106Y32666343D01*
X4136586Y32663451D01*
X4067574Y32659468D01*
X4015888Y32654730D01*
X3982582Y32650383D01*
X3742637Y32605444D01*
X3512701Y32538388D01*
X3293947Y32450164D01*
X3087549Y32341719D01*
X2894681Y32214004D01*
X2716517Y32067966D01*
X2554231Y31904554D01*
X2408996Y31724717D01*
X2281986Y31529402D01*
X2174375Y31319560D01*
X2087337Y31096138D01*
X2059007Y31004402D01*
X2006153Y30777522D01*
X1975274Y30545863D01*
X1966048Y30312023D01*
X1302648Y30312023D01*
X1302620Y30316698D01*
X1305175Y30443160D01*
X1310824Y30567047D01*
X1319374Y30680876D01*
X1330635Y30777164D01*
X1356973Y30929995D01*
X1421888Y31197007D01*
X1508724Y31453427D01*
X1616674Y31698217D01*
X1744930Y31930335D01*
X1892686Y32148741D01*
X2059134Y32352397D01*
X2243468Y32540261D01*
X2444879Y32711293D01*
X2662560Y32864454D01*
X2895705Y32998703D01*
X3143507Y33113000D01*
X3273810Y33161629D01*
X3438886Y33213245D01*
X3610647Y33257672D01*
X3779944Y33292577D01*
X3937629Y33315623D01*
X4016218Y33324251D01*
X4016218Y35694243D01*
X4016179Y35985719D01*
X4016076Y36253070D01*
X4015900Y36497206D01*
X4015647Y36719035D01*
X4015310Y36919467D01*
X4014882Y37099412D01*
X4014359Y37259778D01*
X4013733Y37401476D01*
X4012998Y37525415D01*
X4012150Y37632504D01*
X4011180Y37723652D01*
X4010084Y37799769D01*
X4008854Y37861764D01*
X4007486Y37910547D01*
X4005973Y37947026D01*
X4004308Y37972112D01*
X4002486Y37986714D01*
X4000500Y37991741D01*
X3840432Y38040266D01*
X3685868Y38103459D01*
X3547455Y38179704D01*
X3421370Y38271129D01*
X3303791Y38379865D01*
X3273030Y38412527D01*
X3225642Y38466063D01*
X3183287Y38517436D01*
X3152461Y38558960D01*
X3070631Y38697302D01*
X2997728Y38864004D01*
X2946637Y39037628D01*
X2917292Y39215638D01*
X2909630Y39395498D01*
X2923588Y39574671D01*
X2959103Y39750623D01*
X3016111Y39920818D01*
X3094549Y40082718D01*
X3194353Y40233789D01*
X3289826Y40345555D01*
X3421563Y40466295D01*
X3567108Y40568068D01*
X3724296Y40650244D01*
X3890961Y40712196D01*
X4064936Y40753295D01*
X4244057Y40772915D01*
X4322344Y40771845D01*
X4426158Y40770427D01*
X4609073Y40745202D01*
G36*
X4451958Y51420993D02*
G01*
X4566966Y51417499D01*
X4669052Y51410860D01*
X4764295Y51400408D01*
X4858777Y51385476D01*
X4958579Y51365396D01*
X5069783Y51339501D01*
X5134692Y51322901D01*
X5392689Y51241342D01*
X5639529Y51138188D01*
X5874073Y51014485D01*
X6095183Y50871277D01*
X6301718Y50709612D01*
X6492541Y50530533D01*
X6666512Y50335087D01*
X6822491Y50124320D01*
X6959341Y49899277D01*
X7075922Y49661003D01*
X7171095Y49410544D01*
X7191736Y49345787D01*
X7229783Y49212687D01*
X7261227Y49079697D01*
X7287320Y48940515D01*
X7309313Y48788838D01*
X7328459Y48618366D01*
X7329615Y48596699D01*
X7330398Y48551259D01*
X7330465Y48490133D01*
X7329815Y48418547D01*
X7328449Y48341732D01*
X7326692Y48283844D01*
X7303961Y48000664D01*
X7257973Y47727010D01*
X7188744Y47462929D01*
X7096289Y47208465D01*
X6980626Y46963664D01*
X6841770Y46728571D01*
X6679737Y46503232D01*
X6631056Y46444001D01*
X6517258Y46319861D01*
X6388155Y46194788D01*
X6249369Y46073809D01*
X6106520Y45961951D01*
X5965228Y45864240D01*
X5787234Y45760482D01*
X5583049Y45662014D01*
X5367657Y45576756D01*
X5147042Y45506827D01*
X4927191Y45454346D01*
X4714089Y45421432D01*
X4626070Y45411930D01*
X4619682Y42368492D01*
X4795107Y42340293D01*
X4937067Y42314096D01*
X5194394Y42248205D01*
X5444949Y42159227D01*
X5691868Y42046135D01*
X5929206Y41911180D01*
X6152133Y41756027D01*
X6359403Y41581883D01*
X6549867Y41389904D01*
X6722378Y41181248D01*
X6875788Y40957073D01*
X7008949Y40718534D01*
X7089983Y40545259D01*
X7178401Y40317468D01*
X7245366Y40089254D01*
X7291925Y39856153D01*
X7319123Y39613699D01*
X7328009Y39357425D01*
X7321594Y39155989D01*
X7291804Y38883984D01*
X7238101Y38618819D01*
X7160889Y38361461D01*
X7060570Y38112874D01*
X6937550Y37874024D01*
X6792233Y37645877D01*
X6625021Y37429398D01*
X6436319Y37225552D01*
X6417988Y37207680D01*
X6367043Y37160005D01*
X6310677Y37109486D01*
X6252311Y37058957D01*
X6195364Y37011256D01*
X6143259Y36969218D01*
X6099416Y36935679D01*
X6067257Y36913476D01*
X6050202Y36905445D01*
X6049640Y36905697D01*
X6038410Y36918513D01*
X6015618Y36948459D01*
X5983552Y36992405D01*
X5944501Y37047220D01*
X5900754Y37109777D01*
X5854058Y37177035D01*
X5809166Y37241521D01*
X5769308Y37298610D01*
X5737575Y37343874D01*
X5717058Y37372884D01*
X5675029Y37431660D01*
X5791836Y37525061D01*
X5912741Y37628611D01*
X6082161Y37800737D01*
X6232717Y37988845D01*
X6363446Y38191548D01*
X6473388Y38407461D01*
X6561581Y38635197D01*
X6621717Y38851639D01*
X6662490Y39086569D01*
X6679015Y39322977D01*
X6671523Y39559171D01*
X6640247Y39793460D01*
X6585417Y40024151D01*
X6507266Y40249554D01*
X6406025Y40467975D01*
X6281926Y40677722D01*
X6249096Y40726041D01*
X6102399Y40914638D01*
X5938161Y41085905D01*
X5757658Y41239035D01*
X5562164Y41373224D01*
X5352956Y41487667D01*
X5131307Y41581559D01*
X4898493Y41654095D01*
X4655789Y41704469D01*
X4646126Y41705943D01*
X4547384Y41716722D01*
X4432862Y41723070D01*
X4310636Y41724991D01*
X4188783Y41722486D01*
X4075379Y41715559D01*
X3978499Y41704213D01*
X3919610Y41694266D01*
X3676680Y41638438D01*
X3446108Y41560714D01*
X3227802Y41461049D01*
X3021671Y41339395D01*
X2827624Y41195706D01*
X2645568Y41029937D01*
X2536148Y40912211D01*
X2389424Y40724395D01*
X2263416Y40523994D01*
X2158642Y40312717D01*
X2075618Y40092270D01*
X2014861Y39864363D01*
X1976889Y39630705D01*
X1962217Y39393002D01*
X1971363Y39152963D01*
X2004844Y38912297D01*
X2028970Y38802302D01*
X2094457Y38586504D01*
X2182029Y38375345D01*
X2289818Y38171829D01*
X2415958Y37978964D01*
X2558579Y37799754D01*
X2715816Y37637206D01*
X2885800Y37494325D01*
X2919697Y37466877D01*
X2944301Y37443099D01*
X2953693Y37428598D01*
X2949092Y37418696D01*
X2931833Y37390210D01*
X2903598Y37346502D01*
X2866325Y37290515D01*
X2821954Y37225192D01*
X2772424Y37153476D01*
X2591156Y36893068D01*
X2546088Y36926522D01*
X2424909Y37021142D01*
X2218249Y37206734D01*
X2029958Y37408811D01*
X1860939Y37626162D01*
X1712094Y37857580D01*
X1584325Y38101853D01*
X1478535Y38357772D01*
X1412910Y38562878D01*
X1352983Y38822575D01*
X1316872Y39085744D01*
X1304333Y39350622D01*
X1315125Y39615447D01*
X1349006Y39878455D01*
X1405732Y40137883D01*
X1485062Y40391970D01*
X1586752Y40638951D01*
X1710562Y40877065D01*
X1856247Y41104549D01*
X2008848Y41301781D01*
X2188883Y41496752D01*
X2385697Y41675857D01*
X2597139Y41837601D01*
X2821058Y41980485D01*
X3055303Y42103013D01*
X3297725Y42203687D01*
X3546171Y42281010D01*
X3557221Y42283835D01*
X3619447Y42298534D01*
X3690678Y42313815D01*
X3765329Y42328641D01*
X3837813Y42341976D01*
X3902545Y42352783D01*
X3953940Y42360028D01*
X3986411Y42362673D01*
X4016218Y42362673D01*
X4016218Y45405164D01*
X3987926Y45411000D01*
X3982603Y45412012D01*
X3951363Y45417050D01*
X3905446Y45423751D01*
X3852753Y45430949D01*
X3777854Y45441976D01*
X3531665Y45493789D01*
X3286592Y45568516D01*
X3046154Y45664631D01*
X2813871Y45780609D01*
X2593264Y45914923D01*
X2387852Y46066047D01*
X2363730Y46085956D01*
X2273405Y46166233D01*
X2177408Y46259098D01*
X2082086Y46358030D01*
X1993786Y46456506D01*
X1918851Y46548007D01*
X1783669Y46740362D01*
X1654974Y46961406D01*
X1543906Y47195035D01*
X1452558Y47436823D01*
X1383019Y47682345D01*
X1366862Y47753129D01*
X1345852Y47856493D01*
X1330124Y47953585D01*
X1319015Y48050673D01*
X1311863Y48154027D01*
X1308009Y48269914D01*
X1306788Y48404604D01*
X1306794Y48432632D01*
X1307289Y48492385D01*
X1965919Y48492385D01*
X1969938Y48253323D01*
X1996726Y48015855D01*
X2046267Y47782286D01*
X2118547Y47554917D01*
X2213549Y47336054D01*
X2297481Y47182033D01*
X2427996Y46986236D01*
X2575969Y46807374D01*
X2740152Y46646140D01*
X2919300Y46503224D01*
X3112169Y46379318D01*
X3317512Y46275113D01*
X3534084Y46191300D01*
X3760640Y46128571D01*
X3995934Y46087617D01*
X4238720Y46069129D01*
X4487753Y46073799D01*
X4584157Y46081969D01*
X4823482Y46118851D01*
X5052949Y46177981D01*
X5271511Y46258311D01*
X5478120Y46358794D01*
X5671730Y46478384D01*
X5851294Y46616035D01*
X6015765Y46770700D01*
X6164096Y46941332D01*
X6295241Y47126886D01*
X6408152Y47326314D01*
X6501783Y47538570D01*
X6575086Y47762608D01*
X6627016Y47997380D01*
X6656524Y48241841D01*
X6657841Y48260374D01*
X6662099Y48324617D01*
X6665311Y48379949D01*
X6667184Y48420981D01*
X6667427Y48442326D01*
X6666348Y48458000D01*
X6663769Y48495609D01*
X6660248Y48546993D01*
X6656223Y48605792D01*
X6647924Y48699571D01*
X6610102Y48935495D01*
X6549129Y49164455D01*
X6465901Y49384783D01*
X6361313Y49594812D01*
X6236261Y49792872D01*
X6091641Y49977296D01*
X5928349Y50146416D01*
X5747281Y50298562D01*
X5674040Y50351549D01*
X5473171Y50475653D01*
X5260444Y50577945D01*
X5036899Y50658088D01*
X4803570Y50715747D01*
X4561496Y50750589D01*
X4311713Y50762277D01*
X4278821Y50762070D01*
X4033479Y50747216D01*
X3795652Y50709438D01*
X3566587Y50649501D01*
X3347530Y50568171D01*
X3139731Y50466216D01*
X2944436Y50344402D01*
X2762892Y50203495D01*
X2596348Y50044261D01*
X2446051Y49867469D01*
X2313248Y49673883D01*
X2199188Y49464271D01*
X2177848Y49418494D01*
X2090634Y49196095D01*
X2026252Y48966074D01*
X1984685Y48730736D01*
X1965919Y48492385D01*
X1307289Y48492385D01*
X1307800Y48554078D01*
X1310868Y48657608D01*
X1316593Y48749180D01*
X1325575Y48834751D01*
X1338410Y48920281D01*
X1355696Y49011728D01*
X1378030Y49115049D01*
X1407576Y49234926D01*
X1489403Y49493476D01*
X1592713Y49740432D01*
X1716484Y49974760D01*
X1859693Y50195425D01*
X2021316Y50401395D01*
X2200333Y50591632D01*
X2395719Y50765105D01*
X2606452Y50920777D01*
X2831511Y51057615D01*
X3069871Y51174584D01*
X3320510Y51270651D01*
X3582406Y51344779D01*
X3676820Y51366075D01*
X3777131Y51385845D01*
X3871894Y51400579D01*
X3967237Y51410919D01*
X4069286Y51417509D01*
X4184165Y51420991D01*
X4311713Y51421961D01*
X4318000Y51422008D01*
X4451958Y51420993D01*
G37*
X4451958Y51420993D02*
X4566966Y51417499D01*
X4669052Y51410860D01*
X4764295Y51400408D01*
X4858777Y51385476D01*
X4958579Y51365396D01*
X5069783Y51339501D01*
X5134692Y51322901D01*
X5392689Y51241342D01*
X5639529Y51138188D01*
X5874073Y51014485D01*
X6095183Y50871277D01*
X6301718Y50709612D01*
X6492541Y50530533D01*
X6666512Y50335087D01*
X6822491Y50124320D01*
X6959341Y49899277D01*
X7075922Y49661003D01*
X7171095Y49410544D01*
X7191736Y49345787D01*
X7229783Y49212687D01*
X7261227Y49079697D01*
X7287320Y48940515D01*
X7309313Y48788838D01*
X7328459Y48618366D01*
X7329615Y48596699D01*
X7330398Y48551259D01*
X7330465Y48490133D01*
X7329815Y48418547D01*
X7328449Y48341732D01*
X7326692Y48283844D01*
X7303961Y48000664D01*
X7257973Y47727010D01*
X7188744Y47462929D01*
X7096289Y47208465D01*
X6980626Y46963664D01*
X6841770Y46728571D01*
X6679737Y46503232D01*
X6631056Y46444001D01*
X6517258Y46319861D01*
X6388155Y46194788D01*
X6249369Y46073809D01*
X6106520Y45961951D01*
X5965228Y45864240D01*
X5787234Y45760482D01*
X5583049Y45662014D01*
X5367657Y45576756D01*
X5147042Y45506827D01*
X4927191Y45454346D01*
X4714089Y45421432D01*
X4626070Y45411930D01*
X4619682Y42368492D01*
X4795107Y42340293D01*
X4937067Y42314096D01*
X5194394Y42248205D01*
X5444949Y42159227D01*
X5691868Y42046135D01*
X5929206Y41911180D01*
X6152133Y41756027D01*
X6359403Y41581883D01*
X6549867Y41389904D01*
X6722378Y41181248D01*
X6875788Y40957073D01*
X7008949Y40718534D01*
X7089983Y40545259D01*
X7178401Y40317468D01*
X7245366Y40089254D01*
X7291925Y39856153D01*
X7319123Y39613699D01*
X7328009Y39357425D01*
X7321594Y39155989D01*
X7291804Y38883984D01*
X7238101Y38618819D01*
X7160889Y38361461D01*
X7060570Y38112874D01*
X6937550Y37874024D01*
X6792233Y37645877D01*
X6625021Y37429398D01*
X6436319Y37225552D01*
X6417988Y37207680D01*
X6367043Y37160005D01*
X6310677Y37109486D01*
X6252311Y37058957D01*
X6195364Y37011256D01*
X6143259Y36969218D01*
X6099416Y36935679D01*
X6067257Y36913476D01*
X6050202Y36905445D01*
X6049640Y36905697D01*
X6038410Y36918513D01*
X6015618Y36948459D01*
X5983552Y36992405D01*
X5944501Y37047220D01*
X5900754Y37109777D01*
X5854058Y37177035D01*
X5809166Y37241521D01*
X5769308Y37298610D01*
X5737575Y37343874D01*
X5717058Y37372884D01*
X5675029Y37431660D01*
X5791836Y37525061D01*
X5912741Y37628611D01*
X6082161Y37800737D01*
X6232717Y37988845D01*
X6363446Y38191548D01*
X6473388Y38407461D01*
X6561581Y38635197D01*
X6621717Y38851639D01*
X6662490Y39086569D01*
X6679015Y39322977D01*
X6671523Y39559171D01*
X6640247Y39793460D01*
X6585417Y40024151D01*
X6507266Y40249554D01*
X6406025Y40467975D01*
X6281926Y40677722D01*
X6249096Y40726041D01*
X6102399Y40914638D01*
X5938161Y41085905D01*
X5757658Y41239035D01*
X5562164Y41373224D01*
X5352956Y41487667D01*
X5131307Y41581559D01*
X4898493Y41654095D01*
X4655789Y41704469D01*
X4646126Y41705943D01*
X4547384Y41716722D01*
X4432862Y41723070D01*
X4310636Y41724991D01*
X4188783Y41722486D01*
X4075379Y41715559D01*
X3978499Y41704213D01*
X3919610Y41694266D01*
X3676680Y41638438D01*
X3446108Y41560714D01*
X3227802Y41461049D01*
X3021671Y41339395D01*
X2827624Y41195706D01*
X2645568Y41029937D01*
X2536148Y40912211D01*
X2389424Y40724395D01*
X2263416Y40523994D01*
X2158642Y40312717D01*
X2075618Y40092270D01*
X2014861Y39864363D01*
X1976889Y39630705D01*
X1962217Y39393002D01*
X1971363Y39152963D01*
X2004844Y38912297D01*
X2028970Y38802302D01*
X2094457Y38586504D01*
X2182029Y38375345D01*
X2289818Y38171829D01*
X2415958Y37978964D01*
X2558579Y37799754D01*
X2715816Y37637206D01*
X2885800Y37494325D01*
X2919697Y37466877D01*
X2944301Y37443099D01*
X2953693Y37428598D01*
X2949092Y37418696D01*
X2931833Y37390210D01*
X2903598Y37346502D01*
X2866325Y37290515D01*
X2821954Y37225192D01*
X2772424Y37153476D01*
X2591156Y36893068D01*
X2546088Y36926522D01*
X2424909Y37021142D01*
X2218249Y37206734D01*
X2029958Y37408811D01*
X1860939Y37626162D01*
X1712094Y37857580D01*
X1584325Y38101853D01*
X1478535Y38357772D01*
X1412910Y38562878D01*
X1352983Y38822575D01*
X1316872Y39085744D01*
X1304333Y39350622D01*
X1315125Y39615447D01*
X1349006Y39878455D01*
X1405732Y40137883D01*
X1485062Y40391970D01*
X1586752Y40638951D01*
X1710562Y40877065D01*
X1856247Y41104549D01*
X2008848Y41301781D01*
X2188883Y41496752D01*
X2385697Y41675857D01*
X2597139Y41837601D01*
X2821058Y41980485D01*
X3055303Y42103013D01*
X3297725Y42203687D01*
X3546171Y42281010D01*
X3557221Y42283835D01*
X3619447Y42298534D01*
X3690678Y42313815D01*
X3765329Y42328641D01*
X3837813Y42341976D01*
X3902545Y42352783D01*
X3953940Y42360028D01*
X3986411Y42362673D01*
X4016218Y42362673D01*
X4016218Y45405164D01*
X3987926Y45411000D01*
X3982603Y45412012D01*
X3951363Y45417050D01*
X3905446Y45423751D01*
X3852753Y45430949D01*
X3777854Y45441976D01*
X3531665Y45493789D01*
X3286592Y45568516D01*
X3046154Y45664631D01*
X2813871Y45780609D01*
X2593264Y45914923D01*
X2387852Y46066047D01*
X2363730Y46085956D01*
X2273405Y46166233D01*
X2177408Y46259098D01*
X2082086Y46358030D01*
X1993786Y46456506D01*
X1918851Y46548007D01*
X1783669Y46740362D01*
X1654974Y46961406D01*
X1543906Y47195035D01*
X1452558Y47436823D01*
X1383019Y47682345D01*
X1366862Y47753129D01*
X1345852Y47856493D01*
X1330124Y47953585D01*
X1319015Y48050673D01*
X1311863Y48154027D01*
X1308009Y48269914D01*
X1306788Y48404604D01*
X1306794Y48432632D01*
X1307289Y48492385D01*
X1965919Y48492385D01*
X1969938Y48253323D01*
X1996726Y48015855D01*
X2046267Y47782286D01*
X2118547Y47554917D01*
X2213549Y47336054D01*
X2297481Y47182033D01*
X2427996Y46986236D01*
X2575969Y46807374D01*
X2740152Y46646140D01*
X2919300Y46503224D01*
X3112169Y46379318D01*
X3317512Y46275113D01*
X3534084Y46191300D01*
X3760640Y46128571D01*
X3995934Y46087617D01*
X4238720Y46069129D01*
X4487753Y46073799D01*
X4584157Y46081969D01*
X4823482Y46118851D01*
X5052949Y46177981D01*
X5271511Y46258311D01*
X5478120Y46358794D01*
X5671730Y46478384D01*
X5851294Y46616035D01*
X6015765Y46770700D01*
X6164096Y46941332D01*
X6295241Y47126886D01*
X6408152Y47326314D01*
X6501783Y47538570D01*
X6575086Y47762608D01*
X6627016Y47997380D01*
X6656524Y48241841D01*
X6657841Y48260374D01*
X6662099Y48324617D01*
X6665311Y48379949D01*
X6667184Y48420981D01*
X6667427Y48442326D01*
X6666348Y48458000D01*
X6663769Y48495609D01*
X6660248Y48546993D01*
X6656223Y48605792D01*
X6647924Y48699571D01*
X6610102Y48935495D01*
X6549129Y49164455D01*
X6465901Y49384783D01*
X6361313Y49594812D01*
X6236261Y49792872D01*
X6091641Y49977296D01*
X5928349Y50146416D01*
X5747281Y50298562D01*
X5674040Y50351549D01*
X5473171Y50475653D01*
X5260444Y50577945D01*
X5036899Y50658088D01*
X4803570Y50715747D01*
X4561496Y50750589D01*
X4311713Y50762277D01*
X4278821Y50762070D01*
X4033479Y50747216D01*
X3795652Y50709438D01*
X3566587Y50649501D01*
X3347530Y50568171D01*
X3139731Y50466216D01*
X2944436Y50344402D01*
X2762892Y50203495D01*
X2596348Y50044261D01*
X2446051Y49867469D01*
X2313248Y49673883D01*
X2199188Y49464271D01*
X2177848Y49418494D01*
X2090634Y49196095D01*
X2026252Y48966074D01*
X1984685Y48730736D01*
X1965919Y48492385D01*
X1307289Y48492385D01*
X1307800Y48554078D01*
X1310868Y48657608D01*
X1316593Y48749180D01*
X1325575Y48834751D01*
X1338410Y48920281D01*
X1355696Y49011728D01*
X1378030Y49115049D01*
X1407576Y49234926D01*
X1489403Y49493476D01*
X1592713Y49740432D01*
X1716484Y49974760D01*
X1859693Y50195425D01*
X2021316Y50401395D01*
X2200333Y50591632D01*
X2395719Y50765105D01*
X2606452Y50920777D01*
X2831511Y51057615D01*
X3069871Y51174584D01*
X3320510Y51270651D01*
X3582406Y51344779D01*
X3676820Y51366075D01*
X3777131Y51385845D01*
X3871894Y51400579D01*
X3967237Y51410919D01*
X4069286Y51417509D01*
X4184165Y51420991D01*
X4311713Y51421961D01*
X4318000Y51422008D01*
X4451958Y51420993D01*
G36*
X13407121Y74941650D02*
G01*
X13430186Y74906977D01*
X13481001Y74823676D01*
X13557015Y74696177D01*
X13655674Y74528909D01*
X13774426Y74326301D01*
X13910719Y74092782D01*
X14062001Y73832784D01*
X14225719Y73550734D01*
X14399320Y73251063D01*
X14580253Y72938199D01*
X14765964Y72616573D01*
X14953902Y72290614D01*
X15141515Y71964752D01*
X15326249Y71643416D01*
X15505552Y71331035D01*
X15676872Y71032039D01*
X15837657Y70750857D01*
X15985354Y70491920D01*
X16117411Y70259656D01*
X16231275Y70058495D01*
X16324395Y69892866D01*
X16394217Y69767200D01*
X16438189Y69685925D01*
X16453759Y69653471D01*
X16453774Y69653224D01*
X16428666Y69619168D01*
X16356517Y69561441D01*
X16244834Y69485506D01*
X16101122Y69396825D01*
X16004746Y69340095D01*
X15866065Y69261207D01*
X15769469Y69211491D01*
X15708485Y69188151D01*
X15676640Y69188388D01*
X15667464Y69209406D01*
X15666765Y69212833D01*
X15640537Y69254636D01*
X15584000Y69325721D01*
X15507572Y69412833D01*
X15472311Y69450250D01*
X15362964Y69550976D01*
X15242044Y69637069D01*
X15102365Y69711053D01*
X14936741Y69775454D01*
X14737985Y69832796D01*
X14498910Y69885603D01*
X14212332Y69936400D01*
X13871063Y69987710D01*
X13478269Y70045546D01*
X13098549Y70107654D01*
X12766521Y70169912D01*
X12474764Y70234116D01*
X12215854Y70302062D01*
X11982367Y70375547D01*
X11766881Y70456365D01*
X11561971Y70546313D01*
X11411377Y70620491D01*
X11267530Y70698550D01*
X11153773Y70768236D01*
X11078998Y70824070D01*
X11052098Y70860571D01*
X11052892Y70863260D01*
X11074561Y70906276D01*
X11123690Y70996355D01*
X11197371Y71128456D01*
X11292695Y71297534D01*
X11406753Y71498545D01*
X11536637Y71726448D01*
X11679438Y71976198D01*
X11832248Y72242752D01*
X11992158Y72521066D01*
X12156260Y72806098D01*
X12321644Y73092803D01*
X12485403Y73376140D01*
X12644627Y73651063D01*
X12796408Y73912531D01*
X12937838Y74155499D01*
X13066008Y74374924D01*
X13178009Y74565763D01*
X13270933Y74722972D01*
X13341871Y74841509D01*
X13387915Y74916329D01*
X13406155Y74942390D01*
X13407121Y74941650D01*
G37*
X13407121Y74941650D02*
X13430186Y74906977D01*
X13481001Y74823676D01*
X13557015Y74696177D01*
X13655674Y74528909D01*
X13774426Y74326301D01*
X13910719Y74092782D01*
X14062001Y73832784D01*
X14225719Y73550734D01*
X14399320Y73251063D01*
X14580253Y72938199D01*
X14765964Y72616573D01*
X14953902Y72290614D01*
X15141515Y71964752D01*
X15326249Y71643416D01*
X15505552Y71331035D01*
X15676872Y71032039D01*
X15837657Y70750857D01*
X15985354Y70491920D01*
X16117411Y70259656D01*
X16231275Y70058495D01*
X16324395Y69892866D01*
X16394217Y69767200D01*
X16438189Y69685925D01*
X16453759Y69653471D01*
X16453774Y69653224D01*
X16428666Y69619168D01*
X16356517Y69561441D01*
X16244834Y69485506D01*
X16101122Y69396825D01*
X16004746Y69340095D01*
X15866065Y69261207D01*
X15769469Y69211491D01*
X15708485Y69188151D01*
X15676640Y69188388D01*
X15667464Y69209406D01*
X15666765Y69212833D01*
X15640537Y69254636D01*
X15584000Y69325721D01*
X15507572Y69412833D01*
X15472311Y69450250D01*
X15362964Y69550976D01*
X15242044Y69637069D01*
X15102365Y69711053D01*
X14936741Y69775454D01*
X14737985Y69832796D01*
X14498910Y69885603D01*
X14212332Y69936400D01*
X13871063Y69987710D01*
X13478269Y70045546D01*
X13098549Y70107654D01*
X12766521Y70169912D01*
X12474764Y70234116D01*
X12215854Y70302062D01*
X11982367Y70375547D01*
X11766881Y70456365D01*
X11561971Y70546313D01*
X11411377Y70620491D01*
X11267530Y70698550D01*
X11153773Y70768236D01*
X11078998Y70824070D01*
X11052098Y70860571D01*
X11052892Y70863260D01*
X11074561Y70906276D01*
X11123690Y70996355D01*
X11197371Y71128456D01*
X11292695Y71297534D01*
X11406753Y71498545D01*
X11536637Y71726448D01*
X11679438Y71976198D01*
X11832248Y72242752D01*
X11992158Y72521066D01*
X12156260Y72806098D01*
X12321644Y73092803D01*
X12485403Y73376140D01*
X12644627Y73651063D01*
X12796408Y73912531D01*
X12937838Y74155499D01*
X13066008Y74374924D01*
X13178009Y74565763D01*
X13270933Y74722972D01*
X13341871Y74841509D01*
X13387915Y74916329D01*
X13406155Y74942390D01*
X13407121Y74941650D01*
G36*
X9881672Y68603274D02*
G01*
X9910047Y68575935D01*
X9992784Y68492561D01*
X10102214Y68379055D01*
X10233021Y68241205D01*
X10379886Y68084802D01*
X10537492Y67915635D01*
X10700521Y67739494D01*
X10863655Y67562168D01*
X11021576Y67389447D01*
X11168966Y67227121D01*
X11300508Y67080980D01*
X11410883Y66956812D01*
X11494773Y66860409D01*
X11546862Y66797559D01*
X11561830Y66774052D01*
X11556693Y66771456D01*
X11507570Y66744043D01*
X11410409Y66688773D01*
X11269304Y66608004D01*
X11088347Y66504090D01*
X10871630Y66379390D01*
X10623248Y66236257D01*
X10347291Y66077050D01*
X10047853Y65904123D01*
X9729026Y65719833D01*
X9394903Y65526536D01*
X9270016Y65454265D01*
X8941767Y65264387D01*
X8630716Y65084572D01*
X8340909Y64917152D01*
X8076391Y64764458D01*
X7841208Y64628822D01*
X7639405Y64512578D01*
X7475027Y64418058D01*
X7352119Y64347593D01*
X7274728Y64303516D01*
X7246898Y64288159D01*
X7248150Y64296337D01*
X7270986Y64343339D01*
X7312987Y64418427D01*
X7338752Y64462872D01*
X7393545Y64557653D01*
X7474174Y64697245D01*
X7578019Y64877111D01*
X7702462Y65092716D01*
X7844886Y65339520D01*
X8002670Y65612988D01*
X8173197Y65908582D01*
X8353848Y66221765D01*
X8542005Y66548000D01*
X8726243Y66867354D01*
X8905360Y67177626D01*
X9073787Y67469176D01*
X9228994Y67737633D01*
X9368451Y67978630D01*
X9489628Y68187796D01*
X9589996Y68360762D01*
X9667025Y68493157D01*
X9718184Y68580614D01*
X9740944Y68618762D01*
X9787641Y68691597D01*
X9881672Y68603274D01*
G37*
X9881672Y68603274D02*
X9910047Y68575935D01*
X9992784Y68492561D01*
X10102214Y68379055D01*
X10233021Y68241205D01*
X10379886Y68084802D01*
X10537492Y67915635D01*
X10700521Y67739494D01*
X10863655Y67562168D01*
X11021576Y67389447D01*
X11168966Y67227121D01*
X11300508Y67080980D01*
X11410883Y66956812D01*
X11494773Y66860409D01*
X11546862Y66797559D01*
X11561830Y66774052D01*
X11556693Y66771456D01*
X11507570Y66744043D01*
X11410409Y66688773D01*
X11269304Y66608004D01*
X11088347Y66504090D01*
X10871630Y66379390D01*
X10623248Y66236257D01*
X10347291Y66077050D01*
X10047853Y65904123D01*
X9729026Y65719833D01*
X9394903Y65526536D01*
X9270016Y65454265D01*
X8941767Y65264387D01*
X8630716Y65084572D01*
X8340909Y64917152D01*
X8076391Y64764458D01*
X7841208Y64628822D01*
X7639405Y64512578D01*
X7475027Y64418058D01*
X7352119Y64347593D01*
X7274728Y64303516D01*
X7246898Y64288159D01*
X7248150Y64296337D01*
X7270986Y64343339D01*
X7312987Y64418427D01*
X7338752Y64462872D01*
X7393545Y64557653D01*
X7474174Y64697245D01*
X7578019Y64877111D01*
X7702462Y65092716D01*
X7844886Y65339520D01*
X8002670Y65612988D01*
X8173197Y65908582D01*
X8353848Y66221765D01*
X8542005Y66548000D01*
X8726243Y66867354D01*
X8905360Y67177626D01*
X9073787Y67469176D01*
X9228994Y67737633D01*
X9368451Y67978630D01*
X9489628Y68187796D01*
X9589996Y68360762D01*
X9667025Y68493157D01*
X9718184Y68580614D01*
X9740944Y68618762D01*
X9787641Y68691597D01*
X9881672Y68603274D01*
G36*
X17136095Y68495920D02*
G01*
X17147604Y68478750D01*
X17188730Y68411308D01*
X17256359Y68297599D01*
X17347901Y68142063D01*
X17460767Y67949136D01*
X17592368Y67723257D01*
X17740116Y67468864D01*
X17901422Y67190394D01*
X18073696Y66892285D01*
X18254351Y66578975D01*
X18303895Y66492957D01*
X18499800Y66152849D01*
X18697018Y65810491D01*
X18891520Y65472875D01*
X19079277Y65146993D01*
X19256262Y64839836D01*
X19418444Y64558397D01*
X19561796Y64309668D01*
X19682289Y64100640D01*
X19775894Y63938305D01*
X20218061Y63171658D01*
X14018152Y63171658D01*
X13761843Y63171681D01*
X13151000Y63171915D01*
X12558864Y63172396D01*
X11988319Y63173111D01*
X11442247Y63174048D01*
X10923531Y63175193D01*
X10435054Y63176536D01*
X9979699Y63178063D01*
X9560348Y63179762D01*
X9179886Y63181621D01*
X8841194Y63183627D01*
X8547156Y63185769D01*
X8300654Y63188034D01*
X8104572Y63190408D01*
X7961792Y63192882D01*
X7875197Y63195440D01*
X7847671Y63198073D01*
X7868109Y63211392D01*
X7938622Y63253833D01*
X8054443Y63322159D01*
X8210861Y63413658D01*
X8403166Y63525620D01*
X8626646Y63655334D01*
X8876592Y63800092D01*
X9148292Y63957181D01*
X9437036Y64123891D01*
X9738112Y64297513D01*
X10046811Y64475335D01*
X10358421Y64654648D01*
X10668232Y64832741D01*
X10971533Y65006903D01*
X11263613Y65174424D01*
X11539762Y65332594D01*
X11795268Y65478702D01*
X12025422Y65610038D01*
X12225512Y65723891D01*
X12390828Y65817551D01*
X12516659Y65888308D01*
X12598294Y65933452D01*
X12631022Y65950271D01*
X12652379Y65946102D01*
X12716716Y65908183D01*
X12808443Y65837935D01*
X12917480Y65742661D01*
X13015690Y65647287D01*
X13140778Y65517367D01*
X13280737Y65365689D01*
X13428393Y65200604D01*
X13576571Y65030464D01*
X13718097Y64863619D01*
X13845797Y64708422D01*
X13952495Y64573222D01*
X14031018Y64466372D01*
X14074191Y64396222D01*
X14103012Y64344990D01*
X14181287Y64238968D01*
X14281917Y64126175D01*
X14390553Y64021076D01*
X14492848Y63938139D01*
X14574455Y63891828D01*
X14664584Y63881124D01*
X14784853Y63910709D01*
X14899158Y63978547D01*
X14987866Y64075894D01*
X15003227Y64101150D01*
X15022784Y64142513D01*
X15035531Y64192292D01*
X15042285Y64261181D01*
X15043863Y64359876D01*
X15041082Y64499071D01*
X15034762Y64689463D01*
X15030233Y64799596D01*
X15020609Y64973766D01*
X15009251Y65126201D01*
X14997217Y65243502D01*
X14985566Y65312268D01*
X14957358Y65390824D01*
X14873733Y65545520D01*
X14743790Y65728817D01*
X14565941Y65942866D01*
X14338600Y66189820D01*
X14239944Y66293868D01*
X14125876Y66416607D01*
X14031729Y66520670D01*
X13965248Y66597467D01*
X13934178Y66638407D01*
X13930984Y66644908D01*
X13927154Y66672893D01*
X13946290Y66703922D01*
X13996230Y66744681D01*
X14084813Y66801857D01*
X14219876Y66882136D01*
X14334695Y66949156D01*
X14545984Y67071753D01*
X14712342Y67166982D01*
X14839356Y67237934D01*
X14932613Y67287701D01*
X14997701Y67319374D01*
X15040208Y67336046D01*
X15084194Y67354544D01*
X15109903Y67379385D01*
X15112308Y67385244D01*
X15149923Y67417832D01*
X15218670Y67459804D01*
X15327438Y67518379D01*
X15407748Y67443616D01*
X15436115Y67413327D01*
X15502111Y67331013D01*
X15582693Y67221109D01*
X15666365Y67098938D01*
X15844672Y66829022D01*
X15830678Y65429530D01*
X15728787Y65330533D01*
X15694549Y65295241D01*
X15584753Y65136680D01*
X15520661Y64948130D01*
X15498824Y64720439D01*
X15504247Y64598441D01*
X15542522Y64383244D01*
X15612282Y64186834D01*
X15707484Y64029236D01*
X15773590Y63971772D01*
X15891099Y63928125D01*
X16024122Y63923091D01*
X16155632Y63954344D01*
X16268603Y64019560D01*
X16346007Y64116414D01*
X16348540Y64121663D01*
X16395327Y64217549D01*
X16444879Y64317756D01*
X16486945Y64411826D01*
X16547288Y64570379D01*
X16613864Y64765855D01*
X16684359Y64989543D01*
X16756458Y65232731D01*
X16827850Y65486710D01*
X16896220Y65742768D01*
X16959254Y65992196D01*
X17014640Y66226281D01*
X17060064Y66436313D01*
X17093212Y66613582D01*
X17111771Y66749376D01*
X17113428Y66834986D01*
X17109695Y66854435D01*
X17073317Y66952888D01*
X17005814Y67084602D01*
X16913110Y67237669D01*
X16877529Y67292830D01*
X16734565Y67517755D01*
X16613040Y67714456D01*
X16515634Y67878335D01*
X16445029Y68004790D01*
X16403904Y68089220D01*
X16394939Y68127026D01*
X16395977Y68128359D01*
X16433090Y68155590D01*
X16512404Y68205362D01*
X16623053Y68271048D01*
X16754168Y68346023D01*
X16765253Y68352248D01*
X16907615Y68430575D01*
X17006763Y68480527D01*
X17071813Y68505683D01*
X17111885Y68509621D01*
X17136095Y68495920D01*
G37*
X17136095Y68495920D02*
X17147604Y68478750D01*
X17188730Y68411308D01*
X17256359Y68297599D01*
X17347901Y68142063D01*
X17460767Y67949136D01*
X17592368Y67723257D01*
X17740116Y67468864D01*
X17901422Y67190394D01*
X18073696Y66892285D01*
X18254351Y66578975D01*
X18303895Y66492957D01*
X18499800Y66152849D01*
X18697018Y65810491D01*
X18891520Y65472875D01*
X19079277Y65146993D01*
X19256262Y64839836D01*
X19418444Y64558397D01*
X19561796Y64309668D01*
X19682289Y64100640D01*
X19775894Y63938305D01*
X20218061Y63171658D01*
X14018152Y63171658D01*
X13761843Y63171681D01*
X13151000Y63171915D01*
X12558864Y63172396D01*
X11988319Y63173111D01*
X11442247Y63174048D01*
X10923531Y63175193D01*
X10435054Y63176536D01*
X9979699Y63178063D01*
X9560348Y63179762D01*
X9179886Y63181621D01*
X8841194Y63183627D01*
X8547156Y63185769D01*
X8300654Y63188034D01*
X8104572Y63190408D01*
X7961792Y63192882D01*
X7875197Y63195440D01*
X7847671Y63198073D01*
X7868109Y63211392D01*
X7938622Y63253833D01*
X8054443Y63322159D01*
X8210861Y63413658D01*
X8403166Y63525620D01*
X8626646Y63655334D01*
X8876592Y63800092D01*
X9148292Y63957181D01*
X9437036Y64123891D01*
X9738112Y64297513D01*
X10046811Y64475335D01*
X10358421Y64654648D01*
X10668232Y64832741D01*
X10971533Y65006903D01*
X11263613Y65174424D01*
X11539762Y65332594D01*
X11795268Y65478702D01*
X12025422Y65610038D01*
X12225512Y65723891D01*
X12390828Y65817551D01*
X12516659Y65888308D01*
X12598294Y65933452D01*
X12631022Y65950271D01*
X12652379Y65946102D01*
X12716716Y65908183D01*
X12808443Y65837935D01*
X12917480Y65742661D01*
X13015690Y65647287D01*
X13140778Y65517367D01*
X13280737Y65365689D01*
X13428393Y65200604D01*
X13576571Y65030464D01*
X13718097Y64863619D01*
X13845797Y64708422D01*
X13952495Y64573222D01*
X14031018Y64466372D01*
X14074191Y64396222D01*
X14103012Y64344990D01*
X14181287Y64238968D01*
X14281917Y64126175D01*
X14390553Y64021076D01*
X14492848Y63938139D01*
X14574455Y63891828D01*
X14664584Y63881124D01*
X14784853Y63910709D01*
X14899158Y63978547D01*
X14987866Y64075894D01*
X15003227Y64101150D01*
X15022784Y64142513D01*
X15035531Y64192292D01*
X15042285Y64261181D01*
X15043863Y64359876D01*
X15041082Y64499071D01*
X15034762Y64689463D01*
X15030233Y64799596D01*
X15020609Y64973766D01*
X15009251Y65126201D01*
X14997217Y65243502D01*
X14985566Y65312268D01*
X14957358Y65390824D01*
X14873733Y65545520D01*
X14743790Y65728817D01*
X14565941Y65942866D01*
X14338600Y66189820D01*
X14239944Y66293868D01*
X14125876Y66416607D01*
X14031729Y66520670D01*
X13965248Y66597467D01*
X13934178Y66638407D01*
X13930984Y66644908D01*
X13927154Y66672893D01*
X13946290Y66703922D01*
X13996230Y66744681D01*
X14084813Y66801857D01*
X14219876Y66882136D01*
X14334695Y66949156D01*
X14545984Y67071753D01*
X14712342Y67166982D01*
X14839356Y67237934D01*
X14932613Y67287701D01*
X14997701Y67319374D01*
X15040208Y67336046D01*
X15084194Y67354544D01*
X15109903Y67379385D01*
X15112308Y67385244D01*
X15149923Y67417832D01*
X15218670Y67459804D01*
X15327438Y67518379D01*
X15407748Y67443616D01*
X15436115Y67413327D01*
X15502111Y67331013D01*
X15582693Y67221109D01*
X15666365Y67098938D01*
X15844672Y66829022D01*
X15830678Y65429530D01*
X15728787Y65330533D01*
X15694549Y65295241D01*
X15584753Y65136680D01*
X15520661Y64948130D01*
X15498824Y64720439D01*
X15504247Y64598441D01*
X15542522Y64383244D01*
X15612282Y64186834D01*
X15707484Y64029236D01*
X15773590Y63971772D01*
X15891099Y63928125D01*
X16024122Y63923091D01*
X16155632Y63954344D01*
X16268603Y64019560D01*
X16346007Y64116414D01*
X16348540Y64121663D01*
X16395327Y64217549D01*
X16444879Y64317756D01*
X16486945Y64411826D01*
X16547288Y64570379D01*
X16613864Y64765855D01*
X16684359Y64989543D01*
X16756458Y65232731D01*
X16827850Y65486710D01*
X16896220Y65742768D01*
X16959254Y65992196D01*
X17014640Y66226281D01*
X17060064Y66436313D01*
X17093212Y66613582D01*
X17111771Y66749376D01*
X17113428Y66834986D01*
X17109695Y66854435D01*
X17073317Y66952888D01*
X17005814Y67084602D01*
X16913110Y67237669D01*
X16877529Y67292830D01*
X16734565Y67517755D01*
X16613040Y67714456D01*
X16515634Y67878335D01*
X16445029Y68004790D01*
X16403904Y68089220D01*
X16394939Y68127026D01*
X16395977Y68128359D01*
X16433090Y68155590D01*
X16512404Y68205362D01*
X16623053Y68271048D01*
X16754168Y68346023D01*
X16765253Y68352248D01*
X16907615Y68430575D01*
X17006763Y68480527D01*
X17071813Y68505683D01*
X17111885Y68509621D01*
X17136095Y68495920D01*
G36*
X36566735Y7400652D02*
G01*
X36563245Y7218211D01*
X36559005Y7062865D01*
X36553945Y6932356D01*
X36547994Y6824426D01*
X36541080Y6736815D01*
X36533133Y6667267D01*
X36524080Y6613521D01*
X36513852Y6573321D01*
X36502377Y6544406D01*
X36489584Y6524520D01*
X36475402Y6511403D01*
X36459760Y6502797D01*
X36442587Y6496443D01*
X36423812Y6490084D01*
X36403363Y6481460D01*
X36391857Y6477138D01*
X36370752Y6472419D01*
X36339391Y6468095D01*
X36295558Y6464149D01*
X36237034Y6460564D01*
X36161600Y6457322D01*
X36067037Y6454406D01*
X35951127Y6451799D01*
X35811652Y6449484D01*
X35646394Y6447443D01*
X35453133Y6445659D01*
X35229652Y6444114D01*
X34973732Y6442791D01*
X34683154Y6441673D01*
X34355700Y6440742D01*
X33989151Y6439982D01*
X33581290Y6439374D01*
X33129897Y6438902D01*
X32632755Y6438547D01*
X32087644Y6438294D01*
X31492347Y6438124D01*
X30844644Y6438020D01*
X30639389Y6438000D01*
X30005743Y6437987D01*
X29423856Y6438066D01*
X28891535Y6438255D01*
X28406588Y6438568D01*
X27966822Y6439021D01*
X27570047Y6439631D01*
X27214068Y6440413D01*
X26896694Y6441383D01*
X26615734Y6442557D01*
X26368993Y6443951D01*
X26154281Y6445581D01*
X25969406Y6447463D01*
X25812174Y6449613D01*
X25680394Y6452046D01*
X25571873Y6454779D01*
X25484420Y6457827D01*
X25415842Y6461207D01*
X25363946Y6464934D01*
X25326541Y6469024D01*
X25301434Y6473494D01*
X25286434Y6478358D01*
X25281661Y6480523D01*
X25262123Y6487634D01*
X25244206Y6492827D01*
X25227837Y6498364D01*
X25212943Y6506507D01*
X25199453Y6519516D01*
X25187293Y6539654D01*
X25176390Y6569182D01*
X25166673Y6610362D01*
X25158068Y6665456D01*
X25150502Y6736725D01*
X25143904Y6826431D01*
X25138200Y6936836D01*
X25133318Y7070200D01*
X25129185Y7228787D01*
X25125729Y7414857D01*
X25122876Y7630672D01*
X25121940Y7730609D01*
X25842153Y7730609D01*
X25842943Y7721039D01*
X25857430Y7713283D01*
X25890162Y7707151D01*
X25945685Y7702454D01*
X26028548Y7699000D01*
X26143298Y7696600D01*
X26294482Y7695065D01*
X26486647Y7694203D01*
X26724341Y7693826D01*
X27012111Y7693742D01*
X28217548Y7693742D01*
X28013742Y8062452D01*
X28013742Y13415570D01*
X28217548Y13784280D01*
X26062871Y13784280D01*
X26055081Y10950678D01*
X26047291Y8117075D01*
X25970908Y7953945D01*
X25930637Y7873090D01*
X25885036Y7792093D01*
X25850599Y7742279D01*
X25850513Y7742183D01*
X25842153Y7730609D01*
X25121940Y7730609D01*
X25120555Y7878494D01*
X25118693Y8160585D01*
X25117216Y8479205D01*
X25116053Y8836618D01*
X25115131Y9235083D01*
X25114376Y9676864D01*
X25113717Y10164222D01*
X25113081Y10699418D01*
X25112395Y11284713D01*
X25111587Y11922371D01*
X25111482Y11999567D01*
X25110581Y12633183D01*
X25109719Y13214702D01*
X25108960Y13746386D01*
X25108368Y14230498D01*
X25108007Y14669300D01*
X25107940Y15065054D01*
X25108232Y15420025D01*
X25108947Y15736473D01*
X25110147Y16016663D01*
X25111897Y16262856D01*
X25114260Y16477316D01*
X25117302Y16662304D01*
X25121084Y16820084D01*
X25125671Y16952918D01*
X25131127Y17063070D01*
X25137516Y17152801D01*
X25144901Y17224374D01*
X25153346Y17280053D01*
X25162915Y17322099D01*
X25173672Y17352775D01*
X25185681Y17374345D01*
X25199005Y17389070D01*
X25213708Y17399213D01*
X25229855Y17407038D01*
X25247508Y17414806D01*
X25266731Y17424781D01*
X25272356Y17427960D01*
X25357470Y17458727D01*
X25450645Y17471372D01*
X25555678Y17471368D01*
X25557428Y17232394D01*
X25557872Y17204894D01*
X25591256Y16925357D01*
X25676284Y16662339D01*
X25811773Y16418624D01*
X25996543Y16196999D01*
X26095696Y16106607D01*
X26316469Y15956783D01*
X26557353Y15852303D01*
X26811333Y15793224D01*
X27071393Y15779601D01*
X27330517Y15811490D01*
X27581690Y15888948D01*
X27788166Y15996538D01*
X28701998Y15996538D01*
X28822171Y15910079D01*
X28923805Y15828820D01*
X29067016Y15696280D01*
X29229452Y15530170D01*
X29404963Y15336820D01*
X29587398Y15122559D01*
X29634379Y15065262D01*
X29714366Y14966990D01*
X29818921Y14838061D01*
X29944579Y14682779D01*
X30087877Y14505446D01*
X30245350Y14310367D01*
X30413536Y14101843D01*
X30588969Y13884179D01*
X30669435Y13784280D01*
X30768187Y13661677D01*
X30947726Y13438641D01*
X31124121Y13219373D01*
X31293909Y13008178D01*
X31453626Y12809357D01*
X31599808Y12627216D01*
X31728992Y12466055D01*
X31837713Y12330180D01*
X31922508Y12223892D01*
X31979913Y12151496D01*
X32006464Y12117294D01*
X32008655Y12104441D01*
X32001366Y12079996D01*
X31982477Y12041537D01*
X31950103Y11986338D01*
X31902357Y11911669D01*
X31837355Y11814804D01*
X31753212Y11693014D01*
X31648041Y11543570D01*
X31519957Y11363746D01*
X31367075Y11150813D01*
X31187508Y10902043D01*
X30979372Y10614708D01*
X30740782Y10286080D01*
X30550675Y10024496D01*
X30318740Y9705603D01*
X30114722Y9425554D01*
X29936251Y9181240D01*
X29780952Y8969554D01*
X29646454Y8787386D01*
X29530383Y8631630D01*
X29430367Y8499177D01*
X29344034Y8386919D01*
X29269011Y8291749D01*
X29202925Y8210557D01*
X29143404Y8140236D01*
X29088076Y8077678D01*
X29034566Y8019775D01*
X28980504Y7963418D01*
X28923516Y7905500D01*
X28713505Y7693742D01*
X30125236Y7693685D01*
X31536968Y7693628D01*
X31528097Y7864726D01*
X31527667Y7873323D01*
X31525983Y7941723D01*
X31529175Y8007258D01*
X31539378Y8073520D01*
X31558728Y8144097D01*
X31589359Y8222580D01*
X31633407Y8312559D01*
X31693007Y8417622D01*
X31770295Y8541360D01*
X31867405Y8687363D01*
X31986473Y8859220D01*
X32129635Y9060522D01*
X32299025Y9294857D01*
X32496779Y9565817D01*
X32725033Y9876990D01*
X33530732Y10973877D01*
X33537830Y9702068D01*
X33538459Y9583434D01*
X33539569Y9263888D01*
X33539064Y8992093D01*
X33536352Y8762905D01*
X33530837Y8571180D01*
X33521926Y8411775D01*
X33509025Y8279547D01*
X33491540Y8169352D01*
X33468877Y8076047D01*
X33440441Y7994488D01*
X33405640Y7919531D01*
X33363878Y7846032D01*
X33314561Y7768850D01*
X33264987Y7693742D01*
X35841361Y7693742D01*
X35774811Y7782506D01*
X35764389Y7796548D01*
X35681064Y7925250D01*
X35623624Y8055353D01*
X35585905Y8204432D01*
X35561745Y8390059D01*
X35561082Y8398151D01*
X35557576Y8474717D01*
X35554410Y8602465D01*
X35551599Y8778473D01*
X35549156Y8999823D01*
X35547094Y9263596D01*
X35545429Y9566873D01*
X35544172Y9906735D01*
X35543338Y10280262D01*
X35542941Y10684536D01*
X35542994Y11116638D01*
X35543512Y11573647D01*
X35544508Y12052646D01*
X35545562Y12482309D01*
X35546690Y12950006D01*
X35547801Y13368457D01*
X35549033Y13740591D01*
X35550527Y14069342D01*
X35552422Y14357641D01*
X35554857Y14608419D01*
X35557971Y14824607D01*
X35561904Y15009139D01*
X35566796Y15164945D01*
X35572786Y15294957D01*
X35580013Y15402106D01*
X35588616Y15489325D01*
X35598736Y15559545D01*
X35610511Y15615697D01*
X35624081Y15660714D01*
X35639586Y15697526D01*
X35657164Y15729067D01*
X35676955Y15758266D01*
X35699099Y15788056D01*
X35723735Y15821369D01*
X35747564Y15854752D01*
X35793620Y15920757D01*
X35821208Y15962398D01*
X35821874Y15964142D01*
X35812241Y15972017D01*
X35778248Y15978587D01*
X35716111Y15983955D01*
X35622048Y15988220D01*
X35492276Y15991483D01*
X35323014Y15993846D01*
X35110477Y15995409D01*
X34850885Y15996272D01*
X34540453Y15996538D01*
X33239102Y15996538D01*
X33307687Y15915028D01*
X33347437Y15859046D01*
X33413602Y15727050D01*
X33471584Y15562883D01*
X33515838Y15380780D01*
X33518659Y15363492D01*
X33527051Y15272356D01*
X33533407Y15131507D01*
X33537742Y14939970D01*
X33540074Y14696770D01*
X33540420Y14400931D01*
X33538796Y14051478D01*
X33530732Y12884805D01*
X32697721Y13938217D01*
X32673862Y13968391D01*
X32462618Y14235815D01*
X32282273Y14464840D01*
X32129955Y14659358D01*
X32002796Y14823265D01*
X31897923Y14960453D01*
X31812469Y15074819D01*
X31743561Y15170254D01*
X31688331Y15250655D01*
X31643909Y15319914D01*
X31607423Y15381926D01*
X31576004Y15440584D01*
X31546782Y15499784D01*
X31501828Y15604574D01*
X31472788Y15715117D01*
X31465064Y15834354D01*
X31465840Y15996538D01*
X28701998Y15996538D01*
X27788166Y15996538D01*
X27817895Y16012029D01*
X28032118Y16180790D01*
X28091670Y16240286D01*
X28267686Y16460576D01*
X28392584Y16699641D01*
X28467032Y16959024D01*
X28491699Y17240266D01*
X28491699Y17471377D01*
X32412303Y17471377D01*
X32657244Y17471387D01*
X33183446Y17471459D01*
X33658794Y17471510D01*
X34085918Y17471439D01*
X34467445Y17471140D01*
X34806004Y17470509D01*
X35104224Y17469444D01*
X35364733Y17467839D01*
X35590161Y17465591D01*
X35783135Y17462596D01*
X35946284Y17458750D01*
X36082238Y17453950D01*
X36193624Y17448090D01*
X36283071Y17441068D01*
X36353208Y17432779D01*
X36406663Y17423120D01*
X36446065Y17411986D01*
X36474043Y17399274D01*
X36493226Y17384879D01*
X36506241Y17368699D01*
X36515718Y17350628D01*
X36524285Y17330563D01*
X36534570Y17308400D01*
X36534755Y17308038D01*
X36539749Y17293530D01*
X36544330Y17269236D01*
X36548515Y17232916D01*
X36552321Y17182326D01*
X36555767Y17115225D01*
X36558869Y17029371D01*
X36561645Y16922522D01*
X36564113Y16792436D01*
X36566288Y16636872D01*
X36568190Y16453587D01*
X36569836Y16240339D01*
X36571242Y15994887D01*
X36572426Y15714988D01*
X36573406Y15398401D01*
X36574198Y15042884D01*
X36574822Y14646195D01*
X36575292Y14206091D01*
X36575628Y13720332D01*
X36575847Y13186675D01*
X36575965Y12602878D01*
X36576000Y11966699D01*
X36576002Y11841721D01*
X36576062Y11212172D01*
X36576156Y10634562D01*
X36576211Y10106632D01*
X36576156Y9626123D01*
X36575922Y9190777D01*
X36575435Y8798336D01*
X36574625Y8446541D01*
X36573421Y8133133D01*
X36571752Y7855855D01*
X36570283Y7693742D01*
X36569547Y7612447D01*
X36566735Y7400652D01*
G37*
X36566735Y7400652D02*
X36563245Y7218211D01*
X36559005Y7062865D01*
X36553945Y6932356D01*
X36547994Y6824426D01*
X36541080Y6736815D01*
X36533133Y6667267D01*
X36524080Y6613521D01*
X36513852Y6573321D01*
X36502377Y6544406D01*
X36489584Y6524520D01*
X36475402Y6511403D01*
X36459760Y6502797D01*
X36442587Y6496443D01*
X36423812Y6490084D01*
X36403363Y6481460D01*
X36391857Y6477138D01*
X36370752Y6472419D01*
X36339391Y6468095D01*
X36295558Y6464149D01*
X36237034Y6460564D01*
X36161600Y6457322D01*
X36067037Y6454406D01*
X35951127Y6451799D01*
X35811652Y6449484D01*
X35646394Y6447443D01*
X35453133Y6445659D01*
X35229652Y6444114D01*
X34973732Y6442791D01*
X34683154Y6441673D01*
X34355700Y6440742D01*
X33989151Y6439982D01*
X33581290Y6439374D01*
X33129897Y6438902D01*
X32632755Y6438547D01*
X32087644Y6438294D01*
X31492347Y6438124D01*
X30844644Y6438020D01*
X30639389Y6438000D01*
X30005743Y6437987D01*
X29423856Y6438066D01*
X28891535Y6438255D01*
X28406588Y6438568D01*
X27966822Y6439021D01*
X27570047Y6439631D01*
X27214068Y6440413D01*
X26896694Y6441383D01*
X26615734Y6442557D01*
X26368993Y6443951D01*
X26154281Y6445581D01*
X25969406Y6447463D01*
X25812174Y6449613D01*
X25680394Y6452046D01*
X25571873Y6454779D01*
X25484420Y6457827D01*
X25415842Y6461207D01*
X25363946Y6464934D01*
X25326541Y6469024D01*
X25301434Y6473494D01*
X25286434Y6478358D01*
X25281661Y6480523D01*
X25262123Y6487634D01*
X25244206Y6492827D01*
X25227837Y6498364D01*
X25212943Y6506507D01*
X25199453Y6519516D01*
X25187293Y6539654D01*
X25176390Y6569182D01*
X25166673Y6610362D01*
X25158068Y6665456D01*
X25150502Y6736725D01*
X25143904Y6826431D01*
X25138200Y6936836D01*
X25133318Y7070200D01*
X25129185Y7228787D01*
X25125729Y7414857D01*
X25122876Y7630672D01*
X25121940Y7730609D01*
X25842153Y7730609D01*
X25842943Y7721039D01*
X25857430Y7713283D01*
X25890162Y7707151D01*
X25945685Y7702454D01*
X26028548Y7699000D01*
X26143298Y7696600D01*
X26294482Y7695065D01*
X26486647Y7694203D01*
X26724341Y7693826D01*
X27012111Y7693742D01*
X28217548Y7693742D01*
X28013742Y8062452D01*
X28013742Y13415570D01*
X28217548Y13784280D01*
X26062871Y13784280D01*
X26055081Y10950678D01*
X26047291Y8117075D01*
X25970908Y7953945D01*
X25930637Y7873090D01*
X25885036Y7792093D01*
X25850599Y7742279D01*
X25850513Y7742183D01*
X25842153Y7730609D01*
X25121940Y7730609D01*
X25120555Y7878494D01*
X25118693Y8160585D01*
X25117216Y8479205D01*
X25116053Y8836618D01*
X25115131Y9235083D01*
X25114376Y9676864D01*
X25113717Y10164222D01*
X25113081Y10699418D01*
X25112395Y11284713D01*
X25111587Y11922371D01*
X25111482Y11999567D01*
X25110581Y12633183D01*
X25109719Y13214702D01*
X25108960Y13746386D01*
X25108368Y14230498D01*
X25108007Y14669300D01*
X25107940Y15065054D01*
X25108232Y15420025D01*
X25108947Y15736473D01*
X25110147Y16016663D01*
X25111897Y16262856D01*
X25114260Y16477316D01*
X25117302Y16662304D01*
X25121084Y16820084D01*
X25125671Y16952918D01*
X25131127Y17063070D01*
X25137516Y17152801D01*
X25144901Y17224374D01*
X25153346Y17280053D01*
X25162915Y17322099D01*
X25173672Y17352775D01*
X25185681Y17374345D01*
X25199005Y17389070D01*
X25213708Y17399213D01*
X25229855Y17407038D01*
X25247508Y17414806D01*
X25266731Y17424781D01*
X25272356Y17427960D01*
X25357470Y17458727D01*
X25450645Y17471372D01*
X25555678Y17471368D01*
X25557428Y17232394D01*
X25557872Y17204894D01*
X25591256Y16925357D01*
X25676284Y16662339D01*
X25811773Y16418624D01*
X25996543Y16196999D01*
X26095696Y16106607D01*
X26316469Y15956783D01*
X26557353Y15852303D01*
X26811333Y15793224D01*
X27071393Y15779601D01*
X27330517Y15811490D01*
X27581690Y15888948D01*
X27788166Y15996538D01*
X28701998Y15996538D01*
X28822171Y15910079D01*
X28923805Y15828820D01*
X29067016Y15696280D01*
X29229452Y15530170D01*
X29404963Y15336820D01*
X29587398Y15122559D01*
X29634379Y15065262D01*
X29714366Y14966990D01*
X29818921Y14838061D01*
X29944579Y14682779D01*
X30087877Y14505446D01*
X30245350Y14310367D01*
X30413536Y14101843D01*
X30588969Y13884179D01*
X30669435Y13784280D01*
X30768187Y13661677D01*
X30947726Y13438641D01*
X31124121Y13219373D01*
X31293909Y13008178D01*
X31453626Y12809357D01*
X31599808Y12627216D01*
X31728992Y12466055D01*
X31837713Y12330180D01*
X31922508Y12223892D01*
X31979913Y12151496D01*
X32006464Y12117294D01*
X32008655Y12104441D01*
X32001366Y12079996D01*
X31982477Y12041537D01*
X31950103Y11986338D01*
X31902357Y11911669D01*
X31837355Y11814804D01*
X31753212Y11693014D01*
X31648041Y11543570D01*
X31519957Y11363746D01*
X31367075Y11150813D01*
X31187508Y10902043D01*
X30979372Y10614708D01*
X30740782Y10286080D01*
X30550675Y10024496D01*
X30318740Y9705603D01*
X30114722Y9425554D01*
X29936251Y9181240D01*
X29780952Y8969554D01*
X29646454Y8787386D01*
X29530383Y8631630D01*
X29430367Y8499177D01*
X29344034Y8386919D01*
X29269011Y8291749D01*
X29202925Y8210557D01*
X29143404Y8140236D01*
X29088076Y8077678D01*
X29034566Y8019775D01*
X28980504Y7963418D01*
X28923516Y7905500D01*
X28713505Y7693742D01*
X30125236Y7693685D01*
X31536968Y7693628D01*
X31528097Y7864726D01*
X31527667Y7873323D01*
X31525983Y7941723D01*
X31529175Y8007258D01*
X31539378Y8073520D01*
X31558728Y8144097D01*
X31589359Y8222580D01*
X31633407Y8312559D01*
X31693007Y8417622D01*
X31770295Y8541360D01*
X31867405Y8687363D01*
X31986473Y8859220D01*
X32129635Y9060522D01*
X32299025Y9294857D01*
X32496779Y9565817D01*
X32725033Y9876990D01*
X33530732Y10973877D01*
X33537830Y9702068D01*
X33538459Y9583434D01*
X33539569Y9263888D01*
X33539064Y8992093D01*
X33536352Y8762905D01*
X33530837Y8571180D01*
X33521926Y8411775D01*
X33509025Y8279547D01*
X33491540Y8169352D01*
X33468877Y8076047D01*
X33440441Y7994488D01*
X33405640Y7919531D01*
X33363878Y7846032D01*
X33314561Y7768850D01*
X33264987Y7693742D01*
X35841361Y7693742D01*
X35774811Y7782506D01*
X35764389Y7796548D01*
X35681064Y7925250D01*
X35623624Y8055353D01*
X35585905Y8204432D01*
X35561745Y8390059D01*
X35561082Y8398151D01*
X35557576Y8474717D01*
X35554410Y8602465D01*
X35551599Y8778473D01*
X35549156Y8999823D01*
X35547094Y9263596D01*
X35545429Y9566873D01*
X35544172Y9906735D01*
X35543338Y10280262D01*
X35542941Y10684536D01*
X35542994Y11116638D01*
X35543512Y11573647D01*
X35544508Y12052646D01*
X35545562Y12482309D01*
X35546690Y12950006D01*
X35547801Y13368457D01*
X35549033Y13740591D01*
X35550527Y14069342D01*
X35552422Y14357641D01*
X35554857Y14608419D01*
X35557971Y14824607D01*
X35561904Y15009139D01*
X35566796Y15164945D01*
X35572786Y15294957D01*
X35580013Y15402106D01*
X35588616Y15489325D01*
X35598736Y15559545D01*
X35610511Y15615697D01*
X35624081Y15660714D01*
X35639586Y15697526D01*
X35657164Y15729067D01*
X35676955Y15758266D01*
X35699099Y15788056D01*
X35723735Y15821369D01*
X35747564Y15854752D01*
X35793620Y15920757D01*
X35821208Y15962398D01*
X35821874Y15964142D01*
X35812241Y15972017D01*
X35778248Y15978587D01*
X35716111Y15983955D01*
X35622048Y15988220D01*
X35492276Y15991483D01*
X35323014Y15993846D01*
X35110477Y15995409D01*
X34850885Y15996272D01*
X34540453Y15996538D01*
X33239102Y15996538D01*
X33307687Y15915028D01*
X33347437Y15859046D01*
X33413602Y15727050D01*
X33471584Y15562883D01*
X33515838Y15380780D01*
X33518659Y15363492D01*
X33527051Y15272356D01*
X33533407Y15131507D01*
X33537742Y14939970D01*
X33540074Y14696770D01*
X33540420Y14400931D01*
X33538796Y14051478D01*
X33530732Y12884805D01*
X32697721Y13938217D01*
X32673862Y13968391D01*
X32462618Y14235815D01*
X32282273Y14464840D01*
X32129955Y14659358D01*
X32002796Y14823265D01*
X31897923Y14960453D01*
X31812469Y15074819D01*
X31743561Y15170254D01*
X31688331Y15250655D01*
X31643909Y15319914D01*
X31607423Y15381926D01*
X31576004Y15440584D01*
X31546782Y15499784D01*
X31501828Y15604574D01*
X31472788Y15715117D01*
X31465064Y15834354D01*
X31465840Y15996538D01*
X28701998Y15996538D01*
X27788166Y15996538D01*
X27817895Y16012029D01*
X28032118Y16180790D01*
X28091670Y16240286D01*
X28267686Y16460576D01*
X28392584Y16699641D01*
X28467032Y16959024D01*
X28491699Y17240266D01*
X28491699Y17471377D01*
X32412303Y17471377D01*
X32657244Y17471387D01*
X33183446Y17471459D01*
X33658794Y17471510D01*
X34085918Y17471439D01*
X34467445Y17471140D01*
X34806004Y17470509D01*
X35104224Y17469444D01*
X35364733Y17467839D01*
X35590161Y17465591D01*
X35783135Y17462596D01*
X35946284Y17458750D01*
X36082238Y17453950D01*
X36193624Y17448090D01*
X36283071Y17441068D01*
X36353208Y17432779D01*
X36406663Y17423120D01*
X36446065Y17411986D01*
X36474043Y17399274D01*
X36493226Y17384879D01*
X36506241Y17368699D01*
X36515718Y17350628D01*
X36524285Y17330563D01*
X36534570Y17308400D01*
X36534755Y17308038D01*
X36539749Y17293530D01*
X36544330Y17269236D01*
X36548515Y17232916D01*
X36552321Y17182326D01*
X36555767Y17115225D01*
X36558869Y17029371D01*
X36561645Y16922522D01*
X36564113Y16792436D01*
X36566288Y16636872D01*
X36568190Y16453587D01*
X36569836Y16240339D01*
X36571242Y15994887D01*
X36572426Y15714988D01*
X36573406Y15398401D01*
X36574198Y15042884D01*
X36574822Y14646195D01*
X36575292Y14206091D01*
X36575628Y13720332D01*
X36575847Y13186675D01*
X36575965Y12602878D01*
X36576000Y11966699D01*
X36576002Y11841721D01*
X36576062Y11212172D01*
X36576156Y10634562D01*
X36576211Y10106632D01*
X36576156Y9626123D01*
X36575922Y9190777D01*
X36575435Y8798336D01*
X36574625Y8446541D01*
X36573421Y8133133D01*
X36571752Y7855855D01*
X36570283Y7693742D01*
X36569547Y7612447D01*
X36566735Y7400652D01*
G36*
X12804785Y5517067D02*
G01*
X12856458Y5485531D01*
X12909998Y5442177D01*
X12909998Y4141484D01*
X12856458Y4098130D01*
X12793457Y4063025D01*
X12721537Y4061346D01*
X12658379Y4102515D01*
X12650592Y4111887D01*
X12639611Y4130907D01*
X12631159Y4158392D01*
X12624908Y4199614D01*
X12620529Y4259841D01*
X12617695Y4344345D01*
X12616077Y4458396D01*
X12615347Y4607262D01*
X12615176Y4796215D01*
X12615176Y5442177D01*
X12668715Y5485531D01*
X12716353Y5515203D01*
X12762587Y5528884D01*
X12804785Y5517067D01*
G37*
X12804785Y5517067D02*
X12856458Y5485531D01*
X12909998Y5442177D01*
X12909998Y4141484D01*
X12856458Y4098130D01*
X12793457Y4063025D01*
X12721537Y4061346D01*
X12658379Y4102515D01*
X12650592Y4111887D01*
X12639611Y4130907D01*
X12631159Y4158392D01*
X12624908Y4199614D01*
X12620529Y4259841D01*
X12617695Y4344345D01*
X12616077Y4458396D01*
X12615347Y4607262D01*
X12615176Y4796215D01*
X12615176Y5442177D01*
X12668715Y5485531D01*
X12716353Y5515203D01*
X12762587Y5528884D01*
X12804785Y5517067D01*
G36*
X18234687Y9339322D02*
G01*
X18208177Y9134424D01*
X18168175Y8963742D01*
X18104347Y8788136D01*
X17956394Y8498739D01*
X17767279Y8244124D01*
X17538961Y8026026D01*
X17273397Y7846181D01*
X16972546Y7706324D01*
X16638366Y7608189D01*
X16502096Y7586055D01*
X16307368Y7570673D01*
X16095296Y7567213D01*
X15883603Y7575398D01*
X15690009Y7594949D01*
X15532237Y7625586D01*
X15452957Y7649707D01*
X15272900Y7720294D01*
X15089867Y7809911D01*
X14922743Y7908840D01*
X14790411Y8007362D01*
X14788785Y8008784D01*
X14716269Y8070269D01*
X14660477Y8114050D01*
X14633368Y8130731D01*
X14630404Y8126749D01*
X14623698Y8083729D01*
X14619037Y8003493D01*
X14617291Y7898581D01*
X14617291Y7666430D01*
X13593097Y7666430D01*
X13565833Y7666435D01*
X13337168Y7666835D01*
X13127300Y7667830D01*
X12942200Y7669347D01*
X12787839Y7671311D01*
X12670189Y7673649D01*
X12595220Y7676285D01*
X12568904Y7679146D01*
X12569517Y7681646D01*
X12586734Y7718552D01*
X12622825Y7787889D01*
X12671323Y7877157D01*
X12773742Y8062452D01*
X12788760Y9891845D01*
X14726538Y9891845D01*
X14727300Y9747308D01*
X14730991Y9595440D01*
X14738222Y9485667D01*
X14749519Y9410843D01*
X14765409Y9363819D01*
X14785849Y9330240D01*
X14862825Y9238705D01*
X14965963Y9143411D01*
X15079005Y9058504D01*
X15185694Y8998131D01*
X15244888Y8975979D01*
X15381186Y8946486D01*
X15559202Y8931407D01*
X15746887Y8933691D01*
X15925115Y8964706D01*
X16073880Y9028779D01*
X16202589Y9128797D01*
X16238796Y9165792D01*
X16333065Y9291958D01*
X16384070Y9427947D01*
X16399388Y9591580D01*
X16395238Y9678028D01*
X16354199Y9855990D01*
X16267986Y10008738D01*
X16135027Y10137990D01*
X15953754Y10245465D01*
X15722598Y10332882D01*
X15629409Y10355823D01*
X15516593Y10371531D01*
X15374614Y10380254D01*
X15190839Y10383187D01*
X15160986Y10383185D01*
X15023500Y10381507D01*
X14905400Y10377450D01*
X14818430Y10371547D01*
X14774334Y10364330D01*
X14769260Y10361987D01*
X14752854Y10347274D01*
X14741235Y10317708D01*
X14733598Y10265334D01*
X14729140Y10182201D01*
X14727054Y10060356D01*
X14726538Y9891845D01*
X12788760Y9891845D01*
X12789549Y9987936D01*
X12791898Y10268382D01*
X12795185Y10626053D01*
X12798635Y10936563D01*
X12802527Y11204302D01*
X12807139Y11433664D01*
X12812752Y11629038D01*
X12819642Y11794817D01*
X12828089Y11935391D01*
X12838373Y12055153D01*
X12850770Y12158492D01*
X12865561Y12249801D01*
X12883023Y12333471D01*
X12903436Y12413893D01*
X12927079Y12495459D01*
X12954229Y12582559D01*
X13061189Y12855616D01*
X13207666Y13107978D01*
X13390084Y13324038D01*
X13610112Y13504928D01*
X13869420Y13651778D01*
X14169679Y13765717D01*
X14512558Y13847878D01*
X14899728Y13899389D01*
X15035049Y13909632D01*
X15262951Y13917122D01*
X15488838Y13910377D01*
X15723285Y13888262D01*
X15976868Y13849638D01*
X16260162Y13793369D01*
X16583742Y13718317D01*
X16658537Y13700158D01*
X16846367Y13655472D01*
X17024392Y13614327D01*
X17181817Y13579153D01*
X17307846Y13552381D01*
X17391681Y13536441D01*
X17585103Y13504672D01*
X17313176Y12845605D01*
X17245158Y12681051D01*
X17178243Y12519810D01*
X17120830Y12382145D01*
X17075738Y12274790D01*
X17045785Y12204482D01*
X17033789Y12177957D01*
X17031903Y12177577D01*
X16997142Y12189420D01*
X16928789Y12219769D01*
X16839176Y12263222D01*
X16652918Y12347845D01*
X16396615Y12440371D01*
X16134290Y12511228D01*
X15876200Y12558637D01*
X15632606Y12580817D01*
X15413765Y12575990D01*
X15229936Y12542376D01*
X15101636Y12489040D01*
X14955927Y12379738D01*
X14843759Y12231457D01*
X14768343Y12048757D01*
X14732891Y11836202D01*
X14720406Y11640301D01*
X15372128Y11638517D01*
X15591913Y11636674D01*
X15835011Y11630129D01*
X16042683Y11617776D01*
X16225671Y11598415D01*
X16394718Y11570845D01*
X16560566Y11533864D01*
X16733957Y11486273D01*
X16993393Y11395686D01*
X17298543Y11246508D01*
X17566352Y11063779D01*
X17794177Y10850068D01*
X17979377Y10607946D01*
X18119310Y10339983D01*
X18211336Y10048748D01*
X18225748Y9970311D01*
X18244224Y9776166D01*
X18246550Y9591580D01*
X18246953Y9559536D01*
X18234687Y9339322D01*
G37*
X18234687Y9339322D02*
X18208177Y9134424D01*
X18168175Y8963742D01*
X18104347Y8788136D01*
X17956394Y8498739D01*
X17767279Y8244124D01*
X17538961Y8026026D01*
X17273397Y7846181D01*
X16972546Y7706324D01*
X16638366Y7608189D01*
X16502096Y7586055D01*
X16307368Y7570673D01*
X16095296Y7567213D01*
X15883603Y7575398D01*
X15690009Y7594949D01*
X15532237Y7625586D01*
X15452957Y7649707D01*
X15272900Y7720294D01*
X15089867Y7809911D01*
X14922743Y7908840D01*
X14790411Y8007362D01*
X14788785Y8008784D01*
X14716269Y8070269D01*
X14660477Y8114050D01*
X14633368Y8130731D01*
X14630404Y8126749D01*
X14623698Y8083729D01*
X14619037Y8003493D01*
X14617291Y7898581D01*
X14617291Y7666430D01*
X13593097Y7666430D01*
X13565833Y7666435D01*
X13337168Y7666835D01*
X13127300Y7667830D01*
X12942200Y7669347D01*
X12787839Y7671311D01*
X12670189Y7673649D01*
X12595220Y7676285D01*
X12568904Y7679146D01*
X12569517Y7681646D01*
X12586734Y7718552D01*
X12622825Y7787889D01*
X12671323Y7877157D01*
X12773742Y8062452D01*
X12788760Y9891845D01*
X14726538Y9891845D01*
X14727300Y9747308D01*
X14730991Y9595440D01*
X14738222Y9485667D01*
X14749519Y9410843D01*
X14765409Y9363819D01*
X14785849Y9330240D01*
X14862825Y9238705D01*
X14965963Y9143411D01*
X15079005Y9058504D01*
X15185694Y8998131D01*
X15244888Y8975979D01*
X15381186Y8946486D01*
X15559202Y8931407D01*
X15746887Y8933691D01*
X15925115Y8964706D01*
X16073880Y9028779D01*
X16202589Y9128797D01*
X16238796Y9165792D01*
X16333065Y9291958D01*
X16384070Y9427947D01*
X16399388Y9591580D01*
X16395238Y9678028D01*
X16354199Y9855990D01*
X16267986Y10008738D01*
X16135027Y10137990D01*
X15953754Y10245465D01*
X15722598Y10332882D01*
X15629409Y10355823D01*
X15516593Y10371531D01*
X15374614Y10380254D01*
X15190839Y10383187D01*
X15160986Y10383185D01*
X15023500Y10381507D01*
X14905400Y10377450D01*
X14818430Y10371547D01*
X14774334Y10364330D01*
X14769260Y10361987D01*
X14752854Y10347274D01*
X14741235Y10317708D01*
X14733598Y10265334D01*
X14729140Y10182201D01*
X14727054Y10060356D01*
X14726538Y9891845D01*
X12788760Y9891845D01*
X12789549Y9987936D01*
X12791898Y10268382D01*
X12795185Y10626053D01*
X12798635Y10936563D01*
X12802527Y11204302D01*
X12807139Y11433664D01*
X12812752Y11629038D01*
X12819642Y11794817D01*
X12828089Y11935391D01*
X12838373Y12055153D01*
X12850770Y12158492D01*
X12865561Y12249801D01*
X12883023Y12333471D01*
X12903436Y12413893D01*
X12927079Y12495459D01*
X12954229Y12582559D01*
X13061189Y12855616D01*
X13207666Y13107978D01*
X13390084Y13324038D01*
X13610112Y13504928D01*
X13869420Y13651778D01*
X14169679Y13765717D01*
X14512558Y13847878D01*
X14899728Y13899389D01*
X15035049Y13909632D01*
X15262951Y13917122D01*
X15488838Y13910377D01*
X15723285Y13888262D01*
X15976868Y13849638D01*
X16260162Y13793369D01*
X16583742Y13718317D01*
X16658537Y13700158D01*
X16846367Y13655472D01*
X17024392Y13614327D01*
X17181817Y13579153D01*
X17307846Y13552381D01*
X17391681Y13536441D01*
X17585103Y13504672D01*
X17313176Y12845605D01*
X17245158Y12681051D01*
X17178243Y12519810D01*
X17120830Y12382145D01*
X17075738Y12274790D01*
X17045785Y12204482D01*
X17033789Y12177957D01*
X17031903Y12177577D01*
X16997142Y12189420D01*
X16928789Y12219769D01*
X16839176Y12263222D01*
X16652918Y12347845D01*
X16396615Y12440371D01*
X16134290Y12511228D01*
X15876200Y12558637D01*
X15632606Y12580817D01*
X15413765Y12575990D01*
X15229936Y12542376D01*
X15101636Y12489040D01*
X14955927Y12379738D01*
X14843759Y12231457D01*
X14768343Y12048757D01*
X14732891Y11836202D01*
X14720406Y11640301D01*
X15372128Y11638517D01*
X15591913Y11636674D01*
X15835011Y11630129D01*
X16042683Y11617776D01*
X16225671Y11598415D01*
X16394718Y11570845D01*
X16560566Y11533864D01*
X16733957Y11486273D01*
X16993393Y11395686D01*
X17298543Y11246508D01*
X17566352Y11063779D01*
X17794177Y10850068D01*
X17979377Y10607946D01*
X18119310Y10339983D01*
X18211336Y10048748D01*
X18225748Y9970311D01*
X18244224Y9776166D01*
X18246550Y9591580D01*
X18246953Y9559536D01*
X18234687Y9339322D01*
G36*
X30887811Y5528852D02*
G01*
X31042693Y5528466D01*
X31161112Y5527291D01*
X31248675Y5524898D01*
X31310989Y5520855D01*
X31353664Y5514732D01*
X31382305Y5506097D01*
X31402521Y5494522D01*
X31419920Y5479574D01*
X31423505Y5476197D01*
X31438058Y5461052D01*
X31449392Y5442936D01*
X31457911Y5416550D01*
X31464016Y5376597D01*
X31468109Y5317778D01*
X31470593Y5234795D01*
X31471870Y5122349D01*
X31472341Y4975143D01*
X31472408Y4787877D01*
X31472335Y4641649D01*
X31471836Y4484599D01*
X31470557Y4363633D01*
X31468152Y4273474D01*
X31464273Y4208847D01*
X31458571Y4164476D01*
X31450699Y4135084D01*
X31440308Y4115395D01*
X31427051Y4100134D01*
X31420353Y4093752D01*
X31403233Y4081476D01*
X31379122Y4072085D01*
X31342539Y4065194D01*
X31288002Y4060418D01*
X31210032Y4057373D01*
X31103148Y4055675D01*
X30961868Y4054937D01*
X30780712Y4054777D01*
X30696118Y4054801D01*
X30533100Y4055166D01*
X30407558Y4056277D01*
X30314010Y4058518D01*
X30246977Y4062274D01*
X30200978Y4067929D01*
X30170531Y4075867D01*
X30150156Y4086474D01*
X30134373Y4100134D01*
X30104789Y4143526D01*
X30089015Y4202188D01*
X30100062Y4250214D01*
X30134373Y4304241D01*
X30144375Y4313498D01*
X30164013Y4326129D01*
X30192370Y4335420D01*
X30235552Y4341882D01*
X30299666Y4346021D01*
X30390817Y4348348D01*
X30515113Y4349371D01*
X30678658Y4349598D01*
X31177587Y4349598D01*
X31177587Y4667098D01*
X30853794Y4667098D01*
X30781838Y4667390D01*
X30650004Y4670851D01*
X30555100Y4679761D01*
X30491347Y4696042D01*
X30452964Y4721617D01*
X30434173Y4758409D01*
X30429194Y4808340D01*
X30430796Y4849033D01*
X30441347Y4892879D01*
X30467049Y4923719D01*
X30513937Y4943799D01*
X30588044Y4955363D01*
X30695406Y4960655D01*
X30842055Y4961920D01*
X31179850Y4961920D01*
X31173049Y5092322D01*
X31166248Y5222723D01*
X30668603Y5228848D01*
X30542862Y5230613D01*
X30405329Y5233515D01*
X30303066Y5237394D01*
X30230236Y5242718D01*
X30181003Y5249957D01*
X30149532Y5259579D01*
X30129987Y5272050D01*
X30117903Y5284913D01*
X30091769Y5348559D01*
X30098922Y5420250D01*
X30138649Y5482644D01*
X30145181Y5488516D01*
X30163221Y5501276D01*
X30187537Y5511024D01*
X30223710Y5518164D01*
X30277324Y5523100D01*
X30353963Y5526237D01*
X30459210Y5527977D01*
X30598646Y5528725D01*
X30777857Y5528884D01*
X30887811Y5528852D01*
G37*
X30887811Y5528852D02*
X31042693Y5528466D01*
X31161112Y5527291D01*
X31248675Y5524898D01*
X31310989Y5520855D01*
X31353664Y5514732D01*
X31382305Y5506097D01*
X31402521Y5494522D01*
X31419920Y5479574D01*
X31423505Y5476197D01*
X31438058Y5461052D01*
X31449392Y5442936D01*
X31457911Y5416550D01*
X31464016Y5376597D01*
X31468109Y5317778D01*
X31470593Y5234795D01*
X31471870Y5122349D01*
X31472341Y4975143D01*
X31472408Y4787877D01*
X31472335Y4641649D01*
X31471836Y4484599D01*
X31470557Y4363633D01*
X31468152Y4273474D01*
X31464273Y4208847D01*
X31458571Y4164476D01*
X31450699Y4135084D01*
X31440308Y4115395D01*
X31427051Y4100134D01*
X31420353Y4093752D01*
X31403233Y4081476D01*
X31379122Y4072085D01*
X31342539Y4065194D01*
X31288002Y4060418D01*
X31210032Y4057373D01*
X31103148Y4055675D01*
X30961868Y4054937D01*
X30780712Y4054777D01*
X30696118Y4054801D01*
X30533100Y4055166D01*
X30407558Y4056277D01*
X30314010Y4058518D01*
X30246977Y4062274D01*
X30200978Y4067929D01*
X30170531Y4075867D01*
X30150156Y4086474D01*
X30134373Y4100134D01*
X30104789Y4143526D01*
X30089015Y4202188D01*
X30100062Y4250214D01*
X30134373Y4304241D01*
X30144375Y4313498D01*
X30164013Y4326129D01*
X30192370Y4335420D01*
X30235552Y4341882D01*
X30299666Y4346021D01*
X30390817Y4348348D01*
X30515113Y4349371D01*
X30678658Y4349598D01*
X31177587Y4349598D01*
X31177587Y4667098D01*
X30853794Y4667098D01*
X30781838Y4667390D01*
X30650004Y4670851D01*
X30555100Y4679761D01*
X30491347Y4696042D01*
X30452964Y4721617D01*
X30434173Y4758409D01*
X30429194Y4808340D01*
X30430796Y4849033D01*
X30441347Y4892879D01*
X30467049Y4923719D01*
X30513937Y4943799D01*
X30588044Y4955363D01*
X30695406Y4960655D01*
X30842055Y4961920D01*
X31179850Y4961920D01*
X31173049Y5092322D01*
X31166248Y5222723D01*
X30668603Y5228848D01*
X30542862Y5230613D01*
X30405329Y5233515D01*
X30303066Y5237394D01*
X30230236Y5242718D01*
X30181003Y5249957D01*
X30149532Y5259579D01*
X30129987Y5272050D01*
X30117903Y5284913D01*
X30091769Y5348559D01*
X30098922Y5420250D01*
X30138649Y5482644D01*
X30145181Y5488516D01*
X30163221Y5501276D01*
X30187537Y5511024D01*
X30223710Y5518164D01*
X30277324Y5523100D01*
X30353963Y5526237D01*
X30459210Y5527977D01*
X30598646Y5528725D01*
X30777857Y5528884D01*
X30887811Y5528852D01*
G36*
X20995535Y16110040D02*
G01*
X21362552Y16076347D01*
X21703511Y16008397D01*
X22031096Y15903330D01*
X22357987Y15758286D01*
X22681574Y15573096D01*
X23028846Y15320634D01*
X23350885Y15028740D01*
X23640598Y14704640D01*
X23890894Y14355560D01*
X24094683Y13988725D01*
X24113181Y13949482D01*
X24268097Y13570696D01*
X24385811Y13177095D01*
X24467844Y12761158D01*
X24515717Y12315366D01*
X24530951Y11832201D01*
X24512428Y11332733D01*
X24453636Y10840854D01*
X24353662Y10380400D01*
X24211611Y9948105D01*
X24026589Y9540702D01*
X23797701Y9154925D01*
X23582700Y8860195D01*
X23285828Y8528576D01*
X22962252Y8244534D01*
X22612112Y8008161D01*
X22235551Y7819551D01*
X21832709Y7678795D01*
X21403730Y7585988D01*
X21398834Y7585265D01*
X21316223Y7578016D01*
X21191557Y7572640D01*
X21036367Y7569386D01*
X20862177Y7568506D01*
X20680517Y7570251D01*
X20553199Y7572808D01*
X20364297Y7578730D01*
X20212927Y7587209D01*
X20088168Y7599149D01*
X19979105Y7615454D01*
X19874818Y7637031D01*
X19757487Y7664914D01*
X19635074Y7696667D01*
X19524364Y7729977D01*
X19415309Y7768747D01*
X19297861Y7816878D01*
X19161973Y7878271D01*
X18997596Y7956828D01*
X18794683Y8056451D01*
X18233474Y8333799D01*
X18682967Y9072104D01*
X18741814Y9168735D01*
X18847538Y9342200D01*
X18942167Y9497279D01*
X19022243Y9628315D01*
X19084308Y9729652D01*
X19124903Y9795633D01*
X19140570Y9820602D01*
X19144928Y9819856D01*
X19180030Y9795421D01*
X19241699Y9744709D01*
X19320191Y9675588D01*
X19459980Y9556163D01*
X19709534Y9379564D01*
X19951660Y9256453D01*
X20126627Y9194974D01*
X20422571Y9132143D01*
X20713344Y9121006D01*
X20994730Y9160805D01*
X21262512Y9250780D01*
X21512475Y9390172D01*
X21740400Y9578225D01*
X21867226Y9716732D01*
X22045897Y9972922D01*
X22192505Y10270217D01*
X22307749Y10610140D01*
X22392333Y10994214D01*
X22396170Y11018057D01*
X22413899Y11172598D01*
X22427097Y11364611D01*
X22435657Y11580978D01*
X22439473Y11808578D01*
X22438437Y12034291D01*
X22432444Y12244996D01*
X22421386Y12427574D01*
X22405155Y12568903D01*
X22342946Y12889045D01*
X22238271Y13263013D01*
X22106625Y13590416D01*
X21948184Y13871001D01*
X21763124Y14104515D01*
X21551622Y14290704D01*
X21313853Y14429315D01*
X21049993Y14520095D01*
X20991452Y14531362D01*
X20844744Y14546074D01*
X20673293Y14550876D01*
X20496307Y14546033D01*
X20332993Y14531807D01*
X20202560Y14508463D01*
X19985274Y14434132D01*
X19733118Y14298432D01*
X19508594Y14119853D01*
X19468966Y14082235D01*
X19397161Y14015680D01*
X19346412Y13970883D01*
X19325795Y13955982D01*
X19320719Y13963109D01*
X19289475Y14008110D01*
X19233031Y14089822D01*
X19155117Y14202832D01*
X19059461Y14341730D01*
X18949794Y14501105D01*
X18829845Y14675547D01*
X18339226Y15389286D01*
X18448827Y15422124D01*
X18460264Y15425845D01*
X18534713Y15455401D01*
X18642049Y15503061D01*
X18769676Y15563090D01*
X18904999Y15629757D01*
X18963966Y15659233D01*
X19291404Y15811407D01*
X19593200Y15929083D01*
X19880961Y16015271D01*
X20166294Y16072981D01*
X20460807Y16105223D01*
X20776108Y16115008D01*
X20995535Y16110040D01*
G37*
X20995535Y16110040D02*
X21362552Y16076347D01*
X21703511Y16008397D01*
X22031096Y15903330D01*
X22357987Y15758286D01*
X22681574Y15573096D01*
X23028846Y15320634D01*
X23350885Y15028740D01*
X23640598Y14704640D01*
X23890894Y14355560D01*
X24094683Y13988725D01*
X24113181Y13949482D01*
X24268097Y13570696D01*
X24385811Y13177095D01*
X24467844Y12761158D01*
X24515717Y12315366D01*
X24530951Y11832201D01*
X24512428Y11332733D01*
X24453636Y10840854D01*
X24353662Y10380400D01*
X24211611Y9948105D01*
X24026589Y9540702D01*
X23797701Y9154925D01*
X23582700Y8860195D01*
X23285828Y8528576D01*
X22962252Y8244534D01*
X22612112Y8008161D01*
X22235551Y7819551D01*
X21832709Y7678795D01*
X21403730Y7585988D01*
X21398834Y7585265D01*
X21316223Y7578016D01*
X21191557Y7572640D01*
X21036367Y7569386D01*
X20862177Y7568506D01*
X20680517Y7570251D01*
X20553199Y7572808D01*
X20364297Y7578730D01*
X20212927Y7587209D01*
X20088168Y7599149D01*
X19979105Y7615454D01*
X19874818Y7637031D01*
X19757487Y7664914D01*
X19635074Y7696667D01*
X19524364Y7729977D01*
X19415309Y7768747D01*
X19297861Y7816878D01*
X19161973Y7878271D01*
X18997596Y7956828D01*
X18794683Y8056451D01*
X18233474Y8333799D01*
X18682967Y9072104D01*
X18741814Y9168735D01*
X18847538Y9342200D01*
X18942167Y9497279D01*
X19022243Y9628315D01*
X19084308Y9729652D01*
X19124903Y9795633D01*
X19140570Y9820602D01*
X19144928Y9819856D01*
X19180030Y9795421D01*
X19241699Y9744709D01*
X19320191Y9675588D01*
X19459980Y9556163D01*
X19709534Y9379564D01*
X19951660Y9256453D01*
X20126627Y9194974D01*
X20422571Y9132143D01*
X20713344Y9121006D01*
X20994730Y9160805D01*
X21262512Y9250780D01*
X21512475Y9390172D01*
X21740400Y9578225D01*
X21867226Y9716732D01*
X22045897Y9972922D01*
X22192505Y10270217D01*
X22307749Y10610140D01*
X22392333Y10994214D01*
X22396170Y11018057D01*
X22413899Y11172598D01*
X22427097Y11364611D01*
X22435657Y11580978D01*
X22439473Y11808578D01*
X22438437Y12034291D01*
X22432444Y12244996D01*
X22421386Y12427574D01*
X22405155Y12568903D01*
X22342946Y12889045D01*
X22238271Y13263013D01*
X22106625Y13590416D01*
X21948184Y13871001D01*
X21763124Y14104515D01*
X21551622Y14290704D01*
X21313853Y14429315D01*
X21049993Y14520095D01*
X20991452Y14531362D01*
X20844744Y14546074D01*
X20673293Y14550876D01*
X20496307Y14546033D01*
X20332993Y14531807D01*
X20202560Y14508463D01*
X19985274Y14434132D01*
X19733118Y14298432D01*
X19508594Y14119853D01*
X19468966Y14082235D01*
X19397161Y14015680D01*
X19346412Y13970883D01*
X19325795Y13955982D01*
X19320719Y13963109D01*
X19289475Y14008110D01*
X19233031Y14089822D01*
X19155117Y14202832D01*
X19059461Y14341730D01*
X18949794Y14501105D01*
X18829845Y14675547D01*
X18339226Y15389286D01*
X18448827Y15422124D01*
X18460264Y15425845D01*
X18534713Y15455401D01*
X18642049Y15503061D01*
X18769676Y15563090D01*
X18904999Y15629757D01*
X18963966Y15659233D01*
X19291404Y15811407D01*
X19593200Y15929083D01*
X19880961Y16015271D01*
X20166294Y16072981D01*
X20460807Y16105223D01*
X20776108Y16115008D01*
X20995535Y16110040D01*
G36*
X11399262Y5528881D02*
G01*
X11588348Y5528701D01*
X11738042Y5528018D01*
X11853368Y5526528D01*
X11939350Y5523926D01*
X12001010Y5519905D01*
X12043372Y5514160D01*
X12071460Y5506385D01*
X12090298Y5496276D01*
X12104908Y5483527D01*
X12142688Y5417800D01*
X12145594Y5342310D01*
X12112733Y5275536D01*
X12110000Y5272616D01*
X12087494Y5255821D01*
X12053137Y5244661D01*
X11998555Y5238044D01*
X11915378Y5234876D01*
X11795233Y5234063D01*
X11515265Y5234063D01*
X11515265Y4704175D01*
X11515114Y4551842D01*
X11514294Y4417914D01*
X11512321Y4317902D01*
X11508713Y4245747D01*
X11502986Y4195391D01*
X11494657Y4160775D01*
X11483243Y4135842D01*
X11468262Y4114532D01*
X11463660Y4108895D01*
X11401026Y4063408D01*
X11331961Y4060266D01*
X11265801Y4100134D01*
X11251782Y4116358D01*
X11240789Y4137649D01*
X11232713Y4169477D01*
X11227106Y4217644D01*
X11223522Y4287955D01*
X11221514Y4386211D01*
X11220637Y4518218D01*
X11220444Y4689777D01*
X11220444Y5234063D01*
X10927269Y5234063D01*
X10904970Y5234065D01*
X10791430Y5234517D01*
X10713394Y5236805D01*
X10662383Y5242430D01*
X10629915Y5252890D01*
X10607512Y5269688D01*
X10586693Y5294323D01*
X10554857Y5355972D01*
X10561089Y5423835D01*
X10612606Y5489197D01*
X10622532Y5496665D01*
X10643043Y5506380D01*
X10674032Y5513940D01*
X10720481Y5519610D01*
X10787374Y5523655D01*
X10879692Y5526340D01*
X11002419Y5527930D01*
X11160537Y5528690D01*
X11359028Y5528884D01*
X11399262Y5528881D01*
G37*
X11399262Y5528881D02*
X11588348Y5528701D01*
X11738042Y5528018D01*
X11853368Y5526528D01*
X11939350Y5523926D01*
X12001010Y5519905D01*
X12043372Y5514160D01*
X12071460Y5506385D01*
X12090298Y5496276D01*
X12104908Y5483527D01*
X12142688Y5417800D01*
X12145594Y5342310D01*
X12112733Y5275536D01*
X12110000Y5272616D01*
X12087494Y5255821D01*
X12053137Y5244661D01*
X11998555Y5238044D01*
X11915378Y5234876D01*
X11795233Y5234063D01*
X11515265Y5234063D01*
X11515265Y4704175D01*
X11515114Y4551842D01*
X11514294Y4417914D01*
X11512321Y4317902D01*
X11508713Y4245747D01*
X11502986Y4195391D01*
X11494657Y4160775D01*
X11483243Y4135842D01*
X11468262Y4114532D01*
X11463660Y4108895D01*
X11401026Y4063408D01*
X11331961Y4060266D01*
X11265801Y4100134D01*
X11251782Y4116358D01*
X11240789Y4137649D01*
X11232713Y4169477D01*
X11227106Y4217644D01*
X11223522Y4287955D01*
X11221514Y4386211D01*
X11220637Y4518218D01*
X11220444Y4689777D01*
X11220444Y5234063D01*
X10927269Y5234063D01*
X10904970Y5234065D01*
X10791430Y5234517D01*
X10713394Y5236805D01*
X10662383Y5242430D01*
X10629915Y5252890D01*
X10607512Y5269688D01*
X10586693Y5294323D01*
X10554857Y5355972D01*
X10561089Y5423835D01*
X10612606Y5489197D01*
X10622532Y5496665D01*
X10643043Y5506380D01*
X10674032Y5513940D01*
X10720481Y5519610D01*
X10787374Y5523655D01*
X10879692Y5526340D01*
X11002419Y5527930D01*
X11160537Y5528690D01*
X11359028Y5528884D01*
X11399262Y5528881D01*
G36*
X12067782Y10166209D02*
G01*
X12051211Y9943310D01*
X12022582Y9738133D01*
X11980611Y9538555D01*
X11924016Y9332452D01*
X11838194Y9086096D01*
X11680570Y8753528D01*
X11487222Y8455649D01*
X11261108Y8195274D01*
X11005186Y7975220D01*
X10722413Y7798300D01*
X10415747Y7667331D01*
X10088147Y7585127D01*
X10084205Y7584468D01*
X9844789Y7561431D01*
X9581734Y7564506D01*
X9313793Y7591796D01*
X9059726Y7641405D01*
X8838287Y7711439D01*
X8743769Y7754057D01*
X8620669Y7818833D01*
X8494175Y7892920D01*
X8377487Y7968163D01*
X8283803Y8036409D01*
X8226323Y8089502D01*
X8213128Y8104078D01*
X8197397Y8109173D01*
X8186883Y8083878D01*
X8179135Y8020127D01*
X8171699Y7909858D01*
X8158044Y7680086D01*
X7112024Y7672932D01*
X6066004Y7665779D01*
X6138381Y7789280D01*
X6142695Y7796582D01*
X6163742Y7830859D01*
X6182835Y7861396D01*
X6200077Y7890844D01*
X6215572Y7921857D01*
X6229421Y7957088D01*
X6241728Y7999189D01*
X6252595Y8050813D01*
X6262125Y8114614D01*
X6270420Y8193244D01*
X6277584Y8289356D01*
X6283720Y8405602D01*
X6288929Y8544637D01*
X6293315Y8709113D01*
X6296980Y8901682D01*
X6300028Y9124998D01*
X6302486Y9374195D01*
X8294603Y9374195D01*
X8431162Y9284624D01*
X8483677Y9252357D01*
X8603925Y9187898D01*
X8717936Y9136567D01*
X8767866Y9119187D01*
X8926739Y9084490D01*
X9127613Y9066772D01*
X9229758Y9063085D01*
X9324573Y9063923D01*
X9395153Y9073393D01*
X9458460Y9094091D01*
X9531454Y9128615D01*
X9671734Y9221094D01*
X9793262Y9351914D01*
X9890542Y9520498D01*
X9964497Y9729490D01*
X10016054Y9981533D01*
X10046138Y10279268D01*
X10055675Y10625338D01*
X10055211Y10704016D01*
X10041500Y11068559D01*
X10008207Y11385761D01*
X9954523Y11658969D01*
X9879636Y11891529D01*
X9782738Y12086789D01*
X9663019Y12248094D01*
X9613351Y12297324D01*
X9459423Y12399887D01*
X9278727Y12462299D01*
X9079091Y12484204D01*
X8868342Y12465249D01*
X8654308Y12405077D01*
X8444818Y12303335D01*
X8294603Y12213294D01*
X8294603Y9374195D01*
X6302486Y9374195D01*
X6302560Y9381714D01*
X6304680Y9674481D01*
X6306491Y10005955D01*
X6308094Y10378786D01*
X6309594Y10795629D01*
X6311092Y11259136D01*
X6312692Y11771959D01*
X6314495Y12336753D01*
X6328151Y16501807D01*
X7413796Y16508948D01*
X7492746Y16509429D01*
X7725033Y16510382D01*
X7937494Y16510576D01*
X8124331Y16510049D01*
X8279743Y16508842D01*
X8397931Y16506994D01*
X8473097Y16504545D01*
X8499441Y16501534D01*
X8496071Y16491992D01*
X8470929Y16446755D01*
X8429287Y16380969D01*
X8425133Y16374679D01*
X8392846Y16323885D01*
X8365775Y16274464D01*
X8343461Y16221326D01*
X8325445Y16159380D01*
X8311267Y16083535D01*
X8300469Y15988701D01*
X8292591Y15869788D01*
X8287175Y15721704D01*
X8283762Y15539359D01*
X8281892Y15317663D01*
X8281106Y15051524D01*
X8280947Y14735853D01*
X8281233Y14489393D01*
X8282109Y14247426D01*
X8283512Y14028027D01*
X8285379Y13836538D01*
X8287645Y13678302D01*
X8290247Y13558661D01*
X8293121Y13482959D01*
X8296204Y13456538D01*
X8306147Y13460639D01*
X8349856Y13489516D01*
X8412279Y13536942D01*
X8502776Y13600720D01*
X8672805Y13694693D01*
X8867143Y13778518D01*
X9067648Y13843705D01*
X9236108Y13876945D01*
X9445916Y13898134D01*
X9672986Y13905475D01*
X9899795Y13898959D01*
X10108822Y13878578D01*
X10282541Y13844322D01*
X10459426Y13786618D01*
X10754513Y13646732D01*
X11027741Y13460763D01*
X11274070Y13232993D01*
X11488460Y12967704D01*
X11665869Y12669178D01*
X11709913Y12577637D01*
X11833339Y12268863D01*
X11929836Y11933743D01*
X12000622Y11566372D01*
X12046918Y11160842D01*
X12069942Y10711244D01*
X12071011Y10625338D01*
X12073577Y10418955D01*
X12067782Y10166209D01*
G37*
X12067782Y10166209D02*
X12051211Y9943310D01*
X12022582Y9738133D01*
X11980611Y9538555D01*
X11924016Y9332452D01*
X11838194Y9086096D01*
X11680570Y8753528D01*
X11487222Y8455649D01*
X11261108Y8195274D01*
X11005186Y7975220D01*
X10722413Y7798300D01*
X10415747Y7667331D01*
X10088147Y7585127D01*
X10084205Y7584468D01*
X9844789Y7561431D01*
X9581734Y7564506D01*
X9313793Y7591796D01*
X9059726Y7641405D01*
X8838287Y7711439D01*
X8743769Y7754057D01*
X8620669Y7818833D01*
X8494175Y7892920D01*
X8377487Y7968163D01*
X8283803Y8036409D01*
X8226323Y8089502D01*
X8213128Y8104078D01*
X8197397Y8109173D01*
X8186883Y8083878D01*
X8179135Y8020127D01*
X8171699Y7909858D01*
X8158044Y7680086D01*
X7112024Y7672932D01*
X6066004Y7665779D01*
X6138381Y7789280D01*
X6142695Y7796582D01*
X6163742Y7830859D01*
X6182835Y7861396D01*
X6200077Y7890844D01*
X6215572Y7921857D01*
X6229421Y7957088D01*
X6241728Y7999189D01*
X6252595Y8050813D01*
X6262125Y8114614D01*
X6270420Y8193244D01*
X6277584Y8289356D01*
X6283720Y8405602D01*
X6288929Y8544637D01*
X6293315Y8709113D01*
X6296980Y8901682D01*
X6300028Y9124998D01*
X6302486Y9374195D01*
X8294603Y9374195D01*
X8431162Y9284624D01*
X8483677Y9252357D01*
X8603925Y9187898D01*
X8717936Y9136567D01*
X8767866Y9119187D01*
X8926739Y9084490D01*
X9127613Y9066772D01*
X9229758Y9063085D01*
X9324573Y9063923D01*
X9395153Y9073393D01*
X9458460Y9094091D01*
X9531454Y9128615D01*
X9671734Y9221094D01*
X9793262Y9351914D01*
X9890542Y9520498D01*
X9964497Y9729490D01*
X10016054Y9981533D01*
X10046138Y10279268D01*
X10055675Y10625338D01*
X10055211Y10704016D01*
X10041500Y11068559D01*
X10008207Y11385761D01*
X9954523Y11658969D01*
X9879636Y11891529D01*
X9782738Y12086789D01*
X9663019Y12248094D01*
X9613351Y12297324D01*
X9459423Y12399887D01*
X9278727Y12462299D01*
X9079091Y12484204D01*
X8868342Y12465249D01*
X8654308Y12405077D01*
X8444818Y12303335D01*
X8294603Y12213294D01*
X8294603Y9374195D01*
X6302486Y9374195D01*
X6302560Y9381714D01*
X6304680Y9674481D01*
X6306491Y10005955D01*
X6308094Y10378786D01*
X6309594Y10795629D01*
X6311092Y11259136D01*
X6312692Y11771959D01*
X6314495Y12336753D01*
X6328151Y16501807D01*
X7413796Y16508948D01*
X7492746Y16509429D01*
X7725033Y16510382D01*
X7937494Y16510576D01*
X8124331Y16510049D01*
X8279743Y16508842D01*
X8397931Y16506994D01*
X8473097Y16504545D01*
X8499441Y16501534D01*
X8496071Y16491992D01*
X8470929Y16446755D01*
X8429287Y16380969D01*
X8425133Y16374679D01*
X8392846Y16323885D01*
X8365775Y16274464D01*
X8343461Y16221326D01*
X8325445Y16159380D01*
X8311267Y16083535D01*
X8300469Y15988701D01*
X8292591Y15869788D01*
X8287175Y15721704D01*
X8283762Y15539359D01*
X8281892Y15317663D01*
X8281106Y15051524D01*
X8280947Y14735853D01*
X8281233Y14489393D01*
X8282109Y14247426D01*
X8283512Y14028027D01*
X8285379Y13836538D01*
X8287645Y13678302D01*
X8290247Y13558661D01*
X8293121Y13482959D01*
X8296204Y13456538D01*
X8306147Y13460639D01*
X8349856Y13489516D01*
X8412279Y13536942D01*
X8502776Y13600720D01*
X8672805Y13694693D01*
X8867143Y13778518D01*
X9067648Y13843705D01*
X9236108Y13876945D01*
X9445916Y13898134D01*
X9672986Y13905475D01*
X9899795Y13898959D01*
X10108822Y13878578D01*
X10282541Y13844322D01*
X10459426Y13786618D01*
X10754513Y13646732D01*
X11027741Y13460763D01*
X11274070Y13232993D01*
X11488460Y12967704D01*
X11665869Y12669178D01*
X11709913Y12577637D01*
X11833339Y12268863D01*
X11929836Y11933743D01*
X12000622Y11566372D01*
X12046918Y11160842D01*
X12069942Y10711244D01*
X12071011Y10625338D01*
X12073577Y10418955D01*
X12067782Y10166209D01*
G36*
X23806658Y5531245D02*
G01*
X23829575Y5518915D01*
X23850766Y5497497D01*
X23873441Y5469129D01*
X23882386Y5457154D01*
X23894437Y5436070D01*
X23903637Y5408296D01*
X23910369Y5368309D01*
X23915019Y5310584D01*
X23917967Y5229597D01*
X23919599Y5119825D01*
X23920297Y4975744D01*
X23920444Y4791831D01*
X23920398Y4674248D01*
X23919959Y4515366D01*
X23918736Y4392938D01*
X23916344Y4301437D01*
X23912400Y4235342D01*
X23906521Y4189128D01*
X23898324Y4157271D01*
X23887425Y4134247D01*
X23873441Y4114532D01*
X23812312Y4065528D01*
X23742114Y4059743D01*
X23667823Y4098094D01*
X23659417Y4105076D01*
X23642992Y4122207D01*
X23630817Y4145412D01*
X23622013Y4181236D01*
X23615701Y4236225D01*
X23611005Y4316923D01*
X23607045Y4429876D01*
X23602944Y4581630D01*
X23591605Y5021848D01*
X23058658Y4538418D01*
X22910331Y4404269D01*
X22779390Y4287518D01*
X22674535Y4197201D01*
X22592020Y4131063D01*
X22528098Y4086851D01*
X22479023Y4062312D01*
X22441050Y4055189D01*
X22410433Y4063231D01*
X22383424Y4084182D01*
X22356280Y4115789D01*
X22343733Y4132832D01*
X22332420Y4154081D01*
X22323960Y4182524D01*
X22318030Y4223611D01*
X22314303Y4282795D01*
X22312457Y4365526D01*
X22312165Y4477256D01*
X22313103Y4623436D01*
X22314946Y4809518D01*
X22321605Y5442235D01*
X22375144Y5485560D01*
X22427507Y5518087D01*
X22493517Y5523654D01*
X22562887Y5485579D01*
X22571549Y5478378D01*
X22587886Y5461242D01*
X22599998Y5437955D01*
X22608759Y5401984D01*
X22615042Y5346797D01*
X22619722Y5265860D01*
X22623671Y5152643D01*
X22627765Y5000612D01*
X22639105Y4558950D01*
X23001962Y4888001D01*
X23176212Y5045970D01*
X23328432Y5183367D01*
X23453260Y5294560D01*
X23553903Y5381688D01*
X23633572Y5446892D01*
X23695473Y5492310D01*
X23742815Y5520082D01*
X23778808Y5532347D01*
X23806658Y5531245D01*
G37*
X23806658Y5531245D02*
X23829575Y5518915D01*
X23850766Y5497497D01*
X23873441Y5469129D01*
X23882386Y5457154D01*
X23894437Y5436070D01*
X23903637Y5408296D01*
X23910369Y5368309D01*
X23915019Y5310584D01*
X23917967Y5229597D01*
X23919599Y5119825D01*
X23920297Y4975744D01*
X23920444Y4791831D01*
X23920398Y4674248D01*
X23919959Y4515366D01*
X23918736Y4392938D01*
X23916344Y4301437D01*
X23912400Y4235342D01*
X23906521Y4189128D01*
X23898324Y4157271D01*
X23887425Y4134247D01*
X23873441Y4114532D01*
X23812312Y4065528D01*
X23742114Y4059743D01*
X23667823Y4098094D01*
X23659417Y4105076D01*
X23642992Y4122207D01*
X23630817Y4145412D01*
X23622013Y4181236D01*
X23615701Y4236225D01*
X23611005Y4316923D01*
X23607045Y4429876D01*
X23602944Y4581630D01*
X23591605Y5021848D01*
X23058658Y4538418D01*
X22910331Y4404269D01*
X22779390Y4287518D01*
X22674535Y4197201D01*
X22592020Y4131063D01*
X22528098Y4086851D01*
X22479023Y4062312D01*
X22441050Y4055189D01*
X22410433Y4063231D01*
X22383424Y4084182D01*
X22356280Y4115789D01*
X22343733Y4132832D01*
X22332420Y4154081D01*
X22323960Y4182524D01*
X22318030Y4223611D01*
X22314303Y4282795D01*
X22312457Y4365526D01*
X22312165Y4477256D01*
X22313103Y4623436D01*
X22314946Y4809518D01*
X22321605Y5442235D01*
X22375144Y5485560D01*
X22427507Y5518087D01*
X22493517Y5523654D01*
X22562887Y5485579D01*
X22571549Y5478378D01*
X22587886Y5461242D01*
X22599998Y5437955D01*
X22608759Y5401984D01*
X22615042Y5346797D01*
X22619722Y5265860D01*
X22623671Y5152643D01*
X22627765Y5000612D01*
X22639105Y4558950D01*
X23001962Y4888001D01*
X23176212Y5045970D01*
X23328432Y5183367D01*
X23453260Y5294560D01*
X23553903Y5381688D01*
X23633572Y5446892D01*
X23695473Y5492310D01*
X23742815Y5520082D01*
X23778808Y5532347D01*
X23806658Y5531245D01*
G36*
X21492191Y5469129D02*
G01*
X21502133Y5455702D01*
X21513874Y5434465D01*
X21522836Y5406166D01*
X21529393Y5365334D01*
X21533919Y5306499D01*
X21536788Y5224189D01*
X21538374Y5112935D01*
X21539051Y4967265D01*
X21539194Y4781709D01*
X21539136Y4649287D01*
X21538670Y4491953D01*
X21537423Y4370880D01*
X21535027Y4280683D01*
X21531116Y4215979D01*
X21525320Y4171384D01*
X21517272Y4141513D01*
X21506606Y4120983D01*
X21492953Y4104411D01*
X21483883Y4095054D01*
X21467350Y4082023D01*
X21444529Y4072156D01*
X21409839Y4065014D01*
X21357697Y4060156D01*
X21282524Y4057143D01*
X21178738Y4055535D01*
X21040756Y4054893D01*
X20863000Y4054777D01*
X20823475Y4054790D01*
X20648647Y4055325D01*
X20512739Y4056864D01*
X20410375Y4059705D01*
X20336182Y4064148D01*
X20284785Y4070492D01*
X20250810Y4079037D01*
X20228883Y4090081D01*
X20207805Y4110142D01*
X20181164Y4172653D01*
X20183540Y4244751D01*
X20216013Y4308125D01*
X20220411Y4312698D01*
X20237864Y4325290D01*
X20264667Y4334663D01*
X20306820Y4341285D01*
X20370325Y4345623D01*
X20461183Y4348143D01*
X20585394Y4349312D01*
X20748959Y4349598D01*
X21244373Y4349598D01*
X21244373Y4667098D01*
X20918046Y4667098D01*
X20846390Y4667260D01*
X20734352Y4668862D01*
X20655727Y4672889D01*
X20602583Y4680204D01*
X20566990Y4691672D01*
X20541015Y4708156D01*
X20533696Y4714552D01*
X20496717Y4776779D01*
X20495443Y4849776D01*
X20530678Y4917314D01*
X20530802Y4917452D01*
X20550230Y4934782D01*
X20576936Y4946947D01*
X20618535Y4954845D01*
X20682643Y4959374D01*
X20776873Y4961433D01*
X20908841Y4961920D01*
X21246636Y4961920D01*
X21239835Y5092322D01*
X21233033Y5222723D01*
X20746717Y5228857D01*
X20696461Y5229516D01*
X20532493Y5232488D01*
X20407298Y5237278D01*
X20315664Y5245304D01*
X20252378Y5257988D01*
X20212229Y5276749D01*
X20190005Y5303008D01*
X20180492Y5338186D01*
X20178480Y5383702D01*
X20178492Y5388454D01*
X20180810Y5428695D01*
X20190448Y5460421D01*
X20212160Y5484642D01*
X20250700Y5502367D01*
X20310824Y5514605D01*
X20397285Y5522366D01*
X20514838Y5526660D01*
X20668237Y5528497D01*
X20862237Y5528884D01*
X21445188Y5528884D01*
X21492191Y5469129D01*
G37*
X21492191Y5469129D02*
X21502133Y5455702D01*
X21513874Y5434465D01*
X21522836Y5406166D01*
X21529393Y5365334D01*
X21533919Y5306499D01*
X21536788Y5224189D01*
X21538374Y5112935D01*
X21539051Y4967265D01*
X21539194Y4781709D01*
X21539136Y4649287D01*
X21538670Y4491953D01*
X21537423Y4370880D01*
X21535027Y4280683D01*
X21531116Y4215979D01*
X21525320Y4171384D01*
X21517272Y4141513D01*
X21506606Y4120983D01*
X21492953Y4104411D01*
X21483883Y4095054D01*
X21467350Y4082023D01*
X21444529Y4072156D01*
X21409839Y4065014D01*
X21357697Y4060156D01*
X21282524Y4057143D01*
X21178738Y4055535D01*
X21040756Y4054893D01*
X20863000Y4054777D01*
X20823475Y4054790D01*
X20648647Y4055325D01*
X20512739Y4056864D01*
X20410375Y4059705D01*
X20336182Y4064148D01*
X20284785Y4070492D01*
X20250810Y4079037D01*
X20228883Y4090081D01*
X20207805Y4110142D01*
X20181164Y4172653D01*
X20183540Y4244751D01*
X20216013Y4308125D01*
X20220411Y4312698D01*
X20237864Y4325290D01*
X20264667Y4334663D01*
X20306820Y4341285D01*
X20370325Y4345623D01*
X20461183Y4348143D01*
X20585394Y4349312D01*
X20748959Y4349598D01*
X21244373Y4349598D01*
X21244373Y4667098D01*
X20918046Y4667098D01*
X20846390Y4667260D01*
X20734352Y4668862D01*
X20655727Y4672889D01*
X20602583Y4680204D01*
X20566990Y4691672D01*
X20541015Y4708156D01*
X20533696Y4714552D01*
X20496717Y4776779D01*
X20495443Y4849776D01*
X20530678Y4917314D01*
X20530802Y4917452D01*
X20550230Y4934782D01*
X20576936Y4946947D01*
X20618535Y4954845D01*
X20682643Y4959374D01*
X20776873Y4961433D01*
X20908841Y4961920D01*
X21246636Y4961920D01*
X21239835Y5092322D01*
X21233033Y5222723D01*
X20746717Y5228857D01*
X20696461Y5229516D01*
X20532493Y5232488D01*
X20407298Y5237278D01*
X20315664Y5245304D01*
X20252378Y5257988D01*
X20212229Y5276749D01*
X20190005Y5303008D01*
X20180492Y5338186D01*
X20178480Y5383702D01*
X20178492Y5388454D01*
X20180810Y5428695D01*
X20190448Y5460421D01*
X20212160Y5484642D01*
X20250700Y5502367D01*
X20310824Y5514605D01*
X20397285Y5522366D01*
X20514838Y5526660D01*
X20668237Y5528497D01*
X20862237Y5528884D01*
X21445188Y5528884D01*
X21492191Y5469129D01*
G36*
X10041158Y5483527D02*
G01*
X10052473Y5471091D01*
X10062700Y5454607D01*
X10070909Y5430948D01*
X10077293Y5395874D01*
X10082047Y5345141D01*
X10085363Y5274507D01*
X10087435Y5179729D01*
X10088456Y5056565D01*
X10088619Y4900772D01*
X10088118Y4708108D01*
X10087146Y4474331D01*
X10087009Y4445854D01*
X10085831Y4321778D01*
X10083175Y4234022D01*
X10078061Y4174999D01*
X10069512Y4137123D01*
X10056552Y4112807D01*
X10038201Y4094465D01*
X9970988Y4059475D01*
X9900779Y4065304D01*
X9838697Y4114532D01*
X9820598Y4141056D01*
X9805629Y4178292D01*
X9796854Y4230582D01*
X9792726Y4308018D01*
X9791694Y4420693D01*
X9791694Y4667098D01*
X8793837Y4667098D01*
X8793837Y4396242D01*
X8793690Y4324340D01*
X8792158Y4231267D01*
X8787786Y4169925D01*
X8779154Y4131695D01*
X8764843Y4107954D01*
X8743434Y4090081D01*
X8678643Y4059807D01*
X8607755Y4065165D01*
X8546019Y4114532D01*
X8536666Y4127097D01*
X8524742Y4148240D01*
X8515639Y4176223D01*
X8508978Y4216551D01*
X8504380Y4274724D01*
X8501463Y4356245D01*
X8499850Y4466617D01*
X8499161Y4611341D01*
X8499015Y4795920D01*
X8499015Y5417553D01*
X8554681Y5473219D01*
X8617718Y5517903D01*
X8684473Y5523306D01*
X8748480Y5483527D01*
X8765125Y5463899D01*
X8780015Y5431973D01*
X8788729Y5383824D01*
X8792819Y5309749D01*
X8793837Y5200045D01*
X8793837Y4961920D01*
X9791694Y4961920D01*
X9791694Y5189736D01*
X9791695Y5193978D01*
X9792574Y5297834D01*
X9796519Y5367192D01*
X9805591Y5412545D01*
X9821851Y5444390D01*
X9847360Y5473219D01*
X9910397Y5517903D01*
X9977151Y5523306D01*
X10041158Y5483527D01*
G37*
X10041158Y5483527D02*
X10052473Y5471091D01*
X10062700Y5454607D01*
X10070909Y5430948D01*
X10077293Y5395874D01*
X10082047Y5345141D01*
X10085363Y5274507D01*
X10087435Y5179729D01*
X10088456Y5056565D01*
X10088619Y4900772D01*
X10088118Y4708108D01*
X10087146Y4474331D01*
X10087009Y4445854D01*
X10085831Y4321778D01*
X10083175Y4234022D01*
X10078061Y4174999D01*
X10069512Y4137123D01*
X10056552Y4112807D01*
X10038201Y4094465D01*
X9970988Y4059475D01*
X9900779Y4065304D01*
X9838697Y4114532D01*
X9820598Y4141056D01*
X9805629Y4178292D01*
X9796854Y4230582D01*
X9792726Y4308018D01*
X9791694Y4420693D01*
X9791694Y4667098D01*
X8793837Y4667098D01*
X8793837Y4396242D01*
X8793690Y4324340D01*
X8792158Y4231267D01*
X8787786Y4169925D01*
X8779154Y4131695D01*
X8764843Y4107954D01*
X8743434Y4090081D01*
X8678643Y4059807D01*
X8607755Y4065165D01*
X8546019Y4114532D01*
X8536666Y4127097D01*
X8524742Y4148240D01*
X8515639Y4176223D01*
X8508978Y4216551D01*
X8504380Y4274724D01*
X8501463Y4356245D01*
X8499850Y4466617D01*
X8499161Y4611341D01*
X8499015Y4795920D01*
X8499015Y5417553D01*
X8554681Y5473219D01*
X8617718Y5517903D01*
X8684473Y5523306D01*
X8748480Y5483527D01*
X8765125Y5463899D01*
X8780015Y5431973D01*
X8788729Y5383824D01*
X8792819Y5309749D01*
X8793837Y5200045D01*
X8793837Y4961920D01*
X9791694Y4961920D01*
X9791694Y5189736D01*
X9791695Y5193978D01*
X9792574Y5297834D01*
X9796519Y5367192D01*
X9805591Y5412545D01*
X9821851Y5444390D01*
X9847360Y5473219D01*
X9910397Y5517903D01*
X9977151Y5523306D01*
X10041158Y5483527D01*
G36*
X28846979Y5527138D02*
G01*
X28980063Y5516230D01*
X29091158Y5496948D01*
X29193378Y5467093D01*
X29336639Y5400532D01*
X29439409Y5314786D01*
X29501331Y5210192D01*
X29522051Y5087088D01*
X29520169Y5024312D01*
X29508532Y4974496D01*
X29478786Y4930963D01*
X29422591Y4876018D01*
X29406563Y4861295D01*
X29358933Y4819302D01*
X29313945Y4785209D01*
X29265663Y4757178D01*
X29208151Y4733370D01*
X29135475Y4711947D01*
X29041697Y4691071D01*
X28920884Y4668904D01*
X28767098Y4643607D01*
X28574404Y4613341D01*
X28537512Y4607246D01*
X28412296Y4579883D01*
X28321457Y4548276D01*
X28268655Y4513981D01*
X28257548Y4478555D01*
X28262813Y4469976D01*
X28298837Y4439712D01*
X28355340Y4406295D01*
X28381053Y4394260D01*
X28423840Y4379811D01*
X28476848Y4370214D01*
X28548856Y4364551D01*
X28648646Y4361904D01*
X28784998Y4361354D01*
X28820726Y4361501D01*
X28956572Y4363733D01*
X29087029Y4368203D01*
X29198777Y4374363D01*
X29278492Y4381664D01*
X29349832Y4389837D01*
X29408598Y4391410D01*
X29446568Y4382170D01*
X29476930Y4360724D01*
X29484275Y4353506D01*
X29517105Y4289675D01*
X29514454Y4218048D01*
X29476370Y4156538D01*
X29435447Y4133222D01*
X29363159Y4107719D01*
X29277933Y4087530D01*
X29271000Y4086327D01*
X29185281Y4075847D01*
X29069995Y4067061D01*
X28939381Y4060858D01*
X28807676Y4058128D01*
X28775066Y4058044D01*
X28577564Y4063021D01*
X28416745Y4079105D01*
X28285804Y4108298D01*
X28177932Y4152603D01*
X28086324Y4214023D01*
X28004173Y4294561D01*
X27963751Y4347247D01*
X27940395Y4406606D01*
X27934551Y4486394D01*
X27934834Y4510438D01*
X27942615Y4576093D01*
X27967494Y4629382D01*
X28018049Y4691354D01*
X28060662Y4735832D01*
X28113690Y4781125D01*
X28173390Y4818024D01*
X28246171Y4848672D01*
X28338446Y4875214D01*
X28456625Y4899793D01*
X28607118Y4924554D01*
X28796337Y4951641D01*
X28887365Y4965723D01*
X29023881Y4994971D01*
X29122591Y5028117D01*
X29181990Y5064073D01*
X29200573Y5101750D01*
X29176835Y5140060D01*
X29109271Y5177915D01*
X29103152Y5180354D01*
X29010020Y5204618D01*
X28884160Y5221092D01*
X28736636Y5229450D01*
X28578514Y5229364D01*
X28420857Y5220508D01*
X28274730Y5202556D01*
X28266841Y5201253D01*
X28168772Y5185770D01*
X28103981Y5178514D01*
X28061799Y5179715D01*
X28031557Y5189601D01*
X28002587Y5208402D01*
X28000237Y5210150D01*
X27950984Y5271169D01*
X27941355Y5342489D01*
X27973109Y5411960D01*
X27982241Y5420913D01*
X28041734Y5451327D01*
X28136117Y5477690D01*
X28257263Y5499386D01*
X28397048Y5515797D01*
X28547346Y5526304D01*
X28700032Y5530290D01*
X28846979Y5527138D01*
G37*
X28846979Y5527138D02*
X28980063Y5516230D01*
X29091158Y5496948D01*
X29193378Y5467093D01*
X29336639Y5400532D01*
X29439409Y5314786D01*
X29501331Y5210192D01*
X29522051Y5087088D01*
X29520169Y5024312D01*
X29508532Y4974496D01*
X29478786Y4930963D01*
X29422591Y4876018D01*
X29406563Y4861295D01*
X29358933Y4819302D01*
X29313945Y4785209D01*
X29265663Y4757178D01*
X29208151Y4733370D01*
X29135475Y4711947D01*
X29041697Y4691071D01*
X28920884Y4668904D01*
X28767098Y4643607D01*
X28574404Y4613341D01*
X28537512Y4607246D01*
X28412296Y4579883D01*
X28321457Y4548276D01*
X28268655Y4513981D01*
X28257548Y4478555D01*
X28262813Y4469976D01*
X28298837Y4439712D01*
X28355340Y4406295D01*
X28381053Y4394260D01*
X28423840Y4379811D01*
X28476848Y4370214D01*
X28548856Y4364551D01*
X28648646Y4361904D01*
X28784998Y4361354D01*
X28820726Y4361501D01*
X28956572Y4363733D01*
X29087029Y4368203D01*
X29198777Y4374363D01*
X29278492Y4381664D01*
X29349832Y4389837D01*
X29408598Y4391410D01*
X29446568Y4382170D01*
X29476930Y4360724D01*
X29484275Y4353506D01*
X29517105Y4289675D01*
X29514454Y4218048D01*
X29476370Y4156538D01*
X29435447Y4133222D01*
X29363159Y4107719D01*
X29277933Y4087530D01*
X29271000Y4086327D01*
X29185281Y4075847D01*
X29069995Y4067061D01*
X28939381Y4060858D01*
X28807676Y4058128D01*
X28775066Y4058044D01*
X28577564Y4063021D01*
X28416745Y4079105D01*
X28285804Y4108298D01*
X28177932Y4152603D01*
X28086324Y4214023D01*
X28004173Y4294561D01*
X27963751Y4347247D01*
X27940395Y4406606D01*
X27934551Y4486394D01*
X27934834Y4510438D01*
X27942615Y4576093D01*
X27967494Y4629382D01*
X28018049Y4691354D01*
X28060662Y4735832D01*
X28113690Y4781125D01*
X28173390Y4818024D01*
X28246171Y4848672D01*
X28338446Y4875214D01*
X28456625Y4899793D01*
X28607118Y4924554D01*
X28796337Y4951641D01*
X28887365Y4965723D01*
X29023881Y4994971D01*
X29122591Y5028117D01*
X29181990Y5064073D01*
X29200573Y5101750D01*
X29176835Y5140060D01*
X29109271Y5177915D01*
X29103152Y5180354D01*
X29010020Y5204618D01*
X28884160Y5221092D01*
X28736636Y5229450D01*
X28578514Y5229364D01*
X28420857Y5220508D01*
X28274730Y5202556D01*
X28266841Y5201253D01*
X28168772Y5185770D01*
X28103981Y5178514D01*
X28061799Y5179715D01*
X28031557Y5189601D01*
X28002587Y5208402D01*
X28000237Y5210150D01*
X27950984Y5271169D01*
X27941355Y5342489D01*
X27973109Y5411960D01*
X27982241Y5420913D01*
X28041734Y5451327D01*
X28136117Y5477690D01*
X28257263Y5499386D01*
X28397048Y5515797D01*
X28547346Y5526304D01*
X28700032Y5530290D01*
X28846979Y5527138D01*
G36*
X25408290Y5518614D02*
G01*
X25621249Y5485838D01*
X25809712Y5429485D01*
X25968006Y5351325D01*
X26090459Y5253125D01*
X26142832Y5187108D01*
X26202111Y5088271D01*
X26252880Y4980074D01*
X26288336Y4877283D01*
X26301676Y4794666D01*
X26298543Y4755060D01*
X26272544Y4651937D01*
X26226011Y4538379D01*
X26165961Y4430064D01*
X26099408Y4342668D01*
X26078924Y4321879D01*
X25944154Y4217867D01*
X25783188Y4137726D01*
X25609998Y4088705D01*
X25499578Y4072408D01*
X25311838Y4059140D01*
X25131476Y4063333D01*
X24965760Y4083915D01*
X24821955Y4119815D01*
X24707330Y4169961D01*
X24629149Y4233284D01*
X24626386Y4237253D01*
X24612147Y4287930D01*
X24603632Y4382854D01*
X24600801Y4522402D01*
X24602529Y4647423D01*
X24612010Y4742611D01*
X24635494Y4807104D01*
X24679227Y4846384D01*
X24749457Y4865931D01*
X24852431Y4871229D01*
X24994395Y4867757D01*
X25092070Y4861706D01*
X25192910Y4845248D01*
X25258188Y4817016D01*
X25293261Y4774355D01*
X25303490Y4714610D01*
X25303276Y4705487D01*
X25285794Y4635588D01*
X25237561Y4588545D01*
X25154662Y4562027D01*
X25033185Y4553706D01*
X24895623Y4553706D01*
X24895623Y4476659D01*
X24895724Y4458307D01*
X24900185Y4423651D01*
X24918802Y4402971D01*
X24961754Y4389034D01*
X25039221Y4374605D01*
X25050218Y4372729D01*
X25244985Y4352834D01*
X25425771Y4358698D01*
X25588309Y4388290D01*
X25728329Y4439579D01*
X25841562Y4510535D01*
X25923739Y4599127D01*
X25970591Y4703324D01*
X25977848Y4821095D01*
X25966761Y4879143D01*
X25913156Y4991421D01*
X25820366Y5083148D01*
X25689823Y5153131D01*
X25522958Y5200177D01*
X25473389Y5209114D01*
X25293934Y5230207D01*
X25133606Y5227737D01*
X24976724Y5201751D01*
X24906123Y5188112D01*
X24814842Y5186067D01*
X24751933Y5211242D01*
X24711446Y5265055D01*
X24698621Y5321802D01*
X24717679Y5384529D01*
X24736420Y5411499D01*
X24805194Y5458772D01*
X24910908Y5494675D01*
X25048553Y5517771D01*
X25213123Y5526623D01*
X25408290Y5518614D01*
G37*
X25408290Y5518614D02*
X25621249Y5485838D01*
X25809712Y5429485D01*
X25968006Y5351325D01*
X26090459Y5253125D01*
X26142832Y5187108D01*
X26202111Y5088271D01*
X26252880Y4980074D01*
X26288336Y4877283D01*
X26301676Y4794666D01*
X26298543Y4755060D01*
X26272544Y4651937D01*
X26226011Y4538379D01*
X26165961Y4430064D01*
X26099408Y4342668D01*
X26078924Y4321879D01*
X25944154Y4217867D01*
X25783188Y4137726D01*
X25609998Y4088705D01*
X25499578Y4072408D01*
X25311838Y4059140D01*
X25131476Y4063333D01*
X24965760Y4083915D01*
X24821955Y4119815D01*
X24707330Y4169961D01*
X24629149Y4233284D01*
X24626386Y4237253D01*
X24612147Y4287930D01*
X24603632Y4382854D01*
X24600801Y4522402D01*
X24602529Y4647423D01*
X24612010Y4742611D01*
X24635494Y4807104D01*
X24679227Y4846384D01*
X24749457Y4865931D01*
X24852431Y4871229D01*
X24994395Y4867757D01*
X25092070Y4861706D01*
X25192910Y4845248D01*
X25258188Y4817016D01*
X25293261Y4774355D01*
X25303490Y4714610D01*
X25303276Y4705487D01*
X25285794Y4635588D01*
X25237561Y4588545D01*
X25154662Y4562027D01*
X25033185Y4553706D01*
X24895623Y4553706D01*
X24895623Y4476659D01*
X24895724Y4458307D01*
X24900185Y4423651D01*
X24918802Y4402971D01*
X24961754Y4389034D01*
X25039221Y4374605D01*
X25050218Y4372729D01*
X25244985Y4352834D01*
X25425771Y4358698D01*
X25588309Y4388290D01*
X25728329Y4439579D01*
X25841562Y4510535D01*
X25923739Y4599127D01*
X25970591Y4703324D01*
X25977848Y4821095D01*
X25966761Y4879143D01*
X25913156Y4991421D01*
X25820366Y5083148D01*
X25689823Y5153131D01*
X25522958Y5200177D01*
X25473389Y5209114D01*
X25293934Y5230207D01*
X25133606Y5227737D01*
X24976724Y5201751D01*
X24906123Y5188112D01*
X24814842Y5186067D01*
X24751933Y5211242D01*
X24711446Y5265055D01*
X24698621Y5321802D01*
X24717679Y5384529D01*
X24736420Y5411499D01*
X24805194Y5458772D01*
X24910908Y5494675D01*
X25048553Y5517771D01*
X25213123Y5526623D01*
X25408290Y5518614D01*
G36*
X33740765Y4994560D02*
G01*
X33740265Y4791831D01*
X33740186Y4639833D01*
X33739674Y4483318D01*
X33738380Y4362763D01*
X33735961Y4272908D01*
X33732071Y4208497D01*
X33726365Y4164272D01*
X33718500Y4134975D01*
X33708129Y4115348D01*
X33694908Y4100134D01*
X33680912Y4087611D01*
X33654800Y4072945D01*
X33616333Y4063396D01*
X33557262Y4057896D01*
X33469340Y4055379D01*
X33344317Y4054777D01*
X33245987Y4055531D01*
X33031314Y4064428D01*
X32852062Y4084693D01*
X32701798Y4118017D01*
X32574088Y4166091D01*
X32462499Y4230606D01*
X32360597Y4313250D01*
X32348567Y4325008D01*
X32274504Y4422458D01*
X32212027Y4544618D01*
X32168870Y4673678D01*
X32158261Y4751511D01*
X32454010Y4751511D01*
X32490737Y4649186D01*
X32550343Y4556942D01*
X32644154Y4471744D01*
X32767480Y4411873D01*
X32926480Y4373431D01*
X32929473Y4372952D01*
X33027852Y4361317D01*
X33145764Y4352999D01*
X33258346Y4349770D01*
X33445444Y4349598D01*
X33445444Y5234063D01*
X33292364Y5234092D01*
X33286281Y5234073D01*
X33183585Y5230127D01*
X33062843Y5220634D01*
X32948919Y5207519D01*
X32848557Y5188844D01*
X32698386Y5136073D01*
X32582854Y5057124D01*
X32499482Y4950581D01*
X32456858Y4847591D01*
X32454010Y4751511D01*
X32158261Y4751511D01*
X32152765Y4791831D01*
X32155335Y4834453D01*
X32180069Y4949797D01*
X32225328Y5070154D01*
X32284049Y5178735D01*
X32349171Y5258752D01*
X32388429Y5292950D01*
X32498341Y5371675D01*
X32619486Y5432203D01*
X32758496Y5476320D01*
X32922006Y5505815D01*
X33116649Y5522472D01*
X33349060Y5528080D01*
X33428377Y5528886D01*
X33520207Y5529716D01*
X33592128Y5526091D01*
X33646551Y5513471D01*
X33685890Y5487314D01*
X33712558Y5443080D01*
X33728966Y5376229D01*
X33737529Y5282218D01*
X33738728Y5234063D01*
X33740657Y5156509D01*
X33740765Y4994560D01*
G37*
X33740765Y4994560D02*
X33740265Y4791831D01*
X33740186Y4639833D01*
X33739674Y4483318D01*
X33738380Y4362763D01*
X33735961Y4272908D01*
X33732071Y4208497D01*
X33726365Y4164272D01*
X33718500Y4134975D01*
X33708129Y4115348D01*
X33694908Y4100134D01*
X33680912Y4087611D01*
X33654800Y4072945D01*
X33616333Y4063396D01*
X33557262Y4057896D01*
X33469340Y4055379D01*
X33344317Y4054777D01*
X33245987Y4055531D01*
X33031314Y4064428D01*
X32852062Y4084693D01*
X32701798Y4118017D01*
X32574088Y4166091D01*
X32462499Y4230606D01*
X32360597Y4313250D01*
X32348567Y4325008D01*
X32274504Y4422458D01*
X32212027Y4544618D01*
X32168870Y4673678D01*
X32158261Y4751511D01*
X32454010Y4751511D01*
X32490737Y4649186D01*
X32550343Y4556942D01*
X32644154Y4471744D01*
X32767480Y4411873D01*
X32926480Y4373431D01*
X32929473Y4372952D01*
X33027852Y4361317D01*
X33145764Y4352999D01*
X33258346Y4349770D01*
X33445444Y4349598D01*
X33445444Y5234063D01*
X33292364Y5234092D01*
X33286281Y5234073D01*
X33183585Y5230127D01*
X33062843Y5220634D01*
X32948919Y5207519D01*
X32848557Y5188844D01*
X32698386Y5136073D01*
X32582854Y5057124D01*
X32499482Y4950581D01*
X32456858Y4847591D01*
X32454010Y4751511D01*
X32158261Y4751511D01*
X32152765Y4791831D01*
X32155335Y4834453D01*
X32180069Y4949797D01*
X32225328Y5070154D01*
X32284049Y5178735D01*
X32349171Y5258752D01*
X32388429Y5292950D01*
X32498341Y5371675D01*
X32619486Y5432203D01*
X32758496Y5476320D01*
X32922006Y5505815D01*
X33116649Y5522472D01*
X33349060Y5528080D01*
X33428377Y5528886D01*
X33520207Y5529716D01*
X33592128Y5526091D01*
X33646551Y5513471D01*
X33685890Y5487314D01*
X33712558Y5443080D01*
X33728966Y5376229D01*
X33737529Y5282218D01*
X33738728Y5234063D01*
X33740657Y5156509D01*
X33740765Y4994560D01*
G36*
X27186400Y18360866D02*
G01*
X27396313Y18309434D01*
X27595287Y18217124D01*
X27777052Y18083920D01*
X27935338Y17909810D01*
X28063873Y17694777D01*
X28098333Y17619026D01*
X28126250Y17542247D01*
X28141914Y17465491D01*
X28148780Y17370552D01*
X28150302Y17239226D01*
X28149382Y17129920D01*
X28143839Y17029465D01*
X28130249Y16951090D01*
X28105217Y16876795D01*
X28065352Y16788581D01*
X28053820Y16765073D01*
X27917515Y16549817D01*
X27746081Y16372710D01*
X27544385Y16237909D01*
X27317291Y16149570D01*
X27200767Y16124918D01*
X26964375Y16113383D01*
X26735414Y16150708D01*
X26520598Y16233067D01*
X26326642Y16356633D01*
X26160258Y16517578D01*
X26028162Y16712076D01*
X25937067Y16936301D01*
X25903738Y17119795D01*
X25900735Y17322289D01*
X25927842Y17519257D01*
X25983768Y17689871D01*
X26048387Y17811849D01*
X26192243Y18005375D01*
X26362785Y18158111D01*
X26553742Y18270043D01*
X26758844Y18341156D01*
X26971821Y18371435D01*
X27186400Y18360866D01*
G37*
X27186400Y18360866D02*
X27396313Y18309434D01*
X27595287Y18217124D01*
X27777052Y18083920D01*
X27935338Y17909810D01*
X28063873Y17694777D01*
X28098333Y17619026D01*
X28126250Y17542247D01*
X28141914Y17465491D01*
X28148780Y17370552D01*
X28150302Y17239226D01*
X28149382Y17129920D01*
X28143839Y17029465D01*
X28130249Y16951090D01*
X28105217Y16876795D01*
X28065352Y16788581D01*
X28053820Y16765073D01*
X27917515Y16549817D01*
X27746081Y16372710D01*
X27544385Y16237909D01*
X27317291Y16149570D01*
X27200767Y16124918D01*
X26964375Y16113383D01*
X26735414Y16150708D01*
X26520598Y16233067D01*
X26326642Y16356633D01*
X26160258Y16517578D01*
X26028162Y16712076D01*
X25937067Y16936301D01*
X25903738Y17119795D01*
X25900735Y17322289D01*
X25927842Y17519257D01*
X25983768Y17689871D01*
X26048387Y17811849D01*
X26192243Y18005375D01*
X26362785Y18158111D01*
X26553742Y18270043D01*
X26758844Y18341156D01*
X26971821Y18371435D01*
X27186400Y18360866D01*
G36*
X27129914Y5520052D02*
G01*
X27198528Y5473219D01*
X27254194Y5417553D01*
X27254194Y4788654D01*
X27254112Y4619843D01*
X27253592Y4470737D01*
X27252245Y4356726D01*
X27249678Y4272409D01*
X27245502Y4212388D01*
X27239325Y4171262D01*
X27230757Y4143633D01*
X27219407Y4124100D01*
X27204884Y4107266D01*
X27141676Y4064146D01*
X27071031Y4060597D01*
X27004730Y4100134D01*
X26994069Y4111924D01*
X26983121Y4130173D01*
X26974752Y4156975D01*
X26968616Y4197587D01*
X26964369Y4257268D01*
X26961666Y4341276D01*
X26960162Y4454867D01*
X26959513Y4603299D01*
X26959373Y4791831D01*
X26959452Y4943829D01*
X26959964Y5100343D01*
X26961258Y5220899D01*
X26963677Y5310753D01*
X26967567Y5375164D01*
X26973273Y5419389D01*
X26981139Y5448686D01*
X26991509Y5468313D01*
X27004730Y5483527D01*
X27063357Y5521739D01*
X27129914Y5520052D01*
G37*
X27129914Y5520052D02*
X27198528Y5473219D01*
X27254194Y5417553D01*
X27254194Y4788654D01*
X27254112Y4619843D01*
X27253592Y4470737D01*
X27252245Y4356726D01*
X27249678Y4272409D01*
X27245502Y4212388D01*
X27239325Y4171262D01*
X27230757Y4143633D01*
X27219407Y4124100D01*
X27204884Y4107266D01*
X27141676Y4064146D01*
X27071031Y4060597D01*
X27004730Y4100134D01*
X26994069Y4111924D01*
X26983121Y4130173D01*
X26974752Y4156975D01*
X26968616Y4197587D01*
X26964369Y4257268D01*
X26961666Y4341276D01*
X26960162Y4454867D01*
X26959513Y4603299D01*
X26959373Y4791831D01*
X26959452Y4943829D01*
X26959964Y5100343D01*
X26961258Y5220899D01*
X26963677Y5310753D01*
X26967567Y5375164D01*
X26973273Y5419389D01*
X26981139Y5448686D01*
X26991509Y5468313D01*
X27004730Y5483527D01*
X27063357Y5521739D01*
X27129914Y5520052D01*
G36*
X13677256Y5509977D02*
G01*
X13713337Y5472790D01*
X13754722Y5410349D01*
X13804608Y5318571D01*
X13866192Y5193370D01*
X13942671Y5030661D01*
X13972069Y4967614D01*
X14031832Y4840684D01*
X14084255Y4730984D01*
X14126431Y4644507D01*
X14155454Y4587246D01*
X14168417Y4565194D01*
X14171147Y4566361D01*
X14191220Y4594380D01*
X14225956Y4653720D01*
X14271352Y4737325D01*
X14323400Y4838142D01*
X14355488Y4901400D01*
X14413646Y5012602D01*
X14458824Y5090984D01*
X14495418Y5142166D01*
X14527824Y5171768D01*
X14560438Y5185408D01*
X14597656Y5188706D01*
X14618755Y5187751D01*
X14651131Y5179299D01*
X14681896Y5157475D01*
X14715240Y5116748D01*
X14755356Y5051589D01*
X14806435Y4956465D01*
X14872669Y4825848D01*
X14892221Y4787166D01*
X14941355Y4693412D01*
X14982007Y4620764D01*
X15010398Y4575787D01*
X15022751Y4565045D01*
X15025498Y4571616D01*
X15044330Y4613622D01*
X15078203Y4687829D01*
X15124240Y4787977D01*
X15179568Y4907805D01*
X15241313Y5041054D01*
X15294981Y5156006D01*
X15354492Y5280537D01*
X15400840Y5372425D01*
X15436958Y5436793D01*
X15465780Y5478766D01*
X15490241Y5503470D01*
X15513276Y5516028D01*
X15532179Y5521839D01*
X15582614Y5522137D01*
X15637141Y5491315D01*
X15639754Y5489337D01*
X15684119Y5443863D01*
X15706315Y5399215D01*
X15706408Y5397930D01*
X15697285Y5362448D01*
X15671442Y5293008D01*
X15631748Y5195886D01*
X15581074Y5077360D01*
X15522290Y4943707D01*
X15458266Y4801203D01*
X15391873Y4656125D01*
X15325981Y4514751D01*
X15263460Y4383357D01*
X15207181Y4268221D01*
X15160014Y4175619D01*
X15124829Y4111828D01*
X15104496Y4083125D01*
X15035374Y4056268D01*
X14951607Y4069048D01*
X14940830Y4078484D01*
X14909031Y4122984D01*
X14864429Y4196833D01*
X14811359Y4292694D01*
X14754157Y4403228D01*
X14593898Y4723137D01*
X14446870Y4428644D01*
X14427392Y4389891D01*
X14373194Y4284728D01*
X14324922Y4194749D01*
X14287226Y4128485D01*
X14264754Y4094465D01*
X14262452Y4091967D01*
X14205960Y4061257D01*
X14135522Y4057875D01*
X14073163Y4083125D01*
X14068289Y4088849D01*
X14043659Y4130284D01*
X14004009Y4205721D01*
X13951968Y4309840D01*
X13890169Y4437320D01*
X13821241Y4582842D01*
X13747816Y4741084D01*
X13707154Y4829725D01*
X13633280Y4991901D01*
X13576113Y5119826D01*
X13533876Y5218132D01*
X13504792Y5291449D01*
X13487085Y5344409D01*
X13478978Y5381640D01*
X13478693Y5407776D01*
X13484455Y5427445D01*
X13513900Y5469396D01*
X13567342Y5510180D01*
X13568861Y5510868D01*
X13608215Y5524932D01*
X13643281Y5525996D01*
X13677256Y5509977D01*
G37*
X13677256Y5509977D02*
X13713337Y5472790D01*
X13754722Y5410349D01*
X13804608Y5318571D01*
X13866192Y5193370D01*
X13942671Y5030661D01*
X13972069Y4967614D01*
X14031832Y4840684D01*
X14084255Y4730984D01*
X14126431Y4644507D01*
X14155454Y4587246D01*
X14168417Y4565194D01*
X14171147Y4566361D01*
X14191220Y4594380D01*
X14225956Y4653720D01*
X14271352Y4737325D01*
X14323400Y4838142D01*
X14355488Y4901400D01*
X14413646Y5012602D01*
X14458824Y5090984D01*
X14495418Y5142166D01*
X14527824Y5171768D01*
X14560438Y5185408D01*
X14597656Y5188706D01*
X14618755Y5187751D01*
X14651131Y5179299D01*
X14681896Y5157475D01*
X14715240Y5116748D01*
X14755356Y5051589D01*
X14806435Y4956465D01*
X14872669Y4825848D01*
X14892221Y4787166D01*
X14941355Y4693412D01*
X14982007Y4620764D01*
X15010398Y4575787D01*
X15022751Y4565045D01*
X15025498Y4571616D01*
X15044330Y4613622D01*
X15078203Y4687829D01*
X15124240Y4787977D01*
X15179568Y4907805D01*
X15241313Y5041054D01*
X15294981Y5156006D01*
X15354492Y5280537D01*
X15400840Y5372425D01*
X15436958Y5436793D01*
X15465780Y5478766D01*
X15490241Y5503470D01*
X15513276Y5516028D01*
X15532179Y5521839D01*
X15582614Y5522137D01*
X15637141Y5491315D01*
X15639754Y5489337D01*
X15684119Y5443863D01*
X15706315Y5399215D01*
X15706408Y5397930D01*
X15697285Y5362448D01*
X15671442Y5293008D01*
X15631748Y5195886D01*
X15581074Y5077360D01*
X15522290Y4943707D01*
X15458266Y4801203D01*
X15391873Y4656125D01*
X15325981Y4514751D01*
X15263460Y4383357D01*
X15207181Y4268221D01*
X15160014Y4175619D01*
X15124829Y4111828D01*
X15104496Y4083125D01*
X15035374Y4056268D01*
X14951607Y4069048D01*
X14940830Y4078484D01*
X14909031Y4122984D01*
X14864429Y4196833D01*
X14811359Y4292694D01*
X14754157Y4403228D01*
X14593898Y4723137D01*
X14446870Y4428644D01*
X14427392Y4389891D01*
X14373194Y4284728D01*
X14324922Y4194749D01*
X14287226Y4128485D01*
X14264754Y4094465D01*
X14262452Y4091967D01*
X14205960Y4061257D01*
X14135522Y4057875D01*
X14073163Y4083125D01*
X14068289Y4088849D01*
X14043659Y4130284D01*
X14004009Y4205721D01*
X13951968Y4309840D01*
X13890169Y4437320D01*
X13821241Y4582842D01*
X13747816Y4741084D01*
X13707154Y4829725D01*
X13633280Y4991901D01*
X13576113Y5119826D01*
X13533876Y5218132D01*
X13504792Y5291449D01*
X13487085Y5344409D01*
X13478978Y5381640D01*
X13478693Y5407776D01*
X13484455Y5427445D01*
X13513900Y5469396D01*
X13567342Y5510180D01*
X13568861Y5510868D01*
X13608215Y5524932D01*
X13643281Y5525996D01*
X13677256Y5509977D01*
G36*
X19490013Y4234918D02*
G01*
X19484129Y4188871D01*
X19475939Y4157127D01*
X19465062Y4134181D01*
X19451119Y4114532D01*
X19404116Y4054777D01*
X19071253Y4055970D01*
X19001351Y4056569D01*
X18803505Y4063461D01*
X18640859Y4078894D01*
X18506071Y4104121D01*
X18391796Y4140392D01*
X18290693Y4188958D01*
X18283946Y4192809D01*
X18167806Y4266573D01*
X18082720Y4340835D01*
X18016794Y4428194D01*
X17958134Y4541251D01*
X17949532Y4560567D01*
X17904175Y4687503D01*
X17892655Y4779020D01*
X18192478Y4779020D01*
X18203753Y4729342D01*
X18215257Y4697445D01*
X18281410Y4577093D01*
X18376510Y4485178D01*
X18504610Y4418612D01*
X18669762Y4374306D01*
X18675375Y4373297D01*
X18768359Y4361319D01*
X18881655Y4352826D01*
X18992020Y4349598D01*
X19180623Y4349598D01*
X19180623Y5234063D01*
X19004864Y5233163D01*
X18870427Y5228188D01*
X18684806Y5205585D01*
X18525468Y5166332D01*
X18400965Y5112143D01*
X18338809Y5070501D01*
X18282318Y5010703D01*
X18235431Y4925468D01*
X18221113Y4893393D01*
X18197360Y4828100D01*
X18192478Y4779020D01*
X17892655Y4779020D01*
X17890171Y4798754D01*
X17907451Y4909298D01*
X17955950Y5034117D01*
X17957549Y5037518D01*
X18038813Y5176981D01*
X18140634Y5290684D01*
X18266645Y5380217D01*
X18420481Y5447172D01*
X18605774Y5493137D01*
X18826159Y5519705D01*
X19085270Y5528466D01*
X19092445Y5528476D01*
X19213022Y5528195D01*
X19297257Y5526113D01*
X19353736Y5520902D01*
X19391039Y5511234D01*
X19417752Y5495782D01*
X19442457Y5473219D01*
X19498123Y5417553D01*
X19498123Y4795920D01*
X19498072Y4672159D01*
X19497619Y4513885D01*
X19496378Y4391922D01*
X19495259Y4349598D01*
X19493969Y4300767D01*
X19490013Y4234918D01*
G37*
X19490013Y4234918D02*
X19484129Y4188871D01*
X19475939Y4157127D01*
X19465062Y4134181D01*
X19451119Y4114532D01*
X19404116Y4054777D01*
X19071253Y4055970D01*
X19001351Y4056569D01*
X18803505Y4063461D01*
X18640859Y4078894D01*
X18506071Y4104121D01*
X18391796Y4140392D01*
X18290693Y4188958D01*
X18283946Y4192809D01*
X18167806Y4266573D01*
X18082720Y4340835D01*
X18016794Y4428194D01*
X17958134Y4541251D01*
X17949532Y4560567D01*
X17904175Y4687503D01*
X17892655Y4779020D01*
X18192478Y4779020D01*
X18203753Y4729342D01*
X18215257Y4697445D01*
X18281410Y4577093D01*
X18376510Y4485178D01*
X18504610Y4418612D01*
X18669762Y4374306D01*
X18675375Y4373297D01*
X18768359Y4361319D01*
X18881655Y4352826D01*
X18992020Y4349598D01*
X19180623Y4349598D01*
X19180623Y5234063D01*
X19004864Y5233163D01*
X18870427Y5228188D01*
X18684806Y5205585D01*
X18525468Y5166332D01*
X18400965Y5112143D01*
X18338809Y5070501D01*
X18282318Y5010703D01*
X18235431Y4925468D01*
X18221113Y4893393D01*
X18197360Y4828100D01*
X18192478Y4779020D01*
X17892655Y4779020D01*
X17890171Y4798754D01*
X17907451Y4909298D01*
X17955950Y5034117D01*
X17957549Y5037518D01*
X18038813Y5176981D01*
X18140634Y5290684D01*
X18266645Y5380217D01*
X18420481Y5447172D01*
X18605774Y5493137D01*
X18826159Y5519705D01*
X19085270Y5528466D01*
X19092445Y5528476D01*
X19213022Y5528195D01*
X19297257Y5526113D01*
X19353736Y5520902D01*
X19391039Y5511234D01*
X19417752Y5495782D01*
X19442457Y5473219D01*
X19498123Y5417553D01*
X19498123Y4795920D01*
X19498072Y4672159D01*
X19497619Y4513885D01*
X19496378Y4391922D01*
X19495259Y4349598D01*
X19493969Y4300767D01*
X19490013Y4234918D01*
G36*
X167666083Y22214934D02*
G01*
X167947539Y20721955D01*
X168986073Y20293837D01*
X170024606Y19865720D01*
X171270500Y20712919D01*
X171517090Y20879937D01*
X171843992Y21099166D01*
X172127019Y21286412D01*
X172351471Y21432062D01*
X172502651Y21526502D01*
X172565858Y21560118D01*
X172604678Y21536211D01*
X172720717Y21436039D01*
X172896324Y21271646D01*
X173116619Y21058127D01*
X173366722Y20810577D01*
X173631754Y20544091D01*
X173896835Y20273764D01*
X174147086Y20014692D01*
X174367628Y19781969D01*
X174543579Y19590690D01*
X174660062Y19455951D01*
X174702196Y19392846D01*
X174692394Y19365734D01*
X174624528Y19244794D01*
X174500597Y19045757D01*
X174330647Y18784228D01*
X174124727Y18475808D01*
X173892882Y18136098D01*
X173765648Y17950826D01*
X173546779Y17628276D01*
X173359132Y17346779D01*
X173212711Y17121601D01*
X173117522Y16968008D01*
X173083569Y16901264D01*
X173084126Y16897566D01*
X173114077Y16812958D01*
X173182788Y16640187D01*
X173280684Y16401823D01*
X173398184Y16120433D01*
X173525711Y15818589D01*
X173653688Y15518858D01*
X173772536Y15243809D01*
X173872676Y15016012D01*
X173944532Y14858036D01*
X173978524Y14792450D01*
X173998636Y14786633D01*
X174120837Y14760393D01*
X174338629Y14716924D01*
X174634581Y14659625D01*
X174991259Y14591892D01*
X175391230Y14517123D01*
X175602036Y14477481D01*
X175988957Y14401846D01*
X176327260Y14331995D01*
X176598454Y14271941D01*
X176784049Y14225694D01*
X176865554Y14197268D01*
X176880194Y14169087D01*
X176904479Y14031397D01*
X176923559Y13802070D01*
X176937449Y13502682D01*
X176946163Y13154811D01*
X176949716Y12780036D01*
X176948124Y12399934D01*
X176941400Y12036083D01*
X176929559Y11710062D01*
X176912617Y11443447D01*
X176890588Y11257817D01*
X176863487Y11174751D01*
X176847040Y11165381D01*
X176724386Y11125192D01*
X176511616Y11072018D01*
X176233323Y11011682D01*
X175914100Y10950006D01*
X175806392Y10930364D01*
X175308930Y10839009D01*
X174917969Y10765589D01*
X174619957Y10707060D01*
X174401341Y10660378D01*
X174248568Y10622498D01*
X174148087Y10590377D01*
X174086344Y10560969D01*
X174049788Y10531231D01*
X174045539Y10526240D01*
X173985758Y10422186D01*
X173897297Y10231788D01*
X173788728Y9977381D01*
X173668625Y9681303D01*
X173545562Y9365890D01*
X173428112Y9053478D01*
X173324849Y8766403D01*
X173244345Y8527003D01*
X173195175Y8357614D01*
X173185912Y8280571D01*
X173192106Y8270575D01*
X173256222Y8173903D01*
X173376798Y7995596D01*
X173542655Y7752079D01*
X173742613Y7459778D01*
X173965493Y7135119D01*
X174026661Y7045793D01*
X174241756Y6725389D01*
X174427645Y6438842D01*
X174573719Y6203145D01*
X174669367Y6035292D01*
X174703980Y5952276D01*
X174696521Y5930452D01*
X174618775Y5822907D01*
X174465387Y5647288D01*
X174247341Y5415416D01*
X173975621Y5139109D01*
X173661210Y4830187D01*
X173481498Y4657275D01*
X173197348Y4387970D01*
X172948642Y4157301D01*
X172748737Y3977410D01*
X172610986Y3860444D01*
X172548744Y3818545D01*
X172505980Y3834077D01*
X172374321Y3907549D01*
X172183121Y4027706D01*
X171957322Y4179333D01*
X171796778Y4289980D01*
X171476262Y4509712D01*
X171134233Y4743077D01*
X170821828Y4955135D01*
X170209842Y5369075D01*
X169696123Y5091312D01*
X169575158Y5027201D01*
X169355174Y4917539D01*
X169185056Y4841828D01*
X169094138Y4813598D01*
X169064384Y4849850D01*
X168990499Y4987883D01*
X168881368Y5215457D01*
X168743063Y5518132D01*
X168581656Y5881465D01*
X168403221Y6291012D01*
X168213829Y6732331D01*
X168019553Y7190981D01*
X167826465Y7652517D01*
X167640638Y8102499D01*
X167468144Y8526483D01*
X167315056Y8910027D01*
X167187446Y9238687D01*
X167091386Y9498023D01*
X167032949Y9673591D01*
X167018207Y9750948D01*
X167019206Y9753209D01*
X167087871Y9824720D01*
X167231496Y9936721D01*
X167420431Y10065987D01*
X167480067Y10105459D01*
X167933835Y10479928D01*
X168309382Y10925947D01*
X168597817Y11424950D01*
X168790248Y11958372D01*
X168877783Y12507647D01*
X168851532Y13054208D01*
X168745191Y13540336D01*
X168554256Y14031220D01*
X168275912Y14469153D01*
X167893933Y14885157D01*
X167743846Y15018054D01*
X167258644Y15345486D01*
X166734496Y15566004D01*
X166186590Y15681582D01*
X165630117Y15694195D01*
X165080266Y15605814D01*
X164552224Y15418415D01*
X164061182Y15133971D01*
X163622329Y14754455D01*
X163250854Y14281842D01*
X163179434Y14164802D01*
X162936681Y13629854D01*
X162807756Y13072798D01*
X162789283Y12508059D01*
X162877886Y11950066D01*
X163070188Y11413245D01*
X163362814Y10912024D01*
X163752387Y10460829D01*
X164235532Y10074089D01*
X164251221Y10063666D01*
X164438153Y9931937D01*
X164578258Y9819941D01*
X164642249Y9750948D01*
X164634175Y9696859D01*
X164583973Y9539367D01*
X164494958Y9295268D01*
X164373200Y8979008D01*
X164224768Y8605033D01*
X164055733Y8187789D01*
X163872165Y7741720D01*
X163680133Y7281274D01*
X163485708Y6820896D01*
X163294960Y6375032D01*
X163113959Y5958127D01*
X162948775Y5584627D01*
X162805478Y5268979D01*
X162690137Y5025627D01*
X162608824Y4869019D01*
X162567607Y4813598D01*
X162533331Y4821105D01*
X162398674Y4875049D01*
X162199660Y4969630D01*
X161965623Y5091312D01*
X161451903Y5369075D01*
X160839917Y4955135D01*
X160659112Y4832562D01*
X160322813Y4603540D01*
X159987537Y4374150D01*
X159704423Y4179333D01*
X159548175Y4073161D01*
X159345096Y3941252D01*
X159194521Y3850952D01*
X159120976Y3817471D01*
X159089380Y3831686D01*
X158975166Y3918750D01*
X158799094Y4072040D01*
X158576490Y4276478D01*
X158322678Y4516986D01*
X158052985Y4778485D01*
X157782736Y5045899D01*
X157527257Y5304150D01*
X157301873Y5538159D01*
X157121910Y5732849D01*
X157002694Y5873141D01*
X156959549Y5943959D01*
X156962036Y5957433D01*
X157013387Y6067104D01*
X157123085Y6256847D01*
X157280528Y6509523D01*
X157475118Y6807994D01*
X157696253Y7135119D01*
X157758272Y7225350D01*
X157976045Y7542863D01*
X158167867Y7823568D01*
X158322558Y8051038D01*
X158428940Y8208848D01*
X158475833Y8280571D01*
X158476987Y8283645D01*
X158463147Y8371394D01*
X158410298Y8549154D01*
X158327012Y8794588D01*
X158221862Y9085359D01*
X158103424Y9399131D01*
X157980269Y9713568D01*
X157860971Y10006333D01*
X157754105Y10255089D01*
X157668242Y10437501D01*
X157611957Y10531231D01*
X157606319Y10537050D01*
X157566019Y10566491D01*
X157497957Y10596180D01*
X157388581Y10629161D01*
X157224337Y10668479D01*
X156991675Y10717179D01*
X156677040Y10778303D01*
X156266881Y10854898D01*
X155747645Y10950006D01*
X155639951Y10970024D01*
X155331442Y11031902D01*
X155071928Y11090530D01*
X154886002Y11140087D01*
X154798258Y11174751D01*
X154783579Y11203671D01*
X154759105Y11342589D01*
X154739711Y11572887D01*
X154725411Y11872986D01*
X154716221Y12221308D01*
X154712155Y12596275D01*
X154713227Y12976310D01*
X154719454Y13339834D01*
X154730849Y13665270D01*
X154747427Y13931039D01*
X154769203Y14115565D01*
X154796191Y14197268D01*
X154823747Y14209339D01*
X154960826Y14247385D01*
X155192532Y14301198D01*
X155500376Y14366767D01*
X155865868Y14440079D01*
X156270515Y14517123D01*
X156491459Y14558286D01*
X156870147Y14629666D01*
X157196100Y14692170D01*
X157451885Y14742400D01*
X157620070Y14776959D01*
X157683221Y14792450D01*
X157685595Y14795643D01*
X157725814Y14876772D01*
X157802485Y15046734D01*
X157906025Y15282978D01*
X158026852Y15562954D01*
X158155383Y15864113D01*
X158282034Y16163904D01*
X158397221Y16439777D01*
X158491363Y16669181D01*
X158554876Y16829567D01*
X158578177Y16898384D01*
X158567898Y16922598D01*
X158499498Y17037819D01*
X158375425Y17231763D01*
X158205648Y17489211D01*
X158000137Y17794946D01*
X157768863Y18133748D01*
X157641978Y18319291D01*
X157423007Y18644592D01*
X157235265Y18930084D01*
X157088766Y19160199D01*
X156993522Y19319368D01*
X156959549Y19392021D01*
X156983155Y19431430D01*
X157081899Y19549186D01*
X157243895Y19727397D01*
X157454271Y19950963D01*
X157698158Y20204783D01*
X157960685Y20473755D01*
X158226981Y20742778D01*
X158482175Y20996750D01*
X158711399Y21220572D01*
X158899779Y21399141D01*
X159032448Y21517357D01*
X159094533Y21560118D01*
X159128996Y21543492D01*
X159255544Y21466383D01*
X159459761Y21335155D01*
X159726929Y21159425D01*
X160042330Y20948807D01*
X160391245Y20712919D01*
X161637139Y19865720D01*
X162675673Y20293837D01*
X163714206Y20721955D01*
X163995662Y22214934D01*
X164277118Y23707912D01*
X167384627Y23707912D01*
X167666083Y22214934D01*
G37*
X167666083Y22214934D02*
X167947539Y20721955D01*
X168986073Y20293837D01*
X170024606Y19865720D01*
X171270500Y20712919D01*
X171517090Y20879937D01*
X171843992Y21099166D01*
X172127019Y21286412D01*
X172351471Y21432062D01*
X172502651Y21526502D01*
X172565858Y21560118D01*
X172604678Y21536211D01*
X172720717Y21436039D01*
X172896324Y21271646D01*
X173116619Y21058127D01*
X173366722Y20810577D01*
X173631754Y20544091D01*
X173896835Y20273764D01*
X174147086Y20014692D01*
X174367628Y19781969D01*
X174543579Y19590690D01*
X174660062Y19455951D01*
X174702196Y19392846D01*
X174692394Y19365734D01*
X174624528Y19244794D01*
X174500597Y19045757D01*
X174330647Y18784228D01*
X174124727Y18475808D01*
X173892882Y18136098D01*
X173765648Y17950826D01*
X173546779Y17628276D01*
X173359132Y17346779D01*
X173212711Y17121601D01*
X173117522Y16968008D01*
X173083569Y16901264D01*
X173084126Y16897566D01*
X173114077Y16812958D01*
X173182788Y16640187D01*
X173280684Y16401823D01*
X173398184Y16120433D01*
X173525711Y15818589D01*
X173653688Y15518858D01*
X173772536Y15243809D01*
X173872676Y15016012D01*
X173944532Y14858036D01*
X173978524Y14792450D01*
X173998636Y14786633D01*
X174120837Y14760393D01*
X174338629Y14716924D01*
X174634581Y14659625D01*
X174991259Y14591892D01*
X175391230Y14517123D01*
X175602036Y14477481D01*
X175988957Y14401846D01*
X176327260Y14331995D01*
X176598454Y14271941D01*
X176784049Y14225694D01*
X176865554Y14197268D01*
X176880194Y14169087D01*
X176904479Y14031397D01*
X176923559Y13802070D01*
X176937449Y13502682D01*
X176946163Y13154811D01*
X176949716Y12780036D01*
X176948124Y12399934D01*
X176941400Y12036083D01*
X176929559Y11710062D01*
X176912617Y11443447D01*
X176890588Y11257817D01*
X176863487Y11174751D01*
X176847040Y11165381D01*
X176724386Y11125192D01*
X176511616Y11072018D01*
X176233323Y11011682D01*
X175914100Y10950006D01*
X175806392Y10930364D01*
X175308930Y10839009D01*
X174917969Y10765589D01*
X174619957Y10707060D01*
X174401341Y10660378D01*
X174248568Y10622498D01*
X174148087Y10590377D01*
X174086344Y10560969D01*
X174049788Y10531231D01*
X174045539Y10526240D01*
X173985758Y10422186D01*
X173897297Y10231788D01*
X173788728Y9977381D01*
X173668625Y9681303D01*
X173545562Y9365890D01*
X173428112Y9053478D01*
X173324849Y8766403D01*
X173244345Y8527003D01*
X173195175Y8357614D01*
X173185912Y8280571D01*
X173192106Y8270575D01*
X173256222Y8173903D01*
X173376798Y7995596D01*
X173542655Y7752079D01*
X173742613Y7459778D01*
X173965493Y7135119D01*
X174026661Y7045793D01*
X174241756Y6725389D01*
X174427645Y6438842D01*
X174573719Y6203145D01*
X174669367Y6035292D01*
X174703980Y5952276D01*
X174696521Y5930452D01*
X174618775Y5822907D01*
X174465387Y5647288D01*
X174247341Y5415416D01*
X173975621Y5139109D01*
X173661210Y4830187D01*
X173481498Y4657275D01*
X173197348Y4387970D01*
X172948642Y4157301D01*
X172748737Y3977410D01*
X172610986Y3860444D01*
X172548744Y3818545D01*
X172505980Y3834077D01*
X172374321Y3907549D01*
X172183121Y4027706D01*
X171957322Y4179333D01*
X171796778Y4289980D01*
X171476262Y4509712D01*
X171134233Y4743077D01*
X170821828Y4955135D01*
X170209842Y5369075D01*
X169696123Y5091312D01*
X169575158Y5027201D01*
X169355174Y4917539D01*
X169185056Y4841828D01*
X169094138Y4813598D01*
X169064384Y4849850D01*
X168990499Y4987883D01*
X168881368Y5215457D01*
X168743063Y5518132D01*
X168581656Y5881465D01*
X168403221Y6291012D01*
X168213829Y6732331D01*
X168019553Y7190981D01*
X167826465Y7652517D01*
X167640638Y8102499D01*
X167468144Y8526483D01*
X167315056Y8910027D01*
X167187446Y9238687D01*
X167091386Y9498023D01*
X167032949Y9673591D01*
X167018207Y9750948D01*
X167019206Y9753209D01*
X167087871Y9824720D01*
X167231496Y9936721D01*
X167420431Y10065987D01*
X167480067Y10105459D01*
X167933835Y10479928D01*
X168309382Y10925947D01*
X168597817Y11424950D01*
X168790248Y11958372D01*
X168877783Y12507647D01*
X168851532Y13054208D01*
X168745191Y13540336D01*
X168554256Y14031220D01*
X168275912Y14469153D01*
X167893933Y14885157D01*
X167743846Y15018054D01*
X167258644Y15345486D01*
X166734496Y15566004D01*
X166186590Y15681582D01*
X165630117Y15694195D01*
X165080266Y15605814D01*
X164552224Y15418415D01*
X164061182Y15133971D01*
X163622329Y14754455D01*
X163250854Y14281842D01*
X163179434Y14164802D01*
X162936681Y13629854D01*
X162807756Y13072798D01*
X162789283Y12508059D01*
X162877886Y11950066D01*
X163070188Y11413245D01*
X163362814Y10912024D01*
X163752387Y10460829D01*
X164235532Y10074089D01*
X164251221Y10063666D01*
X164438153Y9931937D01*
X164578258Y9819941D01*
X164642249Y9750948D01*
X164634175Y9696859D01*
X164583973Y9539367D01*
X164494958Y9295268D01*
X164373200Y8979008D01*
X164224768Y8605033D01*
X164055733Y8187789D01*
X163872165Y7741720D01*
X163680133Y7281274D01*
X163485708Y6820896D01*
X163294960Y6375032D01*
X163113959Y5958127D01*
X162948775Y5584627D01*
X162805478Y5268979D01*
X162690137Y5025627D01*
X162608824Y4869019D01*
X162567607Y4813598D01*
X162533331Y4821105D01*
X162398674Y4875049D01*
X162199660Y4969630D01*
X161965623Y5091312D01*
X161451903Y5369075D01*
X160839917Y4955135D01*
X160659112Y4832562D01*
X160322813Y4603540D01*
X159987537Y4374150D01*
X159704423Y4179333D01*
X159548175Y4073161D01*
X159345096Y3941252D01*
X159194521Y3850952D01*
X159120976Y3817471D01*
X159089380Y3831686D01*
X158975166Y3918750D01*
X158799094Y4072040D01*
X158576490Y4276478D01*
X158322678Y4516986D01*
X158052985Y4778485D01*
X157782736Y5045899D01*
X157527257Y5304150D01*
X157301873Y5538159D01*
X157121910Y5732849D01*
X157002694Y5873141D01*
X156959549Y5943959D01*
X156962036Y5957433D01*
X157013387Y6067104D01*
X157123085Y6256847D01*
X157280528Y6509523D01*
X157475118Y6807994D01*
X157696253Y7135119D01*
X157758272Y7225350D01*
X157976045Y7542863D01*
X158167867Y7823568D01*
X158322558Y8051038D01*
X158428940Y8208848D01*
X158475833Y8280571D01*
X158476987Y8283645D01*
X158463147Y8371394D01*
X158410298Y8549154D01*
X158327012Y8794588D01*
X158221862Y9085359D01*
X158103424Y9399131D01*
X157980269Y9713568D01*
X157860971Y10006333D01*
X157754105Y10255089D01*
X157668242Y10437501D01*
X157611957Y10531231D01*
X157606319Y10537050D01*
X157566019Y10566491D01*
X157497957Y10596180D01*
X157388581Y10629161D01*
X157224337Y10668479D01*
X156991675Y10717179D01*
X156677040Y10778303D01*
X156266881Y10854898D01*
X155747645Y10950006D01*
X155639951Y10970024D01*
X155331442Y11031902D01*
X155071928Y11090530D01*
X154886002Y11140087D01*
X154798258Y11174751D01*
X154783579Y11203671D01*
X154759105Y11342589D01*
X154739711Y11572887D01*
X154725411Y11872986D01*
X154716221Y12221308D01*
X154712155Y12596275D01*
X154713227Y12976310D01*
X154719454Y13339834D01*
X154730849Y13665270D01*
X154747427Y13931039D01*
X154769203Y14115565D01*
X154796191Y14197268D01*
X154823747Y14209339D01*
X154960826Y14247385D01*
X155192532Y14301198D01*
X155500376Y14366767D01*
X155865868Y14440079D01*
X156270515Y14517123D01*
X156491459Y14558286D01*
X156870147Y14629666D01*
X157196100Y14692170D01*
X157451885Y14742400D01*
X157620070Y14776959D01*
X157683221Y14792450D01*
X157685595Y14795643D01*
X157725814Y14876772D01*
X157802485Y15046734D01*
X157906025Y15282978D01*
X158026852Y15562954D01*
X158155383Y15864113D01*
X158282034Y16163904D01*
X158397221Y16439777D01*
X158491363Y16669181D01*
X158554876Y16829567D01*
X158578177Y16898384D01*
X158567898Y16922598D01*
X158499498Y17037819D01*
X158375425Y17231763D01*
X158205648Y17489211D01*
X158000137Y17794946D01*
X157768863Y18133748D01*
X157641978Y18319291D01*
X157423007Y18644592D01*
X157235265Y18930084D01*
X157088766Y19160199D01*
X156993522Y19319368D01*
X156959549Y19392021D01*
X156983155Y19431430D01*
X157081899Y19549186D01*
X157243895Y19727397D01*
X157454271Y19950963D01*
X157698158Y20204783D01*
X157960685Y20473755D01*
X158226981Y20742778D01*
X158482175Y20996750D01*
X158711399Y21220572D01*
X158899779Y21399141D01*
X159032448Y21517357D01*
X159094533Y21560118D01*
X159128996Y21543492D01*
X159255544Y21466383D01*
X159459761Y21335155D01*
X159726929Y21159425D01*
X160042330Y20948807D01*
X160391245Y20712919D01*
X161637139Y19865720D01*
X162675673Y20293837D01*
X163714206Y20721955D01*
X163995662Y22214934D01*
X164277118Y23707912D01*
X167384627Y23707912D01*
X167666083Y22214934D01*
%TD*%
M02*
